<svg width="19" height="25" viewBox="0 0 19 25" fill="none" xmlns="http://www.w3.org/2000/svg">
<path d="M18.2776 0H0.723254C0.435623 0 0.203125 0.233018 0.203125 0.520129V24.4799C0.203125 24.6884 0.327436 24.8767 0.519363 24.9584C0.711291 25.0401 0.933906 24.999 1.0837 24.8544L9.50043 16.7497L17.9172 24.8544C18.0155 24.9495 18.1455 25 18.2776 25C18.3463 25 18.416 24.9865 18.4815 24.9584C18.6734 24.8767 18.7977 24.6879 18.7977 24.4799V0.520129C18.7977 0.233018 18.5647 0 18.2776 0ZM17.7575 23.257L9.86088 15.6533C9.7605 15.556 9.63046 15.5076 9.50043 15.5076C9.3704 15.5076 9.24037 15.556 9.13998 15.6533L1.24338 23.257V1.04026H17.7575V23.257Z" fill="#161920"/>
</svg>
