<svg width="26" height="26" viewBox="0 0 26 26" fill="none" xmlns="http://www.w3.org/2000/svg">
<g clip-path="url(#clip0_31_817)">
<path d="M18.8247 0H7.17486C3.21865 0 0 3.2188 0 7.17502V18.8248C0 22.7812 3.21865 25.9998 7.17486 25.9998H18.8247C22.7812 25.9998 25.9998 22.781 25.9998 18.8248V7.17502C26 3.2188 22.7812 0 18.8247 0ZM23.6932 18.8248C23.6932 21.5092 21.5092 23.693 18.8248 23.693H7.17486C4.49063 23.6932 2.30683 21.5092 2.30683 18.8248V7.17502C2.30683 4.49079 4.49063 2.30683 7.17486 2.30683H18.8247C21.5091 2.30683 23.693 4.49079 23.693 7.17502V18.8248H23.6932Z" fill="#FEFEFE"/>
<path d="M12.9993 6.30054C9.30515 6.30054 6.2998 9.30588 6.2998 13C6.2998 16.694 9.30515 19.6992 12.9993 19.6992C16.6935 19.6992 19.6988 16.694 19.6988 13C19.6988 9.30588 16.6935 6.30054 12.9993 6.30054ZM12.9993 17.3922C10.5773 17.3922 8.60664 15.4219 8.60664 12.9999C8.60664 10.5777 10.5771 8.60722 12.9993 8.60722C15.4215 8.60722 17.392 10.5777 17.392 12.9999C17.392 15.4219 15.4213 17.3922 12.9993 17.3922Z" fill="#FEFEFE"/>
<path d="M19.9807 4.34473C19.5363 4.34473 19.0997 4.52466 18.7858 4.83993C18.4704 5.15366 18.2891 5.59042 18.2891 6.0364C18.2891 6.48101 18.4705 6.91761 18.7858 7.23288C19.0995 7.54661 19.5363 7.72808 19.9807 7.72808C20.4267 7.72808 20.8619 7.54661 21.1772 7.23288C21.4925 6.91761 21.6724 6.48085 21.6724 6.0364C21.6724 5.59042 21.4925 5.15366 21.1772 4.83993C20.8635 4.52466 20.4267 4.34473 19.9807 4.34473Z" fill="#FEFEFE"/>
</g>
<defs>
<clipPath id="clip0_31_817">
<rect width="26" height="26" fill="white"/>
</clipPath>
</defs>
</svg>
