<svg width="26" height="26" viewBox="0 0 26 26" fill="none" xmlns="http://www.w3.org/2000/svg">
<path d="M18.8247 0H7.17486C3.21865 0 0 3.2188 0 7.17502V18.8248C0 22.7812 3.21865 25.9998 7.17486 25.9998H18.8247C22.7812 25.9998 25.9998 22.781 25.9998 18.8248V7.17502C26 3.2188 22.7812 0 18.8247 0ZM23.6932 18.8248C23.6932 21.5092 21.5092 23.693 18.8248 23.693H7.17486C4.49063 23.6932 2.30683 21.5092 2.30683 18.8248V7.17502C2.30683 4.49079 4.49063 2.30683 7.17486 2.30683H18.8247C21.5091 2.30683 23.693 4.49079 23.693 7.17502V18.8248H23.6932Z" fill="#FEFEFE"/>
<g clip-path="url(#clip0_38_65)">
<path d="M10.9377 14.923L10.6631 18.7843C11.0559 18.7843 11.226 18.6156 11.43 18.413L13.2714 16.6531L17.0871 19.4474C17.7869 19.8374 18.2799 19.6321 18.4687 18.8037L20.9732 7.06771L20.9739 7.06702C21.1959 6.03255 20.5998 5.62803 19.918 5.88181L5.19622 11.5181C4.19149 11.9081 4.2067 12.4682 5.02543 12.722L8.7892 13.8927L17.5317 8.42234C17.9431 8.14989 18.3172 8.30064 18.0095 8.57308L10.9377 14.923Z" fill="#FEFEFE"/>
</g>
<defs>
<clipPath id="clip0_38_65">
<rect width="16.5957" height="16.5957" fill="white" transform="translate(4.42578 4.42554)"/>
</clipPath>
</defs>
</svg>
