<svg width="60" height="60" viewBox="0 0 60 60" fill="none" xmlns="http://www.w3.org/2000/svg">
<path d="M58.9998 21.9999H38.7838C36.6706 19.3957 34.014 17.2844 30.9999 15.8139V11.5L34.5999 8.79996C34.8516 8.61109 34.9999 8.31472 34.9999 7.99997V0.999996C34.9999 0.447748 34.5521 0 33.9999 0H29.9999C29.7346 0 29.4804 0.1055 29.2929 0.292999L27.9999 1.58599L26.7069 0.292999C26.5194 0.1055 26.2651 0 25.9999 0H19.9999C19.7347 0 19.4804 0.1055 19.2929 0.292999L17.9999 1.58599L16.7069 0.292999C16.5194 0.1055 16.2652 0 15.9999 0H12C11.4477 0 11 0.447748 11 0.999996V7.99997C11 8.31472 11.1482 8.61109 11.4 8.79996L14.9999 11.5V15.8239C7.42997 19.4869 0 29.3259 0 41.9448C0 53.4188 8.38297 59.9997 22.9999 59.9997C25.3725 60.0083 27.7409 59.798 30.0749 59.3718C30.2265 59.75 30.5924 59.9984 30.9999 59.9997H58.9998C59.552 59.9997 59.9997 59.552 59.9997 58.9998V22.9999C59.9997 22.4477 59.552 21.9999 58.9998 21.9999ZM12.9999 7.49997V1.99999H15.5859L17.2929 3.70698C17.6834 4.09736 18.3164 4.09736 18.7069 3.70698L20.4139 1.99999H25.5859L27.2929 3.70698C27.6834 4.09736 28.3164 4.09736 28.7069 3.70698L30.4139 1.99999H32.9999V7.49997L29.6669 9.99996H16.3329L12.9999 7.49997ZM28.9999 12V14.9999H16.9999V12H28.9999ZM29.9999 46.4728C25.3206 50.3473 18.3865 49.695 14.5119 45.0158C10.6375 40.3366 11.2897 33.4025 15.9689 29.5279C20.0388 26.1579 25.9299 26.1579 29.9997 29.5279V46.4728H29.9999ZM29.9999 22.9999V27.0569C23.9565 23.1807 15.9151 24.9374 12.0388 30.9807C8.16259 37.0241 9.91933 45.0656 15.9627 48.9418C20.2397 51.6852 25.723 51.6852 30 48.9418V57.3518C27.693 57.793 25.3488 58.01 23 57.9998C16.6861 57.9998 2.00012 56.4358 2.00012 41.9448C2.00012 32.3779 7.73409 20.4739 17.3341 16.9999H28.673C31.5017 18.0737 34.0451 19.7845 36.106 21.9999H31C30.4476 21.9999 29.9999 22.4477 29.9999 22.9999ZM57.9998 57.9998H31.9999V31.9999H57.9998V57.9998ZM57.9998 29.9999H31.9999V23.9999H57.9998V29.9999Z" fill="black"/>
<path d="M58.9998 21.9999H38.7838C36.6706 19.3957 34.014 17.2844 30.9999 15.8139V11.5L34.5999 8.79996C34.8516 8.61109 34.9999 8.31472 34.9999 7.99997V0.999996C34.9999 0.447748 34.5521 0 33.9999 0H29.9999C29.7346 0 29.4804 0.1055 29.2929 0.292999L27.9999 1.58599L26.7069 0.292999C26.5194 0.1055 26.2651 0 25.9999 0H19.9999C19.7347 0 19.4804 0.1055 19.2929 0.292999L17.9999 1.58599L16.7069 0.292999C16.5194 0.1055 16.2652 0 15.9999 0H12C11.4477 0 11 0.447748 11 0.999996V7.99997C11 8.31472 11.1482 8.61109 11.4 8.79996L14.9999 11.5V15.8239C7.42997 19.4869 0 29.3259 0 41.9448C0 53.4188 8.38297 59.9997 22.9999 59.9997C25.3725 60.0083 27.7409 59.798 30.0749 59.3718C30.2265 59.75 30.5924 59.9984 30.9999 59.9997H58.9998C59.552 59.9997 59.9997 59.552 59.9997 58.9998V22.9999C59.9997 22.4477 59.552 21.9999 58.9998 21.9999ZM12.9999 7.49997V1.99999H15.5859L17.2929 3.70698C17.6834 4.09736 18.3164 4.09736 18.7069 3.70698L20.4139 1.99999H25.5859L27.2929 3.70698C27.6834 4.09736 28.3164 4.09736 28.7069 3.70698L30.4139 1.99999H32.9999V7.49997L29.6669 9.99996H16.3329L12.9999 7.49997ZM28.9999 12V14.9999H16.9999V12H28.9999ZM29.9999 46.4728C25.3206 50.3473 18.3865 49.695 14.5119 45.0158C10.6375 40.3366 11.2897 33.4025 15.9689 29.5279C20.0388 26.1579 25.9299 26.1579 29.9997 29.5279V46.4728H29.9999ZM29.9999 22.9999V27.0569C23.9565 23.1807 15.9151 24.9374 12.0388 30.9807C8.16259 37.0241 9.91933 45.0656 15.9627 48.9418C20.2397 51.6852 25.723 51.6852 30 48.9418V57.3518C27.693 57.793 25.3488 58.01 23 57.9998C16.6861 57.9998 2.00012 56.4358 2.00012 41.9448C2.00012 32.3779 7.73409 20.4739 17.3341 16.9999H28.673C31.5017 18.0737 34.0451 19.7845 36.106 21.9999H31C30.4476 21.9999 29.9999 22.4477 29.9999 22.9999ZM57.9998 57.9998H31.9999V31.9999H57.9998V57.9998ZM57.9998 29.9999H31.9999V23.9999H57.9998V29.9999Z" fill="url(#paint0_linear_31_11102)"/>
<defs>
<linearGradient id="paint0_linear_31_11102" x1="29.9859" y1="0.000354122" x2="29.9859" y2="59.9724" gradientUnits="userSpaceOnUse">
<stop stop-color="#FD8D2A"/>
<stop offset="1" stop-color="#FD2549"/>
</linearGradient>
</defs>
</svg>
