<svg width="60" height="60" viewBox="0 0 60 60" fill="none" xmlns="http://www.w3.org/2000/svg">
<g filter="url(#filter0_i_31_11137)">
<path d="M19.6875 37.5C22.7069 37.5034 25.677 36.7344 28.3153 35.2662L32.1496 39.1004C32.2366 39.1875 32.34 39.2565 32.4537 39.3037C32.5675 39.3508 32.6894 39.375 32.8125 39.375C32.9356 39.375 33.0575 39.3508 33.1713 39.3037C33.285 39.2565 33.3884 39.1875 33.4754 39.1004L33.645 38.9309L50.8622 56.8371C51.2546 57.2434 51.7247 57.5668 52.2444 57.788C52.7642 58.0092 53.3231 58.1238 53.888 58.125H53.9275C54.772 58.1251 55.5969 57.8704 56.2944 57.3943C56.992 56.9181 57.5296 56.2426 57.8372 55.4561C58.1448 54.6696 58.208 53.8085 58.0185 52.9855C57.829 52.1625 57.3957 51.4158 56.7751 50.843L38.5528 34.0229L39.1004 33.4754C39.1875 33.3884 39.2565 33.285 39.3037 33.1713C39.3508 33.0575 39.375 32.9356 39.375 32.8125C39.375 32.6894 39.3508 32.5675 39.3037 32.4537C39.2565 32.34 39.1875 32.2366 39.1004 32.1496L35.2662 28.3153C36.2713 26.5093 36.952 24.5411 37.2773 22.5H43.125V27.1875C43.125 27.4361 43.2238 27.6746 43.3996 27.8504C43.5754 28.0262 43.8139 28.125 44.0625 28.125H47.8125C48.0611 28.125 48.2996 28.0262 48.4754 27.8504C48.6512 27.6746 48.75 27.4361 48.75 27.1875V26.25H50.625V27.1875C50.625 27.4361 50.7238 27.6746 50.8996 27.8504C51.0754 28.0262 51.3139 28.125 51.5625 28.125H55.3125C55.5611 28.125 55.7996 28.0262 55.9754 27.8504C56.1512 27.6746 56.25 27.4361 56.25 27.1875V22.3387C56.8752 22.1174 57.4021 21.6822 57.7376 21.11C58.0731 20.5379 58.1955 19.8656 58.0834 19.2119C57.9712 18.5582 57.6316 17.9651 57.1246 17.5375C56.6176 17.1099 55.9758 16.8753 55.3125 16.875H37.2773C35.9248 8.38488 28.5525 1.875 19.6875 1.875C9.86566 1.875 1.875 9.86566 1.875 19.6875C1.875 29.5093 9.86566 37.5 19.6875 37.5ZM55.5027 52.2207C55.8461 52.5377 56.0859 52.9508 56.1908 53.4062C56.2956 53.8615 56.2607 54.3379 56.0906 54.7731C55.9204 55.2083 55.623 55.5821 55.2371 55.8456C54.8512 56.1091 54.3947 56.25 53.9275 56.25H53.888C53.5754 56.2494 53.2661 56.1859 52.9786 56.0635C52.691 55.941 52.4309 55.762 52.2138 55.5371L34.971 37.6048L37.226 35.3498L55.5027 52.2207ZM37.1118 32.8125L32.8125 37.1118L29.9438 34.2429C31.6107 33.0645 33.0645 31.6107 34.2429 29.9438L37.1118 32.8125ZM54.375 26.25H52.5V25.3125C52.5 25.0639 52.4012 24.8254 52.2254 24.6496C52.0496 24.4738 51.8111 24.375 51.5625 24.375H47.8125C47.5639 24.375 47.3254 24.4738 47.1496 24.6496C46.9738 24.8254 46.875 25.0639 46.875 25.3125V26.25H45V22.5H54.375V26.25ZM55.3125 18.75C55.5611 18.75 55.7996 18.8488 55.9754 19.0246C56.1512 19.2004 56.25 19.4389 56.25 19.6875C56.25 19.9361 56.1512 20.1746 55.9754 20.3504C55.7996 20.5262 55.5611 20.625 55.3125 20.625H37.4754C37.4916 20.3145 37.4998 20.002 37.5 19.6875C37.5002 19.373 37.492 19.0605 37.4754 18.75H55.3125ZM19.6875 3.75C28.4754 3.75 35.625 10.8995 35.625 19.6875C35.625 28.4755 28.4754 35.625 19.6875 35.625C10.8996 35.625 3.75 28.4755 3.75 19.6875C3.75 10.8995 10.8996 3.75 19.6875 3.75Z" fill="black"/>
<path d="M19.6875 37.5C22.7069 37.5034 25.677 36.7344 28.3153 35.2662L32.1496 39.1004C32.2366 39.1875 32.34 39.2565 32.4537 39.3037C32.5675 39.3508 32.6894 39.375 32.8125 39.375C32.9356 39.375 33.0575 39.3508 33.1713 39.3037C33.285 39.2565 33.3884 39.1875 33.4754 39.1004L33.645 38.9309L50.8622 56.8371C51.2546 57.2434 51.7247 57.5668 52.2444 57.788C52.7642 58.0092 53.3231 58.1238 53.888 58.125H53.9275C54.772 58.1251 55.5969 57.8704 56.2944 57.3943C56.992 56.9181 57.5296 56.2426 57.8372 55.4561C58.1448 54.6696 58.208 53.8085 58.0185 52.9855C57.829 52.1625 57.3957 51.4158 56.7751 50.843L38.5528 34.0229L39.1004 33.4754C39.1875 33.3884 39.2565 33.285 39.3037 33.1713C39.3508 33.0575 39.375 32.9356 39.375 32.8125C39.375 32.6894 39.3508 32.5675 39.3037 32.4537C39.2565 32.34 39.1875 32.2366 39.1004 32.1496L35.2662 28.3153C36.2713 26.5093 36.952 24.5411 37.2773 22.5H43.125V27.1875C43.125 27.4361 43.2238 27.6746 43.3996 27.8504C43.5754 28.0262 43.8139 28.125 44.0625 28.125H47.8125C48.0611 28.125 48.2996 28.0262 48.4754 27.8504C48.6512 27.6746 48.75 27.4361 48.75 27.1875V26.25H50.625V27.1875C50.625 27.4361 50.7238 27.6746 50.8996 27.8504C51.0754 28.0262 51.3139 28.125 51.5625 28.125H55.3125C55.5611 28.125 55.7996 28.0262 55.9754 27.8504C56.1512 27.6746 56.25 27.4361 56.25 27.1875V22.3387C56.8752 22.1174 57.4021 21.6822 57.7376 21.11C58.0731 20.5379 58.1955 19.8656 58.0834 19.2119C57.9712 18.5582 57.6316 17.9651 57.1246 17.5375C56.6176 17.1099 55.9758 16.8753 55.3125 16.875H37.2773C35.9248 8.38488 28.5525 1.875 19.6875 1.875C9.86566 1.875 1.875 9.86566 1.875 19.6875C1.875 29.5093 9.86566 37.5 19.6875 37.5ZM55.5027 52.2207C55.8461 52.5377 56.0859 52.9508 56.1908 53.4062C56.2956 53.8615 56.2607 54.3379 56.0906 54.7731C55.9204 55.2083 55.623 55.5821 55.2371 55.8456C54.8512 56.1091 54.3947 56.25 53.9275 56.25H53.888C53.5754 56.2494 53.2661 56.1859 52.9786 56.0635C52.691 55.941 52.4309 55.762 52.2138 55.5371L34.971 37.6048L37.226 35.3498L55.5027 52.2207ZM37.1118 32.8125L32.8125 37.1118L29.9438 34.2429C31.6107 33.0645 33.0645 31.6107 34.2429 29.9438L37.1118 32.8125ZM54.375 26.25H52.5V25.3125C52.5 25.0639 52.4012 24.8254 52.2254 24.6496C52.0496 24.4738 51.8111 24.375 51.5625 24.375H47.8125C47.5639 24.375 47.3254 24.4738 47.1496 24.6496C46.9738 24.8254 46.875 25.0639 46.875 25.3125V26.25H45V22.5H54.375V26.25ZM55.3125 18.75C55.5611 18.75 55.7996 18.8488 55.9754 19.0246C56.1512 19.2004 56.25 19.4389 56.25 19.6875C56.25 19.9361 56.1512 20.1746 55.9754 20.3504C55.7996 20.5262 55.5611 20.625 55.3125 20.625H37.4754C37.4916 20.3145 37.4998 20.002 37.5 19.6875C37.5002 19.373 37.492 19.0605 37.4754 18.75H55.3125ZM19.6875 3.75C28.4754 3.75 35.625 10.8995 35.625 19.6875C35.625 28.4755 28.4754 35.625 19.6875 35.625C10.8996 35.625 3.75 28.4755 3.75 19.6875C3.75 10.8995 10.8996 3.75 19.6875 3.75Z" fill="url(#paint0_linear_31_11137)"/>
<path d="M19.6875 33.75C22.4688 33.75 25.1876 32.9252 27.5002 31.38C29.8128 29.8348 31.6152 27.6386 32.6796 25.069C33.7439 22.4994 34.0224 19.6719 33.4798 16.944C32.9372 14.2162 31.5979 11.7105 29.6312 9.74382C27.6645 7.77714 25.1588 6.43782 22.431 5.89521C19.7031 5.35261 16.8756 5.63109 14.306 6.69545C11.7364 7.75981 9.54017 9.56223 7.99496 11.8748C6.44975 14.1874 5.625 16.9062 5.625 19.6875C5.62922 23.4158 7.11215 26.9902 9.74847 29.6265C12.3848 32.2628 15.9592 33.7458 19.6875 33.75ZM19.6875 7.50001C22.098 7.50001 24.4543 8.21479 26.4585 9.55397C28.4627 10.8931 30.0248 12.7966 30.9473 15.0235C31.8697 17.2505 32.1111 19.701 31.6408 22.0652C31.1706 24.4293 30.0098 26.6009 28.3054 28.3054C26.6009 30.0098 24.4293 31.1706 22.0652 31.6408C19.701 32.1111 17.2505 31.8697 15.0235 30.9473C12.7966 30.0248 10.8931 28.4627 9.55396 26.4585C8.21478 24.4543 7.5 22.098 7.5 19.6875C7.50366 16.4563 8.78887 13.3585 11.0737 11.0737C13.3585 8.78888 16.4563 7.50367 19.6875 7.50001Z" fill="black"/>
<path d="M19.6875 33.75C22.4688 33.75 25.1876 32.9252 27.5002 31.38C29.8128 29.8348 31.6152 27.6386 32.6796 25.069C33.7439 22.4994 34.0224 19.6719 33.4798 16.944C32.9372 14.2162 31.5979 11.7105 29.6312 9.74382C27.6645 7.77714 25.1588 6.43782 22.431 5.89521C19.7031 5.35261 16.8756 5.63109 14.306 6.69545C11.7364 7.75981 9.54017 9.56223 7.99496 11.8748C6.44975 14.1874 5.625 16.9062 5.625 19.6875C5.62922 23.4158 7.11215 26.9902 9.74847 29.6265C12.3848 32.2628 15.9592 33.7458 19.6875 33.75ZM19.6875 7.50001C22.098 7.50001 24.4543 8.21479 26.4585 9.55397C28.4627 10.8931 30.0248 12.7966 30.9473 15.0235C31.8697 17.2505 32.1111 19.701 31.6408 22.0652C31.1706 24.4293 30.0098 26.6009 28.3054 28.3054C26.6009 30.0098 24.4293 31.1706 22.0652 31.6408C19.701 32.1111 17.2505 31.8697 15.0235 30.9473C12.7966 30.0248 10.8931 28.4627 9.55396 26.4585C8.21478 24.4543 7.5 22.098 7.5 19.6875C7.50366 16.4563 8.78887 13.3585 11.0737 11.0737C13.3585 8.78888 16.4563 7.50367 19.6875 7.50001Z" fill="url(#paint1_linear_31_11137)"/>
<path d="M13.2 25.2124C13.3975 26.2921 13.9671 27.2685 14.8098 27.9719C15.6524 28.6752 16.7149 29.0611 17.8125 29.0625C18.0611 29.0625 18.2996 28.9637 18.4754 28.7879C18.6512 28.6121 18.75 28.3736 18.75 28.125V25.3125H25.3125C26.3067 25.3114 27.2599 24.9159 27.9629 24.2129C28.6659 23.5099 29.0614 22.5567 29.0625 21.5625V15.9375C29.0614 14.9433 28.6659 13.9901 27.9629 13.2871C27.2599 12.5841 26.3067 12.1886 25.3125 12.1875H14.0625C13.0683 12.1886 12.1151 12.5841 11.4121 13.2871C10.7091 13.9901 10.3136 14.9433 10.3125 15.9375V21.5625C10.3136 22.4069 10.5991 23.2263 11.1229 23.8885C11.6468 24.5507 12.3785 25.0171 13.2 25.2124ZM12.1875 15.9375C12.1881 15.4404 12.3858 14.9638 12.7373 14.6123C13.0888 14.2608 13.5654 14.0631 14.0625 14.0625H25.3125C25.8096 14.0631 26.2862 14.2608 26.6377 14.6123C26.9892 14.9638 27.1869 15.4404 27.1875 15.9375V21.5625C27.1869 22.0596 26.9892 22.5362 26.6377 22.8877C26.2862 23.2392 25.8096 23.4369 25.3125 23.4375H17.8125C17.5639 23.4375 17.3254 23.5363 17.1496 23.7121C16.9738 23.8879 16.875 24.1264 16.875 24.375V27.0268C16.327 26.8323 15.8526 26.4731 15.517 25.9983C15.1813 25.5235 15.0007 24.9565 15 24.375C15 24.1264 14.9012 23.8879 14.7254 23.7121C14.5496 23.5363 14.3111 23.4375 14.0625 23.4375C13.5654 23.4369 13.0888 23.2392 12.7373 22.8877C12.3858 22.5362 12.1881 22.0596 12.1875 21.5625V15.9375Z" fill="black"/>
<path d="M13.2 25.2124C13.3975 26.2921 13.9671 27.2685 14.8098 27.9719C15.6524 28.6752 16.7149 29.0611 17.8125 29.0625C18.0611 29.0625 18.2996 28.9637 18.4754 28.7879C18.6512 28.6121 18.75 28.3736 18.75 28.125V25.3125H25.3125C26.3067 25.3114 27.2599 24.9159 27.9629 24.2129C28.6659 23.5099 29.0614 22.5567 29.0625 21.5625V15.9375C29.0614 14.9433 28.6659 13.9901 27.9629 13.2871C27.2599 12.5841 26.3067 12.1886 25.3125 12.1875H14.0625C13.0683 12.1886 12.1151 12.5841 11.4121 13.2871C10.7091 13.9901 10.3136 14.9433 10.3125 15.9375V21.5625C10.3136 22.4069 10.5991 23.2263 11.1229 23.8885C11.6468 24.5507 12.3785 25.0171 13.2 25.2124ZM12.1875 15.9375C12.1881 15.4404 12.3858 14.9638 12.7373 14.6123C13.0888 14.2608 13.5654 14.0631 14.0625 14.0625H25.3125C25.8096 14.0631 26.2862 14.2608 26.6377 14.6123C26.9892 14.9638 27.1869 15.4404 27.1875 15.9375V21.5625C27.1869 22.0596 26.9892 22.5362 26.6377 22.8877C26.2862 23.2392 25.8096 23.4369 25.3125 23.4375H17.8125C17.5639 23.4375 17.3254 23.5363 17.1496 23.7121C16.9738 23.8879 16.875 24.1264 16.875 24.375V27.0268C16.327 26.8323 15.8526 26.4731 15.517 25.9983C15.1813 25.5235 15.0007 24.9565 15 24.375C15 24.1264 14.9012 23.8879 14.7254 23.7121C14.5496 23.5363 14.3111 23.4375 14.0625 23.4375C13.5654 23.4369 13.0888 23.2392 12.7373 22.8877C12.3858 22.5362 12.1881 22.0596 12.1875 21.5625V15.9375Z" fill="url(#paint2_linear_31_11137)"/>
<path d="M15.9375 19.6875C16.4553 19.6875 16.875 19.2678 16.875 18.75C16.875 18.2322 16.4553 17.8125 15.9375 17.8125C15.4197 17.8125 15 18.2322 15 18.75C15 19.2678 15.4197 19.6875 15.9375 19.6875Z" fill="black"/>
<path d="M15.9375 19.6875C16.4553 19.6875 16.875 19.2678 16.875 18.75C16.875 18.2322 16.4553 17.8125 15.9375 17.8125C15.4197 17.8125 15 18.2322 15 18.75C15 19.2678 15.4197 19.6875 15.9375 19.6875Z" fill="url(#paint3_linear_31_11137)"/>
<path d="M19.6875 19.6875C20.2053 19.6875 20.625 19.2678 20.625 18.75C20.625 18.2322 20.2053 17.8125 19.6875 17.8125C19.1697 17.8125 18.75 18.2322 18.75 18.75C18.75 19.2678 19.1697 19.6875 19.6875 19.6875Z" fill="black"/>
<path d="M19.6875 19.6875C20.2053 19.6875 20.625 19.2678 20.625 18.75C20.625 18.2322 20.2053 17.8125 19.6875 17.8125C19.1697 17.8125 18.75 18.2322 18.75 18.75C18.75 19.2678 19.1697 19.6875 19.6875 19.6875Z" fill="url(#paint4_linear_31_11137)"/>
<path d="M23.4375 19.6875C23.9553 19.6875 24.375 19.2678 24.375 18.75C24.375 18.2322 23.9553 17.8125 23.4375 17.8125C22.9197 17.8125 22.5 18.2322 22.5 18.75C22.5 19.2678 22.9197 19.6875 23.4375 19.6875Z" fill="black"/>
<path d="M23.4375 19.6875C23.9553 19.6875 24.375 19.2678 24.375 18.75C24.375 18.2322 23.9553 17.8125 23.4375 17.8125C22.9197 17.8125 22.5 18.2322 22.5 18.75C22.5 19.2678 22.9197 19.6875 23.4375 19.6875Z" fill="url(#paint5_linear_31_11137)"/>
</g>
<defs>
<filter id="filter0_i_31_11137" x="0" y="0" width="60" height="64" filterUnits="userSpaceOnUse" color-interpolation-filters="sRGB">
<feFlood flood-opacity="0" result="BackgroundImageFix"/>
<feBlend mode="normal" in="SourceGraphic" in2="BackgroundImageFix" result="shape"/>
<feColorMatrix in="SourceAlpha" type="matrix" values="0 0 0 0 0 0 0 0 0 0 0 0 0 0 0 0 0 0 127 0" result="hardAlpha"/>
<feOffset dy="4"/>
<feGaussianBlur stdDeviation="2"/>
<feComposite in2="hardAlpha" operator="arithmetic" k2="-1" k3="1"/>
<feColorMatrix type="matrix" values="0 0 0 0 0 0 0 0 0 0 0 0 0 0 0 0 0 0 0.25 0"/>
<feBlend mode="normal" in2="shape" result="effect1_innerShadow_31_11137"/>
</filter>
<linearGradient id="paint0_linear_31_11137" x1="29.9872" y1="1.87533" x2="29.9872" y2="58.0992" gradientUnits="userSpaceOnUse">
<stop stop-color="#FD8D2A"/>
<stop offset="1" stop-color="#FD2549"/>
</linearGradient>
<linearGradient id="paint1_linear_31_11137" x1="19.681" y1="5.62517" x2="19.681" y2="33.7371" gradientUnits="userSpaceOnUse">
<stop stop-color="#FD8D2A"/>
<stop offset="1" stop-color="#FD2549"/>
</linearGradient>
<linearGradient id="paint2_linear_31_11137" x1="19.6831" y1="12.1876" x2="19.6831" y2="29.0547" gradientUnits="userSpaceOnUse">
<stop stop-color="#FD8D2A"/>
<stop offset="1" stop-color="#FD2549"/>
</linearGradient>
<linearGradient id="paint3_linear_31_11137" x1="15.9371" y1="17.8125" x2="15.9371" y2="19.6866" gradientUnits="userSpaceOnUse">
<stop stop-color="#FD8D2A"/>
<stop offset="1" stop-color="#FD2549"/>
</linearGradient>
<linearGradient id="paint4_linear_31_11137" x1="19.6871" y1="17.8125" x2="19.6871" y2="19.6866" gradientUnits="userSpaceOnUse">
<stop stop-color="#FD8D2A"/>
<stop offset="1" stop-color="#FD2549"/>
</linearGradient>
<linearGradient id="paint5_linear_31_11137" x1="23.4371" y1="17.8125" x2="23.4371" y2="19.6866" gradientUnits="userSpaceOnUse">
<stop stop-color="#FD8D2A"/>
<stop offset="1" stop-color="#FD2549"/>
</linearGradient>
</defs>
</svg>
