<svg width="60" height="60" viewBox="0 0 60 60" fill="none" xmlns="http://www.w3.org/2000/svg">
<g clip-path="url(#clip0_31_10842)" filter="url(#filter0_i_31_10842)">
<path d="M56.7536 0H3.24645C1.45641 0 0 1.45641 0 3.24645V18C0 18.4855 0.514492 17.5 1 17.5C1.48551 17.5 1.75781 19.4855 1.75781 19V8.86043H58.2422V28.7472C58.2422 29.2328 58.5145 28.5 59 28.5C59.4855 28.5 60 29.7357 60 29.2501V3.24645C60 1.45641 58.5436 0 56.7536 0ZM1.75781 7.10262V3.24645C1.75781 2.42555 2.42555 1.75781 3.24645 1.75781H56.7536C57.5745 1.75781 58.2422 2.42555 58.2422 3.24645V7.10262H1.75781Z" fill="black"/>
<path d="M56.7536 0H3.24645C1.45641 0 0 1.45641 0 3.24645V18C0 18.4855 0.514492 17.5 1 17.5C1.48551 17.5 1.75781 19.4855 1.75781 19V8.86043H58.2422V28.7472C58.2422 29.2328 58.5145 28.5 59 28.5C59.4855 28.5 60 29.7357 60 29.2501V3.24645C60 1.45641 58.5436 0 56.7536 0ZM1.75781 7.10262V3.24645C1.75781 2.42555 2.42555 1.75781 3.24645 1.75781H56.7536C57.5745 1.75781 58.2422 2.42555 58.2422 3.24645V7.10262H1.75781Z" fill="url(#paint0_linear_31_10842)"/>
<path d="M59.1211 27.7316C58.6356 27.7316 58.2422 28.125 58.2422 28.6105V56.7536C58.2422 57.5745 57.5745 58.2422 56.7536 58.2422H3.24645C2.42555 58.2422 1.75781 57.5745 1.75781 56.7536V17.6493C1.75781 17.1638 1.36441 16.7704 0.878906 16.7704C0.393398 16.7704 0 17.1638 0 17.6493V56.7535C0 58.5436 1.45641 60 3.24645 60H56.7536C58.5436 60 60 58.5436 60 56.7536V28.6105C60 28.125 59.6066 27.7316 59.1211 27.7316Z" fill="black"/>
<path d="M59.1211 27.7316C58.6356 27.7316 58.2422 28.125 58.2422 28.6105V56.7536C58.2422 57.5745 57.5745 58.2422 56.7536 58.2422H3.24645C2.42555 58.2422 1.75781 57.5745 1.75781 56.7536V17.6493C1.75781 17.1638 1.36441 16.7704 0.878906 16.7704C0.393398 16.7704 0 17.1638 0 17.6493V56.7535C0 58.5436 1.45641 60 3.24645 60H56.7536C58.5436 60 60 58.5436 60 56.7536V28.6105C60 28.125 59.6066 27.7316 59.1211 27.7316Z" fill="url(#paint1_linear_31_10842)"/>
<path d="M54.6311 3.55145H52.8555C52.37 3.55145 51.9766 3.94485 51.9766 4.43036C51.9766 4.91587 52.37 5.30927 52.8555 5.30927H54.6311C55.1166 5.30927 55.51 4.91587 55.51 4.43036C55.51 3.94485 55.1165 3.55145 54.6311 3.55145Z" fill="black"/>
<path d="M54.6311 3.55145H52.8555C52.37 3.55145 51.9766 3.94485 51.9766 4.43036C51.9766 4.91587 52.37 5.30927 52.8555 5.30927H54.6311C55.1166 5.30927 55.51 4.91587 55.51 4.43036C55.51 3.94485 55.1165 3.55145 54.6311 3.55145Z" fill="url(#paint2_linear_31_10842)"/>
<path d="M49.7776 3.55145H48.002C47.5164 3.55145 47.123 3.94485 47.123 4.43036C47.123 4.91587 47.5164 5.30927 48.002 5.30927H49.7776C50.2631 5.30927 50.6565 4.91587 50.6565 4.43036C50.6565 3.94485 50.263 3.55145 49.7776 3.55145Z" fill="black"/>
<path d="M49.7776 3.55145H48.002C47.5164 3.55145 47.123 3.94485 47.123 4.43036C47.123 4.91587 47.5164 5.30927 48.002 5.30927H49.7776C50.2631 5.30927 50.6565 4.91587 50.6565 4.43036C50.6565 3.94485 50.263 3.55145 49.7776 3.55145Z" fill="url(#paint3_linear_31_10842)"/>
<path d="M44.9242 3.55145H43.1484C42.6629 3.55145 42.2695 3.94485 42.2695 4.43036C42.2695 4.91587 42.6629 5.30927 43.1484 5.30927H44.9241C45.4096 5.30927 45.803 4.91587 45.803 4.43036C45.803 3.94485 45.4096 3.55145 44.9242 3.55145Z" fill="black"/>
<path d="M44.9242 3.55145H43.1484C42.6629 3.55145 42.2695 3.94485 42.2695 4.43036C42.2695 4.91587 42.6629 5.30927 43.1484 5.30927H44.9241C45.4096 5.30927 45.803 4.91587 45.803 4.43036C45.803 3.94485 45.4096 3.55145 44.9242 3.55145Z" fill="url(#paint4_linear_31_10842)"/>
<path d="M53.3703 48.941V21.1781C54.5311 20.1488 55.2645 18.648 55.2645 16.9783C55.2645 13.8827 52.7461 11.3643 49.6504 11.3643C46.8539 11.3643 44.529 13.4198 44.1057 16.0992H7.50781C7.0223 16.0992 6.62891 16.4926 6.62891 16.9781V48.941C6.62891 49.4265 7.0223 49.8199 7.50781 49.8199H14.3718C14.8573 49.8199 14.3718 49.4265 14.3718 48.941C14.3718 48.4555 16.3478 48.0621 15.8623 48.0621H8.38672V17.857H44.1056C44.5286 20.5366 46.8536 22.5924 49.6503 22.5924C50.3403 22.5924 51.0012 22.4665 51.6124 22.2378V48.0621H15.8623C15.3768 48.0621 13.4929 48.4555 13.4929 48.941C13.4929 49.4265 13.8863 49.8199 14.3718 49.8199H52.4914C52.9768 49.8199 53.3703 49.4263 53.3703 48.941ZM45.7941 16.9783C45.7941 14.8519 47.5241 13.1221 49.6503 13.1221C51.7768 13.1221 53.5066 14.8521 53.5066 16.9783C53.5066 19.1048 51.7767 20.8346 49.6503 20.8346C47.5241 20.8346 45.7941 19.1047 45.7941 16.9783Z" fill="black"/>
<path d="M53.3703 48.941V21.1781C54.5311 20.1488 55.2645 18.648 55.2645 16.9783C55.2645 13.8827 52.7461 11.3643 49.6504 11.3643C46.8539 11.3643 44.529 13.4198 44.1057 16.0992H7.50781C7.0223 16.0992 6.62891 16.4926 6.62891 16.9781V48.941C6.62891 49.4265 7.0223 49.8199 7.50781 49.8199H14.3718C14.8573 49.8199 14.3718 49.4265 14.3718 48.941C14.3718 48.4555 16.3478 48.0621 15.8623 48.0621H8.38672V17.857H44.1056C44.5286 20.5366 46.8536 22.5924 49.6503 22.5924C50.3403 22.5924 51.0012 22.4665 51.6124 22.2378V48.0621H15.8623C15.3768 48.0621 13.4929 48.4555 13.4929 48.941C13.4929 49.4265 13.8863 49.8199 14.3718 49.8199H52.4914C52.9768 49.8199 53.3703 49.4263 53.3703 48.941ZM45.7941 16.9783C45.7941 14.8519 47.5241 13.1221 49.6503 13.1221C51.7768 13.1221 53.5066 14.8521 53.5066 16.9783C53.5066 19.1048 51.7767 20.8346 49.6503 20.8346C47.5241 20.8346 45.7941 19.1047 45.7941 16.9783Z" fill="url(#paint5_linear_31_10842)"/>
<path d="M51.5754 15.0547C51.232 14.7116 50.6756 14.7116 50.3324 15.0547L49.6518 15.7353L48.9711 15.0547C48.6278 14.7116 48.0714 14.7116 47.7281 15.0547C47.3849 15.3981 47.3849 15.9545 47.7281 16.2977L48.4088 16.9783L47.7281 17.659C47.3849 18.0023 47.3849 18.5587 47.7281 18.902C47.8998 19.0735 48.1248 19.1593 48.3497 19.1593C48.5746 19.1593 48.7996 19.0735 48.9713 18.902L49.6519 18.2213L50.3325 18.902C50.5042 19.0735 50.7292 19.1593 50.9541 19.1593C51.179 19.1593 51.404 19.0735 51.5756 18.902C51.9189 18.5586 51.9189 18.0022 51.5756 17.659L50.895 16.9783L51.5756 16.2977C51.9185 15.9545 51.9185 15.3979 51.5754 15.0547Z" fill="black"/>
<path d="M51.5754 15.0547C51.232 14.7116 50.6756 14.7116 50.3324 15.0547L49.6518 15.7353L48.9711 15.0547C48.6278 14.7116 48.0714 14.7116 47.7281 15.0547C47.3849 15.3981 47.3849 15.9545 47.7281 16.2977L48.4088 16.9783L47.7281 17.659C47.3849 18.0023 47.3849 18.5587 47.7281 18.902C47.8998 19.0735 48.1248 19.1593 48.3497 19.1593C48.5746 19.1593 48.7996 19.0735 48.9713 18.902L49.6519 18.2213L50.3325 18.902C50.5042 19.0735 50.7292 19.1593 50.9541 19.1593C51.179 19.1593 51.404 19.0735 51.5756 18.902C51.9189 18.5586 51.9189 18.0022 51.5756 17.659L50.895 16.9783L51.5756 16.2977C51.9185 15.9545 51.9185 15.3979 51.5754 15.0547Z" fill="url(#paint6_linear_31_10842)"/>
<path d="M17.9254 44.2556H21.4768C21.9623 44.2556 22.3557 43.8622 22.3557 43.3767V29.2897C22.3557 26.5204 20.1027 24.2675 17.3336 24.2675H14.7292C11.96 24.2675 9.70703 26.5206 9.70703 29.2897V43.3767C9.70703 43.8622 10.1004 44.2556 10.5859 44.2556H14.1374C14.6229 44.2556 15.0163 43.8622 15.0163 43.3767V36.9162H17.0466V43.3767C17.0465 43.8622 17.4399 44.2556 17.9254 44.2556ZM14.1373 35.1585C13.6518 35.1585 13.2584 35.5519 13.2584 36.0374V42.4979H11.4647V29.2897C11.4647 27.4897 12.9291 26.0253 14.7291 26.0253H17.3335C19.1334 26.0253 20.5977 27.4897 20.5977 29.2897V42.4978H18.8042V36.0373C18.8042 35.5517 18.4108 35.1583 17.9253 35.1583H14.1373V35.1585Z" fill="black"/>
<path d="M17.9254 44.2556H21.4768C21.9623 44.2556 22.3557 43.8622 22.3557 43.3767V29.2897C22.3557 26.5204 20.1027 24.2675 17.3336 24.2675H14.7292C11.96 24.2675 9.70703 26.5206 9.70703 29.2897V43.3767C9.70703 43.8622 10.1004 44.2556 10.5859 44.2556H14.1374C14.6229 44.2556 15.0163 43.8622 15.0163 43.3767V36.9162H17.0466V43.3767C17.0465 43.8622 17.4399 44.2556 17.9254 44.2556ZM14.1373 35.1585C13.6518 35.1585 13.2584 35.5519 13.2584 36.0374V42.4979H11.4647V29.2897C11.4647 27.4897 12.9291 26.0253 14.7291 26.0253H17.3335C19.1334 26.0253 20.5977 27.4897 20.5977 29.2897V42.4978H18.8042V36.0373C18.8042 35.5517 18.4108 35.1583 17.9253 35.1583H14.1373V35.1585Z" fill="url(#paint7_linear_31_10842)"/>
<path d="M18.8038 32.4861V29.2899C18.8038 28.4789 18.1441 27.8191 17.333 27.8191H14.7286C13.9176 27.8191 13.2578 28.4789 13.2578 29.2899V32.4861C13.2578 32.9716 13.6512 33.365 14.1367 33.365H17.9248C18.4103 33.365 18.8038 32.9715 18.8038 32.4861ZM17.046 31.6072H15.0157V29.5769H17.046V31.6072Z" fill="black"/>
<path d="M18.8038 32.4861V29.2899C18.8038 28.4789 18.1441 27.8191 17.333 27.8191H14.7286C13.9176 27.8191 13.2578 28.4789 13.2578 29.2899V32.4861C13.2578 32.9716 13.6512 33.365 14.1367 33.365H17.9248C18.4103 33.365 18.8038 32.9715 18.8038 32.4861ZM17.046 31.6072H15.0157V29.5769H17.046V31.6072Z" fill="url(#paint8_linear_31_10842)"/>
<path d="M38.5234 38.9466C38.0379 38.9466 37.6445 39.34 37.6445 39.8255V43.3769C37.6445 43.8624 38.0379 44.2558 38.5234 44.2558H45.271C48.0402 44.2558 50.2932 42.0028 50.2932 39.2337V36.6293C50.2932 33.8601 48.0401 31.6073 45.271 31.6073H42.9537V29.577H49.4144C49.8999 29.577 50.2933 29.1836 50.2933 28.6981V25.1466C50.2933 24.6611 49.8999 24.2677 49.4144 24.2677H42.6667C39.8975 24.2677 37.6446 26.5207 37.6446 29.2899V31.8943C37.6446 34.6635 39.8976 36.9163 42.6667 36.9163H44.984V38.9466H38.5234ZM45.2711 35.1585H42.6667C40.8668 35.1585 39.4025 33.6941 39.4025 31.8943V29.2899C39.4025 27.4899 40.8668 26.0255 42.6667 26.0255H48.5355V27.8192H42.6667C41.8557 27.8192 41.1959 28.4789 41.1959 29.29V31.8944C41.1959 32.7054 41.8557 33.3652 42.6667 33.3652H45.2711C47.0711 33.3652 48.5355 34.8296 48.5355 36.6295V39.2338C48.5355 41.0337 47.0711 42.4981 45.2711 42.4981H39.4025V40.7045H45.2711C46.0822 40.7045 46.7419 40.0448 46.7419 39.2337V36.6293C46.7418 35.8182 46.082 35.1585 45.2711 35.1585Z" fill="black"/>
<path d="M38.5234 38.9466C38.0379 38.9466 37.6445 39.34 37.6445 39.8255V43.3769C37.6445 43.8624 38.0379 44.2558 38.5234 44.2558H45.271C48.0402 44.2558 50.2932 42.0028 50.2932 39.2337V36.6293C50.2932 33.8601 48.0401 31.6073 45.271 31.6073H42.9537V29.577H49.4144C49.8999 29.577 50.2933 29.1836 50.2933 28.6981V25.1466C50.2933 24.6611 49.8999 24.2677 49.4144 24.2677H42.6667C39.8975 24.2677 37.6446 26.5207 37.6446 29.2899V31.8943C37.6446 34.6635 39.8976 36.9163 42.6667 36.9163H44.984V38.9466H38.5234ZM45.2711 35.1585H42.6667C40.8668 35.1585 39.4025 33.6941 39.4025 31.8943V29.2899C39.4025 27.4899 40.8668 26.0255 42.6667 26.0255H48.5355V27.8192H42.6667C41.8557 27.8192 41.1959 28.4789 41.1959 29.29V31.8944C41.1959 32.7054 41.8557 33.3652 42.6667 33.3652H45.2711C47.0711 33.3652 48.5355 34.8296 48.5355 36.6295V39.2338C48.5355 41.0337 47.0711 42.4981 45.2711 42.4981H39.4025V40.7045H45.2711C46.0822 40.7045 46.7419 40.0448 46.7419 39.2337V36.6293C46.7418 35.8182 46.082 35.1585 45.2711 35.1585Z" fill="url(#paint9_linear_31_10842)"/>
<path d="M31.3022 44.2556C34.0715 44.2556 36.3244 42.0027 36.3244 39.2335V29.2897C36.3244 26.5204 34.0714 24.2675 31.3022 24.2675H24.5547C24.0692 24.2675 23.6758 24.6609 23.6758 25.1464V43.3767C23.6758 43.8622 24.0692 44.2556 24.5547 44.2556H31.3022ZM25.4336 26.0253H31.3022C33.1022 26.0253 34.5666 27.4897 34.5666 29.2897V39.2335C34.5666 41.0334 33.1022 42.4978 31.3022 42.4978H25.4336V26.0253Z" fill="black"/>
<path d="M31.3022 44.2556C34.0715 44.2556 36.3244 42.0027 36.3244 39.2335V29.2897C36.3244 26.5204 34.0714 24.2675 31.3022 24.2675H24.5547C24.0692 24.2675 23.6758 24.6609 23.6758 25.1464V43.3767C23.6758 43.8622 24.0692 44.2556 24.5547 44.2556H31.3022ZM25.4336 26.0253H31.3022C33.1022 26.0253 34.5666 27.4897 34.5666 29.2897V39.2335C34.5666 41.0334 33.1022 42.4978 31.3022 42.4978H25.4336V26.0253Z" fill="url(#paint10_linear_31_10842)"/>
<path d="M32.7726 39.2336V29.2898C32.7726 28.4787 32.1127 27.819 31.3016 27.819H28.1055C27.62 27.819 27.2266 28.2124 27.2266 28.6979V39.8254C27.2266 40.3109 27.62 40.7043 28.1055 40.7043H31.3016C32.1127 40.7044 32.7726 40.0447 32.7726 39.2336ZM31.0148 38.9466H28.9844V29.5769H31.0148V38.9466Z" fill="black"/>
<path d="M32.7726 39.2336V29.2898C32.7726 28.4787 32.1127 27.819 31.3016 27.819H28.1055C27.62 27.819 27.2266 28.2124 27.2266 28.6979V39.8254C27.2266 40.3109 27.62 40.7043 28.1055 40.7043H31.3016C32.1127 40.7044 32.7726 40.0447 32.7726 39.2336ZM31.0148 38.9466H28.9844V29.5769H31.0148V38.9466Z" fill="url(#paint11_linear_31_10842)"/>
<path d="M22.8984 51.3762C22.4129 51.3762 22.0195 51.7696 22.0195 52.2551V55.8066C22.0195 56.2921 22.4129 56.6855 22.8984 56.6855H37.1038C37.5893 56.6855 37.9827 56.2921 37.9827 55.8066V52.2551C37.9827 51.7696 37.5893 51.3762 37.1038 51.3762H22.8984ZM36.2248 54.9277H23.7773V53.134H36.2249V54.9277H36.2248Z" fill="black"/>
<path d="M22.8984 51.3762C22.4129 51.3762 22.0195 51.7696 22.0195 52.2551V55.8066C22.0195 56.2921 22.4129 56.6855 22.8984 56.6855H37.1038C37.5893 56.6855 37.9827 56.2921 37.9827 55.8066V52.2551C37.9827 51.7696 37.5893 51.3762 37.1038 51.3762H22.8984ZM36.2248 54.9277H23.7773V53.134H36.2249V54.9277H36.2248Z" fill="url(#paint12_linear_31_10842)"/>
</g>
<defs>
<filter id="filter0_i_31_10842" x="0" y="0" width="60" height="64" filterUnits="userSpaceOnUse" color-interpolation-filters="sRGB">
<feFlood flood-opacity="0" result="BackgroundImageFix"/>
<feBlend mode="normal" in="SourceGraphic" in2="BackgroundImageFix" result="shape"/>
<feColorMatrix in="SourceAlpha" type="matrix" values="0 0 0 0 0 0 0 0 0 0 0 0 0 0 0 0 0 0 127 0" result="hardAlpha"/>
<feOffset dy="4"/>
<feGaussianBlur stdDeviation="2"/>
<feComposite in2="hardAlpha" operator="arithmetic" k2="-1" k3="1"/>
<feColorMatrix type="matrix" values="0 0 0 0 0 0 0 0 0 0 0 0 0 0 0 0 0 0 0.25 0"/>
<feBlend mode="normal" in2="shape" result="effect1_innerShadow_31_10842"/>
</filter>
<linearGradient id="paint0_linear_31_10842" x1="29.986" y1="0.000173303" x2="29.986" y2="29.3497" gradientUnits="userSpaceOnUse">
<stop stop-color="#FD8D2A"/>
<stop offset="1" stop-color="#FD2549"/>
</linearGradient>
<linearGradient id="paint1_linear_31_10842" x1="29.986" y1="16.7706" x2="29.986" y2="59.9802" gradientUnits="userSpaceOnUse">
<stop stop-color="#FD8D2A"/>
<stop offset="1" stop-color="#FD2549"/>
</linearGradient>
<linearGradient id="paint2_linear_31_10842" x1="53.7425" y1="3.55146" x2="53.7425" y2="5.30846" gradientUnits="userSpaceOnUse">
<stop stop-color="#FD8D2A"/>
<stop offset="1" stop-color="#FD2549"/>
</linearGradient>
<linearGradient id="paint3_linear_31_10842" x1="48.8889" y1="3.55146" x2="48.8889" y2="5.30846" gradientUnits="userSpaceOnUse">
<stop stop-color="#FD8D2A"/>
<stop offset="1" stop-color="#FD2549"/>
</linearGradient>
<linearGradient id="paint4_linear_31_10842" x1="44.0354" y1="3.55146" x2="44.0354" y2="5.30846" gradientUnits="userSpaceOnUse">
<stop stop-color="#FD8D2A"/>
<stop offset="1" stop-color="#FD2549"/>
</linearGradient>
<linearGradient id="paint5_linear_31_10842" x1="30.9354" y1="11.3645" x2="30.9354" y2="49.8022" gradientUnits="userSpaceOnUse">
<stop stop-color="#FD8D2A"/>
<stop offset="1" stop-color="#FD2549"/>
</linearGradient>
<linearGradient id="paint6_linear_31_10842" x1="49.6509" y1="14.7974" x2="49.6509" y2="19.1573" gradientUnits="userSpaceOnUse">
<stop stop-color="#FD8D2A"/>
<stop offset="1" stop-color="#FD2549"/>
</linearGradient>
<linearGradient id="paint7_linear_31_10842" x1="16.0284" y1="24.2676" x2="16.0284" y2="44.2464" gradientUnits="userSpaceOnUse">
<stop stop-color="#FD8D2A"/>
<stop offset="1" stop-color="#FD2549"/>
</linearGradient>
<linearGradient id="paint8_linear_31_10842" x1="16.0295" y1="27.8191" x2="16.0295" y2="33.3624" gradientUnits="userSpaceOnUse">
<stop stop-color="#FD8D2A"/>
<stop offset="1" stop-color="#FD2549"/>
</linearGradient>
<linearGradient id="paint9_linear_31_10842" x1="43.966" y1="24.2678" x2="43.966" y2="44.2466" gradientUnits="userSpaceOnUse">
<stop stop-color="#FD8D2A"/>
<stop offset="1" stop-color="#FD2549"/>
</linearGradient>
<linearGradient id="paint10_linear_31_10842" x1="29.9972" y1="24.2676" x2="29.9972" y2="44.2464" gradientUnits="userSpaceOnUse">
<stop stop-color="#FD8D2A"/>
<stop offset="1" stop-color="#FD2549"/>
</linearGradient>
<linearGradient id="paint11_linear_31_10842" x1="29.9983" y1="27.819" x2="29.9983" y2="40.6984" gradientUnits="userSpaceOnUse">
<stop stop-color="#FD8D2A"/>
<stop offset="1" stop-color="#FD2549"/>
</linearGradient>
<linearGradient id="paint12_linear_31_10842" x1="29.9974" y1="51.3763" x2="29.9974" y2="56.6831" gradientUnits="userSpaceOnUse">
<stop stop-color="#FD8D2A"/>
<stop offset="1" stop-color="#FD2549"/>
</linearGradient>
<clipPath id="clip0_31_10842">
<rect width="60" height="60" fill="white"/>
</clipPath>
</defs>
</svg>
