<svg width="28" height="28" viewBox="0 0 28 28" fill="none" xmlns="http://www.w3.org/2000/svg">
<g clip-path="url(#clip0_31_9178)" filter="url(#filter0_i_31_9178)">
<path d="M27.9667 2.09038C27.9061 0.978147 27.0215 0.0936857 25.9093 0.0329825C23.665 -0.0896269 19.2734 0.0296467 15.074 2.20167C12.9333 3.30898 10.6692 5.18635 8.8624 7.35241C8.84014 7.3791 8.81849 7.40595 8.79639 7.43269L4.69592 7.74944C4.02097 7.80162 3.41979 8.15539 3.04649 8.71998L0.24901 12.9513C-0.0341074 13.3795 -0.0791153 13.9153 0.128533 14.3847C0.336236 14.8542 0.763018 15.1813 1.27024 15.2599L4.72491 15.795C4.71271 15.8621 4.70046 15.9292 4.68925 15.9964C4.57424 16.6843 4.80218 17.3917 5.29907 17.8885L10.1111 22.7006C10.5231 23.1126 11.0798 23.3397 11.6501 23.3397C11.7676 23.3397 11.8857 23.33 12.0033 23.3104C12.0705 23.2992 12.1376 23.2869 12.2047 23.2747L12.7398 26.7295C12.8184 27.2367 13.1455 27.6635 13.6149 27.8712C13.8101 27.9576 14.0168 28.0002 14.2225 28.0002C14.5115 28.0002 14.7983 27.9161 15.0484 27.7507L19.2797 24.9532C19.8443 24.5799 20.198 23.9787 20.2501 23.3038L20.5668 19.2034C20.5936 19.1813 20.6205 19.1596 20.6472 19.1374C22.8133 17.3305 24.6907 15.0665 25.798 12.9257C27.9701 8.72616 28.0892 4.33448 27.9667 2.09038ZM18.3749 23.5846L14.3274 26.2606L13.8059 22.8938C15.5165 22.3908 17.2087 21.5853 18.8208 20.5061L18.6145 23.1773C18.6016 23.344 18.5143 23.4924 18.3749 23.5846ZM11.2712 21.5405L6.4591 16.7284C6.33633 16.6056 6.27956 16.4331 6.3074 16.2669C6.45046 15.4114 6.67277 14.597 6.94796 13.8299L14.1682 21.0502C13.2469 21.3802 12.4216 21.5771 11.7328 21.6922C11.5663 21.7199 11.394 21.6633 11.2712 21.5405ZM4.82231 9.3852L7.49346 9.17887C6.41426 10.791 5.60871 12.4832 5.10575 14.1938L1.73897 13.6724L4.41505 9.62484C4.50725 9.48539 4.65573 9.39805 4.82231 9.3852ZM19.5964 17.8774C18.2712 18.9828 16.9848 19.7823 15.799 20.3609L7.63849 12.2004C8.39635 10.6525 9.32128 9.36355 10.1222 8.40334C11.7943 6.39877 13.8739 4.6695 15.8278 3.65887C19.6819 1.66535 23.7425 1.558 25.82 1.67109C26.0949 1.68608 26.3136 1.90477 26.3286 2.1798C26.4419 4.25726 26.3343 8.31781 24.3408 12.1719C23.3302 14.1258 21.6009 16.2053 19.5964 17.8774Z" fill="black"/>
<path d="M27.9667 2.09038C27.9061 0.978147 27.0215 0.0936857 25.9093 0.0329825C23.665 -0.0896269 19.2734 0.0296467 15.074 2.20167C12.9333 3.30898 10.6692 5.18635 8.8624 7.35241C8.84014 7.3791 8.81849 7.40595 8.79639 7.43269L4.69592 7.74944C4.02097 7.80162 3.41979 8.15539 3.04649 8.71998L0.24901 12.9513C-0.0341074 13.3795 -0.0791153 13.9153 0.128533 14.3847C0.336236 14.8542 0.763018 15.1813 1.27024 15.2599L4.72491 15.795C4.71271 15.8621 4.70046 15.9292 4.68925 15.9964C4.57424 16.6843 4.80218 17.3917 5.29907 17.8885L10.1111 22.7006C10.5231 23.1126 11.0798 23.3397 11.6501 23.3397C11.7676 23.3397 11.8857 23.33 12.0033 23.3104C12.0705 23.2992 12.1376 23.2869 12.2047 23.2747L12.7398 26.7295C12.8184 27.2367 13.1455 27.6635 13.6149 27.8712C13.8101 27.9576 14.0168 28.0002 14.2225 28.0002C14.5115 28.0002 14.7983 27.9161 15.0484 27.7507L19.2797 24.9532C19.8443 24.5799 20.198 23.9787 20.2501 23.3038L20.5668 19.2034C20.5936 19.1813 20.6205 19.1596 20.6472 19.1374C22.8133 17.3305 24.6907 15.0665 25.798 12.9257C27.9701 8.72616 28.0892 4.33448 27.9667 2.09038ZM18.3749 23.5846L14.3274 26.2606L13.8059 22.8938C15.5165 22.3908 17.2087 21.5853 18.8208 20.5061L18.6145 23.1773C18.6016 23.344 18.5143 23.4924 18.3749 23.5846ZM11.2712 21.5405L6.4591 16.7284C6.33633 16.6056 6.27956 16.4331 6.3074 16.2669C6.45046 15.4114 6.67277 14.597 6.94796 13.8299L14.1682 21.0502C13.2469 21.3802 12.4216 21.5771 11.7328 21.6922C11.5663 21.7199 11.394 21.6633 11.2712 21.5405ZM4.82231 9.3852L7.49346 9.17887C6.41426 10.791 5.60871 12.4832 5.10575 14.1938L1.73897 13.6724L4.41505 9.62484C4.50725 9.48539 4.65573 9.39805 4.82231 9.3852ZM19.5964 17.8774C18.2712 18.9828 16.9848 19.7823 15.799 20.3609L7.63849 12.2004C8.39635 10.6525 9.32128 9.36355 10.1222 8.40334C11.7943 6.39877 13.8739 4.6695 15.8278 3.65887C19.6819 1.66535 23.7425 1.558 25.82 1.67109C26.0949 1.68608 26.3136 1.90477 26.3286 2.1798C26.4419 4.25726 26.3343 8.31781 24.3408 12.1719C23.3302 14.1258 21.6009 16.2053 19.5964 17.8774Z" fill="url(#paint0_linear_31_9178)"/>
<path d="M19.1806 12.9196C20.2307 12.9195 21.2812 12.5197 22.0807 11.7202C22.8554 10.9456 23.282 9.91559 23.282 8.82009C23.282 7.72459 22.8553 6.69461 22.0807 5.91996C20.4815 4.32073 17.8795 4.32084 16.2804 5.91996C15.5057 6.69461 15.0791 7.72459 15.0791 8.82009C15.0791 9.91559 15.5058 10.9456 16.2804 11.7202C17.0801 12.5199 18.1301 12.9197 19.1806 12.9196ZM17.4404 7.07999C17.9201 6.60022 18.5503 6.36036 19.1804 6.36036C19.8107 6.36036 20.4408 6.60022 20.9205 7.07999C21.3853 7.54478 21.6413 8.16275 21.6413 8.82004C21.6413 9.47733 21.3853 10.0954 20.9205 10.5601C19.9611 11.5196 18.3998 11.5196 17.4403 10.5601C16.9756 10.0954 16.7196 9.47738 16.7196 8.82009C16.7196 8.1628 16.9756 7.54478 17.4404 7.07999Z" fill="black"/>
<path d="M19.1806 12.9196C20.2307 12.9195 21.2812 12.5197 22.0807 11.7202C22.8554 10.9456 23.282 9.91559 23.282 8.82009C23.282 7.72459 22.8553 6.69461 22.0807 5.91996C20.4815 4.32073 17.8795 4.32084 16.2804 5.91996C15.5057 6.69461 15.0791 7.72459 15.0791 8.82009C15.0791 9.91559 15.5058 10.9456 16.2804 11.7202C17.0801 12.5199 18.1301 12.9197 19.1806 12.9196ZM17.4404 7.07999C17.9201 6.60022 18.5503 6.36036 19.1804 6.36036C19.8107 6.36036 20.4408 6.60022 20.9205 7.07999C21.3853 7.54478 21.6413 8.16275 21.6413 8.82004C21.6413 9.47733 21.3853 10.0954 20.9205 10.5601C19.9611 11.5196 18.3998 11.5196 17.4403 10.5601C16.9756 10.0954 16.7196 9.47738 16.7196 8.82009C16.7196 8.1628 16.9756 7.54478 17.4404 7.07999Z" fill="url(#paint1_linear_31_9178)"/>
<path d="M0.836398 23.0748C1.04634 23.0748 1.25629 22.9947 1.41641 22.8345L4.09462 20.1563C4.41498 19.8359 4.41498 19.3166 4.09462 18.9962C3.77432 18.6758 3.2549 18.6758 2.93454 18.9962L0.256383 21.6744C-0.0639766 21.9948 -0.0639766 22.5141 0.256383 22.8345C0.416508 22.9947 0.626453 23.0748 0.836398 23.0748Z" fill="black"/>
<path d="M0.836398 23.0748C1.04634 23.0748 1.25629 22.9947 1.41641 22.8345L4.09462 20.1563C4.41498 19.8359 4.41498 19.3166 4.09462 18.9962C3.77432 18.6758 3.2549 18.6758 2.93454 18.9962L0.256383 21.6744C-0.0639766 21.9948 -0.0639766 22.5141 0.256383 22.8345C0.416508 22.9947 0.626453 23.0748 0.836398 23.0748Z" fill="url(#paint2_linear_31_9178)"/>
<path d="M6.54891 21.4507C6.22861 21.1303 5.70919 21.1303 5.38883 21.4507L0.239781 26.5998C-0.0805781 26.9201 -0.0805781 27.4395 0.239781 27.7599C0.399961 27.92 0.609852 28.0001 0.819797 28.0001C1.02974 28.0001 1.23969 27.92 1.39981 27.7598L6.54886 22.6107C6.86927 22.2904 6.86927 21.771 6.54891 21.4507Z" fill="black"/>
<path d="M6.54891 21.4507C6.22861 21.1303 5.70919 21.1303 5.38883 21.4507L0.239781 26.5998C-0.0805781 26.9201 -0.0805781 27.4395 0.239781 27.7599C0.399961 27.92 0.609852 28.0001 0.819797 28.0001C1.02974 28.0001 1.23969 27.92 1.39981 27.7598L6.54886 22.6107C6.86927 22.2904 6.86927 21.771 6.54891 21.4507Z" fill="url(#paint3_linear_31_9178)"/>
<path d="M7.84377 23.9049L5.16556 26.5832C4.8452 26.9035 4.8452 27.4229 5.16556 27.7432C5.32574 27.9034 5.53569 27.9835 5.74558 27.9835C5.95547 27.9835 6.16547 27.9035 6.32559 27.7432L9.0038 25.065C9.32416 24.7447 9.32416 24.2253 9.0038 23.9049C8.68349 23.5846 8.16407 23.5846 7.84377 23.9049Z" fill="black"/>
<path d="M7.84377 23.9049L5.16556 26.5832C4.8452 26.9035 4.8452 27.4229 5.16556 27.7432C5.32574 27.9034 5.53569 27.9835 5.74558 27.9835C5.95547 27.9835 6.16547 27.9035 6.32559 27.7432L9.0038 25.065C9.32416 24.7447 9.32416 24.2253 9.0038 23.9049C8.68349 23.5846 8.16407 23.5846 7.84377 23.9049Z" fill="url(#paint4_linear_31_9178)"/>
</g>
<defs>
<filter id="filter0_i_31_9178" x="0" y="0" width="28" height="32" filterUnits="userSpaceOnUse" color-interpolation-filters="sRGB">
<feFlood flood-opacity="0" result="BackgroundImageFix"/>
<feBlend mode="normal" in="SourceGraphic" in2="BackgroundImageFix" result="shape"/>
<feColorMatrix in="SourceAlpha" type="matrix" values="0 0 0 0 0 0 0 0 0 0 0 0 0 0 0 0 0 0 127 0" result="hardAlpha"/>
<feOffset dy="4"/>
<feGaussianBlur stdDeviation="2"/>
<feComposite in2="hardAlpha" operator="arithmetic" k2="-1" k3="1"/>
<feColorMatrix type="matrix" values="0 0 0 0 0 0 0 0 0 0 0 0 0 0 0 0 0 0 0.25 0"/>
<feBlend mode="normal" in2="shape" result="effect1_innerShadow_31_9178"/>
</filter>
<linearGradient id="paint0_linear_31_9178" x1="13.993" y1="0.000287328" x2="13.993" y2="27.9874" gradientUnits="userSpaceOnUse">
<stop stop-color="#FD8D2A"/>
<stop offset="1" stop-color="#FD2549"/>
</linearGradient>
<linearGradient id="paint1_linear_31_9178" x1="19.1786" y1="4.72063" x2="19.1786" y2="12.9158" gradientUnits="userSpaceOnUse">
<stop stop-color="#FD8D2A"/>
<stop offset="1" stop-color="#FD2549"/>
</linearGradient>
<linearGradient id="paint2_linear_31_9178" x1="2.1745" y1="18.7559" x2="2.1745" y2="23.0728" gradientUnits="userSpaceOnUse">
<stop stop-color="#FD8D2A"/>
<stop offset="1" stop-color="#FD2549"/>
</linearGradient>
<linearGradient id="paint3_linear_31_9178" x1="3.39276" y1="21.2104" x2="3.39276" y2="27.997" gradientUnits="userSpaceOnUse">
<stop stop-color="#FD8D2A"/>
<stop offset="1" stop-color="#FD2549"/>
</linearGradient>
<linearGradient id="paint4_linear_31_9178" x1="7.08368" y1="23.6647" x2="7.08368" y2="27.9816" gradientUnits="userSpaceOnUse">
<stop stop-color="#FD8D2A"/>
<stop offset="1" stop-color="#FD2549"/>
</linearGradient>
<clipPath id="clip0_31_9178">
<rect width="28" height="28" fill="white"/>
</clipPath>
</defs>
</svg>
