<svg width="28" height="28" viewBox="0 0 28 28" fill="none" xmlns="http://www.w3.org/2000/svg">
<g clip-path="url(#clip0_31_9184)" filter="url(#filter0_i_31_9184)">
<path d="M25.5391 0H2.46094C1.10398 0 0 1.10398 0 2.46094V7.38281V25.5391C0 26.896 1.10398 28 2.46094 28H25.5391C26.896 28 28 26.896 28 25.5391V7.38281V2.46094C28 1.10398 26.896 0 25.5391 0ZM1.64062 2.46094C1.64062 2.00862 2.00862 1.64062 2.46094 1.64062H25.5391C25.9914 1.64062 26.3594 2.00862 26.3594 2.46094V6.5625H1.64062V2.46094ZM26.3594 25.5391C26.3594 25.9914 25.9914 26.3594 25.5391 26.3594H2.46094C2.00862 26.3594 1.64062 25.9914 1.64062 25.5391V8.20312H26.3594V25.5391Z" fill="black"/>
<path d="M25.5391 0H2.46094C1.10398 0 0 1.10398 0 2.46094V7.38281V25.5391C0 26.896 1.10398 28 2.46094 28H25.5391C26.896 28 28 26.896 28 25.5391V7.38281V2.46094C28 1.10398 26.896 0 25.5391 0ZM1.64062 2.46094C1.64062 2.00862 2.00862 1.64062 2.46094 1.64062H25.5391C25.9914 1.64062 26.3594 2.00862 26.3594 2.46094V6.5625H1.64062V2.46094ZM26.3594 25.5391C26.3594 25.9914 25.9914 26.3594 25.5391 26.3594H2.46094C2.00862 26.3594 1.64062 25.9914 1.64062 25.5391V8.20312H26.3594V25.5391Z" fill="url(#paint0_linear_31_9184)"/>
<path d="M4.15625 4.92188C4.6093 4.92188 4.97656 4.55461 4.97656 4.10156C4.97656 3.64852 4.6093 3.28125 4.15625 3.28125C3.7032 3.28125 3.33594 3.64852 3.33594 4.10156C3.33594 4.55461 3.7032 4.92188 4.15625 4.92188Z" fill="black"/>
<path d="M4.15625 4.92188C4.6093 4.92188 4.97656 4.55461 4.97656 4.10156C4.97656 3.64852 4.6093 3.28125 4.15625 3.28125C3.7032 3.28125 3.33594 3.64852 3.33594 4.10156C3.33594 4.55461 3.7032 4.92188 4.15625 4.92188Z" fill="url(#paint1_linear_31_9184)"/>
<path d="M7.4375 4.92188C7.89055 4.92188 8.25781 4.55461 8.25781 4.10156C8.25781 3.64852 7.89055 3.28125 7.4375 3.28125C6.98445 3.28125 6.61719 3.64852 6.61719 4.10156C6.61719 4.55461 6.98445 4.92188 7.4375 4.92188Z" fill="black"/>
<path d="M7.4375 4.92188C7.89055 4.92188 8.25781 4.55461 8.25781 4.10156C8.25781 3.64852 7.89055 3.28125 7.4375 3.28125C6.98445 3.28125 6.61719 3.64852 6.61719 4.10156C6.61719 4.55461 6.98445 4.92188 7.4375 4.92188Z" fill="url(#paint2_linear_31_9184)"/>
<path d="M10.7188 4.92188C11.1718 4.92188 11.5391 4.55461 11.5391 4.10156C11.5391 3.64852 11.1718 3.28125 10.7188 3.28125C10.2657 3.28125 9.89844 3.64852 9.89844 4.10156C9.89844 4.55461 10.2657 4.92188 10.7188 4.92188Z" fill="black"/>
<path d="M10.7188 4.92188C11.1718 4.92188 11.5391 4.55461 11.5391 4.10156C11.5391 3.64852 11.1718 3.28125 10.7188 3.28125C10.2657 3.28125 9.89844 3.64852 9.89844 4.10156C9.89844 4.55461 10.2657 4.92188 10.7188 4.92188Z" fill="url(#paint3_linear_31_9184)"/>
<path d="M4.15625 20.3438H10.7188C11.1718 20.3438 11.5391 19.9765 11.5391 19.5234V18.4297C11.5391 16.9869 10.7896 15.7166 9.66011 14.9853C10.1476 14.4505 10.4453 13.7399 10.4453 12.9609C10.4453 11.3024 9.09601 9.95312 7.4375 9.95312C5.77899 9.95312 4.42969 11.3024 4.42969 12.9609C4.42969 13.7399 4.72735 14.4505 5.21489 14.9853C4.08543 15.7166 3.33594 16.9869 3.33594 18.4297V19.5234C3.33594 19.9765 3.70322 20.3438 4.15625 20.3438ZM6.07031 12.9609C6.07031 12.2071 6.68363 11.5938 7.4375 11.5938C8.19137 11.5938 8.80469 12.2071 8.80469 12.9609C8.80469 13.7148 8.19137 14.3281 7.4375 14.3281C6.68363 14.3281 6.07031 13.7148 6.07031 12.9609ZM4.97656 18.4297C4.97656 17.0727 6.08054 15.9688 7.4375 15.9688C8.79446 15.9688 9.89844 17.0727 9.89844 18.4297V18.7031H4.97656V18.4297Z" fill="black"/>
<path d="M4.15625 20.3438H10.7188C11.1718 20.3438 11.5391 19.9765 11.5391 19.5234V18.4297C11.5391 16.9869 10.7896 15.7166 9.66011 14.9853C10.1476 14.4505 10.4453 13.7399 10.4453 12.9609C10.4453 11.3024 9.09601 9.95312 7.4375 9.95312C5.77899 9.95312 4.42969 11.3024 4.42969 12.9609C4.42969 13.7399 4.72735 14.4505 5.21489 14.9853C4.08543 15.7166 3.33594 16.9869 3.33594 18.4297V19.5234C3.33594 19.9765 3.70322 20.3438 4.15625 20.3438ZM6.07031 12.9609C6.07031 12.2071 6.68363 11.5938 7.4375 11.5938C8.19137 11.5938 8.80469 12.2071 8.80469 12.9609C8.80469 13.7148 8.19137 14.3281 7.4375 14.3281C6.68363 14.3281 6.07031 13.7148 6.07031 12.9609ZM4.97656 18.4297C4.97656 17.0727 6.08054 15.9688 7.4375 15.9688C8.79446 15.9688 9.89844 17.0727 9.89844 18.4297V18.7031H4.97656V18.4297Z" fill="url(#paint4_linear_31_9184)"/>
<path d="M14 11.5938H23.8438C24.2968 11.5938 24.6641 11.2265 24.6641 10.7734C24.6641 10.3204 24.2968 9.95312 23.8438 9.95312H14C13.547 9.95312 13.1797 10.3204 13.1797 10.7734C13.1797 11.2265 13.547 11.5938 14 11.5938Z" fill="black"/>
<path d="M14 11.5938H23.8438C24.2968 11.5938 24.6641 11.2265 24.6641 10.7734C24.6641 10.3204 24.2968 9.95312 23.8438 9.95312H14C13.547 9.95312 13.1797 10.3204 13.1797 10.7734C13.1797 11.2265 13.547 11.5938 14 11.5938Z" fill="url(#paint5_linear_31_9184)"/>
<path d="M14 14.875H23.8438C24.2968 14.875 24.6641 14.5077 24.6641 14.0547C24.6641 13.6017 24.2968 13.2344 23.8438 13.2344H14C13.547 13.2344 13.1797 13.6017 13.1797 14.0547C13.1797 14.5077 13.547 14.875 14 14.875Z" fill="black"/>
<path d="M14 14.875H23.8438C24.2968 14.875 24.6641 14.5077 24.6641 14.0547C24.6641 13.6017 24.2968 13.2344 23.8438 13.2344H14C13.547 13.2344 13.1797 13.6017 13.1797 14.0547C13.1797 14.5077 13.547 14.875 14 14.875Z" fill="url(#paint6_linear_31_9184)"/>
<path d="M14 18.1562H23.8438C24.2968 18.1562 24.6641 17.789 24.6641 17.3359C24.6641 16.8829 24.2968 16.5156 23.8438 16.5156H14C13.547 16.5156 13.1797 16.8829 13.1797 17.3359C13.1797 17.789 13.547 18.1562 14 18.1562Z" fill="black"/>
<path d="M14 18.1562H23.8438C24.2968 18.1562 24.6641 17.789 24.6641 17.3359C24.6641 16.8829 24.2968 16.5156 23.8438 16.5156H14C13.547 16.5156 13.1797 16.8829 13.1797 17.3359C13.1797 17.789 13.547 18.1562 14 18.1562Z" fill="url(#paint7_linear_31_9184)"/>
<path d="M23.8438 19.7969H20.5625C20.1095 19.7969 19.7422 20.1642 19.7422 20.6172V23.8984C19.7422 24.3515 20.1095 24.7188 20.5625 24.7188H23.8438C24.2968 24.7188 24.6641 24.3515 24.6641 23.8984V20.6172C24.6641 20.1642 24.2968 19.7969 23.8438 19.7969ZM23.0234 23.0781H21.3828V21.4375H23.0234V23.0781Z" fill="black"/>
<path d="M23.8438 19.7969H20.5625C20.1095 19.7969 19.7422 20.1642 19.7422 20.6172V23.8984C19.7422 24.3515 20.1095 24.7188 20.5625 24.7188H23.8438C24.2968 24.7188 24.6641 24.3515 24.6641 23.8984V20.6172C24.6641 20.1642 24.2968 19.7969 23.8438 19.7969ZM23.0234 23.0781H21.3828V21.4375H23.0234V23.0781Z" fill="url(#paint8_linear_31_9184)"/>
<path d="M14 24.7188H17.2812C17.7343 24.7188 18.1016 24.3515 18.1016 23.8984V20.6172C18.1016 20.1642 17.7343 19.7969 17.2812 19.7969H14C13.547 19.7969 13.1797 20.1642 13.1797 20.6172V23.8984C13.1797 24.3515 13.547 24.7188 14 24.7188ZM14.8203 21.4375H16.4609V23.0781H14.8203V21.4375Z" fill="black"/>
<path d="M14 24.7188H17.2812C17.7343 24.7188 18.1016 24.3515 18.1016 23.8984V20.6172C18.1016 20.1642 17.7343 19.7969 17.2812 19.7969H14C13.547 19.7969 13.1797 20.1642 13.1797 20.6172V23.8984C13.1797 24.3515 13.547 24.7188 14 24.7188ZM14.8203 21.4375H16.4609V23.0781H14.8203V21.4375Z" fill="url(#paint9_linear_31_9184)"/>
<path d="M4.15625 23.625H10.7188C11.1718 23.625 11.5391 23.2577 11.5391 22.8047C11.5391 22.3517 11.1718 21.9844 10.7188 21.9844H4.15625C3.70322 21.9844 3.33594 22.3517 3.33594 22.8047C3.33594 23.2577 3.70322 23.625 4.15625 23.625Z" fill="black"/>
<path d="M4.15625 23.625H10.7188C11.1718 23.625 11.5391 23.2577 11.5391 22.8047C11.5391 22.3517 11.1718 21.9844 10.7188 21.9844H4.15625C3.70322 21.9844 3.33594 22.3517 3.33594 22.8047C3.33594 23.2577 3.70322 23.625 4.15625 23.625Z" fill="url(#paint10_linear_31_9184)"/>
</g>
<defs>
<filter id="filter0_i_31_9184" x="0" y="0" width="28" height="32" filterUnits="userSpaceOnUse" color-interpolation-filters="sRGB">
<feFlood flood-opacity="0" result="BackgroundImageFix"/>
<feBlend mode="normal" in="SourceGraphic" in2="BackgroundImageFix" result="shape"/>
<feColorMatrix in="SourceAlpha" type="matrix" values="0 0 0 0 0 0 0 0 0 0 0 0 0 0 0 0 0 0 127 0" result="hardAlpha"/>
<feOffset dy="4"/>
<feGaussianBlur stdDeviation="2"/>
<feComposite in2="hardAlpha" operator="arithmetic" k2="-1" k3="1"/>
<feColorMatrix type="matrix" values="0 0 0 0 0 0 0 0 0 0 0 0 0 0 0 0 0 0 0.25 0"/>
<feBlend mode="normal" in2="shape" result="effect1_innerShadow_31_9184"/>
</filter>
<linearGradient id="paint0_linear_31_9184" x1="13.9935" y1="0.000165257" x2="13.9935" y2="27.9871" gradientUnits="userSpaceOnUse">
<stop stop-color="#FD8D2A"/>
<stop offset="1" stop-color="#FD2549"/>
</linearGradient>
<linearGradient id="paint1_linear_31_9184" x1="4.15587" y1="3.28126" x2="4.15587" y2="4.92112" gradientUnits="userSpaceOnUse">
<stop stop-color="#FD8D2A"/>
<stop offset="1" stop-color="#FD2549"/>
</linearGradient>
<linearGradient id="paint2_linear_31_9184" x1="7.43712" y1="3.28126" x2="7.43712" y2="4.92112" gradientUnits="userSpaceOnUse">
<stop stop-color="#FD8D2A"/>
<stop offset="1" stop-color="#FD2549"/>
</linearGradient>
<linearGradient id="paint3_linear_31_9184" x1="10.7184" y1="3.28126" x2="10.7184" y2="4.92112" gradientUnits="userSpaceOnUse">
<stop stop-color="#FD8D2A"/>
<stop offset="1" stop-color="#FD2549"/>
</linearGradient>
<linearGradient id="paint4_linear_31_9184" x1="7.43559" y1="9.95319" x2="7.43559" y2="20.339" gradientUnits="userSpaceOnUse">
<stop stop-color="#FD8D2A"/>
<stop offset="1" stop-color="#FD2549"/>
</linearGradient>
<linearGradient id="paint5_linear_31_9184" x1="18.9192" y1="9.95313" x2="18.9192" y2="11.593" gradientUnits="userSpaceOnUse">
<stop stop-color="#FD8D2A"/>
<stop offset="1" stop-color="#FD2549"/>
</linearGradient>
<linearGradient id="paint6_linear_31_9184" x1="18.9192" y1="13.2344" x2="18.9192" y2="14.8742" gradientUnits="userSpaceOnUse">
<stop stop-color="#FD8D2A"/>
<stop offset="1" stop-color="#FD2549"/>
</linearGradient>
<linearGradient id="paint7_linear_31_9184" x1="18.9192" y1="16.5156" x2="18.9192" y2="18.1555" gradientUnits="userSpaceOnUse">
<stop stop-color="#FD8D2A"/>
<stop offset="1" stop-color="#FD2549"/>
</linearGradient>
<linearGradient id="paint8_linear_31_9184" x1="22.202" y1="19.7969" x2="22.202" y2="24.7165" gradientUnits="userSpaceOnUse">
<stop stop-color="#FD8D2A"/>
<stop offset="1" stop-color="#FD2549"/>
</linearGradient>
<linearGradient id="paint9_linear_31_9184" x1="15.6395" y1="19.7969" x2="15.6395" y2="24.7165" gradientUnits="userSpaceOnUse">
<stop stop-color="#FD8D2A"/>
<stop offset="1" stop-color="#FD2549"/>
</linearGradient>
<linearGradient id="paint10_linear_31_9184" x1="7.43559" y1="21.9844" x2="7.43559" y2="23.6242" gradientUnits="userSpaceOnUse">
<stop stop-color="#FD8D2A"/>
<stop offset="1" stop-color="#FD2549"/>
</linearGradient>
<clipPath id="clip0_31_9184">
<rect width="28" height="28" fill="white"/>
</clipPath>
</defs>
</svg>
