<svg width="28" height="28" viewBox="0 0 28 28" fill="none" xmlns="http://www.w3.org/2000/svg">
<g filter="url(#filter0_i_31_9197)">
<path d="M21.875 10.2812H19.9042V5.7843C19.9042 2.59481 17.2547 0 13.998 0C10.7413 0 8.09173 2.59481 8.09173 5.7843V10.2812H6.125C4.31572 10.2812 2.84375 11.7532 2.84375 13.5625V24.7188C2.84375 26.528 4.31572 28 6.125 28H21.875C23.6843 28 25.1562 26.528 25.1562 24.7188V13.5625C25.1562 11.7532 23.6843 10.2812 21.875 10.2812ZM10.2792 5.7843C10.2792 3.801 11.9475 2.1875 13.998 2.1875C16.0485 2.1875 17.7167 3.801 17.7167 5.7843V10.2812H10.2792V5.7843ZM22.9688 24.7188C22.9688 25.3218 22.4781 25.8125 21.875 25.8125H6.125C5.52191 25.8125 5.03125 25.3218 5.03125 24.7188V13.5625C5.03125 12.9594 5.52191 12.4688 6.125 12.4688H21.875C22.4781 12.4688 22.9688 12.9594 22.9688 13.5625V24.7188Z" fill="black"/>
<path d="M21.875 10.2812H19.9042V5.7843C19.9042 2.59481 17.2547 0 13.998 0C10.7413 0 8.09173 2.59481 8.09173 5.7843V10.2812H6.125C4.31572 10.2812 2.84375 11.7532 2.84375 13.5625V24.7188C2.84375 26.528 4.31572 28 6.125 28H21.875C23.6843 28 25.1562 26.528 25.1562 24.7188V13.5625C25.1562 11.7532 23.6843 10.2812 21.875 10.2812ZM10.2792 5.7843C10.2792 3.801 11.9475 2.1875 13.998 2.1875C16.0485 2.1875 17.7167 3.801 17.7167 5.7843V10.2812H10.2792V5.7843ZM22.9688 24.7188C22.9688 25.3218 22.4781 25.8125 21.875 25.8125H6.125C5.52191 25.8125 5.03125 25.3218 5.03125 24.7188V13.5625C5.03125 12.9594 5.52191 12.4688 6.125 12.4688H21.875C22.4781 12.4688 22.9688 12.9594 22.9688 13.5625V24.7188Z" fill="url(#paint0_linear_31_9197)"/>
<path d="M14 15.6406C12.8825 15.6406 11.9766 16.5465 11.9766 17.6641C11.9766 18.3776 12.3462 19.0045 12.9042 19.3647V21.7656C12.9042 22.3696 13.3939 22.8594 13.998 22.8594C14.602 22.8594 15.0917 22.3696 15.0917 21.7656V19.3673C15.6519 19.0075 16.0234 18.3794 16.0234 17.6641C16.0234 16.5465 15.1175 15.6406 14 15.6406Z" fill="black"/>
<path d="M14 15.6406C12.8825 15.6406 11.9766 16.5465 11.9766 17.6641C11.9766 18.3776 12.3462 19.0045 12.9042 19.3647V21.7656C12.9042 22.3696 13.3939 22.8594 13.998 22.8594C14.602 22.8594 15.0917 22.3696 15.0917 21.7656V19.3673C15.6519 19.0075 16.0234 18.3794 16.0234 17.6641C16.0234 16.5465 15.1175 15.6406 14 15.6406Z" fill="url(#paint1_linear_31_9197)"/>
</g>
<defs>
<filter id="filter0_i_31_9197" x="0" y="0" width="28" height="32" filterUnits="userSpaceOnUse" color-interpolation-filters="sRGB">
<feFlood flood-opacity="0" result="BackgroundImageFix"/>
<feBlend mode="normal" in="SourceGraphic" in2="BackgroundImageFix" result="shape"/>
<feColorMatrix in="SourceAlpha" type="matrix" values="0 0 0 0 0 0 0 0 0 0 0 0 0 0 0 0 0 0 127 0" result="hardAlpha"/>
<feOffset dy="4"/>
<feGaussianBlur stdDeviation="2"/>
<feComposite in2="hardAlpha" operator="arithmetic" k2="-1" k3="1"/>
<feColorMatrix type="matrix" values="0 0 0 0 0 0 0 0 0 0 0 0 0 0 0 0 0 0 0.25 0"/>
<feBlend mode="normal" in2="shape" result="effect1_innerShadow_31_9197"/>
</filter>
<linearGradient id="paint0_linear_31_9197" x1="13.9948" y1="0.000165257" x2="13.9948" y2="27.9871" gradientUnits="userSpaceOnUse">
<stop stop-color="#FD8D2A"/>
<stop offset="1" stop-color="#FD2549"/>
</linearGradient>
<linearGradient id="paint1_linear_31_9197" x1="13.9991" y1="15.6407" x2="13.9991" y2="22.8561" gradientUnits="userSpaceOnUse">
<stop stop-color="#FD8D2A"/>
<stop offset="1" stop-color="#FD2549"/>
</linearGradient>
</defs>
</svg>
