<svg width="28" height="28" viewBox="0 0 28 28" fill="none" xmlns="http://www.w3.org/2000/svg">
<g clip-path="url(#clip0_31_9204)" filter="url(#filter0_i_31_9204)">
<path d="M27.2781 8.81163C26.3186 7.85209 24.7573 7.85214 23.7975 8.81185C23.5023 9.10733 21.6175 10.9937 21.3296 11.2819V4.78111C21.3296 4.12377 21.0736 3.5058 20.6088 3.04101L18.2886 0.720781C17.8238 0.255938 17.2058 0 16.5485 0H2.4624C1.10544 0 0.00146484 1.10398 0.00146484 2.46094V25.5391C0.00146484 26.896 1.10544 28 2.4624 28H18.8687C20.2256 28 21.3296 26.896 21.3296 25.5391V18.2454L27.2781 12.2919C28.2398 11.3302 28.2401 9.77348 27.2781 8.81163ZM16.4078 1.64062C16.5628 1.64062 16.8614 1.61377 17.1286 1.88087L19.4487 4.20109C19.709 4.46146 19.689 4.74677 19.689 4.92188H16.4078V1.64062ZM19.689 25.5391C19.689 25.9914 19.321 26.3594 18.8687 26.3594H2.4624C2.01008 26.3594 1.64209 25.9914 1.64209 25.5391V2.46094C1.64209 2.00862 2.01008 1.64062 2.4624 1.64062H14.7671V5.74219C14.7671 6.19522 15.1344 6.5625 15.5874 6.5625H19.689V12.9239C19.689 12.9239 17.2688 15.3461 17.2687 15.3462L16.1092 16.5058C16.0192 16.5958 15.9512 16.7056 15.911 16.8264L14.7508 20.3067C14.6526 20.6015 14.7293 20.9265 14.949 21.1462C15.169 21.3662 15.4942 21.4425 15.7885 21.3444L19.2688 20.1843C19.3896 20.144 19.4994 20.0762 19.5894 19.9861L19.689 19.8866V25.5391ZM17.8493 17.0859L19.0094 18.2459L18.5662 18.6891L16.8261 19.2691L17.4061 17.5289L17.8493 17.0859ZM20.1692 17.0856L19.0091 15.9255C19.6269 15.3073 22.3705 12.5613 22.9524 11.9789L24.1125 13.139L20.1692 17.0856ZM26.1178 11.1321L25.2721 11.9784L24.112 10.8183L24.9579 9.97172C25.278 9.65185 25.7983 9.65191 26.1181 9.97172C26.4378 10.2916 26.4395 10.8102 26.1178 11.1321Z" fill="black"/>
<path d="M27.2781 8.81163C26.3186 7.85209 24.7573 7.85214 23.7975 8.81185C23.5023 9.10733 21.6175 10.9937 21.3296 11.2819V4.78111C21.3296 4.12377 21.0736 3.5058 20.6088 3.04101L18.2886 0.720781C17.8238 0.255938 17.2058 0 16.5485 0H2.4624C1.10544 0 0.00146484 1.10398 0.00146484 2.46094V25.5391C0.00146484 26.896 1.10544 28 2.4624 28H18.8687C20.2256 28 21.3296 26.896 21.3296 25.5391V18.2454L27.2781 12.2919C28.2398 11.3302 28.2401 9.77348 27.2781 8.81163ZM16.4078 1.64062C16.5628 1.64062 16.8614 1.61377 17.1286 1.88087L19.4487 4.20109C19.709 4.46146 19.689 4.74677 19.689 4.92188H16.4078V1.64062ZM19.689 25.5391C19.689 25.9914 19.321 26.3594 18.8687 26.3594H2.4624C2.01008 26.3594 1.64209 25.9914 1.64209 25.5391V2.46094C1.64209 2.00862 2.01008 1.64062 2.4624 1.64062H14.7671V5.74219C14.7671 6.19522 15.1344 6.5625 15.5874 6.5625H19.689V12.9239C19.689 12.9239 17.2688 15.3461 17.2687 15.3462L16.1092 16.5058C16.0192 16.5958 15.9512 16.7056 15.911 16.8264L14.7508 20.3067C14.6526 20.6015 14.7293 20.9265 14.949 21.1462C15.169 21.3662 15.4942 21.4425 15.7885 21.3444L19.2688 20.1843C19.3896 20.144 19.4994 20.0762 19.5894 19.9861L19.689 19.8866V25.5391ZM17.8493 17.0859L19.0094 18.2459L18.5662 18.6891L16.8261 19.2691L17.4061 17.5289L17.8493 17.0859ZM20.1692 17.0856L19.0091 15.9255C19.6269 15.3073 22.3705 12.5613 22.9524 11.9789L24.1125 13.139L20.1692 17.0856ZM26.1178 11.1321L25.2721 11.9784L24.112 10.8183L24.9579 9.97172C25.278 9.65185 25.7983 9.65191 26.1181 9.97172C26.4378 10.2916 26.4395 10.8102 26.1178 11.1321Z" fill="url(#paint0_linear_31_9204)"/>
<path d="M15.5874 8.20312H4.10303C3.65 8.20312 3.28271 8.57041 3.28271 9.02344C3.28271 9.47647 3.65 9.84375 4.10303 9.84375H15.5874C16.0404 9.84375 16.4077 9.47647 16.4077 9.02344C16.4077 8.57041 16.0404 8.20312 15.5874 8.20312Z" fill="black"/>
<path d="M15.5874 8.20312H4.10303C3.65 8.20312 3.28271 8.57041 3.28271 9.02344C3.28271 9.47647 3.65 9.84375 4.10303 9.84375H15.5874C16.0404 9.84375 16.4077 9.47647 16.4077 9.02344C16.4077 8.57041 16.0404 8.20312 15.5874 8.20312Z" fill="url(#paint1_linear_31_9204)"/>
<path d="M12.3062 11.4844H4.10303C3.65 11.4844 3.28271 11.8517 3.28271 12.3047C3.28271 12.7577 3.65 13.125 4.10303 13.125H12.3062C12.7592 13.125 13.1265 12.7577 13.1265 12.3047C13.1265 11.8517 12.7592 11.4844 12.3062 11.4844Z" fill="black"/>
<path d="M12.3062 11.4844H4.10303C3.65 11.4844 3.28271 11.8517 3.28271 12.3047C3.28271 12.7577 3.65 13.125 4.10303 13.125H12.3062C12.7592 13.125 13.1265 12.7577 13.1265 12.3047C13.1265 11.8517 12.7592 11.4844 12.3062 11.4844Z" fill="url(#paint2_linear_31_9204)"/>
<path d="M12.3062 14.7656H4.10303C3.65 14.7656 3.28271 15.1329 3.28271 15.5859C3.28271 16.039 3.65 16.4062 4.10303 16.4062H12.3062C12.7592 16.4062 13.1265 16.039 13.1265 15.5859C13.1265 15.1329 12.7592 14.7656 12.3062 14.7656Z" fill="black"/>
<path d="M12.3062 14.7656H4.10303C3.65 14.7656 3.28271 15.1329 3.28271 15.5859C3.28271 16.039 3.65 16.4062 4.10303 16.4062H12.3062C12.7592 16.4062 13.1265 16.039 13.1265 15.5859C13.1265 15.1329 12.7592 14.7656 12.3062 14.7656Z" fill="url(#paint3_linear_31_9204)"/>
<path d="M12.3062 18.0469H4.10303C3.65 18.0469 3.28271 18.4142 3.28271 18.8672C3.28271 19.3202 3.65 19.6875 4.10303 19.6875H12.3062C12.7592 19.6875 13.1265 19.3202 13.1265 18.8672C13.1265 18.4142 12.7592 18.0469 12.3062 18.0469Z" fill="black"/>
<path d="M12.3062 18.0469H4.10303C3.65 18.0469 3.28271 18.4142 3.28271 18.8672C3.28271 19.3202 3.65 19.6875 4.10303 19.6875H12.3062C12.7592 19.6875 13.1265 19.3202 13.1265 18.8672C13.1265 18.4142 12.7592 18.0469 12.3062 18.0469Z" fill="url(#paint4_linear_31_9204)"/>
<path d="M15.5874 23.0781H10.6655C10.2125 23.0781 9.84521 23.4454 9.84521 23.8984C9.84521 24.3515 10.2125 24.7188 10.6655 24.7188H15.5874C16.0404 24.7188 16.4077 24.3515 16.4077 23.8984C16.4077 23.4454 16.0404 23.0781 15.5874 23.0781Z" fill="black"/>
<path d="M15.5874 23.0781H10.6655C10.2125 23.0781 9.84521 23.4454 9.84521 23.8984C9.84521 24.3515 10.2125 24.7188 10.6655 24.7188H15.5874C16.0404 24.7188 16.4077 24.3515 16.4077 23.8984C16.4077 23.4454 16.0404 23.0781 15.5874 23.0781Z" fill="url(#paint5_linear_31_9204)"/>
</g>
<defs>
<filter id="filter0_i_31_9204" x="0" y="0" width="28" height="32" filterUnits="userSpaceOnUse" color-interpolation-filters="sRGB">
<feFlood flood-opacity="0" result="BackgroundImageFix"/>
<feBlend mode="normal" in="SourceGraphic" in2="BackgroundImageFix" result="shape"/>
<feColorMatrix in="SourceAlpha" type="matrix" values="0 0 0 0 0 0 0 0 0 0 0 0 0 0 0 0 0 0 127 0" result="hardAlpha"/>
<feOffset dy="4"/>
<feGaussianBlur stdDeviation="2"/>
<feComposite in2="hardAlpha" operator="arithmetic" k2="-1" k3="1"/>
<feColorMatrix type="matrix" values="0 0 0 0 0 0 0 0 0 0 0 0 0 0 0 0 0 0 0.25 0"/>
<feBlend mode="normal" in2="shape" result="effect1_innerShadow_31_9204"/>
</filter>
<linearGradient id="paint0_linear_31_9204" x1="13.994" y1="0.000165257" x2="13.994" y2="27.9871" gradientUnits="userSpaceOnUse">
<stop stop-color="#FD8D2A"/>
<stop offset="1" stop-color="#FD2549"/>
</linearGradient>
<linearGradient id="paint1_linear_31_9204" x1="9.84216" y1="8.20313" x2="9.84216" y2="9.843" gradientUnits="userSpaceOnUse">
<stop stop-color="#FD8D2A"/>
<stop offset="1" stop-color="#FD2549"/>
</linearGradient>
<linearGradient id="paint2_linear_31_9204" x1="8.2023" y1="11.4844" x2="8.2023" y2="13.1242" gradientUnits="userSpaceOnUse">
<stop stop-color="#FD8D2A"/>
<stop offset="1" stop-color="#FD2549"/>
</linearGradient>
<linearGradient id="paint3_linear_31_9204" x1="8.2023" y1="14.7656" x2="8.2023" y2="16.4055" gradientUnits="userSpaceOnUse">
<stop stop-color="#FD8D2A"/>
<stop offset="1" stop-color="#FD2549"/>
</linearGradient>
<linearGradient id="paint4_linear_31_9204" x1="8.2023" y1="18.0469" x2="8.2023" y2="19.6867" gradientUnits="userSpaceOnUse">
<stop stop-color="#FD8D2A"/>
<stop offset="1" stop-color="#FD2549"/>
</linearGradient>
<linearGradient id="paint5_linear_31_9204" x1="13.1249" y1="23.0781" x2="13.1249" y2="24.718" gradientUnits="userSpaceOnUse">
<stop stop-color="#FD8D2A"/>
<stop offset="1" stop-color="#FD2549"/>
</linearGradient>
<clipPath id="clip0_31_9204">
<rect width="28" height="28" fill="white"/>
</clipPath>
</defs>
</svg>
