<svg width="28" height="28" viewBox="0 0 28 28" fill="none" xmlns="http://www.w3.org/2000/svg">
<g clip-path="url(#clip0_31_9224)" filter="url(#filter0_i_31_9224)">
<path d="M20.124 28C19.2201 28 18.324 27.8402 17.4476 27.5218C13.587 26.1194 10.0034 23.8352 7.08434 20.9161C4.16524 17.9971 1.88104 14.4135 0.478632 10.5528C0.0279711 9.31213 -0.105023 8.0314 0.0834766 6.74608C0.260055 5.54213 0.726411 4.37334 1.43218 3.36604C2.14106 2.35431 3.08613 1.51281 4.16518 0.932548C5.31587 0.313784 6.57183 0 7.89827 0C8.31082 0 8.66737 0.288246 8.75382 0.691604L10.1272 7.10066C10.1894 7.39088 10.1002 7.69285 9.89035 7.90273L7.54364 10.2494C9.75741 14.6508 13.3496 18.2429 17.751 20.4567L20.0976 18.11C20.3075 17.9002 20.6095 17.8111 20.8997 17.8732L27.3088 19.2465C27.7122 19.333 28.0004 19.6895 28.0004 20.1021C28.0004 21.4285 27.6866 22.6845 27.0678 23.8352C26.4875 24.9143 25.646 25.8593 24.6343 26.5682C23.627 27.274 22.4582 27.7404 21.2542 27.9169C20.8769 27.9723 20.4997 27.9999 20.124 28ZM7.19918 1.78821C5.44952 1.98136 3.89657 2.89843 2.86532 4.37028C1.70566 6.02533 1.43524 8.06099 2.1234 9.9554C4.8196 17.3776 10.6229 23.1809 18.0451 25.8771C19.9394 26.5652 21.9751 26.2949 23.6302 25.1351C25.102 24.1039 26.0191 22.5509 26.2123 20.8013L20.9985 19.6841L18.5477 22.1348C18.2869 22.3956 17.8907 22.4649 17.557 22.3081C12.3515 19.8626 8.1379 15.649 5.69238 10.4435C5.5356 10.1097 5.60483 9.71347 5.86562 9.45273L8.3164 7.00196L7.19918 1.78821Z" fill="black"/>
<path d="M20.124 28C19.2201 28 18.324 27.8402 17.4476 27.5218C13.587 26.1194 10.0034 23.8352 7.08434 20.9161C4.16524 17.9971 1.88104 14.4135 0.478632 10.5528C0.0279711 9.31213 -0.105023 8.0314 0.0834766 6.74608C0.260055 5.54213 0.726411 4.37334 1.43218 3.36604C2.14106 2.35431 3.08613 1.51281 4.16518 0.932548C5.31587 0.313784 6.57183 0 7.89827 0C8.31082 0 8.66737 0.288246 8.75382 0.691604L10.1272 7.10066C10.1894 7.39088 10.1002 7.69285 9.89035 7.90273L7.54364 10.2494C9.75741 14.6508 13.3496 18.2429 17.751 20.4567L20.0976 18.11C20.3075 17.9002 20.6095 17.8111 20.8997 17.8732L27.3088 19.2465C27.7122 19.333 28.0004 19.6895 28.0004 20.1021C28.0004 21.4285 27.6866 22.6845 27.0678 23.8352C26.4875 24.9143 25.646 25.8593 24.6343 26.5682C23.627 27.274 22.4582 27.7404 21.2542 27.9169C20.8769 27.9723 20.4997 27.9999 20.124 28ZM7.19918 1.78821C5.44952 1.98136 3.89657 2.89843 2.86532 4.37028C1.70566 6.02533 1.43524 8.06099 2.1234 9.9554C4.8196 17.3776 10.6229 23.1809 18.0451 25.8771C19.9394 26.5652 21.9751 26.2949 23.6302 25.1351C25.102 24.1039 26.0191 22.5509 26.2123 20.8013L20.9985 19.6841L18.5477 22.1348C18.2869 22.3956 17.8907 22.4649 17.557 22.3081C12.3515 19.8626 8.1379 15.649 5.69238 10.4435C5.5356 10.1097 5.60483 9.71347 5.86562 9.45273L8.3164 7.00196L7.19918 1.78821Z" fill="url(#paint0_linear_31_9224)"/>
<path d="M27.1254 14.8744C26.6422 14.8744 26.2504 14.4826 26.2504 13.9994C26.2504 7.24503 20.7553 1.74993 14.0009 1.74993C13.5177 1.74993 13.126 1.35816 13.126 0.874964C13.126 0.391765 13.5177 0 14.0009 0C17.7404 0 21.2559 1.45616 23.9001 4.1003C26.5442 6.74444 28.0004 10.26 28.0004 13.9994C28.0004 14.4826 27.6087 14.8744 27.1254 14.8744Z" fill="black"/>
<path d="M27.1254 14.8744C26.6422 14.8744 26.2504 14.4826 26.2504 13.9994C26.2504 7.24503 20.7553 1.74993 14.0009 1.74993C13.5177 1.74993 13.126 1.35816 13.126 0.874964C13.126 0.391765 13.5177 0 14.0009 0C17.7404 0 21.2559 1.45616 23.9001 4.1003C26.5442 6.74444 28.0004 10.26 28.0004 13.9994C28.0004 14.4826 27.6087 14.8744 27.1254 14.8744Z" fill="url(#paint1_linear_31_9224)"/>
<path d="M23.6255 14.8744C23.1423 14.8744 22.7506 14.4827 22.7506 13.9995C22.7506 9.1749 18.8255 5.24981 14.0009 5.24981C13.5177 5.24981 13.126 4.85804 13.126 4.37484C13.126 3.89164 13.5177 3.49988 14.0009 3.49988C19.7904 3.49988 24.5005 8.20998 24.5005 13.9995C24.5005 14.4827 24.1088 14.8744 23.6255 14.8744Z" fill="black"/>
<path d="M23.6255 14.8744C23.1423 14.8744 22.7506 14.4827 22.7506 13.9995C22.7506 9.1749 18.8255 5.24981 14.0009 5.24981C13.5177 5.24981 13.126 4.85804 13.126 4.37484C13.126 3.89164 13.5177 3.49988 14.0009 3.49988C19.7904 3.49988 24.5005 8.20998 24.5005 13.9995C24.5005 14.4827 24.1088 14.8744 23.6255 14.8744Z" fill="url(#paint2_linear_31_9224)"/>
<path d="M20.1257 14.8744C19.6425 14.8744 19.2507 14.4827 19.2507 13.9995C19.2507 11.1047 16.8957 8.74969 14.0009 8.74969C13.5177 8.74969 13.126 8.35792 13.126 7.87472C13.126 7.39152 13.5177 6.99976 14.0009 6.99976C17.8606 6.99976 21.0007 10.1398 21.0007 13.9995C21.0007 14.4827 20.6089 14.8744 20.1257 14.8744Z" fill="black"/>
<path d="M20.1257 14.8744C19.6425 14.8744 19.2507 14.4827 19.2507 13.9995C19.2507 11.1047 16.8957 8.74969 14.0009 8.74969C13.5177 8.74969 13.126 8.35792 13.126 7.87472C13.126 7.39152 13.5177 6.99976 14.0009 6.99976C17.8606 6.99976 21.0007 10.1398 21.0007 13.9995C21.0007 14.4827 20.6089 14.8744 20.1257 14.8744Z" fill="url(#paint3_linear_31_9224)"/>
</g>
<defs>
<filter id="filter0_i_31_9224" x="0" y="0" width="28" height="32" filterUnits="userSpaceOnUse" color-interpolation-filters="sRGB">
<feFlood flood-opacity="0" result="BackgroundImageFix"/>
<feBlend mode="normal" in="SourceGraphic" in2="BackgroundImageFix" result="shape"/>
<feColorMatrix in="SourceAlpha" type="matrix" values="0 0 0 0 0 0 0 0 0 0 0 0 0 0 0 0 0 0 127 0" result="hardAlpha"/>
<feOffset dy="4"/>
<feGaussianBlur stdDeviation="2"/>
<feComposite in2="hardAlpha" operator="arithmetic" k2="-1" k3="1"/>
<feColorMatrix type="matrix" values="0 0 0 0 0 0 0 0 0 0 0 0 0 0 0 0 0 0 0.25 0"/>
<feBlend mode="normal" in2="shape" result="effect1_innerShadow_31_9224"/>
</filter>
<linearGradient id="paint0_linear_31_9224" x1="13.9939" y1="0.000165257" x2="13.9939" y2="27.9871" gradientUnits="userSpaceOnUse">
<stop stop-color="#FD8D2A"/>
<stop offset="1" stop-color="#FD2549"/>
</linearGradient>
<linearGradient id="paint1_linear_31_9224" x1="20.5597" y1="8.77892e-05" x2="20.5597" y2="14.8676" gradientUnits="userSpaceOnUse">
<stop stop-color="#FD8D2A"/>
<stop offset="1" stop-color="#FD2549"/>
</linearGradient>
<linearGradient id="paint2_linear_31_9224" x1="18.8106" y1="3.49995" x2="18.8106" y2="14.8692" gradientUnits="userSpaceOnUse">
<stop stop-color="#FD8D2A"/>
<stop offset="1" stop-color="#FD2549"/>
</linearGradient>
<linearGradient id="paint3_linear_31_9224" x1="17.0615" y1="6.9998" x2="17.0615" y2="14.8708" gradientUnits="userSpaceOnUse">
<stop stop-color="#FD8D2A"/>
<stop offset="1" stop-color="#FD2549"/>
</linearGradient>
<clipPath id="clip0_31_9224">
<rect width="28" height="28" fill="white"/>
</clipPath>
</defs>
</svg>
