<svg width="17" height="15" viewBox="0 0 17 15" fill="none" xmlns="http://www.w3.org/2000/svg">
<path d="M1.02179 6.09643C1.09135 6.08514 1.16175 6.07993 1.23218 6.08085H13.2253L12.9638 5.95921C12.7082 5.83822 12.4757 5.67356 12.2766 5.47268L8.91341 2.10949C8.47048 1.68666 8.39605 1.00646 8.73704 0.49784C9.13391 -0.044154 9.895 -0.161835 10.437 0.235034C10.4808 0.267115 10.5224 0.302085 10.5616 0.339716L16.6433 6.42142C17.1185 6.89617 17.119 7.66631 16.6442 8.14159C16.6439 8.1419 16.6436 8.14224 16.6433 8.14254L10.5616 14.2242C10.0859 14.6986 9.31576 14.6975 8.84138 14.2219C8.80406 14.1844 8.7692 14.1446 8.73704 14.1026C8.39605 13.594 8.47048 12.9138 8.91341 12.491L12.2705 9.1217C12.449 8.94305 12.6542 8.79325 12.8787 8.67773L13.2436 8.51353H1.29912C0.677759 8.5366 0.132608 8.10256 0.0158787 7.4918C-0.0916538 6.82871 0.358698 6.204 1.02179 6.09643Z" fill="black"/>
</svg>
