<svg width="25" height="25" viewBox="0 0 25 25" fill="none" xmlns="http://www.w3.org/2000/svg">
<path d="M23.8685 2.72328C24.0961 2.56173 24.15 2.24548 23.989 2.01706C23.828 1.78863 23.5132 1.73442 23.2856 1.89613L22.0252 2.79143C21.7977 2.95297 21.7438 3.26922 21.9048 3.49765C22.0031 3.63715 22.1589 3.71172 22.3171 3.71172C22.4178 3.71172 22.5196 3.68149 22.6082 3.61849L23.8685 2.72328Z" fill="url(#paint0_linear_34_27)"/>
<path d="M20.5294 2.43201C20.5879 2.45414 20.6479 2.46461 20.7069 2.46461C20.9111 2.46461 21.1033 2.33929 21.1793 2.13603L21.7227 0.685081C21.8208 0.423214 21.6888 0.131031 21.4279 0.0325671C21.1671 -0.0659813 20.876 0.0666832 20.7779 0.32855L20.2345 1.7795C20.1365 2.04137 20.2685 2.33355 20.5294 2.43201Z" fill="url(#paint1_linear_34_27)"/>
<path d="M24.4932 4.64673C24.4898 4.64673 24.4863 4.64673 24.4828 4.64673L22.9393 4.65973C22.6606 4.66539 22.4393 4.87971 22.4449 5.15948C22.4505 5.43571 22.6753 5.66008 22.9494 5.66008C22.9528 5.66008 22.9562 5.66008 22.9598 5.66008L24.5033 5.63365C24.782 5.62791 25.0033 5.40294 24.9977 5.12317C24.9921 4.84695 24.7673 4.64673 24.4932 4.64673Z" fill="url(#paint2_linear_34_27)"/>
<path d="M21.3809 12.3766C21.1225 12.1712 20.8165 12.0313 20.493 11.9656C20.5143 11.9268 20.5343 11.8873 20.5531 11.8472L20.7557 11.6438C21.5357 10.8606 21.6176 9.62776 20.9461 8.77595C20.6291 8.3739 20.189 8.10672 19.7002 8.00698C19.7351 7.94247 19.7661 7.87652 19.7942 7.80955C20.3254 7.03695 20.3168 5.99861 19.7284 5.25227C19.4113 4.84997 18.971 4.58194 18.482 4.48238C18.8858 3.73706 18.8342 2.80816 18.2949 2.12423C17.8871 1.607 17.2763 1.31025 16.6191 1.31025C16.0928 1.31025 15.5963 1.49908 15.2067 1.8448C15.1477 1.50879 15.0079 1.18426 14.7851 0.901621C14.3772 0.384389 13.7665 0.0877309 13.1092 0.0876465C12.5381 0.0876465 12.002 0.310162 11.5997 0.714066L6.48227 5.85176L6.46276 5.16605C6.45376 3.99817 5.50455 3.05077 4.33917 3.05077C3.1949 3.05077 2.25915 3.96405 2.2171 5.10264L1.19547 12.5597L0.35577 13.5396C-0.147474 14.1271 -0.113745 15.0158 0.432733 15.5631L1.68071 16.8139C1.29598 17.395 1.36335 18.1875 1.86626 18.6912L7.72613 24.565C8.00614 24.8454 8.37783 24.9997 8.77299 24.9997C9.09741 24.9997 9.41797 24.8903 9.67543 24.6919L10.8988 23.7488C12.0756 23.4697 13.373 22.8357 14.7573 21.8631C15.9661 21.0138 17.2775 19.882 18.6549 18.4991L21.5678 15.5747C21.9973 15.1434 22.2234 14.5455 22.1881 13.9342C22.1528 13.3239 21.8586 12.7562 21.3809 12.3766ZM15.8231 2.65311C16.0421 2.43339 16.3305 2.32352 16.619 2.32352C16.9483 2.32352 17.2777 2.46666 17.5034 2.75301C17.8614 3.20708 17.7987 3.86601 17.3908 4.2754L16.8713 4.79694C16.7912 4.85057 16.7132 4.9079 16.6402 4.97284C16.5812 4.63675 16.4414 4.31222 16.2185 4.02967C15.9446 3.68226 15.579 3.43491 15.1692 3.3096L15.8231 2.65311ZM12.3134 1.43059C12.5322 1.21086 12.8207 1.101 13.1092 1.101C13.4386 1.10108 13.7679 1.24422 13.9937 1.53057C14.3517 1.98464 14.2889 2.64349 13.8811 3.05288L7.91588 8.9798L7.89629 8.29419C7.89116 7.6334 7.58507 7.04337 7.10933 6.65551L12.3134 1.43059ZM1.1455 14.8456C0.97038 14.6701 0.959698 14.3887 1.12103 14.2004L2.15401 12.9948C2.15452 12.9942 2.15494 12.9933 2.15502 12.9926L3.22493 5.18278C3.22493 4.5675 3.72633 4.06412 4.33917 4.06412C4.95201 4.06412 5.45349 4.5675 5.45349 5.18278L5.48251 6.19908C4.47417 6.33808 3.68906 7.18989 3.65054 8.2306L2.62899 15.6878L2.33183 16.0347L1.1455 14.8456ZM20.854 14.8581L17.9412 17.7825C15.4534 20.2802 12.8529 22.285 10.5685 22.7849C10.4991 22.8001 10.4338 22.8294 10.3774 22.8729L9.06065 23.8881C8.97536 23.9539 8.87401 23.9863 8.77307 23.9863C8.6517 23.9863 8.53083 23.9394 8.43932 23.8477L2.57912 17.9736C2.40391 17.7982 2.39323 17.5169 2.55464 17.3285L3.58754 16.1229C3.58813 16.1222 3.58847 16.1215 3.58863 16.1207L4.65846 8.31091C4.65846 7.69563 5.15994 7.19217 5.77278 7.19217C6.38563 7.19217 6.88702 7.69563 6.88702 8.31091L6.93968 10.1539C6.94842 10.4601 7.19933 10.6594 7.46041 10.6594C7.58776 10.6594 7.71763 10.6119 7.82286 10.5063L13.747 4.55872C13.9659 4.33891 14.2543 4.22913 14.5429 4.22913C14.8722 4.22913 15.2015 4.37226 15.4273 4.65862C15.7853 5.11268 15.7224 5.77162 15.3146 6.18101L11.2336 10.2782C11.0217 10.491 11.0217 10.8358 11.2336 11.0484C11.3409 11.1561 11.4814 11.2099 11.622 11.2099C11.7625 11.2099 11.9032 11.1561 12.0103 11.0484L17.2567 5.78124C17.4756 5.56143 17.764 5.45165 18.0526 5.45165C18.3819 5.45174 18.7113 5.59487 18.9371 5.88123C19.295 6.33521 19.2322 6.99414 18.8243 7.40353L13.6026 12.646C13.3878 12.8617 13.3878 13.2111 13.6026 13.4268C13.7084 13.533 13.847 13.5862 13.9858 13.5862C14.1244 13.5862 14.2631 13.533 14.3689 13.4268L18.4745 9.305C18.6935 9.08519 18.9819 8.97541 19.2704 8.97541C19.5997 8.97541 19.9291 9.11855 20.1548 9.40499C20.5128 9.85897 20.45 10.5179 20.0421 10.9273L15.9754 15.0103C15.7557 15.2307 15.7557 15.5885 15.9754 15.8089L15.9819 15.8156C16.0835 15.9175 16.2165 15.9685 16.3495 15.9685C16.4826 15.9685 16.6156 15.9175 16.7171 15.8156L19.2383 13.2844C19.4655 13.0563 19.7696 12.9358 20.0727 12.9358C20.3139 12.9358 20.5544 13.0121 20.7546 13.1713C21.2896 13.5964 21.3227 14.3875 20.854 14.8581Z" fill="url(#paint3_linear_34_27)"/>
<defs>
<linearGradient id="paint0_linear_34_27" x1="22.9463" y1="1.80299" x2="22.9463" y2="3.71084" gradientUnits="userSpaceOnUse">
<stop stop-color="#ED7212"/>
<stop offset="1" stop-color="#EB5F07"/>
</linearGradient>
<linearGradient id="paint1_linear_34_27" x1="20.9783" y1="1.45462e-05" x2="20.9783" y2="2.46348" gradientUnits="userSpaceOnUse">
<stop stop-color="#ED7212"/>
<stop offset="1" stop-color="#EB5F07"/>
</linearGradient>
<linearGradient id="paint2_linear_34_27" x1="23.7207" y1="4.64673" x2="23.7207" y2="5.65961" gradientUnits="userSpaceOnUse">
<stop stop-color="#ED7212"/>
<stop offset="1" stop-color="#EB5F07"/>
</linearGradient>
<linearGradient id="paint3_linear_34_27" x1="11.0904" y1="0.0877935" x2="11.0904" y2="24.9883" gradientUnits="userSpaceOnUse">
<stop stop-color="#ED7212"/>
<stop offset="1" stop-color="#EB5F07"/>
</linearGradient>
</defs>
</svg>
