<svg width="60" height="60" viewBox="0 0 60 60" fill="none" xmlns="http://www.w3.org/2000/svg">
<g clip-path="url(#clip0_31_9732)">
<g filter="url(#filter0_i_31_9732)">
<path d="M53.64 55.0479C53.1502 55.0479 52.7011 54.7329 52.5368 54.271C52.3752 53.8178 52.5116 53.2937 52.881 52.9829C53.2674 52.6579 53.8282 52.6171 54.258 52.8817C54.6567 53.1275 54.8709 53.6059 54.7954 54.0678C54.7039 54.6263 54.2049 55.0479 53.64 55.0479Z" fill="url(#paint0_linear_31_9732)"/>
</g>
<g filter="url(#filter1_i_31_9732)">
<path d="M30 48.3559C29.3527 48.3559 28.8281 47.8313 28.8281 47.184V38.3917C28.8281 37.7444 29.3527 37.2198 30 37.2198C30.6473 37.2198 31.1719 37.7444 31.1719 38.3917V47.184C31.1719 47.8313 30.6473 48.3559 30 48.3559Z" fill="url(#paint1_linear_31_9732)"/>
</g>
<g filter="url(#filter2_i_31_9732)">
<path d="M58.8281 33.3659H41.9518V30.2407C41.9518 29.5934 41.4272 29.0688 40.7799 29.0688H19.2201C18.5728 29.0688 18.0482 29.5934 18.0482 30.2407V36.4865H1.17188C0.524597 36.4865 0 37.011 0 37.6583V53.8764C0 54.5237 0.524597 55.0483 1.17188 55.0483H58.8281C59.4754 55.0483 58.8281 54.5237 58.8281 53.8764C58.8281 53.2292 59.0652 52.7041 58.418 52.7041L41.9518 52.7046V35.7096H57.6562V53.8764C57.6562 54.5237 58.1808 55.0483 58.8281 55.0483C59.4754 55.0483 60 54.5237 60 53.8764V34.5378C60 33.8905 59.4754 33.3659 58.8281 33.3659ZM2.34375 38.8302H18.0482V52.7046H2.34375V38.8302ZM20.392 31.4126H39.608V52.7041H20.392V31.4126Z" fill="url(#paint2_linear_31_9732)"/>
</g>
<g filter="url(#filter3_i_31_9732)">
<path d="M12.8636 30.4011C12.6123 30.4011 12.3591 30.3517 12.1174 30.2514L10.1962 29.4554L8.27449 30.2514C7.64644 30.5119 6.9424 30.4286 6.39217 30.0289C5.84148 29.6288 5.54485 28.9852 5.59841 28.3073L5.76229 26.2336L4.41097 24.652C3.96877 24.1348 3.83052 23.4399 4.04064 22.7931C4.25121 22.1458 4.77123 21.6647 5.43316 21.5063L7.45556 21.0211L8.54229 19.2472C8.89751 18.6672 9.51595 18.3212 10.1962 18.3212C10.8764 18.3212 11.4949 18.6672 11.8501 19.2472L12.9364 21.0211L14.9592 21.5063C15.6207 21.6647 16.1412 22.1458 16.3513 22.7931C16.5614 23.4399 16.4231 24.1348 15.9814 24.652L14.6305 26.2336L14.794 28.3073C14.8475 28.9852 14.5509 29.6288 14.0002 30.0289C13.6615 30.2748 13.2646 30.4011 12.8636 30.4011ZM6.62151 23.6312L7.8593 25.0805C8.06118 25.3167 8.16097 25.6239 8.13671 25.9338L7.98656 27.8335L9.74712 27.1038C10.0346 26.9848 10.3573 26.9848 10.6443 27.1038L12.4049 27.8335L12.2552 25.9338C12.2309 25.6239 12.3307 25.3167 12.5326 25.0805L13.7704 23.6312L11.9174 23.1867C11.6148 23.1144 11.3539 22.9244 11.1914 22.6594L10.1957 21.0343L9.20055 22.6594C9.03804 22.9244 8.77666 23.1144 8.47454 23.1867L6.62151 23.6312ZM14.4122 23.7855H14.4131H14.4122Z" fill="url(#paint3_linear_31_9732)"/>
</g>
<g filter="url(#filter4_i_31_9732)">
<path d="M47.137 30.4011C46.7356 30.4011 46.3387 30.2748 46 30.0289C45.4497 29.6288 45.1531 28.9852 45.2067 28.3073L45.3701 26.2336L44.0192 24.6525C43.577 24.1348 43.4388 23.4399 43.6493 22.7931C43.8595 22.1458 44.3799 21.6647 45.0414 21.5063L47.0638 21.0211L48.1505 19.2472C48.5058 18.6672 49.1242 18.3212 49.804 18.3212C50.4847 18.3207 51.1027 18.6672 51.4583 19.2472V19.2477L52.5451 21.0211L54.5675 21.5063C55.2289 21.6651 55.7494 22.1462 55.9595 22.7931C56.1701 23.4403 56.0314 24.1352 55.5897 24.6525L54.2388 26.2336L54.4022 28.3073C54.4558 28.9857 54.1591 29.6293 53.6089 30.0289C53.0582 30.4286 52.3546 30.5119 51.7261 30.2514L49.8044 29.4554L47.8832 30.2514C47.641 30.3517 47.3879 30.4011 47.137 30.4011ZM49.804 27.0146C49.9569 27.0146 50.1093 27.0443 50.2526 27.1038L52.0136 27.8335L51.8635 25.9338C51.8392 25.6239 51.939 25.3167 52.1409 25.0805L53.3787 23.6312L51.5256 23.1867C51.223 23.1144 50.9621 22.9244 50.7996 22.6594L49.804 21.0339L48.8088 22.6594C48.6463 22.9244 48.3854 23.1144 48.0828 23.1867L46.2293 23.6312L47.4676 25.08C47.6694 25.3167 47.7692 25.6234 47.745 25.9338L47.5948 27.8335L49.3554 27.1038C49.4991 27.0443 49.6515 27.0146 49.804 27.0146Z" fill="url(#paint4_linear_31_9732)"/>
</g>
<g filter="url(#filter5_i_31_9732)">
<path d="M25.3271 24.3283C24.8062 24.3283 24.2912 24.1644 23.8517 23.8454C23.1376 23.3263 22.7526 22.4908 22.8218 21.6106L23.1372 17.6125L20.532 14.5633C19.9585 13.8918 19.779 12.99 20.0518 12.15C20.3247 11.3104 20.9999 10.686 21.8586 10.48L25.7588 9.54437L27.8535 6.12442C28.3149 5.3714 29.1174 4.92188 30.0004 4.92188C30.883 4.92188 31.6859 5.3714 32.1469 6.12442L34.2416 9.54437L38.1417 10.48C39.0005 10.686 39.6762 11.3104 39.949 12.15C40.2218 12.99 40.0419 13.8918 39.4683 14.5633L36.8632 17.6125L37.1786 21.6106C37.2482 22.4908 36.8632 23.3263 36.1486 23.8449C35.4345 24.364 34.5208 24.472 33.7051 24.1342L30.0004 22.5989L26.2953 24.1342C25.9812 24.2642 25.653 24.3283 25.3271 24.3283ZM30.0004 7.26562C29.9034 7.26562 29.8649 7.32788 29.8521 7.34848L27.5038 11.1827C27.3413 11.4478 27.0803 11.6377 26.7778 11.7101L22.4057 12.7592C22.3819 12.7647 22.3109 12.7817 22.2807 12.8741C22.2509 12.9666 22.2981 13.0225 22.3141 13.0408L25.2346 16.4589C25.437 16.6956 25.5363 17.0027 25.512 17.3126L25.1582 21.795C25.1564 21.8188 25.1509 21.8921 25.2296 21.9493C25.3083 22.0065 25.3756 21.9781 25.3981 21.969L29.5518 20.2473C29.8393 20.1283 30.1615 20.1283 30.449 20.2473L34.6028 21.969C34.6252 21.9781 34.6925 22.0065 34.7712 21.9493C34.85 21.8921 34.8445 21.8188 34.8422 21.795L34.4888 17.3126C34.4641 17.0027 34.5639 16.6956 34.7657 16.4589L37.6867 13.0408C37.7023 13.0225 37.7499 12.9666 37.7197 12.8741C37.6899 12.7817 37.6185 12.7647 37.5952 12.7592L33.2226 11.7101C32.9205 11.6377 32.6591 11.4478 32.4971 11.1827L30.1483 7.34848C30.1359 7.32788 30.0975 7.26562 30.0004 7.26562Z" fill="url(#paint5_linear_31_9732)"/>
</g>
</g>
<defs>
<filter id="filter0_i_31_9732" x="52.4697" y="52.708" width="2.34082" height="6.33984" filterUnits="userSpaceOnUse" color-interpolation-filters="sRGB">
<feFlood flood-opacity="0" result="BackgroundImageFix"/>
<feBlend mode="normal" in="SourceGraphic" in2="BackgroundImageFix" result="shape"/>
<feColorMatrix in="SourceAlpha" type="matrix" values="0 0 0 0 0 0 0 0 0 0 0 0 0 0 0 0 0 0 127 0" result="hardAlpha"/>
<feOffset dy="4"/>
<feGaussianBlur stdDeviation="2"/>
<feComposite in2="hardAlpha" operator="arithmetic" k2="-1" k3="1"/>
<feColorMatrix type="matrix" values="0 0 0 0 0 0 0 0 0 0 0 0 0 0 0 0 0 0 0.25 0"/>
<feBlend mode="normal" in2="shape" result="effect1_innerShadow_31_9732"/>
</filter>
<filter id="filter1_i_31_9732" x="28.8281" y="37.2198" width="2.34375" height="15.136" filterUnits="userSpaceOnUse" color-interpolation-filters="sRGB">
<feFlood flood-opacity="0" result="BackgroundImageFix"/>
<feBlend mode="normal" in="SourceGraphic" in2="BackgroundImageFix" result="shape"/>
<feColorMatrix in="SourceAlpha" type="matrix" values="0 0 0 0 0 0 0 0 0 0 0 0 0 0 0 0 0 0 127 0" result="hardAlpha"/>
<feOffset dy="4"/>
<feGaussianBlur stdDeviation="2"/>
<feComposite in2="hardAlpha" operator="arithmetic" k2="-1" k3="1"/>
<feColorMatrix type="matrix" values="0 0 0 0 0 0 0 0 0 0 0 0 0 0 0 0 0 0 0.25 0"/>
<feBlend mode="normal" in2="shape" result="effect1_innerShadow_31_9732"/>
</filter>
<filter id="filter2_i_31_9732" x="0" y="29.0688" width="60" height="29.9795" filterUnits="userSpaceOnUse" color-interpolation-filters="sRGB">
<feFlood flood-opacity="0" result="BackgroundImageFix"/>
<feBlend mode="normal" in="SourceGraphic" in2="BackgroundImageFix" result="shape"/>
<feColorMatrix in="SourceAlpha" type="matrix" values="0 0 0 0 0 0 0 0 0 0 0 0 0 0 0 0 0 0 127 0" result="hardAlpha"/>
<feOffset dy="4"/>
<feGaussianBlur stdDeviation="2"/>
<feComposite in2="hardAlpha" operator="arithmetic" k2="-1" k3="1"/>
<feColorMatrix type="matrix" values="0 0 0 0 0 0 0 0 0 0 0 0 0 0 0 0 0 0 0.25 0"/>
<feBlend mode="normal" in2="shape" result="effect1_innerShadow_31_9732"/>
</filter>
<filter id="filter3_i_31_9732" x="3.94434" y="18.3212" width="12.5029" height="16.08" filterUnits="userSpaceOnUse" color-interpolation-filters="sRGB">
<feFlood flood-opacity="0" result="BackgroundImageFix"/>
<feBlend mode="normal" in="SourceGraphic" in2="BackgroundImageFix" result="shape"/>
<feColorMatrix in="SourceAlpha" type="matrix" values="0 0 0 0 0 0 0 0 0 0 0 0 0 0 0 0 0 0 127 0" result="hardAlpha"/>
<feOffset dy="4"/>
<feGaussianBlur stdDeviation="2"/>
<feComposite in2="hardAlpha" operator="arithmetic" k2="-1" k3="1"/>
<feColorMatrix type="matrix" values="0 0 0 0 0 0 0 0 0 0 0 0 0 0 0 0 0 0 0.25 0"/>
<feBlend mode="normal" in2="shape" result="effect1_innerShadow_31_9732"/>
</filter>
<filter id="filter4_i_31_9732" x="43.5527" y="18.3212" width="12.5029" height="16.08" filterUnits="userSpaceOnUse" color-interpolation-filters="sRGB">
<feFlood flood-opacity="0" result="BackgroundImageFix"/>
<feBlend mode="normal" in="SourceGraphic" in2="BackgroundImageFix" result="shape"/>
<feColorMatrix in="SourceAlpha" type="matrix" values="0 0 0 0 0 0 0 0 0 0 0 0 0 0 0 0 0 0 127 0" result="hardAlpha"/>
<feOffset dy="4"/>
<feGaussianBlur stdDeviation="2"/>
<feComposite in2="hardAlpha" operator="arithmetic" k2="-1" k3="1"/>
<feColorMatrix type="matrix" values="0 0 0 0 0 0 0 0 0 0 0 0 0 0 0 0 0 0 0.25 0"/>
<feBlend mode="normal" in2="shape" result="effect1_innerShadow_31_9732"/>
</filter>
<filter id="filter5_i_31_9732" x="19.9268" y="4.92188" width="20.1475" height="23.4065" filterUnits="userSpaceOnUse" color-interpolation-filters="sRGB">
<feFlood flood-opacity="0" result="BackgroundImageFix"/>
<feBlend mode="normal" in="SourceGraphic" in2="BackgroundImageFix" result="shape"/>
<feColorMatrix in="SourceAlpha" type="matrix" values="0 0 0 0 0 0 0 0 0 0 0 0 0 0 0 0 0 0 127 0" result="hardAlpha"/>
<feOffset dy="4"/>
<feGaussianBlur stdDeviation="2"/>
<feComposite in2="hardAlpha" operator="arithmetic" k2="-1" k3="1"/>
<feColorMatrix type="matrix" values="0 0 0 0 0 0 0 0 0 0 0 0 0 0 0 0 0 0 0.25 0"/>
<feBlend mode="normal" in2="shape" result="effect1_innerShadow_31_9732"/>
</filter>
<linearGradient id="paint0_linear_31_9732" x1="53.6395" y1="52.708" x2="53.6395" y2="55.0468" gradientUnits="userSpaceOnUse">
<stop stop-color="#FD8D2A"/>
<stop offset="1" stop-color="#FD2549"/>
</linearGradient>
<linearGradient id="paint1_linear_31_9732" x1="29.9995" y1="37.2199" x2="29.9995" y2="48.3507" gradientUnits="userSpaceOnUse">
<stop stop-color="#FD8D2A"/>
<stop offset="1" stop-color="#FD2549"/>
</linearGradient>
<linearGradient id="paint2_linear_31_9732" x1="29.986" y1="29.069" x2="29.986" y2="55.0364" gradientUnits="userSpaceOnUse">
<stop stop-color="#FD8D2A"/>
<stop offset="1" stop-color="#FD2549"/>
</linearGradient>
<linearGradient id="paint3_linear_31_9732" x1="10.1931" y1="18.3212" x2="10.1931" y2="30.3955" gradientUnits="userSpaceOnUse">
<stop stop-color="#FD8D2A"/>
<stop offset="1" stop-color="#FD2549"/>
</linearGradient>
<linearGradient id="paint4_linear_31_9732" x1="49.8015" y1="18.3212" x2="49.8015" y2="30.3955" gradientUnits="userSpaceOnUse">
<stop stop-color="#FD8D2A"/>
<stop offset="1" stop-color="#FD2549"/>
</linearGradient>
<linearGradient id="paint5_linear_31_9732" x1="29.9957" y1="4.92199" x2="29.9957" y2="24.3194" gradientUnits="userSpaceOnUse">
<stop stop-color="#FD8D2A"/>
<stop offset="1" stop-color="#FD2549"/>
</linearGradient>
<clipPath id="clip0_31_9732">
<rect width="60" height="60" fill="white"/>
</clipPath>
</defs>
</svg>
