<svg width="60" height="60" viewBox="0 0 60 60" fill="none" xmlns="http://www.w3.org/2000/svg">
<g filter="url(#filter0_i_31_9739)">
<path d="M56.3028 4.6969H3.69715C1.65844 4.6969 0 6.35534 0 8.39393V44.0908C0 46.1294 1.65844 47.7878 3.69715 47.7878H21.4893L20.7696 53.5451H17.7879C17.3024 53.5451 16.909 53.9386 16.909 54.424C16.909 54.9094 17.3024 55.3029 17.7879 55.3029H42.2121C42.6976 55.3029 43.091 54.9094 43.091 54.424C43.091 53.9386 42.6976 53.5451 42.2121 53.5451H39.2305L38.5107 47.7878H56.3028C58.3414 47.7878 60 46.1294 60 44.0908V8.39393C60 6.35534 58.3416 4.6969 56.3028 4.6969ZM22.5411 53.5451L23.2609 47.7878H26.4956L26.813 49.0569C27.1793 50.5221 28.4899 51.5453 30.0001 51.5453C31.5103 51.5453 32.8209 50.5221 33.1873 49.0569L33.5046 47.7878H36.7393L37.4589 53.5451H22.5411ZM28.3075 47.7878H31.6924L31.4817 48.6306C31.3114 49.3118 30.7022 49.7875 29.9999 49.7875C29.2976 49.7875 28.6884 49.3117 28.518 48.6306L28.3075 47.7878ZM58.2422 44.0908C58.2422 45.1601 57.3722 46.03 56.3028 46.03H3.69715C2.62781 46.03 1.75781 45.1601 1.75781 44.0908V8.39393C1.75781 7.32459 2.62781 6.45471 3.69715 6.45471H56.3028C57.3722 6.45471 58.2422 7.32459 58.2422 8.39393V44.0908Z" fill="url(#paint0_linear_31_9739)"/>
<path d="M53.5 8.45459H4.63574C4.15023 8.45459 3.75684 8.84799 3.75684 9.3335V43.1515C3.75684 43.637 4.15023 44.0304 4.63574 44.0304H6.51461C7.00012 44.0304 7.39352 43.637 7.39352 43.1515C7.39363 42.6661 7.00012 42.2726 6.51473 42.2726H5.51477V10.2124H54.3153C54.8008 10.2124 54 9.98539 54 9.5C54 9.01449 53.9855 8.45459 53.5 8.45459Z" fill="url(#paint1_linear_31_9739)"/>
<path d="M55.3632 8.45459H53.4843C52.9988 8.45459 52.6054 8.84799 52.6054 9.3335C52.6054 9.81889 52.9988 10.2124 53.4843 10.2124H54.4843V42.2726H5.99951C5.514 42.2726 7.00002 42.5146 7.00002 43C7.00002 43.4855 5.01378 44.0304 5.49929 44.0304H55.3631C55.8486 44.0304 56.242 43.637 56.242 43.1515V9.3335C56.2421 8.84799 55.8486 8.45459 55.3632 8.45459Z" fill="url(#paint2_linear_31_9739)"/>
<path d="M41.9647 18.1857C41.8068 17.9838 41.5685 17.861 41.3126 17.8494L20.6461 16.9099C20.6299 16.9092 20.6141 16.9088 20.5978 16.9091C20.4755 16.5075 20.217 16.1592 19.867 15.9257L17.3361 14.2385C16.9323 13.9693 16.3866 14.0784 16.1174 14.4823C15.8482 14.8863 15.9573 15.4319 16.3611 15.7011L18.8919 17.3881C18.9039 17.3961 18.9127 17.4082 18.9166 17.422L22.1404 28.7049C22.2409 29.0567 22.4064 29.3729 22.6188 29.6459L21.4393 32.0049C21.1554 32.5727 21.1852 33.234 21.5189 33.774C21.64 33.9698 21.7935 34.1366 21.9699 34.2702C21.739 34.6732 21.6062 35.1393 21.6062 35.6362C21.6062 37.1568 22.8434 38.3939 24.3639 38.3939C25.8844 38.3939 27.1215 37.1567 27.1215 35.6362C27.1215 35.2836 27.0543 34.9466 26.9331 34.6364H34.946C34.8249 34.9466 34.7576 35.2836 34.7576 35.6362C34.7576 37.1568 35.9947 38.3939 37.5153 38.3939C39.0358 38.3939 40.2729 37.1567 40.2729 35.6362C40.2729 35.1951 40.1683 34.7783 39.9833 34.4082C40.1608 34.2474 40.2729 34.0159 40.2729 33.7575C40.2729 33.2721 39.8795 32.8786 39.394 32.8786H23.0653C23.0528 32.8786 23.0316 32.8786 23.0139 32.8498C22.9962 32.8212 23.0057 32.8024 23.0113 32.791L24.0979 30.618C24.319 30.6748 24.5494 30.7055 24.7852 30.7055C24.8938 30.7055 25.0035 30.6991 25.1139 30.6862L37.4638 29.2333C39.0588 29.0456 40.3422 27.8615 40.6572 26.2865L42.1344 18.8997C42.1847 18.6484 42.1227 18.3876 41.9647 18.1857ZM37.515 34.6366C38.0664 34.6366 38.5149 35.0852 38.5149 35.6364C38.5149 36.1878 38.0664 36.6363 37.515 36.6363C36.9636 36.6363 36.5152 36.1878 36.5152 35.6364C36.5152 35.0851 36.9636 34.6366 37.515 34.6366ZM24.3636 34.6366C24.915 34.6366 25.3635 35.0851 25.3635 35.6364C25.3635 36.1878 24.915 36.6363 24.3636 36.6363C23.8123 36.6363 23.3638 36.1878 23.3638 35.6364C23.3638 35.0851 23.8123 34.6366 24.3636 34.6366ZM22.2083 22.5454L21.1069 18.6905L24.6208 18.8503L25.23 22.5454H22.2083ZM24.9086 28.9405C24.4185 28.9981 23.9656 28.6959 23.8303 28.2221L22.7106 24.3032H25.5198L26.2582 28.7817L24.9086 28.9405ZM30.0605 28.3344L28.0059 28.5761L27.3015 24.3034H30.0605V28.3344ZM30.0605 22.5454H27.0116L26.4158 18.932L30.0605 19.0977V22.5454ZM34.5115 27.8107L31.8183 28.1275V24.3032H34.829L34.5115 27.8107ZM34.9881 22.5454H31.8183V19.1775L35.2787 19.3347L34.9881 22.5454ZM38.9333 25.942C38.7681 26.7679 38.095 27.3891 37.2584 27.4876L36.2954 27.6009L36.5939 24.3034H39.261L38.9333 25.942ZM39.6127 22.5454H36.7532L37.0365 19.4146L40.21 19.5589L39.6127 22.5454Z" fill="url(#paint3_linear_31_9739)"/>
</g>
<defs>
<filter id="filter0_i_31_9739" x="0" y="0" width="60" height="64" filterUnits="userSpaceOnUse" color-interpolation-filters="sRGB">
<feFlood flood-opacity="0" result="BackgroundImageFix"/>
<feBlend mode="normal" in="SourceGraphic" in2="BackgroundImageFix" result="shape"/>
<feColorMatrix in="SourceAlpha" type="matrix" values="0 0 0 0 0 0 0 0 0 0 0 0 0 0 0 0 0 0 127 0" result="hardAlpha"/>
<feOffset dy="4"/>
<feGaussianBlur stdDeviation="2"/>
<feComposite in2="hardAlpha" operator="arithmetic" k2="-1" k3="1"/>
<feColorMatrix type="matrix" values="0 0 0 0 0 0 0 0 0 0 0 0 0 0 0 0 0 0 0.25 0"/>
<feBlend mode="normal" in2="shape" result="effect1_innerShadow_31_9739"/>
</filter>
<linearGradient id="paint0_linear_31_9739" x1="29.986" y1="4.6972" x2="29.986" y2="55.2797" gradientUnits="userSpaceOnUse">
<stop stop-color="#FD8D2A"/>
<stop offset="1" stop-color="#FD2549"/>
</linearGradient>
<linearGradient id="paint1_linear_31_9739" x1="29.1024" y1="8.4548" x2="29.1024" y2="44.014" gradientUnits="userSpaceOnUse">
<stop stop-color="#FD8D2A"/>
<stop offset="1" stop-color="#FD2549"/>
</linearGradient>
<linearGradient id="paint2_linear_31_9739" x1="30.8206" y1="8.4548" x2="30.8206" y2="44.014" gradientUnits="userSpaceOnUse">
<stop stop-color="#FD8D2A"/>
<stop offset="1" stop-color="#FD2549"/>
</linearGradient>
<linearGradient id="paint3_linear_31_9739" x1="29.0545" y1="14.091" x2="29.0545" y2="38.3827" gradientUnits="userSpaceOnUse">
<stop stop-color="#FD8D2A"/>
<stop offset="1" stop-color="#FD2549"/>
</linearGradient>
</defs>
</svg>
