<svg width="60" height="60" viewBox="0 0 60 60" fill="none" xmlns="http://www.w3.org/2000/svg">
<g filter="url(#filter0_i_31_9679)">
<path d="M34.2436 35.1426C34.223 35.1313 34.2023 35.121 34.1812 35.1116C33.6236 34.8325 33.0503 34.5858 32.4642 34.3729C33.5906 32.8456 34.2287 31.0134 34.2947 29.1168C35.1649 28.9333 35.9456 28.4565 36.5064 27.7663C37.0672 27.076 37.3739 26.2142 37.3754 25.3248C37.3768 24.4355 37.0728 23.5727 36.5143 22.8806C35.9557 22.1886 35.1765 21.7093 34.3069 21.523C34.2 15.0294 31.3945 8.24194 23.7848 8.24194H13.3594C13.155 8.24199 12.9579 8.31832 12.8068 8.45599C12.6557 8.59367 12.5614 8.78278 12.5423 8.98632C12.525 9.17382 12.1462 13.6012 14.7108 16.4151C14.7309 16.4371 14.7539 16.4554 14.7741 16.4774C13.8516 18.003 13.3344 19.739 13.2717 21.5207C12.4019 21.7059 11.6221 22.1842 11.0627 22.8756C10.5033 23.5669 10.1982 24.4294 10.1985 25.3187C10.1989 26.208 10.5046 27.0703 11.0645 27.7612C11.6244 28.4521 12.4046 28.9298 13.2745 29.1144C13.3405 31.011 13.9786 32.8432 15.105 34.3705C14.5194 34.5834 13.9466 34.8299 13.3894 35.1088C13.3669 35.1187 13.3453 35.1294 13.3237 35.1412C10.6254 36.5087 8.3577 38.5957 6.77151 41.1717C5.18532 43.7476 4.3424 46.712 4.33594 49.7371V54.8437C4.33594 55.0612 4.42236 55.2699 4.5762 55.4237C4.73004 55.5775 4.93869 55.664 5.15625 55.664C5.37381 55.664 5.58246 55.5775 5.7363 55.4237C5.89014 55.2699 5.97656 55.0612 5.97656 54.8437V49.7371C5.98312 47.1031 6.69481 44.519 8.03768 42.2531C9.38056 39.9871 11.3056 38.1221 13.613 36.8516L19.5469 41.9746C19.7068 42.1127 19.914 42.1838 20.125 42.173C20.3361 42.1621 20.5349 42.0703 20.6798 41.9165L21.9253 40.596L22.9275 42.5999L20.5894 54.6876C20.5689 54.7934 20.5694 54.9021 20.591 55.0077C20.6126 55.1133 20.6547 55.2136 20.715 55.3029C20.7754 55.3921 20.8527 55.4687 20.9426 55.528C21.0325 55.5874 21.1333 55.6285 21.2391 55.649C21.2907 55.6589 21.3431 55.6639 21.3956 55.664C21.586 55.6636 21.7703 55.5972 21.917 55.4759C22.0638 55.3547 22.1638 55.1862 22.2 54.9993L23.7858 46.8018L25.3711 54.9993C25.4124 55.2129 25.5369 55.4014 25.7172 55.5232C25.8975 55.6451 26.1189 55.6903 26.3325 55.649C26.5461 55.6076 26.7346 55.4831 26.8565 55.3028C26.9783 55.1225 27.0235 54.9012 26.9822 54.6876L24.6436 42.5999L25.6453 40.5965L26.8903 41.9165C27.0353 42.0703 27.2341 42.1621 27.4451 42.173C27.6562 42.1838 27.8633 42.1127 28.0233 41.9746L33.9567 36.8516C36.2641 38.122 38.1893 39.9871 39.5322 42.253C40.8752 44.5189 41.5869 47.1031 41.5936 49.7371V54.8437C41.5936 55.0612 41.68 55.2699 41.8339 55.4237C41.9877 55.5775 42.1963 55.664 42.4139 55.664C42.6315 55.664 42.8401 55.5775 42.994 55.4237C43.1478 55.2699 43.2342 55.0612 43.2342 54.8437V49.7371C43.2272 46.7119 42.3837 43.7477 40.797 41.172C39.2103 38.5963 36.9423 36.5096 34.2436 35.1426ZM35.7338 25.3185C35.7329 25.768 35.5969 26.2068 35.3434 26.5781C35.09 26.9493 34.7308 27.2357 34.3125 27.4002V23.2368C34.7308 23.4013 35.09 23.6877 35.3434 24.059C35.5969 24.4302 35.7329 24.869 35.7338 25.3185ZM14.1562 9.88257H23.7848C30.7692 9.88257 32.2964 16.4835 32.6011 20.2204L32.2889 19.9115C30.4029 18.0354 27.8489 16.9853 25.1887 16.9921H20.2734C18.4078 16.9921 16.9453 16.4296 15.9291 15.3158C14.4056 13.6499 14.1722 11.1257 14.1562 9.88257ZM11.8359 25.3185C11.8368 24.869 11.9729 24.4301 12.2264 24.0589C12.48 23.6876 12.8393 23.4012 13.2577 23.2368V27.4002C12.8393 27.2358 12.48 26.9494 12.2264 26.5782C11.9729 26.2069 11.8368 25.768 11.8359 25.3185ZM14.8983 21.9121C14.8959 20.3751 15.2941 18.864 16.0538 17.5279C17.326 18.2906 18.7897 18.6739 20.2725 18.6327H25.1887C27.4167 18.6272 29.5556 19.5066 31.1353 21.0777L32.6719 22.5979V28.7755C32.6699 30.8524 31.844 32.8437 30.3756 34.3123C28.9071 35.781 26.9159 36.6071 24.8391 36.6093H22.7297C20.6531 36.6067 18.6623 35.7804 17.1941 34.3118C15.7259 32.8432 14.9003 30.8522 14.8983 28.7755V21.9121ZM20.0245 40.2187L15.2377 36.0866C15.585 35.946 15.9408 35.8237 16.3003 35.7116C17.8426 37.1489 19.8221 38.0277 21.9225 38.2077L20.0245 40.2187ZM23.7853 40.6466L23.1234 39.3248L23.7844 38.6216L24.4458 39.3248L23.7853 40.6466ZM27.5452 40.2187L25.6472 38.2077C27.7486 38.0283 29.7292 37.1494 31.2722 35.7116C31.6331 35.8241 31.9875 35.946 32.3348 36.0866L27.5452 40.2187Z" fill="url(#paint0_linear_31_9679)"/>
<path d="M12.2134 46.8257C11.9958 46.8257 11.7872 46.9121 11.6333 47.0659C11.4795 47.2198 11.3931 47.4284 11.3931 47.646V54.8437C11.3931 55.0612 11.4795 55.2699 11.6333 55.4237C11.7872 55.5775 11.9958 55.664 12.2134 55.664C12.4309 55.664 12.6396 55.5775 12.7934 55.4237C12.9473 55.2699 13.0337 55.0612 13.0337 54.8437V47.646C13.0337 47.4284 12.9473 47.2198 12.7934 47.0659C12.6396 46.9121 12.4309 46.8257 12.2134 46.8257Z" fill="url(#paint1_linear_31_9679)"/>
<path d="M35.3564 46.8257C35.1389 46.8257 34.9302 46.9121 34.7764 47.0659C34.6226 47.2198 34.5361 47.4284 34.5361 47.646V54.8437C34.5361 55.0612 34.6226 55.2699 34.7764 55.4237C34.9302 55.5775 35.1389 55.664 35.3564 55.664C35.574 55.664 35.7827 55.5775 35.9365 55.4237C36.0903 55.2699 36.1768 55.0612 36.1768 54.8437V47.646C36.1768 47.4284 36.0903 47.2198 35.9365 47.0659C35.7827 46.9121 35.574 46.8257 35.3564 46.8257Z" fill="url(#paint2_linear_31_9679)"/>
<path d="M20.5732 30.5157C20.5876 31.3578 20.9323 32.1606 21.5329 32.751C22.1335 33.3414 22.942 33.6723 23.7842 33.6723C24.6264 33.6723 25.4349 33.3414 26.0355 32.751C26.6361 32.1606 26.9807 31.3578 26.9951 30.5157C26.9951 30.2982 26.9087 30.0895 26.7549 29.9357C26.601 29.7819 26.3924 29.6954 26.1748 29.6954C25.9572 29.6954 25.7486 29.7819 25.5948 29.9357C25.4409 30.0895 25.3545 30.2982 25.3545 30.5157C25.3445 30.9256 25.1746 31.3153 24.8812 31.6016C24.5878 31.8879 24.1941 32.0482 23.7842 32.0482C23.3742 32.0482 22.9805 31.8879 22.6871 31.6016C22.3937 31.3153 22.2239 30.9256 22.2139 30.5157C22.2139 30.2982 22.1274 30.0895 21.9736 29.9357C21.8198 29.7819 21.6111 29.6954 21.3936 29.6954C21.176 29.6954 20.9673 29.7819 20.8135 29.9357C20.6597 30.0895 20.5732 30.2982 20.5732 30.5157Z" fill="url(#paint3_linear_31_9679)"/>
<path d="M19.9747 25.2248C20.25 25.2248 20.5191 25.1432 20.7479 24.9903C20.9768 24.8374 21.1552 24.62 21.2605 24.3657C21.3658 24.1114 21.3934 23.8316 21.3397 23.5616C21.286 23.2916 21.1535 23.0437 20.9588 22.849C20.7642 22.6544 20.5162 22.5218 20.2462 22.4681C19.9763 22.4144 19.6964 22.442 19.4421 22.5473C19.1878 22.6527 18.9705 22.8311 18.8176 23.0599C18.6646 23.2888 18.583 23.5579 18.583 23.8331C18.5834 24.2021 18.7301 24.5559 18.991 24.8168C19.252 25.0777 19.6057 25.2245 19.9747 25.2248Z" fill="url(#paint4_linear_31_9679)"/>
<path d="M27.5958 25.2248C27.871 25.2248 28.1401 25.1431 28.3689 24.9901C28.5977 24.8371 28.776 24.6197 28.8812 24.3654C28.9865 24.1111 29.014 23.8313 28.9603 23.5613C28.9065 23.2914 28.7739 23.0435 28.5793 22.8489C28.3846 22.6543 28.1366 22.5218 27.8667 22.4681C27.5967 22.4145 27.3169 22.442 27.0626 22.5474C26.8084 22.6527 26.591 22.8311 26.4381 23.06C26.2852 23.2888 26.2036 23.5579 26.2036 23.8331C26.204 24.2022 26.3508 24.556 26.6118 24.817C26.8728 25.0779 27.2267 25.2246 27.5958 25.2248Z" fill="url(#paint5_linear_31_9679)"/>
<path d="M54.8439 4.33594H36.5542C36.3366 4.33594 36.128 4.42236 35.9741 4.5762C35.8203 4.73004 35.7339 4.93869 35.7339 5.15625V17.2223C35.7339 17.4399 35.8203 17.6486 35.9741 17.8024C36.128 17.9562 36.3366 18.0427 36.5542 18.0427H38.867V20.4802C38.8669 20.6423 38.9148 20.8007 39.0047 20.9356C39.0946 21.0705 39.2225 21.1757 39.3721 21.238C39.5218 21.3003 39.6865 21.3169 39.8456 21.2856C40.0046 21.2543 40.1508 21.1766 40.2658 21.0623L43.2854 18.0427H54.8439C55.0614 18.0427 55.2701 17.9562 55.4239 17.8024C55.5778 17.6486 55.6642 17.4399 55.6642 17.2223V5.15625C55.6642 4.93869 55.5778 4.73004 55.4239 4.5762C55.2701 4.42236 55.0614 4.33594 54.8439 4.33594ZM54.0236 16.402H42.9475C42.73 16.4021 42.5214 16.4886 42.3676 16.6425L40.5076 18.5016V17.2223C40.5076 17.0048 40.4212 16.7961 40.2674 16.6423C40.1135 16.4885 39.9049 16.402 39.6873 16.402H37.3745V5.97656H54.0236V16.402Z" fill="url(#paint6_linear_31_9679)"/>
<path d="M41.8888 12.2902C42.164 12.2902 42.4331 12.2085 42.662 12.0556C42.8908 11.9027 43.0692 11.6853 43.1746 11.431C43.2799 11.1767 43.3075 10.8969 43.2538 10.6269C43.2001 10.357 43.0675 10.109 42.8729 9.91434C42.6782 9.7197 42.4303 9.58716 42.1603 9.53346C41.8903 9.47976 41.6105 9.50732 41.3562 9.61265C41.1019 9.71799 40.8845 9.89637 40.7316 10.1252C40.5787 10.3541 40.4971 10.6232 40.4971 10.8984C40.4974 11.2674 40.6442 11.6212 40.9051 11.8821C41.166 12.143 41.5198 12.2898 41.8888 12.2902Z" fill="url(#paint7_linear_31_9679)"/>
<path d="M49.5099 12.2902C49.7851 12.2902 50.0542 12.2085 50.2831 12.0556C50.5119 11.9027 50.6903 11.6853 50.7957 11.431C50.901 11.1767 50.9286 10.8969 50.8749 10.6269C50.8212 10.357 50.6886 10.109 50.494 9.91434C50.2993 9.7197 50.0514 9.58716 49.7814 9.53346C49.5114 9.47976 49.2316 9.50732 48.9773 9.61265C48.723 9.71799 48.5056 9.89637 48.3527 10.1252C48.1998 10.3541 48.1182 10.6232 48.1182 10.8984C48.1185 11.2674 48.2653 11.6212 48.5262 11.8821C48.7871 12.143 49.1409 12.2898 49.5099 12.2902Z" fill="url(#paint8_linear_31_9679)"/>
<path d="M45.6988 12.2902C45.9741 12.2902 46.2432 12.2085 46.472 12.0556C46.7009 11.9027 46.8793 11.6853 46.9846 11.431C47.09 11.1767 47.1175 10.8969 47.0638 10.6269C47.0101 10.357 46.8776 10.109 46.6829 9.91434C46.4883 9.7197 46.2403 9.58716 45.9704 9.53346C45.7004 9.47976 45.4206 9.50732 45.1663 9.61265C44.912 9.71799 44.6946 9.89637 44.5417 10.1252C44.3888 10.3541 44.3071 10.6232 44.3071 10.8984C44.3075 11.2674 44.4542 11.6212 44.7152 11.8821C44.9761 12.143 45.3298 12.2898 45.6988 12.2902Z" fill="url(#paint9_linear_31_9679)"/>
</g>
<defs>
<filter id="filter0_i_31_9679" x="0" y="0" width="60" height="64" filterUnits="userSpaceOnUse" color-interpolation-filters="sRGB">
<feFlood flood-opacity="0" result="BackgroundImageFix"/>
<feBlend mode="normal" in="SourceGraphic" in2="BackgroundImageFix" result="shape"/>
<feColorMatrix in="SourceAlpha" type="matrix" values="0 0 0 0 0 0 0 0 0 0 0 0 0 0 0 0 0 0 127 0" result="hardAlpha"/>
<feOffset dy="4"/>
<feGaussianBlur stdDeviation="2"/>
<feComposite in2="hardAlpha" operator="arithmetic" k2="-1" k3="1"/>
<feColorMatrix type="matrix" values="0 0 0 0 0 0 0 0 0 0 0 0 0 0 0 0 0 0 0.25 0"/>
<feBlend mode="normal" in2="shape" result="effect1_innerShadow_31_9679"/>
</filter>
<linearGradient id="paint0_linear_31_9679" x1="23.776" y1="8.24222" x2="23.776" y2="55.6422" gradientUnits="userSpaceOnUse">
<stop stop-color="#FD8D2A"/>
<stop offset="1" stop-color="#FD2549"/>
</linearGradient>
<linearGradient id="paint1_linear_31_9679" x1="12.213" y1="46.8257" x2="12.213" y2="55.6599" gradientUnits="userSpaceOnUse">
<stop stop-color="#FD8D2A"/>
<stop offset="1" stop-color="#FD2549"/>
</linearGradient>
<linearGradient id="paint2_linear_31_9679" x1="35.3561" y1="46.8257" x2="35.3561" y2="55.6599" gradientUnits="userSpaceOnUse">
<stop stop-color="#FD8D2A"/>
<stop offset="1" stop-color="#FD2549"/>
</linearGradient>
<linearGradient id="paint3_linear_31_9679" x1="23.7827" y1="29.6955" x2="23.7827" y2="33.6705" gradientUnits="userSpaceOnUse">
<stop stop-color="#FD8D2A"/>
<stop offset="1" stop-color="#FD2549"/>
</linearGradient>
<linearGradient id="paint4_linear_31_9679" x1="19.9741" y1="22.4414" x2="19.9741" y2="25.2236" gradientUnits="userSpaceOnUse">
<stop stop-color="#FD8D2A"/>
<stop offset="1" stop-color="#FD2549"/>
</linearGradient>
<linearGradient id="paint5_linear_31_9679" x1="27.5947" y1="22.4414" x2="27.5947" y2="25.2236" gradientUnits="userSpaceOnUse">
<stop stop-color="#FD8D2A"/>
<stop offset="1" stop-color="#FD2549"/>
</linearGradient>
<linearGradient id="paint6_linear_31_9679" x1="45.6944" y1="4.33604" x2="45.6944" y2="21.2932" gradientUnits="userSpaceOnUse">
<stop stop-color="#FD8D2A"/>
<stop offset="1" stop-color="#FD2549"/>
</linearGradient>
<linearGradient id="paint7_linear_31_9679" x1="41.8881" y1="9.50673" x2="41.8881" y2="12.2889" gradientUnits="userSpaceOnUse">
<stop stop-color="#FD8D2A"/>
<stop offset="1" stop-color="#FD2549"/>
</linearGradient>
<linearGradient id="paint8_linear_31_9679" x1="49.5092" y1="9.50673" x2="49.5092" y2="12.2889" gradientUnits="userSpaceOnUse">
<stop stop-color="#FD8D2A"/>
<stop offset="1" stop-color="#FD2549"/>
</linearGradient>
<linearGradient id="paint9_linear_31_9679" x1="45.6982" y1="9.50673" x2="45.6982" y2="12.2889" gradientUnits="userSpaceOnUse">
<stop stop-color="#FD8D2A"/>
<stop offset="1" stop-color="#FD2549"/>
</linearGradient>
</defs>
</svg>
