<svg width="60" height="60" viewBox="0 0 60 60" fill="none" xmlns="http://www.w3.org/2000/svg">
<g clip-path="url(#clip0_31_9774)" filter="url(#filter0_i_31_9774)">
<path d="M14.362 32.6251C12.8894 32.6251 11.6914 33.823 11.6914 35.2955C11.6914 36.7679 12.8894 37.9658 14.362 37.9658C15.8345 37.9658 17.0324 36.7679 17.0324 35.2955C17.0324 33.823 15.8343 32.6251 14.362 32.6251ZM14.362 36.2048C13.8607 36.2048 13.4527 35.7969 13.4527 35.2957C13.4527 34.7945 13.8607 34.3866 14.362 34.3866C14.8633 34.3866 15.2711 34.7945 15.2711 35.2957C15.2711 35.7969 14.8632 36.2048 14.362 36.2048Z" fill="url(#paint0_linear_31_9774)"/>
<path d="M38.5226 49.607C38.4049 49.2438 38.0667 48.9983 37.6852 48.9983H32.4542L30.8377 44.0233C30.7212 43.6646 30.3773 43.4148 30.0002 43.4148C29.6231 43.4148 29.2792 43.6645 29.1626 44.0233L27.5462 48.9983H22.3153C21.9338 48.9983 21.5956 49.2439 21.4777 49.6069C21.3598 49.9697 21.489 50.3673 21.7977 50.5914L26.0295 53.6661L24.413 58.6411C24.3002 58.9881 24.4188 59.3789 24.7054 59.6047C25.0116 59.846 25.4527 59.8548 25.7682 59.6256L30.0001 56.5508L34.2319 59.6256C34.5629 59.866 35.0281 59.843 35.334 59.5717C35.5933 59.3416 35.6942 58.9709 35.587 58.6412L33.9705 53.6662L38.2024 50.5915C38.5114 50.3674 38.6405 49.9698 38.5226 49.607ZM32.418 52.6172C32.1093 52.8414 31.9802 53.2389 32.0981 53.6017L33.0747 56.6075L30.5177 54.7499C30.2125 54.528 29.7876 54.528 29.4826 54.7499L26.9255 56.6075L27.9022 53.6017C28.0201 53.2389 27.8909 52.8412 27.5823 52.6172L25.0253 50.7595H28.1859C28.5673 50.7595 28.9055 50.5139 29.0234 50.151L30.0001 47.1451L30.9767 50.151C31.0946 50.5139 31.4328 50.7595 31.8142 50.7595H34.9748L32.418 52.6172Z" fill="url(#paint1_linear_31_9774)"/>
<path d="M59.9572 49.607C59.8393 49.2441 59.5011 48.9984 59.1197 48.9984H53.8888L52.2723 44.0235C52.1558 43.6648 51.8119 43.4149 51.4348 43.4149C51.0577 43.4149 50.7138 43.6646 50.5972 44.0235L48.9807 48.9984H43.7498C43.3684 48.9984 43.0302 49.2441 42.9123 49.607C42.7944 49.9698 42.9236 50.3674 43.2322 50.5915L47.4641 53.6663L45.8476 58.6412C45.7348 58.9882 45.8534 59.379 46.14 59.6049C46.4462 59.8461 46.8873 59.8549 47.2028 59.6257L51.4347 56.5509L55.6665 59.6257C55.9976 59.8662 56.4627 59.8431 56.7687 59.5718C57.028 59.3418 57.1289 58.971 57.0217 58.6413L55.4052 53.6664L59.6371 50.5916C59.9461 50.3674 60.0752 49.9698 59.9572 49.607ZM53.8526 52.6174C53.5439 52.8416 53.4148 53.2391 53.5327 53.6019L54.5092 56.6078L51.9524 54.7501C51.6436 54.5258 51.2257 54.5257 50.9172 54.7501L48.3601 56.6078L49.3368 53.6019C49.4546 53.2391 49.3255 52.8415 49.0168 52.6174L46.4599 50.7598H49.6206C50.002 50.7598 50.3402 50.5141 50.4581 50.1512L51.4348 47.1453L52.4114 50.1512C52.5293 50.5141 52.8675 50.7598 53.2489 50.7598H56.4095L53.8526 52.6174Z" fill="url(#paint2_linear_31_9774)"/>
<path d="M17.0882 49.607C16.9702 49.2438 16.632 48.9983 16.2505 48.9983H11.0196L9.40316 44.0233C9.28527 43.6604 8.94707 43.4148 8.56562 43.4148C8.18418 43.4148 7.84597 43.6604 7.72808 44.0233L6.1116 48.9983H0.8807C0.499254 48.9983 0.161051 49.2439 0.0431607 49.6069C-0.0747299 49.9697 0.0544107 50.3673 0.363083 50.5914L4.59496 53.6661L2.97847 58.6411C2.86058 59.0039 2.98972 59.4015 3.2984 59.6256C3.60695 59.8499 4.02496 59.8499 4.33363 59.6256L8.56551 56.5508L12.7974 59.6256C13.1284 59.866 13.5936 59.8429 13.8994 59.5717C14.1587 59.3416 14.2596 58.9708 14.1524 58.6412L12.5359 53.6662L16.7678 50.5915C17.077 50.3674 17.2061 49.9698 17.0882 49.607ZM10.9834 52.6172C10.6748 52.8414 10.5456 53.2389 10.6635 53.6017L11.6402 56.6075L9.08312 54.7499C8.77797 54.528 8.35304 54.528 8.04789 54.7499L5.49109 56.6074L6.46761 53.6015C6.5855 53.2387 6.45636 52.8411 6.14769 52.6171L3.59078 50.7594H6.75132C7.13277 50.7594 7.47097 50.5138 7.58886 50.1508L8.56551 47.145L9.54215 50.1508C9.66004 50.5138 9.99824 50.7594 10.3797 50.7594H13.5402L10.9834 52.6172Z" fill="url(#paint3_linear_31_9774)"/>
<path d="M52.871 22.16C53.7806 21.428 54.3636 20.3057 54.3636 19.05C54.3636 16.8496 52.5735 15.0594 50.3732 15.0594H36.208C36.6483 14.0994 37.1565 12.6371 37.447 10.6042C38.1218 5.8805 37.1021 3.37315 36.128 2.10155C35.3034 1.0253 34.1957 0.374443 32.9246 0.219521C31.8521 0.0878027 30.8728 0.939639 30.8442 2.01706C30.6793 3.71089 30.0762 8.35773 29.2123 10.0858C26.9929 14.5246 21.7014 17.171 20.0671 17.9032C19.4952 17.4117 18.7525 17.1137 17.9411 17.1137H10.7816C8.9802 17.1137 7.51465 18.5792 7.51465 20.3807V38.2789C7.51465 40.0804 8.9802 41.5458 10.7816 41.5458H17.9408C18.9047 41.5458 19.7722 41.1259 20.3706 40.4598C21.3 41.0466 22.8 41.7003 24.8715 41.7003H47.8852C50.0856 41.7003 51.8756 39.9101 51.8756 37.7098C51.8756 36.7012 51.4995 35.7787 50.88 35.0753C52.2052 34.4255 53.1194 33.0623 53.1194 31.4897C53.1194 30.4811 52.7433 29.5587 52.1238 28.8552C53.449 28.2055 54.3633 26.8423 54.3633 25.2698C54.3636 24.0142 53.7805 22.8919 52.871 22.16ZM17.9408 39.7845H10.7816C9.95133 39.7845 9.27586 39.109 9.27586 38.2787V20.3806C9.27586 19.5503 9.95133 18.8748 10.7816 18.8748H17.9408C18.3613 18.8748 18.7416 19.0485 19.015 19.3274V38.9657C19.015 39.071 19.0341 39.1744 19.0702 39.2714C18.7939 39.5851 18.3907 39.7845 17.9408 39.7845ZM46.6732 23.0405H50.3735C51.6028 23.0405 52.6028 24.0407 52.6028 25.2698C52.6028 26.4988 51.6027 27.499 50.3735 27.499H46.6732C46.1869 27.499 45.7925 27.8932 45.7925 28.3797C45.7925 28.8661 46.1869 29.2603 46.6732 29.2603H49.1295C50.3587 29.2603 51.3587 30.2605 51.3587 31.4896C51.3587 32.7187 50.3586 33.7189 49.1295 33.7189H45.9981C45.5118 33.7189 45.1174 34.1131 45.1174 34.5995C45.1174 35.086 45.5118 35.4802 45.9981 35.4802H47.8854C49.1146 35.4802 50.1146 36.4804 50.1146 37.7096C50.1146 38.9387 49.1146 39.9388 47.8854 39.9388H24.8718C23.0542 39.9388 21.822 39.3299 21.1529 38.8728C21.1886 38.6799 21.2081 38.4815 21.2081 38.2785V20.3806C21.2081 20.0363 21.1542 19.7045 21.0551 19.3928C23.1185 18.4458 28.4012 15.6459 30.7875 10.8734C31.9811 8.4864 32.5761 2.40788 32.6009 2.1503C32.6034 2.12241 32.6048 2.09417 32.6048 2.06616C32.6048 2.03616 32.6163 2.01062 32.6389 1.99069C32.6706 1.96292 32.7011 1.96644 32.7112 1.96772C33.2625 2.03499 34.0602 2.29866 34.7299 3.17265C35.4988 4.17624 36.2918 6.23698 35.7035 10.3552C35.2049 13.8458 34.0226 15.3729 34.0152 15.3824C33.5536 15.9466 33.9693 16.8208 34.6966 16.8208H50.3734C51.6027 16.8208 52.6027 17.821 52.6027 19.0501C52.6027 20.2794 51.6026 21.2794 50.3734 21.2794H46.6731C46.1868 21.2794 45.7924 21.6736 45.7924 22.1601C45.7924 22.6465 46.1868 23.0405 46.6732 23.0405Z" fill="url(#paint4_linear_31_9774)"/>
</g>
<defs>
<filter id="filter0_i_31_9774" x="0" y="0" width="60" height="64" filterUnits="userSpaceOnUse" color-interpolation-filters="sRGB">
<feFlood flood-opacity="0" result="BackgroundImageFix"/>
<feBlend mode="normal" in="SourceGraphic" in2="BackgroundImageFix" result="shape"/>
<feColorMatrix in="SourceAlpha" type="matrix" values="0 0 0 0 0 0 0 0 0 0 0 0 0 0 0 0 0 0 127 0" result="hardAlpha"/>
<feOffset dy="4"/>
<feGaussianBlur stdDeviation="2"/>
<feComposite in2="hardAlpha" operator="arithmetic" k2="-1" k3="1"/>
<feColorMatrix type="matrix" values="0 0 0 0 0 0 0 0 0 0 0 0 0 0 0 0 0 0 0.25 0"/>
<feBlend mode="normal" in2="shape" result="effect1_innerShadow_31_9774"/>
</filter>
<linearGradient id="paint0_linear_31_9774" x1="14.3606" y1="32.6252" x2="14.3606" y2="37.9634" gradientUnits="userSpaceOnUse">
<stop stop-color="#FD8D2A"/>
<stop offset="1" stop-color="#FD2549"/>
</linearGradient>
<linearGradient id="paint1_linear_31_9774" x1="29.9962" y1="43.4149" x2="29.9962" y2="59.7842" gradientUnits="userSpaceOnUse">
<stop stop-color="#FD8D2A"/>
<stop offset="1" stop-color="#FD2549"/>
</linearGradient>
<linearGradient id="paint2_linear_31_9774" x1="51.4308" y1="43.415" x2="51.4308" y2="59.7844" gradientUnits="userSpaceOnUse">
<stop stop-color="#FD8D2A"/>
<stop offset="1" stop-color="#FD2549"/>
</linearGradient>
<linearGradient id="paint3_linear_31_9774" x1="8.56169" y1="43.4149" x2="8.56169" y2="59.7863" gradientUnits="userSpaceOnUse">
<stop stop-color="#FD8D2A"/>
<stop offset="1" stop-color="#FD2549"/>
</linearGradient>
<linearGradient id="paint4_linear_31_9774" x1="30.9282" y1="0.2063" x2="30.9282" y2="41.6812" gradientUnits="userSpaceOnUse">
<stop stop-color="#FD8D2A"/>
<stop offset="1" stop-color="#FD2549"/>
</linearGradient>
<clipPath id="clip0_31_9774">
<rect width="60" height="60" fill="white"/>
</clipPath>
</defs>
</svg>
