<svg width="60" height="58" viewBox="0 0 60 58" fill="none" xmlns="http://www.w3.org/2000/svg">
<path d="M59.9542 22.1565C59.9541 22.0663 59.9339 21.93 59.8989 21.8515C59.8066 21.5171 59.6017 21.2115 59.2949 20.9983L50.706 15.0278V8.62748C50.706 7.77905 50.0179 7.09092 49.1694 7.09092H39.2883L30.8809 1.24584C30.3554 0.8801 29.6578 0.878577 29.1307 1.2428L20.6691 7.09092H10.8312C9.9825 7.09092 9.29461 7.77905 9.29461 8.62748V14.9524L0.663984 20.9174C0.239414 21.2108 0.00972656 21.6799 0.00246094 22.1596C0.00199219 22.1686 0 22.1772 0 22.1865L0.0458203 55.4953C0.0464063 55.9028 0.208828 56.2934 0.497227 56.5812C0.785273 56.8684 1.17551 57.0297 1.58238 57.0297C1.5832 57.0297 1.58379 57.0297 1.58449 57.0297L58.4655 56.9515C59.314 56.9503 60.0012 56.2614 60 55.4128L59.9542 22.1565ZM50.7059 18.7706L55.6158 22.1829L50.7059 25.5963V18.7706ZM30.0018 4.37721L33.9053 7.0908H26.0757L30.0018 4.37721ZM12.3677 10.164H47.6327V27.7329L35.7926 35.9644L30.9652 32.2198C30.9577 32.2139 30.9512 32.2103 30.9439 32.205C30.4044 31.8003 29.6413 31.7854 29.0814 32.2198L24.2189 35.9915L12.3677 27.8009V10.164ZM9.29461 18.688V25.6771L4.23844 22.1827L9.29461 18.688ZM3.07711 25.1174L21.6711 37.9676L3.11461 52.361L3.07711 25.1174ZM6.0791 53.9505L30.0233 35.3781L53.8816 53.8847L6.0791 53.9505ZM38.3372 37.9382L56.8852 25.0433L56.9227 52.3549L38.3372 37.9382Z" fill="black"/>
<path d="M59.9542 22.1565C59.9541 22.0663 59.9339 21.93 59.8989 21.8515C59.8066 21.5171 59.6017 21.2115 59.2949 20.9983L50.706 15.0278V8.62748C50.706 7.77905 50.0179 7.09092 49.1694 7.09092H39.2883L30.8809 1.24584C30.3554 0.8801 29.6578 0.878577 29.1307 1.2428L20.6691 7.09092H10.8312C9.9825 7.09092 9.29461 7.77905 9.29461 8.62748V14.9524L0.663984 20.9174C0.239414 21.2108 0.00972656 21.6799 0.00246094 22.1596C0.00199219 22.1686 0 22.1772 0 22.1865L0.0458203 55.4953C0.0464063 55.9028 0.208828 56.2934 0.497227 56.5812C0.785273 56.8684 1.17551 57.0297 1.58238 57.0297C1.5832 57.0297 1.58379 57.0297 1.58449 57.0297L58.4655 56.9515C59.314 56.9503 60.0012 56.2614 60 55.4128L59.9542 22.1565ZM50.7059 18.7706L55.6158 22.1829L50.7059 25.5963V18.7706ZM30.0018 4.37721L33.9053 7.0908H26.0757L30.0018 4.37721ZM12.3677 10.164H47.6327V27.7329L35.7926 35.9644L30.9652 32.2198C30.9577 32.2139 30.9512 32.2103 30.9439 32.205C30.4044 31.8003 29.6413 31.7854 29.0814 32.2198L24.2189 35.9915L12.3677 27.8009V10.164ZM9.29461 18.688V25.6771L4.23844 22.1827L9.29461 18.688ZM3.07711 25.1174L21.6711 37.9676L3.11461 52.361L3.07711 25.1174ZM6.0791 53.9505L30.0233 35.3781L53.8816 53.8847L6.0791 53.9505ZM38.3372 37.9382L56.8852 25.0433L56.9227 52.3549L38.3372 37.9382Z" fill="url(#paint0_linear_117_214)"/>
<defs>
<linearGradient id="paint0_linear_117_214" x1="29.986" y1="0.970912" x2="29.986" y2="57.0039" gradientUnits="userSpaceOnUse">
<stop stop-color="#FD8D2A"/>
<stop offset="1" stop-color="#FD2549"/>
</linearGradient>
</defs>
</svg>
