<svg width="60" height="60" viewBox="0 0 60 60" fill="none" xmlns="http://www.w3.org/2000/svg">
<g clip-path="url(#clip0_117_215)">
<g filter="url(#filter0_i_117_215)">
<path d="M47.4192 37.1682C46.1909 35.8892 44.7092 35.2053 43.139 35.2053C41.5814 35.2053 40.0871 35.8765 38.8081 37.1555L34.8065 41.1445C34.4772 40.9672 34.148 40.8026 33.8314 40.6379C33.3755 40.41 32.9449 40.1947 32.5777 39.9668C28.8293 37.5861 25.4229 34.4835 22.1557 30.4692C20.5728 28.4684 19.5091 26.7842 18.7366 25.0746C19.775 24.1248 20.7374 23.1371 21.6745 22.1873C22.0291 21.8328 22.3837 21.4655 22.7382 21.111C25.3975 18.4516 25.3975 15.0072 22.7382 12.3479L19.2811 8.89077C18.8886 8.4982 18.4833 8.09297 18.1034 7.68774C17.3436 6.90261 16.5458 6.09215 15.7227 5.33235C14.4944 4.11666 13.0254 3.47083 11.4805 3.47083C9.93552 3.47083 8.44124 4.11666 7.1749 5.33235C7.16224 5.34501 7.16224 5.34501 7.14957 5.35767L2.84401 9.70122C1.2231 11.3221 0.298668 13.2976 0.0960534 15.5897C-0.207868 19.2874 0.881185 22.7319 1.71697 24.986C3.76844 30.5199 6.83299 35.6486 11.4045 41.1445C16.9511 47.7674 23.6247 52.9974 31.248 56.6825C34.1606 58.0628 38.0483 59.6964 42.3918 59.975C42.6578 59.9876 42.9364 60.0003 43.1896 60.0003C46.1149 60.0003 48.5716 58.9492 50.4964 56.8598C50.5091 56.8344 50.5344 56.8218 50.5471 56.7965C51.2056 55.9987 51.9654 55.2768 52.7632 54.5044C53.3077 53.9852 53.8649 53.4406 54.4094 52.8708C55.6631 51.5665 56.3216 50.0469 56.3216 48.4893C56.3216 46.919 55.6504 45.412 54.3714 44.1457L47.4192 37.1682ZM51.9527 50.5027C51.9401 50.5154 51.9401 50.5027 51.9527 50.5027C51.4588 51.0346 50.9523 51.5158 50.4078 52.0477C49.5847 52.8328 48.7489 53.6559 47.9637 54.5804C46.6847 55.948 45.1778 56.5938 43.2023 56.5938C43.0124 56.5938 42.8097 56.5938 42.6198 56.5812C38.8588 56.3406 35.3637 54.8716 32.7423 53.6179C25.5748 50.1482 19.2811 45.2221 14.0511 38.979C9.73291 33.7744 6.84565 28.9623 4.93348 23.7956C3.75578 20.6424 3.32522 18.1857 3.51517 15.8683C3.64181 14.3867 4.21166 13.1583 5.26273 12.1073L9.58095 7.78905C10.2015 7.20653 10.86 6.88995 11.5058 6.88995C12.3036 6.88995 12.9494 7.37116 13.3546 7.77639C13.3673 7.78905 13.38 7.80171 13.3926 7.81438C14.1651 8.53619 14.8996 9.28333 15.672 10.0811C16.0646 10.4864 16.4698 10.8916 16.8751 11.3095L20.3322 14.7666C21.6745 16.1089 21.6745 17.3499 20.3322 18.6922C19.9649 19.0595 19.6104 19.4267 19.2431 19.7813C18.1794 20.8704 17.1663 21.8834 16.0646 22.8712C16.0393 22.8965 16.014 22.9092 16.0013 22.9345C14.9122 24.0235 15.1149 25.0873 15.3428 25.8091C15.3555 25.8471 15.3681 25.8851 15.3808 25.9231C16.2799 28.1012 17.5462 30.1526 19.4711 32.5967L19.4837 32.6093C22.9788 36.9149 26.6639 40.2707 30.7288 42.8414C31.248 43.1706 31.7799 43.4366 32.2864 43.6898C32.7423 43.9178 33.1729 44.133 33.5401 44.361C33.5908 44.3863 33.6414 44.4243 33.6921 44.4496C34.1226 44.6649 34.5279 44.7662 34.9458 44.7662C35.9968 44.7662 36.6553 44.1077 36.8706 43.8924L41.2015 39.5615C41.632 39.131 42.3159 38.6118 43.1137 38.6118C43.8988 38.6118 44.5446 39.1057 44.9372 39.5362C44.9499 39.5489 44.9499 39.5489 44.9625 39.5615L51.9401 46.5391C53.2444 47.8308 53.2444 49.1604 51.9527 50.5027Z" fill="black"/>
<path d="M47.4192 37.1682C46.1909 35.8892 44.7092 35.2053 43.139 35.2053C41.5814 35.2053 40.0871 35.8765 38.8081 37.1555L34.8065 41.1445C34.4772 40.9672 34.148 40.8026 33.8314 40.6379C33.3755 40.41 32.9449 40.1947 32.5777 39.9668C28.8293 37.5861 25.4229 34.4835 22.1557 30.4692C20.5728 28.4684 19.5091 26.7842 18.7366 25.0746C19.775 24.1248 20.7374 23.1371 21.6745 22.1873C22.0291 21.8328 22.3837 21.4655 22.7382 21.111C25.3975 18.4516 25.3975 15.0072 22.7382 12.3479L19.2811 8.89077C18.8886 8.4982 18.4833 8.09297 18.1034 7.68774C17.3436 6.90261 16.5458 6.09215 15.7227 5.33235C14.4944 4.11666 13.0254 3.47083 11.4805 3.47083C9.93552 3.47083 8.44124 4.11666 7.1749 5.33235C7.16224 5.34501 7.16224 5.34501 7.14957 5.35767L2.84401 9.70122C1.2231 11.3221 0.298668 13.2976 0.0960534 15.5897C-0.207868 19.2874 0.881185 22.7319 1.71697 24.986C3.76844 30.5199 6.83299 35.6486 11.4045 41.1445C16.9511 47.7674 23.6247 52.9974 31.248 56.6825C34.1606 58.0628 38.0483 59.6964 42.3918 59.975C42.6578 59.9876 42.9364 60.0003 43.1896 60.0003C46.1149 60.0003 48.5716 58.9492 50.4964 56.8598C50.5091 56.8344 50.5344 56.8218 50.5471 56.7965C51.2056 55.9987 51.9654 55.2768 52.7632 54.5044C53.3077 53.9852 53.8649 53.4406 54.4094 52.8708C55.6631 51.5665 56.3216 50.0469 56.3216 48.4893C56.3216 46.919 55.6504 45.412 54.3714 44.1457L47.4192 37.1682ZM51.9527 50.5027C51.9401 50.5154 51.9401 50.5027 51.9527 50.5027C51.4588 51.0346 50.9523 51.5158 50.4078 52.0477C49.5847 52.8328 48.7489 53.6559 47.9637 54.5804C46.6847 55.948 45.1778 56.5938 43.2023 56.5938C43.0124 56.5938 42.8097 56.5938 42.6198 56.5812C38.8588 56.3406 35.3637 54.8716 32.7423 53.6179C25.5748 50.1482 19.2811 45.2221 14.0511 38.979C9.73291 33.7744 6.84565 28.9623 4.93348 23.7956C3.75578 20.6424 3.32522 18.1857 3.51517 15.8683C3.64181 14.3867 4.21166 13.1583 5.26273 12.1073L9.58095 7.78905C10.2015 7.20653 10.86 6.88995 11.5058 6.88995C12.3036 6.88995 12.9494 7.37116 13.3546 7.77639C13.3673 7.78905 13.38 7.80171 13.3926 7.81438C14.1651 8.53619 14.8996 9.28333 15.672 10.0811C16.0646 10.4864 16.4698 10.8916 16.8751 11.3095L20.3322 14.7666C21.6745 16.1089 21.6745 17.3499 20.3322 18.6922C19.9649 19.0595 19.6104 19.4267 19.2431 19.7813C18.1794 20.8704 17.1663 21.8834 16.0646 22.8712C16.0393 22.8965 16.014 22.9092 16.0013 22.9345C14.9122 24.0235 15.1149 25.0873 15.3428 25.8091C15.3555 25.8471 15.3681 25.8851 15.3808 25.9231C16.2799 28.1012 17.5462 30.1526 19.4711 32.5967L19.4837 32.6093C22.9788 36.9149 26.6639 40.2707 30.7288 42.8414C31.248 43.1706 31.7799 43.4366 32.2864 43.6898C32.7423 43.9178 33.1729 44.133 33.5401 44.361C33.5908 44.3863 33.6414 44.4243 33.6921 44.4496C34.1226 44.6649 34.5279 44.7662 34.9458 44.7662C35.9968 44.7662 36.6553 44.1077 36.8706 43.8924L41.2015 39.5615C41.632 39.131 42.3159 38.6118 43.1137 38.6118C43.8988 38.6118 44.5446 39.1057 44.9372 39.5362C44.9499 39.5489 44.9499 39.5489 44.9625 39.5615L51.9401 46.5391C53.2444 47.8308 53.2444 49.1604 51.9527 50.5027Z" fill="url(#paint0_linear_117_215)"/>
<path d="M32.4257 14.2725C35.7436 14.8296 38.7574 16.3999 41.1635 18.806C43.5695 21.212 45.1271 24.2259 45.697 27.5437C45.8363 28.3795 46.5581 28.962 47.3812 28.962C47.4825 28.962 47.5712 28.9494 47.6725 28.9367C48.6096 28.7847 49.2301 27.8983 49.0781 26.9612C48.3943 22.9469 46.4948 19.2872 43.5949 16.3872C40.6949 13.4873 37.0352 11.5878 33.0209 10.904C32.0838 10.752 31.2101 11.3725 31.0454 12.297C30.8808 13.2214 31.4886 14.1205 32.4257 14.2725Z" fill="black"/>
<path d="M32.4257 14.2725C35.7436 14.8296 38.7574 16.3999 41.1635 18.806C43.5695 21.212 45.1271 24.2259 45.697 27.5437C45.8363 28.3795 46.5581 28.962 47.3812 28.962C47.4825 28.962 47.5712 28.9494 47.6725 28.9367C48.6096 28.7847 49.2301 27.8983 49.0781 26.9612C48.3943 22.9469 46.4948 19.2872 43.5949 16.3872C40.6949 13.4873 37.0352 11.5878 33.0209 10.904C32.0838 10.752 31.2101 11.3725 31.0454 12.297C30.8808 13.2214 31.4886 14.1205 32.4257 14.2725Z" fill="url(#paint1_linear_117_215)"/>
<path d="M59.9308 26.4675C58.8038 19.8572 55.6886 13.8421 50.9018 9.05532C46.115 4.26855 40.0999 1.15335 33.4896 0.0263073C32.5652 -0.138317 31.6914 0.494854 31.5268 1.41928C31.3748 2.35637 31.9953 3.23015 32.9324 3.39477C38.8336 4.39518 44.2155 7.1938 48.4958 11.4614C52.776 15.7416 55.5619 21.1236 56.5623 27.0247C56.7016 27.8605 57.4235 28.443 58.2466 28.443C58.3479 28.443 58.4365 28.4303 58.5378 28.4177C59.4623 28.2784 60.0954 27.3919 59.9308 26.4675Z" fill="black"/>
<path d="M59.9308 26.4675C58.8038 19.8572 55.6886 13.8421 50.9018 9.05532C46.115 4.26855 40.0999 1.15335 33.4896 0.0263073C32.5652 -0.138317 31.6914 0.494854 31.5268 1.41928C31.3748 2.35637 31.9953 3.23015 32.9324 3.39477C38.8336 4.39518 44.2155 7.1938 48.4958 11.4614C52.776 15.7416 55.5619 21.1236 56.5623 27.0247C56.7016 27.8605 57.4235 28.443 58.2466 28.443C58.3479 28.443 58.4365 28.4303 58.5378 28.4177C59.4623 28.2784 60.0954 27.3919 59.9308 26.4675Z" fill="url(#paint2_linear_117_215)"/>
</g>
</g>
<defs>
<filter id="filter0_i_117_215" x="0.0439453" y="0.000244141" width="59.9131" height="64" filterUnits="userSpaceOnUse" color-interpolation-filters="sRGB">
<feFlood flood-opacity="0" result="BackgroundImageFix"/>
<feBlend mode="normal" in="SourceGraphic" in2="BackgroundImageFix" result="shape"/>
<feColorMatrix in="SourceAlpha" type="matrix" values="0 0 0 0 0 0 0 0 0 0 0 0 0 0 0 0 0 0 127 0" result="hardAlpha"/>
<feOffset dy="4"/>
<feGaussianBlur stdDeviation="2"/>
<feComposite in2="hardAlpha" operator="arithmetic" k2="-1" k3="1"/>
<feColorMatrix type="matrix" values="0 0 0 0 0 0 0 0 0 0 0 0 0 0 0 0 0 0 0.25 0"/>
<feBlend mode="normal" in2="shape" result="effect1_innerShadow_117_215"/>
</filter>
<linearGradient id="paint0_linear_117_215" x1="28.1697" y1="3.47116" x2="28.1697" y2="59.9743" gradientUnits="userSpaceOnUse">
<stop stop-color="#FD8D2A"/>
<stop offset="1" stop-color="#FD2549"/>
</linearGradient>
<linearGradient id="paint1_linear_117_215" x1="40.0556" y1="10.8812" x2="40.0556" y2="28.9537" gradientUnits="userSpaceOnUse">
<stop stop-color="#FD8D2A"/>
<stop offset="1" stop-color="#FD2549"/>
</linearGradient>
<linearGradient id="paint2_linear_117_215" x1="45.7238" y1="0.000412011" x2="45.7238" y2="28.4299" gradientUnits="userSpaceOnUse">
<stop stop-color="#FD8D2A"/>
<stop offset="1" stop-color="#FD2549"/>
</linearGradient>
<clipPath id="clip0_117_215">
<rect width="60" height="60" fill="white"/>
</clipPath>
</defs>
</svg>
