<svg width="60" height="60" viewBox="0 0 60 60" fill="none" xmlns="http://www.w3.org/2000/svg">
<g clip-path="url(#clip0_117_216)" filter="url(#filter0_i_117_216)">
<path d="M56.4682 49.1204C56.0694 47.9948 55.2533 47.0977 54.1703 46.5947C53.0873 46.0916 51.8756 46.0465 50.7582 46.4681L49.4548 46.9596V31.5893C49.4548 30.9423 48.93 30.4175 48.283 30.4175C47.6359 30.4175 47.1111 30.9423 47.1111 31.5893V47.8425L41.5012 49.9582C41.0298 50.1361 40.5486 50.2756 40.0614 50.3765C38.9916 50.5974 37.8934 50.6319 36.8072 50.4778C37.2347 50.0031 37.5688 49.4313 37.7763 48.7851C38.576 46.3186 37.1904 43.604 34.6492 42.9364L24.3678 40.2353C24.2707 40.2098 24.1705 40.1969 24.0701 40.1969H16.0796V37.9884C16.0796 37.3413 15.5548 36.8166 14.9078 36.8166H12.4747V9.73755H18.7479C19.395 9.73755 19.9197 9.21281 19.9197 8.56574V2.34363H47.1111V32.1698C47.1111 32.8168 47.8524 32 48.4995 32C49.1466 32 49.4548 34.2464 49.4548 33.5993V1.17182C49.4548 0.524739 48.93 0 48.283 0H18.7479C18.4421 0 18.1392 0.124798 17.9221 0.340295L10.4771 7.73422C10.2582 7.95182 10.1311 8.25708 10.1311 8.56574V36.8166H4.44721C3.80013 36.8166 3.27539 37.3413 3.27539 37.9884V58.0427C3.27539 58.6898 3.80013 59.2145 4.44721 59.2145H14.9078C15.5548 59.2145 16.0796 58.6898 16.0796 58.0427V55.9306H20.3452L35.709 59.6619C36.6393 59.8879 37.5813 60.0002 38.5197 60.0002C40.0307 60.0002 41.5324 59.7089 42.961 59.131L53.9664 54.6788C56.1593 53.7915 57.2582 51.35 56.4682 49.1204ZM17.5761 7.39392H14.1459L17.5761 3.98722V7.39392ZM13.736 56.8708H5.61902V39.1602L13.7358 39.1608L13.736 56.8708ZM53.0876 52.5059L42.0823 56.9581C40.2233 57.7102 38.211 57.8577 36.2621 57.3843L20.762 53.6199C20.6715 53.5979 20.5787 53.5869 20.4855 53.5869H16.0795V42.5404H23.9184L34.0542 45.2035C34.4075 45.2963 34.7245 45.4718 34.984 45.714C35.7603 46.4385 35.8694 47.6161 35.3428 48.5162C34.866 49.3313 33.9045 49.7872 32.9726 49.6141L26.1406 48.0037C25.5111 47.8559 24.8796 48.2454 24.7312 48.8754C24.5827 49.5052 24.973 50.1362 25.6029 50.2847L25.609 50.2862L25.6112 50.2867L25.6123 50.2869C25.8294 50.3381 29.5011 51.2037 32.3205 51.8716C33.8811 52.2404 35.4621 52.7178 37.0634 52.8655C38.9465 53.0393 40.8003 52.7278 42.5623 52.0634C44.8 51.2196 50.8152 48.9513 51.5851 48.6609C52.6546 48.2579 53.8783 48.8279 54.2591 49.903C54.629 50.9471 54.1145 52.0905 53.0876 52.5059Z" fill="url(#paint0_linear_117_216)"/>
<path d="M23.7527 20.1776H20.3681C19.721 20.1776 19.1963 20.7024 19.1963 21.3495C19.1963 21.9965 19.721 22.5213 20.3681 22.5213H21.9854V23.2233C21.9854 23.8704 22.5102 24.3951 23.1573 24.3951C23.8043 24.3951 24.3291 23.8704 24.3291 23.2233V22.4709C25.911 22.1966 27.1182 20.815 27.1182 19.1557V19.0144C27.1182 17.1586 25.6085 15.6488 23.7527 15.6488H22.5619C21.9983 15.6488 21.5399 15.1904 21.5399 14.6269C21.5399 14.0633 21.9983 13.6049 22.5619 13.6049H25.9464C26.5935 13.6049 27.1182 13.0802 27.1182 12.4331C27.1182 11.786 26.5935 11.2613 25.9464 11.2613H24.3291V10.5593C24.3291 9.91219 23.8043 9.38745 23.1573 9.38745C22.5102 9.38745 21.9854 9.91219 21.9854 10.5593V11.3117C20.4035 11.586 19.1963 12.9676 19.1963 14.6269C19.1963 16.4827 20.7061 17.9924 22.5619 17.9924H23.7527C24.3162 17.9924 24.7746 18.4509 24.7746 19.0144V19.1557C24.7746 19.7192 24.3162 20.1776 23.7527 20.1776Z" fill="url(#paint1_linear_117_216)"/>
<path d="M40.1025 9.3551H32.0165C31.3695 9.3551 30.8447 9.87984 30.8447 10.5269C30.8447 11.174 31.3695 11.6987 32.0165 11.6987H40.1027C40.7497 11.6987 41.2745 11.174 41.2745 10.5269C41.2745 9.87984 40.7497 9.3551 40.1025 9.3551Z" fill="url(#paint2_linear_117_216)"/>
<path d="M40.1025 15.5419H32.0165C31.3695 15.5419 30.8447 16.0666 30.8447 16.7137C30.8447 17.3608 31.3695 17.8855 32.0165 17.8855H40.1027C40.7497 17.8855 41.2745 17.3608 41.2745 16.7137C41.2745 16.0666 40.7497 15.5419 40.1025 15.5419Z" fill="url(#paint3_linear_117_216)"/>
<path d="M40.1025 21.729H32.0165C31.3695 21.729 30.8447 22.2537 30.8447 22.9008C30.8447 23.5479 31.3695 24.0726 32.0165 24.0726H40.1027C40.7497 24.0726 41.2745 23.5479 41.2745 22.9008C41.2745 22.2537 40.7497 21.729 40.1025 21.729Z" fill="url(#paint4_linear_117_216)"/>
<path d="M40.1023 27.9158H20.3681C19.721 27.9158 19.1963 28.4405 19.1963 29.0876C19.1963 29.7347 19.721 30.2594 20.3681 30.2594H40.1023C40.7494 30.2594 41.2741 29.7347 41.2741 29.0876C41.2741 28.4405 40.7495 27.9158 40.1023 27.9158Z" fill="url(#paint5_linear_117_216)"/>
<path d="M40.1023 34.1023H20.3681C19.721 34.1023 19.1963 34.627 19.1963 35.2741C19.1963 35.9212 19.721 36.4459 20.3681 36.4459H40.1023C40.7494 36.4459 41.2741 35.9212 41.2741 35.2741C41.2741 34.627 40.7495 34.1023 40.1023 34.1023Z" fill="url(#paint6_linear_117_216)"/>
</g>
<defs>
<filter id="filter0_i_117_216" x="0" y="0" width="60" height="64" filterUnits="userSpaceOnUse" color-interpolation-filters="sRGB">
<feFlood flood-opacity="0" result="BackgroundImageFix"/>
<feBlend mode="normal" in="SourceGraphic" in2="BackgroundImageFix" result="shape"/>
<feColorMatrix in="SourceAlpha" type="matrix" values="0 0 0 0 0 0 0 0 0 0 0 0 0 0 0 0 0 0 127 0" result="hardAlpha"/>
<feOffset dy="4"/>
<feGaussianBlur stdDeviation="2"/>
<feComposite in2="hardAlpha" operator="arithmetic" k2="-1" k3="1"/>
<feColorMatrix type="matrix" values="0 0 0 0 0 0 0 0 0 0 0 0 0 0 0 0 0 0 0.25 0"/>
<feBlend mode="normal" in2="shape" result="effect1_innerShadow_117_216"/>
</filter>
<linearGradient id="paint0_linear_117_216" x1="29.9872" y1="0.000354124" x2="29.9872" y2="59.9727" gradientUnits="userSpaceOnUse">
<stop stop-color="#FD8D2A"/>
<stop offset="1" stop-color="#FD2549"/>
</linearGradient>
<linearGradient id="paint1_linear_117_216" x1="23.1554" y1="9.38754" x2="23.1554" y2="24.3882" gradientUnits="userSpaceOnUse">
<stop stop-color="#FD8D2A"/>
<stop offset="1" stop-color="#FD2549"/>
</linearGradient>
<linearGradient id="paint2_linear_117_216" x1="36.0572" y1="9.35512" x2="36.0572" y2="11.6977" gradientUnits="userSpaceOnUse">
<stop stop-color="#FD8D2A"/>
<stop offset="1" stop-color="#FD2549"/>
</linearGradient>
<linearGradient id="paint3_linear_117_216" x1="36.0572" y1="15.5419" x2="36.0572" y2="17.8844" gradientUnits="userSpaceOnUse">
<stop stop-color="#FD8D2A"/>
<stop offset="1" stop-color="#FD2549"/>
</linearGradient>
<linearGradient id="paint4_linear_117_216" x1="36.0572" y1="21.729" x2="36.0572" y2="24.0716" gradientUnits="userSpaceOnUse">
<stop stop-color="#FD8D2A"/>
<stop offset="1" stop-color="#FD2549"/>
</linearGradient>
<linearGradient id="paint5_linear_117_216" x1="30.2301" y1="27.9158" x2="30.2301" y2="30.2583" gradientUnits="userSpaceOnUse">
<stop stop-color="#FD8D2A"/>
<stop offset="1" stop-color="#FD2549"/>
</linearGradient>
<linearGradient id="paint6_linear_117_216" x1="30.2301" y1="34.1023" x2="30.2301" y2="36.4448" gradientUnits="userSpaceOnUse">
<stop stop-color="#FD8D2A"/>
<stop offset="1" stop-color="#FD2549"/>
</linearGradient>
<clipPath id="clip0_117_216">
<rect width="60" height="60" fill="white"/>
</clipPath>
</defs>
</svg>
