<svg width="60" height="60" viewBox="0 0 60 60" fill="none" xmlns="http://www.w3.org/2000/svg">
<g clip-path="url(#clip0_31_6509)" filter="url(#filter0_i_31_6509)">
<path d="M59.2286 4.08148C59.0777 3.9023 58.8617 3.79038 58.6283 3.77046L45.5703 2.65519L45.3336 0.773391C45.2726 0.289289 44.8298 -0.0538357 44.3468 0.00698463L32.2335 1.52995C32.1858 1.51753 32.137 1.50816 32.0861 1.50382L15.4366 0.0816331C14.9572 0.0394456 14.5219 0.408117 14.4811 0.886594L14.2329 3.79284L1.33657 5.41425C0.859386 5.47425 0.510284 5.92343 0.570167 6.40097L7.15306 58.7613C7.18294 59.0001 7.13173 59.2296 7.22935 59.4605C7.36622 59.7841 7.692 60.0001 8.04345 60.0001H51.3922C51.8802 60.0001 52.2756 59.6047 52.2756 59.1166V57.9659L53.9867 58.1121C54.4661 58.1537 54.9013 57.7858 54.9421 57.3071L59.4331 4.72613C59.4531 4.49257 59.3797 4.26077 59.2286 4.08148ZM7.15997 44.6511L2.43368 7.0571L7.15997 6.46296V44.6511ZM16.1665 1.91738L23.8986 2.57773L16.0257 3.56761L16.1665 1.91738ZM43.6907 1.87038L44.1421 5.46066H15.1322L43.6907 1.87038ZM53.2569 56.2763L52.2756 56.1925V30.3744C52.2756 29.8864 51.8802 29.4909 51.3922 29.4909C50.9041 29.4909 50.5087 29.8863 50.5087 30.3744V58.233H8.92693V7.22761H50.5088V26.2516C50.5088 26.7397 50.9042 27.1351 51.3923 27.1351C51.8804 27.1351 52.2758 26.7397 52.2758 26.2516V6.34413C52.2758 5.85616 51.8804 5.46066 51.3923 5.46066H45.923L45.7956 4.44781L57.5975 5.45585L53.2569 56.2763Z" fill="black"/>
<path d="M59.2286 4.08148C59.0777 3.9023 58.8617 3.79038 58.6283 3.77046L45.5703 2.65519L45.3336 0.773391C45.2726 0.289289 44.8298 -0.0538357 44.3468 0.00698463L32.2335 1.52995C32.1858 1.51753 32.137 1.50816 32.0861 1.50382L15.4366 0.0816331C14.9572 0.0394456 14.5219 0.408117 14.4811 0.886594L14.2329 3.79284L1.33657 5.41425C0.859386 5.47425 0.510284 5.92343 0.570167 6.40097L7.15306 58.7613C7.18294 59.0001 7.13173 59.2296 7.22935 59.4605C7.36622 59.7841 7.692 60.0001 8.04345 60.0001H51.3922C51.8802 60.0001 52.2756 59.6047 52.2756 59.1166V57.9659L53.9867 58.1121C54.4661 58.1537 54.9013 57.7858 54.9421 57.3071L59.4331 4.72613C59.4531 4.49257 59.3797 4.26077 59.2286 4.08148ZM7.15997 44.6511L2.43368 7.0571L7.15997 6.46296V44.6511ZM16.1665 1.91738L23.8986 2.57773L16.0257 3.56761L16.1665 1.91738ZM43.6907 1.87038L44.1421 5.46066H15.1322L43.6907 1.87038ZM53.2569 56.2763L52.2756 56.1925V30.3744C52.2756 29.8864 51.8802 29.4909 51.3922 29.4909C50.9041 29.4909 50.5087 29.8863 50.5087 30.3744V58.233H8.92693V7.22761H50.5088V26.2516C50.5088 26.7397 50.9042 27.1351 51.3923 27.1351C51.8804 27.1351 52.2758 26.7397 52.2758 26.2516V6.34413C52.2758 5.85616 51.8804 5.46066 51.3923 5.46066H45.923L45.7956 4.44781L57.5975 5.45585L53.2569 56.2763Z" fill="url(#paint0_linear_31_6509)"/>
<path d="M46.68 10.1725H41.9682C41.6727 10.1725 41.3969 10.32 41.2332 10.5659L39.2335 13.5654C37.0811 12.0236 34.4459 11.1148 31.6022 11.1148C31.1143 11.1148 30.7188 11.5102 30.7188 11.9983V24.249C30.7188 24.737 31.1141 25.1325 31.6022 25.1325H43.853C44.3411 25.1325 44.7365 24.7371 44.7365 24.249C44.7365 20.4877 43.1467 17.0911 40.6045 14.6944L42.4411 11.9394H46.6802C47.1681 11.9394 47.5636 11.544 47.5636 11.056C47.5636 10.5679 47.168 10.1725 46.68 10.1725ZM42.9355 23.3656H32.4857V12.9157C34.6282 13.0812 36.6048 13.8453 38.252 15.0376L37.4637 16.2202C37.2175 16.5893 37.2897 17.1006 37.6298 17.3862C38.028 17.7206 38.6457 17.6324 38.9338 17.2003L39.6085 16.1883C41.4869 18.0542 42.7195 20.5695 42.9355 23.3656Z" fill="black"/>
<path d="M46.68 10.1725H41.9682C41.6727 10.1725 41.3969 10.32 41.2332 10.5659L39.2335 13.5654C37.0811 12.0236 34.4459 11.1148 31.6022 11.1148C31.1143 11.1148 30.7188 11.5102 30.7188 11.9983V24.249C30.7188 24.737 31.1141 25.1325 31.6022 25.1325H43.853C44.3411 25.1325 44.7365 24.7371 44.7365 24.249C44.7365 20.4877 43.1467 17.0911 40.6045 14.6944L42.4411 11.9394H46.6802C47.1681 11.9394 47.5636 11.544 47.5636 11.056C47.5636 10.5679 47.168 10.1725 46.68 10.1725ZM42.9355 23.3656H32.4857V12.9157C34.6282 13.0812 36.6048 13.8453 38.252 15.0376L37.4637 16.2202C37.2175 16.5893 37.2897 17.1006 37.6298 17.3862C38.028 17.7206 38.6457 17.6324 38.9338 17.2003L39.6085 16.1883C41.4869 18.0542 42.7195 20.5695 42.9355 23.3656Z" fill="url(#paint1_linear_31_6509)"/>
<path d="M46.6804 39.3856H38.6888L37.2806 37.1327C39.5617 34.769 40.9673 31.5548 40.9673 28.0184C40.9673 27.5303 40.5719 27.1349 40.0838 27.1349H28.7165V15.7676C28.7165 15.2797 28.321 14.8842 27.833 14.8842C20.5908 14.8842 14.6987 20.7762 14.6987 28.0184C14.6987 35.2606 20.5908 41.1527 27.833 41.1527C30.8943 41.1527 33.714 40.0999 35.9499 38.3375L37.4499 40.7375C37.6113 40.9958 37.8945 41.1527 38.199 41.1527H46.6804C47.1683 41.1527 47.5639 40.7573 47.5639 40.2692C47.5639 39.7811 47.1683 39.3856 46.6804 39.3856ZM34.2366 32.262C33.9781 31.848 33.4328 31.7224 33.0191 31.981C32.6053 32.2395 32.4795 32.7847 32.7381 33.1985L35.0073 36.8292C33.0492 38.4265 30.5512 39.3858 27.8331 39.3858C21.5652 39.3858 16.4658 34.2864 16.4658 28.0185C16.4658 22.0478 21.0929 17.1376 26.9496 16.6852V28.0185C26.9496 28.5065 27.3451 28.902 27.8331 28.902H39.1664C38.9691 31.4568 37.9233 33.7775 36.3115 35.5822L34.2366 32.262Z" fill="black"/>
<path d="M46.6804 39.3856H38.6888L37.2806 37.1327C39.5617 34.769 40.9673 31.5548 40.9673 28.0184C40.9673 27.5303 40.5719 27.1349 40.0838 27.1349H28.7165V15.7676C28.7165 15.2797 28.321 14.8842 27.833 14.8842C20.5908 14.8842 14.6987 20.7762 14.6987 28.0184C14.6987 35.2606 20.5908 41.1527 27.833 41.1527C30.8943 41.1527 33.714 40.0999 35.9499 38.3375L37.4499 40.7375C37.6113 40.9958 37.8945 41.1527 38.199 41.1527H46.6804C47.1683 41.1527 47.5639 40.7573 47.5639 40.2692C47.5639 39.7811 47.1683 39.3856 46.6804 39.3856ZM34.2366 32.262C33.9781 31.848 33.4328 31.7224 33.0191 31.981C32.6053 32.2395 32.4795 32.7847 32.7381 33.1985L35.0073 36.8292C33.0492 38.4265 30.5512 39.3858 27.8331 39.3858C21.5652 39.3858 16.4658 34.2864 16.4658 28.0185C16.4658 22.0478 21.0929 17.1376 26.9496 16.6852V28.0185C26.9496 28.5065 27.3451 28.902 27.8331 28.902H39.1664C38.9691 31.4568 37.9233 33.7775 36.3115 35.5822L34.2366 32.262Z" fill="url(#paint2_linear_31_6509)"/>
<path d="M20.2945 44.0978H12.7555C12.2677 44.0978 11.8721 44.4932 11.8721 44.9813C11.8721 45.4693 12.2676 45.8647 12.7555 45.8647H20.2945C20.7824 45.8647 21.1779 45.4693 21.1779 44.9813C21.1779 44.4932 20.7824 44.0978 20.2945 44.0978Z" fill="black"/>
<path d="M20.2945 44.0978H12.7555C12.2677 44.0978 11.8721 44.4932 11.8721 44.9813C11.8721 45.4693 12.2676 45.8647 12.7555 45.8647H20.2945C20.7824 45.8647 21.1779 45.4693 21.1779 44.9813C21.1779 44.4932 20.7824 44.0978 20.2945 44.0978Z" fill="url(#paint3_linear_31_6509)"/>
<path d="M31.6026 44.0978H24.0637C23.5757 44.0978 23.1802 44.4932 23.1802 44.9813C23.1802 45.4693 23.5757 45.8647 24.0637 45.8647H31.6026C32.0905 45.8647 32.486 45.4693 32.486 44.9813C32.486 44.4932 32.0905 44.0978 31.6026 44.0978Z" fill="black"/>
<path d="M31.6026 44.0978H24.0637C23.5757 44.0978 23.1802 44.4932 23.1802 44.9813C23.1802 45.4693 23.5757 45.8647 24.0637 45.8647H31.6026C32.0905 45.8647 32.486 45.4693 32.486 44.9813C32.486 44.4932 32.0905 44.0978 31.6026 44.0978Z" fill="url(#paint4_linear_31_6509)"/>
<path d="M25.0063 48.8097H12.7555C12.2677 48.8097 11.8721 49.2051 11.8721 49.6932C11.8721 50.1813 12.2676 50.5766 12.7555 50.5766H25.0063C25.4943 50.5766 25.8898 50.1813 25.8898 49.6932C25.8898 49.2051 25.4942 48.8097 25.0063 48.8097Z" fill="black"/>
<path d="M25.0063 48.8097H12.7555C12.2677 48.8097 11.8721 49.2051 11.8721 49.6932C11.8721 50.1813 12.2676 50.5766 12.7555 50.5766H25.0063C25.4943 50.5766 25.8898 50.1813 25.8898 49.6932C25.8898 49.2051 25.4942 48.8097 25.0063 48.8097Z" fill="url(#paint5_linear_31_6509)"/>
<path d="M31.6022 48.8097H28.7751C28.2872 48.8097 27.8916 49.2051 27.8916 49.6932C27.8916 50.1813 28.2871 50.5766 28.7751 50.5766H31.6022C32.0902 50.5766 32.4857 50.1813 32.4857 49.6932C32.4856 49.2051 32.0902 48.8097 31.6022 48.8097Z" fill="black"/>
<path d="M31.6022 48.8097H28.7751C28.2872 48.8097 27.8916 49.2051 27.8916 49.6932C27.8916 50.1813 28.2871 50.5766 28.7751 50.5766H31.6022C32.0902 50.5766 32.4857 50.1813 32.4857 49.6932C32.4856 49.2051 32.0902 48.8097 31.6022 48.8097Z" fill="url(#paint6_linear_31_6509)"/>
<path d="M16.525 53.5214H12.7555C12.2677 53.5214 11.8721 53.9168 11.8721 54.4048C11.8721 54.8929 12.2676 55.2883 12.7555 55.2883H16.525C17.013 55.2883 17.4085 54.8929 17.4085 54.4048C17.4085 53.9168 17.013 53.5214 16.525 53.5214Z" fill="black"/>
<path d="M16.525 53.5214H12.7555C12.2677 53.5214 11.8721 53.9168 11.8721 54.4048C11.8721 54.8929 12.2676 55.2883 12.7555 55.2883H16.525C17.013 55.2883 17.4085 54.8929 17.4085 54.4048C17.4085 53.9168 17.013 53.5214 16.525 53.5214Z" fill="url(#paint7_linear_31_6509)"/>
<path d="M31.603 53.5214H20.2946C19.8068 53.5214 19.4111 53.9168 19.4111 54.4048C19.4111 54.8929 19.8066 55.2883 20.2946 55.2883H31.603C32.0909 55.2883 32.4864 54.8929 32.4864 54.4048C32.4864 53.9168 32.0909 53.5214 31.603 53.5214Z" fill="black"/>
<path d="M31.603 53.5214H20.2946C19.8068 53.5214 19.4111 53.9168 19.4111 54.4048C19.4111 54.8929 19.8066 55.2883 20.2946 55.2883H31.603C32.0909 55.2883 32.4864 54.8929 32.4864 54.4048C32.4864 53.9168 32.0909 53.5214 31.603 53.5214Z" fill="url(#paint8_linear_31_6509)"/>
</g>
<defs>
<filter id="filter0_i_31_6509" x="0" y="0" width="60" height="64" filterUnits="userSpaceOnUse" color-interpolation-filters="sRGB">
<feFlood flood-opacity="0" result="BackgroundImageFix"/>
<feBlend mode="normal" in="SourceGraphic" in2="BackgroundImageFix" result="shape"/>
<feColorMatrix in="SourceAlpha" type="matrix" values="0 0 0 0 0 0 0 0 0 0 0 0 0 0 0 0 0 0 127 0" result="hardAlpha"/>
<feOffset dy="4"/>
<feGaussianBlur stdDeviation="2"/>
<feComposite in2="hardAlpha" operator="arithmetic" k2="-1" k3="1"/>
<feColorMatrix type="matrix" values="0 0 0 0 0 0 0 0 0 0 0 0 0 0 0 0 0 0 0.25 0"/>
<feBlend mode="normal" in2="shape" result="effect1_innerShadow_31_6509"/>
</filter>
<linearGradient id="paint0_linear_31_6509" x1="29.9862" y1="0.000354123" x2="29.9862" y2="59.9725" gradientUnits="userSpaceOnUse">
<stop stop-color="#FD8D2A"/>
<stop offset="1" stop-color="#FD2549"/>
</linearGradient>
<linearGradient id="paint1_linear_31_6509" x1="39.1373" y1="10.1726" x2="39.1373" y2="25.1257" gradientUnits="userSpaceOnUse">
<stop stop-color="#FD8D2A"/>
<stop offset="1" stop-color="#FD2549"/>
</linearGradient>
<linearGradient id="paint2_linear_31_6509" x1="31.1236" y1="14.8843" x2="31.1236" y2="41.1406" gradientUnits="userSpaceOnUse">
<stop stop-color="#FD8D2A"/>
<stop offset="1" stop-color="#FD2549"/>
</linearGradient>
<linearGradient id="paint3_linear_31_6509" x1="16.5228" y1="44.0978" x2="16.5228" y2="45.8639" gradientUnits="userSpaceOnUse">
<stop stop-color="#FD8D2A"/>
<stop offset="1" stop-color="#FD2549"/>
</linearGradient>
<linearGradient id="paint4_linear_31_6509" x1="27.8309" y1="44.0978" x2="27.8309" y2="45.8639" gradientUnits="userSpaceOnUse">
<stop stop-color="#FD8D2A"/>
<stop offset="1" stop-color="#FD2549"/>
</linearGradient>
<linearGradient id="paint5_linear_31_6509" x1="18.8777" y1="48.8097" x2="18.8777" y2="50.5758" gradientUnits="userSpaceOnUse">
<stop stop-color="#FD8D2A"/>
<stop offset="1" stop-color="#FD2549"/>
</linearGradient>
<linearGradient id="paint6_linear_31_6509" x1="30.1876" y1="48.8097" x2="30.1876" y2="50.5758" gradientUnits="userSpaceOnUse">
<stop stop-color="#FD8D2A"/>
<stop offset="1" stop-color="#FD2549"/>
</linearGradient>
<linearGradient id="paint7_linear_31_6509" x1="14.639" y1="53.5214" x2="14.639" y2="55.2875" gradientUnits="userSpaceOnUse">
<stop stop-color="#FD8D2A"/>
<stop offset="1" stop-color="#FD2549"/>
</linearGradient>
<linearGradient id="paint8_linear_31_6509" x1="25.9457" y1="53.5214" x2="25.9457" y2="55.2875" gradientUnits="userSpaceOnUse">
<stop stop-color="#FD8D2A"/>
<stop offset="1" stop-color="#FD2549"/>
</linearGradient>
<clipPath id="clip0_31_6509">
<rect width="60" height="60" fill="white"/>
</clipPath>
</defs>
</svg>
