<svg width="60" height="60" viewBox="0 0 60 60" fill="none" xmlns="http://www.w3.org/2000/svg">
<g filter="url(#filter0_i_31_6545)">
<path d="M37.7923 26.6667H11.1255V28.889H37.7923V26.6667Z" fill="black"/>
<path d="M37.7923 26.6667H11.1255V28.889H37.7923V26.6667Z" fill="url(#paint0_linear_31_6545)"/>
<path d="M11.1255 33.3331V35.5554H32.7525L34.9747 33.3331H11.1255Z" fill="black"/>
<path d="M11.1255 33.3331V35.5554H32.7525L34.9747 33.3331H11.1255Z" fill="url(#paint1_linear_31_6545)"/>
<path d="M11.1255 39.9999V42.2221H26.0854L28.3078 39.9999H11.1255Z" fill="black"/>
<path d="M11.1255 39.9999V42.2221H26.0854L28.3078 39.9999H11.1255Z" fill="url(#paint2_linear_31_6545)"/>
<path d="M22.2367 46.6669H11.1255V48.8891H22.2367V46.6669Z" fill="black"/>
<path d="M22.2367 46.6669H11.1255V48.8891H22.2367V46.6669Z" fill="url(#paint3_linear_31_6545)"/>
<path d="M57.1131 23.7648L53.9703 20.6223C53.103 19.755 51.695 19.7548 50.8277 20.6222C42.8072 28.6426 34.7654 36.6845 26.681 44.7687C26.681 48.6141 26.681 47.7811 26.681 51.1107C32.0308 51.1107 30.6774 51.1132 32.9192 51.1012C34.0791 49.9413 39.198 44.8226 44.4589 39.5619V55.5555C44.4589 56.7828 43.464 57.7778 42.2367 57.7778H6.68093C5.45357 57.7778 4.4587 56.7828 4.4587 55.5555V15.5554C4.4587 14.328 5.45357 13.3331 6.68093 13.3331H11.1258V17.7777H37.7922V13.3333L42.2367 13.3331C43.464 13.3331 44.4589 14.328 44.4589 15.5554V23.809L46.6811 21.5714V15.5554C46.6811 13.1006 44.6912 11.1109 42.2367 11.1109H37.4083C36.6947 9.09393 35.0415 7.52073 32.9716 6.92559C31.9484 6.63142 31.1609 5.84392 30.8666 4.82072C30.0659 2.03654 27.5002 0 24.4587 0C21.4173 0 18.8517 2.03654 18.0511 4.8203C17.7564 5.84475 16.967 6.63128 15.9426 6.92642C13.8736 7.52267 12.219 9.09421 11.5062 11.1109H6.68079C4.2262 11.1109 2.23633 13.1006 2.23633 15.5554V55.5555C2.23633 58.0101 4.2262 60 6.68079 60H42.2365C44.6911 60 46.681 58.0101 46.681 55.5555V37.3398C51.4586 32.5622 55.9084 28.1124 57.113 26.9076C57.9803 26.0401 57.9803 24.6322 57.1131 23.7648ZM13.3478 13.2976C13.363 11.3439 14.6831 9.60227 16.5578 9.06199C18.3231 8.55337 19.6797 7.19726 20.1867 5.43475C20.7307 3.54307 22.4874 2.22223 24.4587 2.22223C26.4301 2.22223 28.1867 3.54307 28.7306 5.43475C29.2378 7.19837 30.5935 8.55407 32.3572 9.06115C34.2486 9.60532 35.5697 11.362 35.5697 13.3333V15.5555H13.3478V13.2976ZM31.9934 48.8843C31.4172 48.8875 31.1812 48.8884 30.3838 48.8887L28.9031 47.408V45.6892C29.454 45.1384 29.8349 44.7574 30.4001 44.1923L33.5427 47.3349L31.9934 48.8843ZM35.114 45.7637L31.9713 42.621L46.1136 28.4789L49.2563 31.6217L35.114 45.7637ZM50.8275 30.0501L47.6849 26.9075L49.2563 25.3361L52.3991 28.4787L50.8275 30.0501ZM53.9703 26.9076L50.8275 23.7648L52.3989 22.1936L55.5417 25.3362L53.9703 26.9076Z" fill="black"/>
<path d="M57.1131 23.7648L53.9703 20.6223C53.103 19.755 51.695 19.7548 50.8277 20.6222C42.8072 28.6426 34.7654 36.6845 26.681 44.7687C26.681 48.6141 26.681 47.7811 26.681 51.1107C32.0308 51.1107 30.6774 51.1132 32.9192 51.1012C34.0791 49.9413 39.198 44.8226 44.4589 39.5619V55.5555C44.4589 56.7828 43.464 57.7778 42.2367 57.7778H6.68093C5.45357 57.7778 4.4587 56.7828 4.4587 55.5555V15.5554C4.4587 14.328 5.45357 13.3331 6.68093 13.3331H11.1258V17.7777H37.7922V13.3333L42.2367 13.3331C43.464 13.3331 44.4589 14.328 44.4589 15.5554V23.809L46.6811 21.5714V15.5554C46.6811 13.1006 44.6912 11.1109 42.2367 11.1109H37.4083C36.6947 9.09393 35.0415 7.52073 32.9716 6.92559C31.9484 6.63142 31.1609 5.84392 30.8666 4.82072C30.0659 2.03654 27.5002 0 24.4587 0C21.4173 0 18.8517 2.03654 18.0511 4.8203C17.7564 5.84475 16.967 6.63128 15.9426 6.92642C13.8736 7.52267 12.219 9.09421 11.5062 11.1109H6.68079C4.2262 11.1109 2.23633 13.1006 2.23633 15.5554V55.5555C2.23633 58.0101 4.2262 60 6.68079 60H42.2365C44.6911 60 46.681 58.0101 46.681 55.5555V37.3398C51.4586 32.5622 55.9084 28.1124 57.113 26.9076C57.9803 26.0401 57.9803 24.6322 57.1131 23.7648ZM13.3478 13.2976C13.363 11.3439 14.6831 9.60227 16.5578 9.06199C18.3231 8.55337 19.6797 7.19726 20.1867 5.43475C20.7307 3.54307 22.4874 2.22223 24.4587 2.22223C26.4301 2.22223 28.1867 3.54307 28.7306 5.43475C29.2378 7.19837 30.5935 8.55407 32.3572 9.06115C34.2486 9.60532 35.5697 11.362 35.5697 13.3333V15.5555H13.3478V13.2976ZM31.9934 48.8843C31.4172 48.8875 31.1812 48.8884 30.3838 48.8887L28.9031 47.408V45.6892C29.454 45.1384 29.8349 44.7574 30.4001 44.1923L33.5427 47.3349L31.9934 48.8843ZM35.114 45.7637L31.9713 42.621L46.1136 28.4789L49.2563 31.6217L35.114 45.7637ZM50.8275 30.0501L47.6849 26.9075L49.2563 25.3361L52.3991 28.4787L50.8275 30.0501ZM53.9703 26.9076L50.8275 23.7648L52.3989 22.1936L55.5417 25.3362L53.9703 26.9076Z" fill="url(#paint4_linear_31_6545)"/>
<path d="M24.4924 8.33335C25.4128 8.33335 26.159 7.58715 26.159 6.66667C26.159 5.7462 25.4128 5 24.4924 5C23.5719 5 22.8257 5.7462 22.8257 6.66667C22.8257 7.58715 23.5719 8.33335 24.4924 8.33335Z" fill="black"/>
<path d="M24.4924 8.33335C25.4128 8.33335 26.159 7.58715 26.159 6.66667C26.159 5.7462 25.4128 5 24.4924 5C23.5719 5 22.8257 5.7462 22.8257 6.66667C22.8257 7.58715 23.5719 8.33335 24.4924 8.33335Z" fill="url(#paint5_linear_31_6545)"/>
</g>
<defs>
<filter id="filter0_i_31_6545" x="0" y="0" width="60" height="64" filterUnits="userSpaceOnUse" color-interpolation-filters="sRGB">
<feFlood flood-opacity="0" result="BackgroundImageFix"/>
<feBlend mode="normal" in="SourceGraphic" in2="BackgroundImageFix" result="shape"/>
<feColorMatrix in="SourceAlpha" type="matrix" values="0 0 0 0 0 0 0 0 0 0 0 0 0 0 0 0 0 0 127 0" result="hardAlpha"/>
<feOffset dy="4"/>
<feGaussianBlur stdDeviation="2"/>
<feComposite in2="hardAlpha" operator="arithmetic" k2="-1" k3="1"/>
<feColorMatrix type="matrix" values="0 0 0 0 0 0 0 0 0 0 0 0 0 0 0 0 0 0 0.25 0"/>
<feBlend mode="normal" in2="shape" result="effect1_innerShadow_31_6545"/>
</filter>
<linearGradient id="paint0_linear_31_6545" x1="24.4527" y1="26.6668" x2="24.4527" y2="28.888" gradientUnits="userSpaceOnUse">
<stop stop-color="#FD8D2A"/>
<stop offset="1" stop-color="#FD2549"/>
</linearGradient>
<linearGradient id="paint1_linear_31_6545" x1="23.0446" y1="33.3331" x2="23.0446" y2="35.5544" gradientUnits="userSpaceOnUse">
<stop stop-color="#FD8D2A"/>
<stop offset="1" stop-color="#FD2549"/>
</linearGradient>
<linearGradient id="paint2_linear_31_6545" x1="19.7126" y1="39.9999" x2="19.7126" y2="42.2211" gradientUnits="userSpaceOnUse">
<stop stop-color="#FD8D2A"/>
<stop offset="1" stop-color="#FD2549"/>
</linearGradient>
<linearGradient id="paint3_linear_31_6545" x1="16.6785" y1="46.6669" x2="16.6785" y2="48.8881" gradientUnits="userSpaceOnUse">
<stop stop-color="#FD8D2A"/>
<stop offset="1" stop-color="#FD2549"/>
</linearGradient>
<linearGradient id="paint4_linear_31_6545" x1="29.987" y1="0.000354122" x2="29.987" y2="59.9724" gradientUnits="userSpaceOnUse">
<stop stop-color="#FD8D2A"/>
<stop offset="1" stop-color="#FD2549"/>
</linearGradient>
<linearGradient id="paint5_linear_31_6545" x1="24.4916" y1="5.00002" x2="24.4916" y2="8.33182" gradientUnits="userSpaceOnUse">
<stop stop-color="#FD8D2A"/>
<stop offset="1" stop-color="#FD2549"/>
</linearGradient>
</defs>
</svg>
