<svg width="60" height="60" viewBox="0 0 60 60" fill="none" xmlns="http://www.w3.org/2000/svg">
<g clip-path="url(#clip0_31_6645)" filter="url(#filter0_i_31_6645)">
<path d="M59.6936 23.4337C59.4522 23.1523 59.0997 22.9901 58.7271 22.9901H56.0832V8.73594C56.0832 7.75949 55.289 6.96531 54.3126 6.96531H23.601L21.1123 2.81816C20.7949 2.28737 20.213 1.95789 19.5941 1.95789H5.77557C4.80013 1.95889 4.00595 2.75307 4.00595 3.72851V22.9891H1.27289C0.902345 22.9891 0.549822 23.1503 0.308464 23.4307C0.0661049 23.7112 -0.0420556 24.0827 0.0140276 24.4523L4.93933 56.9615C5.03648 57.5874 5.56526 58.0411 6.1972 58.0411H53.8018C54.4348 58.0411 54.9635 57.5874 55.0607 56.9585L59.985 24.4563C60.0421 24.0887 59.9359 23.7162 59.6936 23.4337ZM6.00892 3.96186H19.4629L21.9516 8.10901C22.269 8.6398 22.8509 8.96929 23.4698 8.96929H54.0802V22.9901H53.0787V18.9841H52.0773V15.9797H51.0758V12.9752H9.01338V15.9797H8.01189V18.9841H7.01041V22.9901H6.00892V3.96186ZM9.01338 20.9871H51.0758V22.9901H9.01338V20.9871ZM10.0149 17.9827H50.0743V18.9841H10.0149V17.9827ZM49.0728 15.9797H11.0163V14.9782H49.0728V15.9797ZM53.1749 56.0391H6.82513L2.12215 24.9931H4.00595H7.01041H53.0787H56.0832H57.8789L53.1749 56.0391Z" fill="black"/>
<path d="M59.6936 23.4337C59.4522 23.1523 59.0997 22.9901 58.7271 22.9901H56.0832V8.73594C56.0832 7.75949 55.289 6.96531 54.3126 6.96531H23.601L21.1123 2.81816C20.7949 2.28737 20.213 1.95789 19.5941 1.95789H5.77557C4.80013 1.95889 4.00595 2.75307 4.00595 3.72851V22.9891H1.27289C0.902345 22.9891 0.549822 23.1503 0.308464 23.4307C0.0661049 23.7112 -0.0420556 24.0827 0.0140276 24.4523L4.93933 56.9615C5.03648 57.5874 5.56526 58.0411 6.1972 58.0411H53.8018C54.4348 58.0411 54.9635 57.5874 55.0607 56.9585L59.985 24.4563C60.0421 24.0887 59.9359 23.7162 59.6936 23.4337ZM6.00892 3.96186H19.4629L21.9516 8.10901C22.269 8.6398 22.8509 8.96929 23.4698 8.96929H54.0802V22.9901H53.0787V18.9841H52.0773V15.9797H51.0758V12.9752H9.01338V15.9797H8.01189V18.9841H7.01041V22.9901H6.00892V3.96186ZM9.01338 20.9871H51.0758V22.9901H9.01338V20.9871ZM10.0149 17.9827H50.0743V18.9841H10.0149V17.9827ZM49.0728 15.9797H11.0163V14.9782H49.0728V15.9797ZM53.1749 56.0391H6.82513L2.12215 24.9931H4.00595H7.01041H53.0787H56.0832H57.8789L53.1749 56.0391Z" fill="url(#paint0_linear_31_6645)"/>
<path d="M26.9961 51.0317H48.0273V37.0109H26.9961V51.0317ZM28.9991 39.0138H46.0243V49.0287H28.9991V39.0138Z" fill="black"/>
<path d="M26.9961 51.0317H48.0273V37.0109H26.9961V51.0317ZM28.9991 39.0138H46.0243V49.0287H28.9991V39.0138Z" fill="url(#paint1_linear_31_6645)"/>
<path d="M32.0034 43.0198H36.0094C36.5632 43.0198 37.0109 42.5722 37.0109 42.0183C37.0109 41.4645 36.5632 41.0168 36.0094 41.0168H32.0034C31.4496 41.0168 31.002 41.4645 31.002 42.0183C31.002 42.5722 31.4496 43.0198 32.0034 43.0198Z" fill="black"/>
<path d="M32.0034 43.0198H36.0094C36.5632 43.0198 37.0109 42.5722 37.0109 42.0183C37.0109 41.4645 36.5632 41.0168 36.0094 41.0168H32.0034C31.4496 41.0168 31.002 41.4645 31.002 42.0183C31.002 42.5722 31.4496 43.0198 32.0034 43.0198Z" fill="url(#paint2_linear_31_6645)"/>
<path d="M40.0152 43.0198H41.0166C41.5705 43.0198 42.0181 42.5722 42.0181 42.0183C42.0181 41.4645 41.5705 41.0168 41.0166 41.0168H40.0152C39.4613 41.0168 39.0137 41.4645 39.0137 42.0183C39.0137 42.5722 39.4613 43.0198 40.0152 43.0198Z" fill="black"/>
<path d="M40.0152 43.0198H41.0166C41.5705 43.0198 42.0181 42.5722 42.0181 42.0183C42.0181 41.4645 41.5705 41.0168 41.0166 41.0168H40.0152C39.4613 41.0168 39.0137 41.4645 39.0137 42.0183C39.0137 42.5722 39.4613 43.0198 40.0152 43.0198Z" fill="url(#paint3_linear_31_6645)"/>
<path d="M43.0198 45.0227H32.0034C31.4496 45.0227 31.002 45.4704 31.002 46.0242C31.002 46.578 31.4496 47.0257 32.0034 47.0257H43.0198C43.5736 47.0257 44.0213 46.578 44.0213 46.0242C44.0213 45.4704 43.5736 45.0227 43.0198 45.0227Z" fill="black"/>
<path d="M43.0198 45.0227H32.0034C31.4496 45.0227 31.002 45.4704 31.002 46.0242C31.002 46.578 31.4496 47.0257 32.0034 47.0257H43.0198C43.5736 47.0257 44.0213 46.578 44.0213 46.0242C44.0213 45.4704 43.5736 45.0227 43.0198 45.0227Z" fill="url(#paint4_linear_31_6645)"/>
</g>
<defs>
<filter id="filter0_i_31_6645" x="0" y="0" width="60" height="64" filterUnits="userSpaceOnUse" color-interpolation-filters="sRGB">
<feFlood flood-opacity="0" result="BackgroundImageFix"/>
<feBlend mode="normal" in="SourceGraphic" in2="BackgroundImageFix" result="shape"/>
<feColorMatrix in="SourceAlpha" type="matrix" values="0 0 0 0 0 0 0 0 0 0 0 0 0 0 0 0 0 0 127 0" result="hardAlpha"/>
<feOffset dy="4"/>
<feGaussianBlur stdDeviation="2"/>
<feComposite in2="hardAlpha" operator="arithmetic" k2="-1" k3="1"/>
<feColorMatrix type="matrix" values="0 0 0 0 0 0 0 0 0 0 0 0 0 0 0 0 0 0 0.25 0"/>
<feBlend mode="normal" in2="shape" result="effect1_innerShadow_31_6645"/>
</filter>
<linearGradient id="paint0_linear_31_6645" x1="29.9858" y1="1.95822" x2="29.9858" y2="58.0153" gradientUnits="userSpaceOnUse">
<stop stop-color="#FD8D2A"/>
<stop offset="1" stop-color="#FD2549"/>
</linearGradient>
<linearGradient id="paint1_linear_31_6645" x1="37.5068" y1="37.0109" x2="37.5068" y2="51.0252" gradientUnits="userSpaceOnUse">
<stop stop-color="#FD8D2A"/>
<stop offset="1" stop-color="#FD2549"/>
</linearGradient>
<linearGradient id="paint2_linear_31_6645" x1="34.005" y1="41.0169" x2="34.005" y2="43.0189" gradientUnits="userSpaceOnUse">
<stop stop-color="#FD8D2A"/>
<stop offset="1" stop-color="#FD2549"/>
</linearGradient>
<linearGradient id="paint3_linear_31_6645" x1="40.5152" y1="41.0169" x2="40.5152" y2="43.0189" gradientUnits="userSpaceOnUse">
<stop stop-color="#FD8D2A"/>
<stop offset="1" stop-color="#FD2549"/>
</linearGradient>
<linearGradient id="paint4_linear_31_6645" x1="37.5086" y1="45.0227" x2="37.5086" y2="47.0248" gradientUnits="userSpaceOnUse">
<stop stop-color="#FD8D2A"/>
<stop offset="1" stop-color="#FD2549"/>
</linearGradient>
<clipPath id="clip0_31_6645">
<rect width="60" height="60" fill="white"/>
</clipPath>
</defs>
</svg>
