<svg width="60" height="60" viewBox="0 0 60 60" fill="none" xmlns="http://www.w3.org/2000/svg">
<g clip-path="url(#clip0_31_6580)" filter="url(#filter0_i_31_6580)">
<path d="M30.9375 59.0625H59.0625V36.5625H30.9375V59.0625ZM42.1875 38.4375H47.8125V40.3125H42.1875V38.4375ZM32.8125 38.4375H40.3125V42.1875H49.6875V38.4375H57.1875V57.1875H32.8125V38.4375Z" fill="black"/>
<path d="M30.9375 59.0625H59.0625V36.5625H30.9375V59.0625ZM42.1875 38.4375H47.8125V40.3125H42.1875V38.4375ZM32.8125 38.4375H40.3125V42.1875H49.6875V38.4375H57.1875V57.1875H32.8125V38.4375Z" fill="url(#paint0_linear_31_6580)"/>
<path d="M53.4375 53.4375H55.3125V55.3125H53.4375V53.4375Z" fill="black"/>
<path d="M53.4375 53.4375H55.3125V55.3125H53.4375V53.4375Z" fill="url(#paint1_linear_31_6580)"/>
<path d="M49.6875 53.4375H51.5625V55.3125H49.6875V53.4375Z" fill="black"/>
<path d="M49.6875 53.4375H51.5625V55.3125H49.6875V53.4375Z" fill="url(#paint2_linear_31_6580)"/>
<path d="M45.9375 53.4375H47.8125V55.3125H45.9375V53.4375Z" fill="black"/>
<path d="M45.9375 53.4375H47.8125V55.3125H45.9375V53.4375Z" fill="url(#paint3_linear_31_6580)"/>
<path d="M57.1875 19.6875H55.3125V0.9375H30.9375V19.6875H29.0625V0.9375H4.6875V19.6875H2.8125C1.77844 19.6875 0.9375 20.5284 0.9375 21.5625V23.4375C0.9375 24.4716 1.77844 25.3125 2.8125 25.3125H7.74656C7.59094 25.9134 7.5 26.5387 7.5 27.1875C7.5 29.7937 8.83781 32.0916 10.8609 33.4359C5.12063 35.2078 0.9375 40.5609 0.9375 46.875C0.9375 48.7922 2.09719 50.4394 3.75 51.165V59.0625H29.0625V46.875C29.0625 40.5609 24.8794 35.2078 19.1391 33.4359C21.1622 32.0916 22.5 29.7937 22.5 27.1875C22.5 26.5387 22.4091 25.9134 22.2534 25.3125H57.1875C58.2216 25.3125 59.0625 24.4716 59.0625 23.4375V21.5625C59.0625 20.5284 58.2216 19.6875 57.1875 19.6875ZM40.3125 2.8125H45.9375V4.6875H40.3125V2.8125ZM32.8125 2.8125H38.4375V6.5625H47.8125V2.8125H53.4375V19.6875H47.8125V15.9375H38.4375V19.6875H32.8125V2.8125ZM45.9375 19.6875H40.3125V17.8125H45.9375V19.6875ZM14.0625 2.8125H19.6875V4.6875H14.0625V2.8125ZM6.5625 2.8125H12.1875V6.5625H21.5625V2.8125H27.1875V19.6875H21.5625V15.9375H12.1875V19.6875H6.5625V2.8125ZM14.0625 19.6875V17.8125H19.6875V19.6875H14.0625ZM2.8125 23.4375V21.5625H10.0556C9.44625 22.0987 8.925 22.7316 8.51437 23.4375H2.8125ZM5.625 51.5625H9.375V57.1875H5.625V51.5625ZM14.5312 45H11.25V40.3125H17.8125V45H22.5V57.1875H11.25V51.5625H14.5312C16.3406 51.5625 17.8125 50.0906 17.8125 48.2812C17.8125 46.4719 16.3406 45 14.5312 45ZM19.6875 41.6381L21.1744 43.125H19.6875V41.6381ZM27.1875 46.875V57.1875H24.375V43.6744L19.1381 38.4375H9.375V45H6.5625V46.875H14.5312C15.3066 46.875 15.9375 47.5059 15.9375 48.2812C15.9375 49.0566 15.3066 49.6875 14.5312 49.6875H5.625C4.07437 49.6875 2.8125 48.4256 2.8125 46.875C2.8125 40.155 8.28 34.6875 15 34.6875C21.72 34.6875 27.1875 40.155 27.1875 46.875ZM15 32.8125C11.8978 32.8125 9.375 30.2897 9.375 27.1875C9.375 24.0853 11.8978 21.5625 15 21.5625C18.1022 21.5625 20.625 24.0853 20.625 27.1875C20.625 30.2897 18.1022 32.8125 15 32.8125ZM57.1875 23.4375H21.4856C21.0759 22.7316 20.5538 22.0987 19.9444 21.5625H57.1875V23.4375Z" fill="black"/>
<path d="M57.1875 19.6875H55.3125V0.9375H30.9375V19.6875H29.0625V0.9375H4.6875V19.6875H2.8125C1.77844 19.6875 0.9375 20.5284 0.9375 21.5625V23.4375C0.9375 24.4716 1.77844 25.3125 2.8125 25.3125H7.74656C7.59094 25.9134 7.5 26.5387 7.5 27.1875C7.5 29.7937 8.83781 32.0916 10.8609 33.4359C5.12063 35.2078 0.9375 40.5609 0.9375 46.875C0.9375 48.7922 2.09719 50.4394 3.75 51.165V59.0625H29.0625V46.875C29.0625 40.5609 24.8794 35.2078 19.1391 33.4359C21.1622 32.0916 22.5 29.7937 22.5 27.1875C22.5 26.5387 22.4091 25.9134 22.2534 25.3125H57.1875C58.2216 25.3125 59.0625 24.4716 59.0625 23.4375V21.5625C59.0625 20.5284 58.2216 19.6875 57.1875 19.6875ZM40.3125 2.8125H45.9375V4.6875H40.3125V2.8125ZM32.8125 2.8125H38.4375V6.5625H47.8125V2.8125H53.4375V19.6875H47.8125V15.9375H38.4375V19.6875H32.8125V2.8125ZM45.9375 19.6875H40.3125V17.8125H45.9375V19.6875ZM14.0625 2.8125H19.6875V4.6875H14.0625V2.8125ZM6.5625 2.8125H12.1875V6.5625H21.5625V2.8125H27.1875V19.6875H21.5625V15.9375H12.1875V19.6875H6.5625V2.8125ZM14.0625 19.6875V17.8125H19.6875V19.6875H14.0625ZM2.8125 23.4375V21.5625H10.0556C9.44625 22.0987 8.925 22.7316 8.51437 23.4375H2.8125ZM5.625 51.5625H9.375V57.1875H5.625V51.5625ZM14.5312 45H11.25V40.3125H17.8125V45H22.5V57.1875H11.25V51.5625H14.5312C16.3406 51.5625 17.8125 50.0906 17.8125 48.2812C17.8125 46.4719 16.3406 45 14.5312 45ZM19.6875 41.6381L21.1744 43.125H19.6875V41.6381ZM27.1875 46.875V57.1875H24.375V43.6744L19.1381 38.4375H9.375V45H6.5625V46.875H14.5312C15.3066 46.875 15.9375 47.5059 15.9375 48.2812C15.9375 49.0566 15.3066 49.6875 14.5312 49.6875H5.625C4.07437 49.6875 2.8125 48.4256 2.8125 46.875C2.8125 40.155 8.28 34.6875 15 34.6875C21.72 34.6875 27.1875 40.155 27.1875 46.875ZM15 32.8125C11.8978 32.8125 9.375 30.2897 9.375 27.1875C9.375 24.0853 11.8978 21.5625 15 21.5625C18.1022 21.5625 20.625 24.0853 20.625 27.1875C20.625 30.2897 18.1022 32.8125 15 32.8125ZM57.1875 23.4375H21.4856C21.0759 22.7316 20.5538 22.0987 19.9444 21.5625H57.1875V23.4375Z" fill="url(#paint4_linear_31_6580)"/>
<path d="M45.9375 49.6875H55.3125V51.5625H45.9375V49.6875Z" fill="black"/>
<path d="M45.9375 49.6875H55.3125V51.5625H45.9375V49.6875Z" fill="url(#paint5_linear_31_6580)"/>
</g>
<defs>
<filter id="filter0_i_31_6580" x="0" y="0" width="60" height="64" filterUnits="userSpaceOnUse" color-interpolation-filters="sRGB">
<feFlood flood-opacity="0" result="BackgroundImageFix"/>
<feBlend mode="normal" in="SourceGraphic" in2="BackgroundImageFix" result="shape"/>
<feColorMatrix in="SourceAlpha" type="matrix" values="0 0 0 0 0 0 0 0 0 0 0 0 0 0 0 0 0 0 127 0" result="hardAlpha"/>
<feOffset dy="4"/>
<feGaussianBlur stdDeviation="2"/>
<feComposite in2="hardAlpha" operator="arithmetic" k2="-1" k3="1"/>
<feColorMatrix type="matrix" values="0 0 0 0 0 0 0 0 0 0 0 0 0 0 0 0 0 0 0.25 0"/>
<feBlend mode="normal" in2="shape" result="effect1_innerShadow_31_6580"/>
</filter>
<linearGradient id="paint0_linear_31_6580" x1="44.9935" y1="36.5626" x2="44.9935" y2="59.0522" gradientUnits="userSpaceOnUse">
<stop stop-color="#FD8D2A"/>
<stop offset="1" stop-color="#FD2549"/>
</linearGradient>
<linearGradient id="paint1_linear_31_6580" x1="54.3746" y1="53.4375" x2="54.3746" y2="55.3116" gradientUnits="userSpaceOnUse">
<stop stop-color="#FD8D2A"/>
<stop offset="1" stop-color="#FD2549"/>
</linearGradient>
<linearGradient id="paint2_linear_31_6580" x1="50.6246" y1="53.4375" x2="50.6246" y2="55.3116" gradientUnits="userSpaceOnUse">
<stop stop-color="#FD8D2A"/>
<stop offset="1" stop-color="#FD2549"/>
</linearGradient>
<linearGradient id="paint3_linear_31_6580" x1="46.8746" y1="53.4375" x2="46.8746" y2="55.3116" gradientUnits="userSpaceOnUse">
<stop stop-color="#FD8D2A"/>
<stop offset="1" stop-color="#FD2549"/>
</linearGradient>
<linearGradient id="paint4_linear_31_6580" x1="29.9865" y1="0.937843" x2="29.9865" y2="59.0358" gradientUnits="userSpaceOnUse">
<stop stop-color="#FD8D2A"/>
<stop offset="1" stop-color="#FD2549"/>
</linearGradient>
<linearGradient id="paint5_linear_31_6580" x1="50.6228" y1="49.6875" x2="50.6228" y2="51.5616" gradientUnits="userSpaceOnUse">
<stop stop-color="#FD8D2A"/>
<stop offset="1" stop-color="#FD2549"/>
</linearGradient>
<clipPath id="clip0_31_6580">
<rect width="60" height="60" fill="white"/>
</clipPath>
</defs>
</svg>
