<svg width="54" height="60" viewBox="0 0 54 60" fill="none" xmlns="http://www.w3.org/2000/svg">
<path d="M24.4996 5.28957C26.0466 4.3964 27.9525 4.3964 29.4995 5.28957L47.1494 15.4797C48.6965 16.3729 49.6494 18.0235 49.6494 19.8099V40.1902C49.6494 41.9765 48.6964 43.6272 47.1494 44.5203L29.4995 54.7105C27.9525 55.6037 26.0466 55.6037 24.4995 54.7105L6.84965 44.5203C5.30265 43.6272 4.34965 41.9765 4.34965 40.1902V19.8099C4.34965 18.0235 5.30265 16.3729 6.84965 15.4797L24.4996 5.28957Z" fill="#EB6108"/>
<path d="M29.2493 1.87639L50.2301 13.9896C51.6224 14.7935 52.4801 16.2791 52.4801 17.8868V42.1133C52.4801 43.7209 51.6224 45.2065 50.2301 46.0104L29.2493 58.1236C27.857 58.9275 26.1416 58.9275 24.7493 58.1236L3.76855 46.0104C2.37625 45.2065 1.51855 43.7209 1.51855 42.1133V17.8868C1.51855 16.2791 2.37625 14.7935 3.76855 13.9896L24.7493 1.87639C26.1416 1.07254 27.857 1.07254 29.2493 1.87639Z" stroke="#ABB6B8"/>
</svg>
