<svg width="156" height="156" viewBox="0 0 156 156" fill="none" xmlns="http://www.w3.org/2000/svg">
<path d="M73 12.8869C76.094 11.1005 79.906 11.1005 83 12.8869L131.89 41.1134C134.984 42.8997 136.89 46.201 136.89 49.7736V106.227C136.89 109.799 134.984 113.101 131.89 114.887L83 143.113C79.906 144.9 76.094 144.9 73 143.113L24.1103 114.887C21.0163 113.101 19.1103 109.799 19.1103 106.227V49.7736C19.1103 46.201 21.0163 42.8997 24.1103 41.1134L73 12.8869Z" fill="#EB6108"/>
<path d="M73.25 3.31988C76.1893 1.62287 79.8107 1.62287 82.75 3.31989L140.3 36.5464C143.239 38.2434 145.05 41.3796 145.05 44.7736V111.227C145.05 114.621 143.239 117.757 140.3 119.454L82.75 152.68C79.8107 154.377 76.1893 154.377 73.25 152.68L15.7 119.454C12.7607 117.757 10.95 114.621 10.95 111.227V44.7736C10.95 41.3796 12.7607 38.2434 15.7 36.5464L73.25 3.31988Z" stroke="#ABB6B8"/>
</svg>
