<svg width="54" height="54" viewBox="0 0 54 54" fill="none" xmlns="http://www.w3.org/2000/svg">
<path d="M24.5 4.44338C26.047 3.55021 27.953 3.55021 29.5 4.44338L45.2846 13.5566C46.8316 14.4498 47.7846 16.1004 47.7846 17.8868V36.1133C47.7846 37.8996 46.8316 39.5502 45.2846 40.4434L29.5 49.5566C27.953 50.4498 26.047 50.4498 24.5 49.5566L8.71539 40.4434C7.16839 39.5502 6.21539 37.8996 6.21539 36.1132V17.8868C6.21539 16.1004 7.16839 14.4498 8.71539 13.5566L24.5 4.44338Z" fill="#EB6108"/>
<path d="M24.75 1.87639C26.1423 1.07254 27.8577 1.07254 29.25 1.87639L47.6327 12.4896C49.025 13.2935 49.8827 14.7791 49.8827 16.3868V37.6132C49.8827 39.2209 49.025 40.7065 47.6327 41.5104L29.25 52.1236C27.8577 52.9275 26.1423 52.9275 24.75 52.1236L6.36731 41.5104C4.97501 40.7065 4.11731 39.2209 4.11731 37.6132V16.3868C4.11731 14.7791 4.97501 13.2935 6.36731 12.4896L24.75 1.87639Z" stroke="#ABB6B8"/>
</svg>
