<svg width="24" height="24" viewBox="0 0 24 24" fill="none" xmlns="http://www.w3.org/2000/svg">
<g clip-path="url(#clip0_31_18176)">
<path d="M17.8669 5.98007L12.1878 2.55458C12.0446 2.46813 11.8654 2.46813 11.7222 2.55458L6.04315 5.98007C5.86973 6.08447 5.7875 6.2917 5.84173 6.48678C5.89596 6.68185 6.07361 6.81672 6.2759 6.81672H10.1521C10.4011 6.81672 10.6028 6.61495 10.6028 6.366C10.6028 6.11704 10.4011 5.91528 10.1521 5.91528H7.89586L11.955 3.46676L16.0141 5.91528H13.7579C13.5089 5.91528 13.3072 6.11704 13.3072 6.366C13.3072 6.61495 13.5089 6.81672 13.7579 6.81672H17.6341C17.8364 6.81672 18.014 6.68185 18.0683 6.48678C18.1225 6.2917 18.0401 6.08447 17.8669 5.98007Z" fill="#FEFEFE"/>
<path d="M23.0432 22.6819H22.5925V22.2312C22.5925 21.6437 22.2156 21.1428 21.6911 20.9567V19.5269C21.6911 19.2781 21.4893 19.0762 21.2403 19.0762H20.7896V12.2254H21.2403C21.4893 12.2254 21.6911 12.0236 21.6911 11.7746V10.4225H22.1418C22.3907 10.4225 22.5925 10.2207 22.5925 9.97175V8.61958H23.0432C23.2427 8.61958 23.4186 8.48824 23.4753 8.29704C23.532 8.10566 23.4563 7.89984 23.2888 7.79103L12.2013 0.579482C12.0518 0.482295 11.8592 0.482295 11.7097 0.579482L0.62193 7.79103C0.45467 7.89984 0.378963 8.10566 0.435655 8.29704C0.492347 8.48842 0.668234 8.61958 0.867714 8.61958H1.31844V9.97175C1.31844 10.2207 1.5202 10.4225 1.76916 10.4225H2.21988V11.7746C2.21988 12.0236 2.42165 12.2254 2.6706 12.2254H3.12132V19.0762H2.6706C2.42165 19.0762 2.21988 19.2781 2.21988 19.5269V20.9567C1.69539 21.1428 1.31844 21.6437 1.31844 22.2312V22.6819H0.867714C0.618761 22.6819 0.416992 22.8839 0.416992 23.1327C0.416992 23.3816 0.618761 23.5834 0.867714 23.5834H23.0432C23.2922 23.5834 23.4939 23.3816 23.4939 23.1327C23.4939 22.8839 23.2922 22.6819 23.0432 22.6819ZM17.1838 20.879V19.9776H20.7896V20.879H17.1838ZM7.62854 20.879V19.5269C7.62854 19.2781 7.42677 19.0762 7.17782 19.0762H6.7271V12.2254H7.17782C7.42677 12.2254 7.62854 12.0236 7.62854 11.7746V10.4225H16.2824V11.7746C16.2824 12.0236 16.4842 12.2254 16.7331 12.2254H17.1838V19.0762H16.7331C16.4842 19.0762 16.2824 19.2781 16.2824 19.5269V20.879H7.62854ZM19.8882 19.0762H18.0853V12.2254H19.8882V19.0762ZM20.7896 11.3239H17.1838V10.4225H20.7896V11.3239ZM11.9555 1.49501L21.5234 7.71814H2.38732L11.9555 1.49501ZM21.6911 8.61958V9.52103H2.21988V8.61958H21.6911ZM6.7271 10.4225V11.3239H3.12132V10.4225H6.7271ZM5.82565 12.2254V19.0762H4.02277V12.2254H5.82565ZM6.7271 19.9776V20.879H3.12132V19.9776H6.7271ZM2.21988 22.2312C2.21988 21.9828 2.42218 21.7805 2.6706 21.7805H21.2403C21.4888 21.7805 21.6911 21.9828 21.6911 22.2312V22.6819H2.21988V22.2312Z" fill="#FEFEFE"/>
<path d="M11.9559 11.5942C9.7192 11.5942 7.89941 13.4139 7.89941 15.6507C7.89941 17.8874 9.7192 19.7071 11.9559 19.7071C14.1926 19.7071 16.0124 17.8874 16.0124 15.6507C16.0124 13.4139 14.1926 11.5942 11.9559 11.5942ZM11.9559 18.8056C10.2162 18.8056 8.80086 17.3904 8.80086 15.6507C8.80086 13.9111 10.2162 12.4957 11.9559 12.4957C13.6956 12.4957 15.111 13.9111 15.111 15.6507C15.111 17.3904 13.6956 18.8056 11.9559 18.8056Z" fill="#FEFEFE"/>
<path d="M12.406 18.3552V17.8269C12.9305 17.6408 13.3075 17.1399 13.3075 16.5523C13.3075 15.8067 12.7009 15.2002 11.9553 15.2002C11.7067 15.2002 11.5046 14.9979 11.5046 14.7495C11.5046 14.5009 11.7067 14.2987 11.9553 14.2987C12.115 14.2987 12.2835 14.3801 12.4428 14.5343C12.6217 14.7074 12.9071 14.7026 13.0802 14.5237C13.2532 14.3449 13.2485 14.0595 13.0696 13.8864C12.8409 13.6651 12.612 13.5399 12.406 13.4716V12.9466C12.406 12.6976 12.2042 12.4958 11.9553 12.4958C11.7063 12.4958 11.5046 12.6976 11.5046 12.9466V13.4748C10.9799 13.6609 10.6031 14.1618 10.6031 14.7495C10.6031 15.4949 11.2097 16.1016 11.9553 16.1016C12.2037 16.1016 12.406 16.3037 12.406 16.5523C12.406 16.8008 12.2037 17.0031 11.9553 17.0031C11.7627 17.0031 11.5547 16.8819 11.3699 16.662C11.2098 16.4715 10.9255 16.4469 10.7348 16.6071C10.5443 16.7673 10.5198 17.0517 10.6799 17.2422C10.9209 17.5288 11.2042 17.7284 11.5046 17.8292V18.3552C11.5046 18.604 11.7063 18.8058 11.9553 18.8058C12.2042 18.8058 12.406 18.604 12.406 18.3552Z" fill="#FEFEFE"/>
</g>
<defs>
<clipPath id="clip0_31_18176">
<rect width="23.0769" height="23.0769" fill="white" transform="translate(0.461914 0.461426)"/>
</clipPath>
</defs>
</svg>
