<svg width="60" height="60" viewBox="0 0 60 60" fill="none" xmlns="http://www.w3.org/2000/svg">
<g clip-path="url(#clip0_31_5421)">
<path d="M45.2536 14.3484L30.488 5.44213C30.1158 5.21737 29.6498 5.21737 29.2776 5.44213L14.512 14.3484C14.0611 14.6198 13.8473 15.1586 13.9883 15.6658C14.1293 16.173 14.5912 16.5237 15.1172 16.5237H25.1953C25.8426 16.5237 26.3672 15.9991 26.3672 15.3518C26.3672 14.7045 25.8426 14.1799 25.1953 14.1799H19.329L29.8828 7.81381L40.4366 14.1799H34.5703C33.923 14.1799 33.3984 14.7045 33.3984 15.3518C33.3984 15.9991 33.923 16.5237 34.5703 16.5237H44.6485C45.1744 16.5237 45.6363 16.173 45.7773 15.6658C45.9183 15.1586 45.7041 14.6198 45.2536 14.3484Z" fill="#FEFEFE"/>
<path d="M58.711 57.7732H57.5391V56.6013C57.5391 55.0737 56.5591 53.7714 55.1954 53.2875V49.57C55.1954 48.9232 54.6708 48.3982 54.0235 48.3982H52.8516V30.5861H54.0235C54.6708 30.5861 55.1954 30.0615 55.1954 29.4142V25.8986H56.3673C57.0145 25.8986 57.5391 25.374 57.5391 24.7267V21.2111H58.711C59.2297 21.2111 59.687 20.8696 59.8344 20.3725C59.9818 19.8749 59.7849 19.3397 59.3496 19.0569L30.5219 0.306824C30.1333 0.0541381 29.6325 0.0541381 29.2438 0.306824L0.41565 19.0569C-0.0192259 19.3397 -0.216065 19.8749 -0.0686645 20.3725C0.0787356 20.8701 0.536042 21.2111 1.05469 21.2111H2.22657V24.7267C2.22657 25.374 2.75116 25.8986 3.39844 25.8986H4.57032V29.4142C4.57032 30.0615 5.09492 30.5861 5.7422 30.5861H6.91407V48.3982H5.7422C5.09492 48.3982 4.57032 48.9232 4.57032 49.57V53.2875C3.20664 53.7714 2.22657 55.0737 2.22657 56.6013V57.7732H1.05469C0.40741 57.7732 -0.117188 58.2982 -0.117188 58.9451C-0.117188 59.5923 0.40741 60.1169 1.05469 60.1169H58.711C59.3583 60.1169 59.8829 59.5923 59.8829 58.9451C59.8829 58.2982 59.3583 57.7732 58.711 57.7732ZM43.4766 53.0857V50.7419H52.8516V53.0857H43.4766ZM18.6328 53.0857V49.57C18.6328 48.9232 18.1082 48.3982 17.461 48.3982H16.2891V30.5861H17.461C18.1082 30.5861 18.6328 30.0615 18.6328 29.4142V25.8986H41.1329V29.4142C41.1329 30.0615 41.6575 30.5861 42.3047 30.5861H43.4766V48.3982H42.3047C41.6575 48.3982 41.1329 48.9232 41.1329 49.57V53.0857H18.6328ZM50.5079 48.3982H45.8204V30.5861H50.5079V48.3982ZM52.8516 28.2423H43.4766V25.8986H52.8516V28.2423ZM29.8829 2.6872L54.7596 18.8673H5.00565L29.8829 2.6872ZM55.1954 21.2111V23.5548H4.57032V21.2111H55.1954ZM16.2891 25.8986V28.2423H6.91407V25.8986H16.2891ZM13.9453 30.5861V48.3982H9.25783V30.5861H13.9453ZM16.2891 50.7419V53.0857H6.91407V50.7419H16.2891ZM4.57032 56.6013C4.57032 55.9554 5.09629 55.4294 5.7422 55.4294H54.0235C54.6694 55.4294 55.1954 55.9554 55.1954 56.6013V57.7732H4.57032V56.6013Z" fill="#FEFEFE"/>
<path d="M29.8828 28.9454C24.0674 28.9454 19.3359 33.6764 19.3359 39.4923C19.3359 45.3078 24.0674 50.0388 29.8828 50.0388C35.6983 50.0388 40.4297 45.3078 40.4297 39.4923C40.4297 33.6764 35.6983 28.9454 29.8828 28.9454ZM29.8828 47.695C25.3597 47.695 21.6797 44.0155 21.6797 39.4923C21.6797 34.9692 25.3597 31.2892 29.8828 31.2892C34.406 31.2892 38.086 34.9692 38.086 39.4923C38.086 44.0155 34.406 47.695 29.8828 47.695Z" fill="#FEFEFE"/>
<path d="M31.0547 46.5236V45.1498C32.4183 44.666 33.3984 43.3636 33.3984 41.8361C33.3984 39.8974 31.8214 38.3204 29.8828 38.3204C29.2364 38.3204 28.7109 37.7945 28.7109 37.1486C28.7109 36.5022 29.2364 35.9767 29.8828 35.9767C30.298 35.9767 30.7361 36.1882 31.1503 36.5892C31.6154 37.0392 32.3575 37.0268 32.8074 36.5617C33.2574 36.0966 33.2451 35.3546 32.78 34.9046C32.1853 34.3292 31.5902 34.0037 31.0547 33.8261V32.4611C31.0547 31.8138 30.5301 31.2892 29.8828 31.2892C29.2355 31.2892 28.7109 31.8138 28.7109 32.4611V33.8344C27.3468 34.3182 26.3671 35.6206 26.3671 37.1486C26.3671 39.0867 27.9441 40.6642 29.8828 40.6642C30.5287 40.6642 31.0547 41.1897 31.0547 41.8361C31.0547 42.482 30.5287 43.008 29.8828 43.008C29.382 43.008 28.8414 42.693 28.3607 42.1213C27.9446 41.626 27.2053 41.5619 26.7096 41.9784C26.2143 42.395 26.1506 43.1343 26.5667 43.6296C27.1934 44.3748 27.93 44.8939 28.7109 45.1558V46.5236C28.7109 47.1704 29.2355 47.695 29.8828 47.695C30.5301 47.695 31.0547 47.1704 31.0547 46.5236Z" fill="#FEFEFE"/>
</g>
<defs>
<clipPath id="clip0_31_5421">
<rect width="60" height="60" fill="white"/>
</clipPath>
</defs>
</svg>
