<svg width="24" height="24" viewBox="0 0 24 24" fill="none" xmlns="http://www.w3.org/2000/svg">
<g clip-path="url(#clip0_31_18160)">
<path d="M21.9169 3.53845H2.08384C1.18961 3.53845 0.461914 4.26614 0.461914 5.16038V18.8396C0.461914 19.7338 1.18961 20.4615 2.08384 20.4615H21.9169C22.8111 20.4615 23.5388 19.7338 23.5388 18.8396V5.16038C23.5388 4.26614 22.8111 3.53845 21.9169 3.53845ZM22.7696 18.8396C22.7696 19.3096 22.3873 19.6923 21.9169 19.6923H2.08384C1.61345 19.6923 1.23114 19.3096 1.23114 18.8396V5.16038C1.23114 4.69038 1.61345 4.30768 2.08384 4.30768H21.9169C22.3873 4.30768 22.7696 4.69038 22.7696 5.16038V18.8396Z" fill="#FEFEFE"/>
<path d="M6.61569 14.6923H3.15415C2.94145 14.6923 2.76953 14.8646 2.76953 15.0769C2.76953 15.2892 2.94145 15.4615 3.15415 15.4615H6.61569C6.82838 15.4615 7.0003 15.2892 7.0003 15.0769C7.0003 14.8646 6.82838 14.6923 6.61569 14.6923Z" fill="#FEFEFE"/>
<path d="M11.6157 14.6923H8.15415C7.94145 14.6923 7.76953 14.8646 7.76953 15.0769C7.76953 15.2892 7.94145 15.4615 8.15415 15.4615H11.6157C11.8284 15.4615 12.0003 15.2892 12.0003 15.0769C12.0003 14.8646 11.8284 14.6923 11.6157 14.6923Z" fill="#FEFEFE"/>
<path d="M3.53876 16.6154H3.15415C2.94145 16.6154 2.76953 16.7877 2.76953 17C2.76953 17.2123 2.94145 17.3846 3.15415 17.3846H3.53876C3.75145 17.3846 3.92338 17.2123 3.92338 17C3.92338 16.7877 3.75145 16.6154 3.53876 16.6154Z" fill="#FEFEFE"/>
<path d="M5.84623 16.6154H5.077C4.86431 16.6154 4.69238 16.7877 4.69238 17C4.69238 17.2123 4.86431 17.3846 5.077 17.3846H5.84623C6.05892 17.3846 6.23084 17.2123 6.23084 17C6.23084 16.7877 6.05892 16.6154 5.84623 16.6154Z" fill="#FEFEFE"/>
<path d="M7.76923 16.6154H7.38462C7.17192 16.6154 7 16.7877 7 17C7 17.2123 7.17192 17.3846 7.38462 17.3846H7.76923C7.98192 17.3846 8.15385 17.2123 8.15385 17C8.15385 16.7877 7.98192 16.6154 7.76923 16.6154Z" fill="#FEFEFE"/>
<path d="M10.0777 16.6154H9.30844C9.09575 16.6154 8.92383 16.7877 8.92383 17C8.92383 17.2123 9.09575 17.3846 9.30844 17.3846H10.0777C10.2904 17.3846 10.4623 17.2123 10.4623 17C10.4623 16.7877 10.2904 16.6154 10.0777 16.6154Z" fill="#FEFEFE"/>
<path d="M11.343 16.727C11.2734 16.8 11.2314 16.9 11.2314 17C11.2314 17.1 11.2734 17.2 11.343 17.2731C11.4157 17.3424 11.5161 17.3847 11.6161 17.3847C11.7161 17.3847 11.8161 17.3424 11.8891 17.2731C11.9584 17.2 12.0007 17.1 12.0007 17C12.0007 16.9 11.9584 16.8 11.8891 16.727C11.743 16.5847 11.4811 16.5847 11.343 16.727Z" fill="#FEFEFE"/>
<path d="M18.9237 13.1538C18.4329 13.1538 17.9741 13.288 17.5775 13.518C17.181 13.288 16.7221 13.1538 16.2314 13.1538C14.7471 13.1538 13.5391 14.3615 13.5391 15.8461C13.5391 17.3307 14.7471 18.5384 16.2314 18.5384C16.7221 18.5384 17.181 18.4042 17.5775 18.1742C17.9741 18.4042 18.4329 18.5384 18.9237 18.5384C20.4079 18.5384 21.616 17.3307 21.616 15.8461C21.616 14.3615 20.4079 13.1538 18.9237 13.1538ZM18.1544 15.8461C18.1544 16.3823 17.9329 16.8669 17.5775 17.2161C17.2221 16.8669 17.0006 16.3823 17.0006 15.8461C17.0006 15.31 17.2221 14.8253 17.5775 14.4761C17.9329 14.8253 18.1544 15.31 18.1544 15.8461ZM14.3083 15.8461C14.3083 14.7857 15.171 13.923 16.2314 13.923C16.4741 13.923 16.7044 13.973 16.9187 14.0557C16.4929 14.5319 16.2314 15.1584 16.2314 15.8461C16.2314 16.5338 16.4929 17.1603 16.9187 17.6365C16.7044 17.7192 16.4741 17.7692 16.2314 17.7692C15.171 17.7692 14.3083 16.9065 14.3083 15.8461ZM18.9237 17.7692C18.681 17.7692 18.4506 17.7192 18.2364 17.6365C18.6621 17.1603 18.9237 16.5338 18.9237 15.8461C18.9237 15.1584 18.6621 14.5319 18.2364 14.0557C18.4506 13.973 18.681 13.923 18.9237 13.923C19.9841 13.923 20.8468 14.7857 20.8468 15.8461C20.8468 16.9065 19.9841 17.7692 18.9237 17.7692Z" fill="#FEFEFE"/>
<path d="M3.86731 12.3846H6.175H6.74808H9.05577C9.53385 12.3846 9.92308 11.9954 9.92308 11.5173V8.44038V7.86731C9.92308 7.38923 9.53385 7 9.05577 7H6.175H3.86731C3.38923 7 3 7.38923 3 7.86731V11.5173C3 11.9954 3.38923 12.3846 3.86731 12.3846ZM5.30769 10.0769H3.76923V9.30769H5.30769V10.0769ZM3.76923 11.5173V10.8462H5.30769V11.5173C5.30769 11.5508 5.31385 11.5827 5.31769 11.6154H3.86731C3.81308 11.6154 3.76923 11.5715 3.76923 11.5173ZM9.15385 10.0769H7.61538V9.40577C7.61538 9.35154 7.65923 9.30769 7.71346 9.30769H9.05577C9.08923 9.30769 9.12115 9.30154 9.15385 9.29769V10.0769ZM9.05577 11.6154H7.60538C7.60923 11.5827 7.61538 11.5508 7.61538 11.5173V10.8462H9.15385V11.5173C9.15385 11.5715 9.11 11.6154 9.05577 11.6154ZM9.05577 7.76923C9.11 7.76923 9.15385 7.81308 9.15385 7.86731V8.44038C9.15385 8.49462 9.11 8.53846 9.05577 8.53846H7.71346C7.23538 8.53846 6.84615 8.92769 6.84615 9.40577V11.5173C6.84615 11.5715 6.80231 11.6154 6.74808 11.6154H6.175C6.12077 11.6154 6.07692 11.5715 6.07692 11.5173V7.86731C6.07692 7.81308 6.12077 7.76923 6.175 7.76923H9.05577ZM3.86731 7.76923H5.31769C5.31385 7.80192 5.30769 7.83385 5.30769 7.86731V8.53846H3.76923V7.86731C3.76923 7.81308 3.81308 7.76923 3.86731 7.76923Z" fill="#FEFEFE"/>
</g>
<defs>
<clipPath id="clip0_31_18160">
<rect width="23.0769" height="23.0769" fill="white" transform="translate(0.461914 0.461548)"/>
</clipPath>
</defs>
</svg>
