<svg width="60" height="60" viewBox="0 0 60 60" fill="none" xmlns="http://www.w3.org/2000/svg">
<path d="M55.783 8.00012H4.217C1.892 8.00012 0 9.89212 0 12.2171V47.7831C0 50.1081 1.892 52.0001 4.217 52.0001H55.783C58.108 52.0001 60 50.1081 60 47.7831V12.2171C60 9.89212 58.108 8.00012 55.783 8.00012ZM58 47.7831C58 49.0051 57.006 50.0001 55.783 50.0001H4.217C2.994 50.0001 2 49.0051 2 47.7831V12.2171C2 10.9951 2.994 10.0001 4.217 10.0001H55.783C57.006 10.0001 58 10.9951 58 12.2171V47.7831Z" fill="#FEFEFE"/>
<path d="M16 37.0001H7C6.447 37.0001 6 37.4481 6 38.0001C6 38.5521 6.447 39.0001 7 39.0001H16C16.553 39.0001 17 38.5521 17 38.0001C17 37.4481 16.553 37.0001 16 37.0001Z" fill="#FEFEFE"/>
<path d="M29 37.0001H20C19.447 37.0001 19 37.4481 19 38.0001C19 38.5521 19.447 39.0001 20 39.0001H29C29.553 39.0001 30 38.5521 30 38.0001C30 37.4481 29.553 37.0001 29 37.0001Z" fill="#FEFEFE"/>
<path d="M8 42.0001H7C6.447 42.0001 6 42.4481 6 43.0001C6 43.5521 6.447 44.0001 7 44.0001H8C8.553 44.0001 9 43.5521 9 43.0001C9 42.4481 8.553 42.0001 8 42.0001Z" fill="#FEFEFE"/>
<path d="M14 42.0001H12C11.447 42.0001 11 42.4481 11 43.0001C11 43.5521 11.447 44.0001 12 44.0001H14C14.553 44.0001 15 43.5521 15 43.0001C15 42.4481 14.553 42.0001 14 42.0001Z" fill="#FEFEFE"/>
<path d="M19 42.0001H18C17.447 42.0001 17 42.4481 17 43.0001C17 43.5521 17.447 44.0001 18 44.0001H19C19.553 44.0001 20 43.5521 20 43.0001C20 42.4481 19.553 42.0001 19 42.0001Z" fill="#FEFEFE"/>
<path d="M25 42.0001H23C22.447 42.0001 22 42.4481 22 43.0001C22 43.5521 22.447 44.0001 23 44.0001H25C25.553 44.0001 26 43.5521 26 43.0001C26 42.4481 25.553 42.0001 25 42.0001Z" fill="#FEFEFE"/>
<path d="M28.29 42.2902C28.109 42.4802 28 42.7402 28 43.0002C28 43.2602 28.109 43.5202 28.29 43.7102C28.479 43.8902 28.74 44.0002 29 44.0002C29.26 44.0002 29.52 43.8902 29.71 43.7102C29.89 43.5202 30 43.2602 30 43.0002C30 42.7402 29.89 42.4802 29.71 42.2902C29.33 41.9202 28.649 41.9202 28.29 42.2902Z" fill="#FEFEFE"/>
<path d="M48 33.0001C46.724 33.0001 45.531 33.3491 44.5 33.9471C43.469 33.3491 42.276 33.0001 41 33.0001C37.141 33.0001 34 36.1401 34 40.0001C34 43.8601 37.141 47.0001 41 47.0001C42.276 47.0001 43.469 46.6511 44.5 46.0531C45.531 46.6511 46.724 47.0001 48 47.0001C51.859 47.0001 55 43.8601 55 40.0001C55 36.1401 51.859 33.0001 48 33.0001ZM46 40.0001C46 41.3941 45.424 42.6541 44.5 43.5621C43.576 42.6541 43 41.3941 43 40.0001C43 38.6061 43.576 37.3461 44.5 36.4381C45.424 37.3461 46 38.6061 46 40.0001ZM36 40.0001C36 37.2431 38.243 35.0001 41 35.0001C41.631 35.0001 42.23 35.1301 42.787 35.3451C41.68 36.5831 41 38.2121 41 40.0001C41 41.7881 41.68 43.4171 42.787 44.6551C42.23 44.8701 41.631 45.0001 41 45.0001C38.243 45.0001 36 42.7571 36 40.0001ZM48 45.0001C47.369 45.0001 46.77 44.8701 46.213 44.6551C47.32 43.4171 48 41.7881 48 40.0001C48 38.2121 47.32 36.5831 46.213 35.3451C46.77 35.1301 47.369 35.0001 48 35.0001C50.757 35.0001 53 37.2431 53 40.0001C53 42.7571 50.757 45.0001 48 45.0001Z" fill="#FEFEFE"/>
<path d="M8.255 30.0001H14.255H15.745H21.745C22.988 30.0001 24 28.9881 24 27.7451V19.7451V18.2551C24 17.0121 22.988 16.0001 21.745 16.0001H14.255H8.255C7.012 16.0001 6 17.0121 6 18.2551V27.7451C6 28.9881 7.012 30.0001 8.255 30.0001ZM12 24.0001H8V22.0001H12V24.0001ZM8 27.7451V26.0001H12V27.7451C12 27.8321 12.016 27.9151 12.026 28.0001H8.255C8.114 28.0001 8 27.8861 8 27.7451ZM22 24.0001H18V22.2551C18 22.1141 18.114 22.0001 18.255 22.0001H21.745C21.832 22.0001 21.915 21.9841 22 21.9741V24.0001ZM21.745 28.0001H17.974C17.984 27.9151 18 27.8321 18 27.7451V26.0001H22V27.7451C22 27.8861 21.886 28.0001 21.745 28.0001ZM21.745 18.0001C21.886 18.0001 22 18.1141 22 18.2551V19.7451C22 19.8861 21.886 20.0001 21.745 20.0001H18.255C17.012 20.0001 16 21.0121 16 22.2551V27.7451C16 27.8861 15.886 28.0001 15.745 28.0001H14.255C14.114 28.0001 14 27.8861 14 27.7451V18.2551C14 18.1141 14.114 18.0001 14.255 18.0001H21.745ZM8.255 18.0001H12.026C12.016 18.0851 12 18.1681 12 18.2551V20.0001H8V18.2551C8 18.1141 8.114 18.0001 8.255 18.0001Z" fill="#FEFEFE"/>
</svg>
