<svg width="24" height="24" viewBox="0 0 24 24" fill="none" xmlns="http://www.w3.org/2000/svg">
<g clip-path="url(#clip0_31_18187)">
<path d="M23.5338 21.91L22.1818 14.4552C22.1484 14.2711 21.9721 14.1489 21.7881 14.1823C21.604 14.2157 21.4819 14.392 21.5152 14.576L22.0869 17.728L17.6797 12.6088L20.6439 11.9472L21.0828 12.1915L21.2733 13.2424C21.3067 13.4265 21.483 13.5486 21.667 13.5153C21.8511 13.4819 21.9732 13.3056 21.9399 13.1216L21.7207 11.913C21.7026 11.8132 21.6408 11.7268 21.5522 11.6775L20.8607 11.2926C20.8607 11.2926 20.8607 11.2926 20.8606 11.2926L18.6752 10.076H18.6751L16.9889 9.13737C16.9888 9.13737 16.9888 9.13732 16.9888 9.13732C16.9887 9.13728 16.9886 9.13719 16.9884 9.1371C16.9754 9.12989 16.9621 9.12367 16.9484 9.1183C16.9441 9.11664 16.9398 9.11551 16.9354 9.11402C16.9259 9.11069 16.9163 9.10749 16.9066 9.10501C16.9011 9.10361 16.8956 9.1028 16.89 9.10172C16.8813 9.10001 16.8726 9.09829 16.8638 9.09726C16.8578 9.09653 16.8519 9.09631 16.8459 9.09595C16.8374 9.09541 16.8289 9.09496 16.8204 9.09505C16.8143 9.09509 16.8082 9.09554 16.8022 9.0959C16.7938 9.09644 16.7854 9.09721 16.777 9.09838C16.7709 9.09924 16.7648 9.10032 16.7588 9.10154C16.7506 9.10316 16.7425 9.10505 16.7344 9.10726C16.7283 9.10893 16.7222 9.11073 16.7162 9.11271C16.7084 9.11537 16.7007 9.11839 16.6929 9.12164C16.687 9.12416 16.6811 9.12664 16.6752 9.12953C16.6726 9.13079 16.67 9.13165 16.6674 9.13295L15.8936 9.5363C16.4693 8.46291 16.7601 7.42333 16.7601 6.42877C16.7601 3.81618 14.6346 1.69067 12.022 1.69067C9.40941 1.69067 7.28418 3.81618 7.28418 6.42877C7.28418 7.43297 7.58039 8.48311 8.16732 9.56758L7.33353 9.13295C7.33096 9.1316 7.32821 9.1307 7.3256 9.12944C7.31992 9.12664 7.31406 9.12421 7.30829 9.12177C7.30049 9.11848 7.29261 9.11542 7.28463 9.11271C7.27872 9.11073 7.27273 9.10897 7.26674 9.10731C7.25862 9.1051 7.25046 9.10316 7.24226 9.10154C7.23618 9.10032 7.23005 9.09924 7.22392 9.09838C7.21567 9.09721 7.20738 9.09649 7.19908 9.09595C7.19286 9.09554 7.18664 9.09514 7.18047 9.09505C7.17217 9.09496 7.16393 9.09541 7.15563 9.0959C7.14941 9.09631 7.14319 9.09653 7.13697 9.0973C7.12854 9.09829 7.12021 9.09996 7.11187 9.10158C7.10596 9.10275 7.10001 9.10361 7.09415 9.1051C7.08491 9.10744 7.07586 9.11055 7.0668 9.11366C7.06206 9.11528 7.05724 9.11655 7.05251 9.11839C7.0389 9.12376 7.0256 9.12998 7.01262 9.13714C7.01248 9.13719 7.01239 9.13728 7.01226 9.13737C7.01221 9.13737 7.01221 9.13741 7.01217 9.13741L2.44895 11.6775C2.36034 11.7268 2.2985 11.8132 2.28047 11.913L0.995155 18.9999C0.961802 19.184 1.08395 19.3603 1.26802 19.3936C1.45214 19.4271 1.62837 19.3048 1.66172 19.1208L2.04731 16.9947L6.43106 14.6773L6.0785 19.2293L1.24873 21.398L1.4187 20.4605C1.45205 20.2764 1.32995 20.1002 1.14588 20.0668C0.961937 20.0335 0.78557 20.1556 0.752172 20.3396L0.467362 21.91C0.444917 22.0337 0.492873 22.1597 0.591851 22.2372C0.652563 22.2847 0.726256 22.3091 0.800624 22.3091C0.847634 22.3091 0.894915 22.2994 0.939311 22.2794L6.40059 19.8273L11.8596 22.2784C11.8597 22.2785 11.8598 22.2785 11.86 22.2786L11.8618 22.2794C11.8649 22.2808 11.8681 22.2817 11.8712 22.2831C11.8762 22.2851 11.8813 22.2871 11.8864 22.2889C11.8913 22.2907 11.8963 22.2924 11.9013 22.294C11.9046 22.295 11.9078 22.2958 11.9111 22.2967C11.9153 22.2979 11.9195 22.299 11.9238 22.3C11.9309 22.3016 11.938 22.3029 11.9451 22.3041C11.9484 22.3046 11.9518 22.3054 11.9552 22.3059C11.9575 22.3062 11.9598 22.3065 11.9621 22.3068C11.9734 22.3081 11.9849 22.3087 11.9962 22.3089C11.9977 22.3089 11.9991 22.3091 12.0006 22.3091C12.0013 22.3091 12.002 22.309 12.0027 22.309C12.0164 22.3089 12.03 22.3078 12.0437 22.306C12.0454 22.3058 12.0471 22.3059 12.0488 22.3056C12.0513 22.3053 12.0539 22.3044 12.0565 22.304C12.0671 22.3023 12.0777 22.3 12.0881 22.2971C12.091 22.2963 12.0939 22.2959 12.0968 22.2951C12.0971 22.295 12.0974 22.295 12.0977 22.2949C12.0987 22.2946 12.0995 22.2941 12.1005 22.2938C12.1136 22.2898 12.1266 22.2851 12.1393 22.2794L17.6004 19.8273L23.0617 22.2794C23.0669 22.2817 23.0723 22.2835 23.0777 22.2855C23.0831 22.2876 23.0883 22.2899 23.0937 22.2917C23.1008 22.2941 23.1081 22.2958 23.1153 22.2977C23.1198 22.2988 23.1241 22.3003 23.1286 22.3012C23.1373 22.3031 23.1461 22.3043 23.1549 22.3055C23.1581 22.3059 23.1611 22.3067 23.1643 22.307C23.1763 22.3083 23.1884 22.309 23.2004 22.309H23.2004C23.2005 22.309 23.2005 22.309 23.2005 22.309C23.217 22.309 23.2334 22.3073 23.2498 22.305C23.2536 22.3044 23.2574 22.3038 23.2612 22.3031C23.2774 22.3002 23.2934 22.2964 23.3093 22.291C23.3103 22.2906 23.3113 22.2901 23.3123 22.2898C23.3227 22.2862 23.3331 22.2822 23.3433 22.2773C23.3463 22.2759 23.3489 22.2739 23.3518 22.2725C23.3603 22.2682 23.3685 22.2633 23.3767 22.2582C23.3849 22.2532 23.3931 22.2481 23.4008 22.2424C23.4034 22.2404 23.4064 22.239 23.4091 22.237C23.415 22.2323 23.4202 22.227 23.4258 22.2219C23.4303 22.2179 23.4349 22.2141 23.4392 22.2099C23.4495 22.1998 23.4588 22.189 23.4675 22.1778C23.4692 22.1756 23.4711 22.1738 23.4727 22.1716C23.4828 22.1579 23.4917 22.1436 23.4996 22.1286C23.5018 22.1244 23.5035 22.1199 23.5056 22.1156C23.5108 22.1046 23.5156 22.0935 23.5197 22.082C23.5217 22.0763 23.5233 22.0704 23.525 22.0645C23.5281 22.0539 23.5307 22.0432 23.5327 22.0324C23.5339 22.0261 23.535 22.0199 23.5358 22.0136C23.5373 22.0021 23.5379 21.9904 23.5382 21.9787C23.5384 21.9732 23.5388 21.9677 23.5387 21.962C23.5384 21.9448 23.537 21.9274 23.5338 21.91ZM17.5801 10.2417L17.2329 10.3229L17.2106 10.0361L17.5801 10.2417ZM16.8412 14.038L15.4267 12.9335C15.3288 12.8571 15.197 12.8403 15.083 12.8898L12.3407 14.0834V13.7123C12.5456 13.5454 13.0111 13.1519 13.5691 12.5872L16.6248 11.2448L16.8412 14.038ZM16.5261 9.97066L16.5694 10.5292L14.6605 11.3678C14.85 11.1329 15.0267 10.8992 15.1907 10.6668L16.5261 9.97066ZM7.47501 9.97066L8.879 10.7025C9.08692 10.9949 9.31467 11.2894 9.56288 11.5859C9.7799 11.845 9.9962 12.0858 10.2043 12.3063L7.326 11.8944L7.47501 9.97066ZM6.49289 13.8784L2.20096 16.1471L2.41001 14.9945L2.41537 14.9648L6.57867 12.7706L6.49289 13.8784ZM6.64055 11.9723L2.56898 14.1181L2.91837 12.1916L6.7905 10.0361L6.69319 11.2928L6.64055 11.9723ZM6.75675 19.2446L7.07743 15.1039L11.0785 21.1851L6.75675 19.2446ZM11.6618 17.9392L9.57532 14.6508L11.6618 14.9006V17.9392ZM11.6618 14.2183L8.9472 13.8933C8.81744 13.878 8.69011 13.9384 8.62038 14.0491C8.55065 14.1597 8.55088 14.3006 8.62097 14.4111L11.6618 19.2036V20.8394L7.1628 14.0013L7.27359 12.5713L11.0106 13.106C11.2925 13.3676 11.5209 13.5618 11.6618 13.6777V14.2183H11.6618ZM12.0223 13.0953C11.1669 12.3739 7.96161 9.46725 7.96161 6.42882C7.96156 4.18973 9.78319 2.36811 12.0223 2.36811C14.2614 2.36811 16.083 4.18973 16.083 6.42882C16.083 9.46725 12.8776 12.3739 12.0223 13.0953ZM12.3393 21.4471V19.9436L13.3519 20.9924L12.3393 21.4471ZM14.0087 20.6974L12.3393 18.9683V14.8227L15.1685 13.5914L16.9119 14.9527L17.2444 19.2446L14.0087 20.6974ZM17.2857 11.0062L18.4601 10.7316L19.2929 11.1952L19.7537 11.4517L17.3615 11.9856L17.2857 11.0062ZM17.9226 19.2293L17.6582 15.8151L22.0095 21.0644L17.9226 19.2293ZM17.5676 14.6443L17.4755 13.4558L17.4717 13.4054L22.3255 19.0435L22.6367 20.7595L17.5676 14.6443Z" fill="#FEFEFE"/>
<path d="M12.0221 4.33521C11.835 4.33521 11.6834 4.48683 11.6834 4.67392C11.6834 4.86101 11.835 5.01264 12.0221 5.01264C12.8029 5.01264 13.4381 5.64784 13.4381 6.42862C13.4381 7.20935 12.8029 7.8446 12.0221 7.8446C11.2413 7.8446 10.6061 7.2094 10.6061 6.42862C10.6061 6.0551 10.7502 5.70269 11.012 5.43622C11.1431 5.30281 11.1412 5.08836 11.0078 4.95729C10.8743 4.82617 10.6599 4.82802 10.5288 4.96152C10.1418 5.35541 9.92871 5.87644 9.92871 6.42862C9.92871 7.58291 10.8678 8.52203 12.0221 8.52203C13.1765 8.52203 14.1155 7.58291 14.1155 6.42862C14.1155 5.27428 13.1764 4.33521 12.0221 4.33521Z" fill="#FEFEFE"/>
</g>
<defs>
<clipPath id="clip0_31_18187">
<rect width="23.0769" height="23.0769" fill="white" transform="translate(0.461914 0.461426)"/>
</clipPath>
</defs>
</svg>
