<svg width="60" height="60" viewBox="0 0 60 60" fill="none" xmlns="http://www.w3.org/2000/svg">
<path d="M59.9869 55.7663L56.4716 36.3838C56.3849 35.9052 55.9266 35.5875 55.448 35.6743C54.9694 35.761 54.6519 36.2195 54.7386 36.6979L56.2249 44.8932L44.7661 31.5831L52.4731 29.863L53.6142 30.4983L54.1097 33.2306C54.1964 33.7092 54.6547 34.0267 55.1333 33.9401C55.6119 33.8533 55.9294 33.3949 55.8428 32.9164L55.2728 29.7742C55.2258 29.5147 55.065 29.2901 54.8347 29.1619L53.0367 28.161C53.0367 28.161 53.0367 28.161 53.0366 28.161L47.3544 24.998H47.3543L42.9701 22.5575C42.97 22.5575 42.9699 22.5573 42.9699 22.5573C42.9695 22.5572 42.9693 22.557 42.969 22.5567C42.9351 22.538 42.9004 22.5218 42.8649 22.5079C42.8538 22.5035 42.8424 22.5006 42.831 22.4968C42.8063 22.4881 42.7815 22.4798 42.7563 22.4733C42.742 22.4697 42.7276 22.4676 42.713 22.4648C42.6904 22.4603 42.6677 22.4559 42.6448 22.4532C42.6293 22.4513 42.614 22.4507 42.5984 22.4498C42.5763 22.4484 42.5541 22.4472 42.532 22.4474C42.5161 22.4475 42.5004 22.4487 42.4846 22.4496C42.4628 22.451 42.441 22.453 42.4192 22.4561C42.4034 22.4583 42.3876 22.4611 42.3719 22.4643C42.3506 22.4685 42.3295 22.4734 42.3084 22.4792C42.2926 22.4835 42.2769 22.4882 42.2613 22.4934C42.2409 22.5003 42.2207 22.5081 42.2007 22.5166C42.1852 22.5231 42.1699 22.5296 42.1545 22.5371C42.1478 22.5403 42.1409 22.5426 42.1343 22.546L40.1225 23.5947C41.6192 20.8039 42.3753 18.1009 42.3753 15.5151C42.3753 8.72235 36.849 3.19604 30.0562 3.19604C23.2635 3.19604 17.7379 8.72235 17.7379 15.5151C17.7379 18.126 18.508 20.8564 20.034 23.676L17.8662 22.546C17.8595 22.5425 17.8524 22.5401 17.8456 22.5368C17.8308 22.5296 17.8156 22.5232 17.8006 22.5169C17.7803 22.5084 17.7598 22.5004 17.7391 22.4934C17.7237 22.4882 17.7081 22.4836 17.6925 22.4793C17.6714 22.4735 17.6502 22.4685 17.6289 22.4643C17.6131 22.4611 17.5971 22.4583 17.5812 22.4561C17.5598 22.453 17.5382 22.4512 17.5166 22.4498C17.5005 22.4487 17.4843 22.4476 17.4682 22.4474C17.4467 22.4472 17.4252 22.4484 17.4037 22.4496C17.3875 22.4507 17.3713 22.4513 17.3552 22.4533C17.3332 22.4559 17.3116 22.4602 17.2899 22.4644C17.2745 22.4675 17.2591 22.4697 17.2438 22.4735C17.2198 22.4796 17.1962 22.4877 17.1727 22.4958C17.1604 22.5 17.1478 22.5033 17.1355 22.5081C17.1002 22.5221 17.0656 22.5382 17.0318 22.5569C17.0315 22.557 17.0312 22.5572 17.0309 22.5575C17.0308 22.5575 17.0308 22.5576 17.0307 22.5576L5.16629 29.1619C4.9359 29.2901 4.77512 29.5147 4.72825 29.7742L1.38643 48.2001C1.29971 48.6786 1.61728 49.137 2.09588 49.2237C2.57459 49.3108 3.03279 48.9929 3.11951 48.5143L4.12204 42.9864L15.5198 36.9614L14.6031 48.7966L2.04572 54.435L2.48763 51.9975C2.57435 51.5191 2.25689 51.0607 1.7783 50.9739C1.30006 50.8874 0.841506 51.2048 0.754671 51.6834L0.0141658 55.7664C-0.0441933 56.0879 0.0804936 56.4155 0.337836 56.6169C0.495687 56.7404 0.687288 56.8041 0.880647 56.8041C1.00287 56.8041 1.1258 56.7786 1.24123 56.7269L15.4405 50.3513L29.6339 56.7242C29.6342 56.7243 29.6346 56.7245 29.6349 56.7246L29.6398 56.7267C29.6477 56.7304 29.656 56.7328 29.6642 56.7362C29.6773 56.7416 29.6904 56.7467 29.7037 56.7515C29.7165 56.756 29.7294 56.7606 29.7425 56.7646C29.751 56.7672 29.7594 56.7694 29.7678 56.7717C29.7789 56.7748 29.7898 56.7777 29.801 56.7803C29.8193 56.7845 29.8378 56.7878 29.8562 56.7908C29.865 56.7922 29.8737 56.7944 29.8826 56.7955C29.8885 56.7963 29.8945 56.7972 29.9005 56.7979C29.9299 56.8013 29.9597 56.803 29.9892 56.8034C29.993 56.8034 29.9967 56.8041 30.0005 56.8041C30.0023 56.8041 30.0042 56.8037 30.0061 56.8037C30.0417 56.8035 30.0771 56.8006 30.1126 56.796C30.1169 56.7954 30.1214 56.7956 30.1258 56.7949C30.1325 56.794 30.1391 56.7918 30.1459 56.7907C30.1734 56.7861 30.201 56.7802 30.2281 56.7728C30.2356 56.7708 30.2433 56.7696 30.2508 56.7675C30.2516 56.7673 30.2523 56.7673 30.2531 56.767C30.2556 56.7663 30.2578 56.7651 30.2603 56.7642C30.2945 56.7537 30.3281 56.7416 30.3613 56.7267L44.5601 50.3512L58.7593 56.7266C58.773 56.7327 58.7871 56.7373 58.8012 56.7427C58.815 56.7481 58.8286 56.754 58.8428 56.7587C58.8612 56.7648 58.88 56.7694 58.8988 56.7742C58.9104 56.7772 58.9216 56.781 58.9335 56.7835C58.9561 56.7884 58.9789 56.7915 59.0018 56.7947C59.01 56.7958 59.018 56.7976 59.0262 56.7986C59.0574 56.802 59.0887 56.8037 59.12 56.8037H59.1201C59.1203 56.8037 59.1204 56.8037 59.1204 56.8037C59.1632 56.8037 59.2059 56.7994 59.2486 56.7932C59.2584 56.7918 59.2683 56.7903 59.2781 56.7884C59.3202 56.7808 59.3619 56.7709 59.4031 56.7569C59.4057 56.7559 59.4083 56.7546 59.4109 56.7538C59.4381 56.7443 59.4651 56.7339 59.4916 56.7213C59.4994 56.7177 59.506 56.7126 59.5137 56.7087C59.5358 56.6976 59.5571 56.6848 59.5785 56.6715C59.5998 56.6585 59.621 56.6454 59.641 56.6305C59.648 56.6254 59.6557 56.6217 59.6626 56.6165C59.6781 56.6044 59.6915 56.5904 59.7061 56.5773C59.7177 56.5669 59.7297 56.557 59.7409 56.5462C59.7676 56.5198 59.792 56.4917 59.8146 56.4625C59.8188 56.457 59.8239 56.4522 59.8281 56.4465C59.8543 56.4109 59.8775 56.3735 59.898 56.3346C59.9038 56.3237 59.9081 56.3121 59.9135 56.3009C59.9271 56.2723 59.9396 56.2435 59.9502 56.2136C59.9555 56.1986 59.9597 56.1833 59.9641 56.1679C59.9721 56.1404 59.9788 56.1127 59.984 56.0844C59.9871 56.0683 59.9899 56.052 59.992 56.0356C59.9959 56.0057 59.9976 55.9753 59.9985 55.945C59.9988 55.9306 60 55.9163 59.9996 55.9016C59.9989 55.8569 59.9952 55.8115 59.9869 55.7663ZM44.5073 25.4288L43.6045 25.6399L43.5467 24.894L44.5073 25.4288ZM42.5861 35.299L38.9083 32.4273C38.6538 32.2287 38.3111 32.1851 38.0149 32.3139L30.8847 35.4172V34.4522C31.4175 34.0182 32.6279 32.9952 34.0787 31.527L42.0236 28.0367L42.5861 35.299ZM41.767 24.724L41.8795 26.1762L36.9162 28.3567C37.409 27.7458 37.8685 27.1382 38.295 26.5338L41.767 24.724ZM18.2341 24.724L21.8844 26.6269C22.425 27.3871 23.0172 28.1528 23.6625 28.9235C24.2268 29.5973 24.7891 30.2235 25.3302 30.7966L17.8466 29.7258L18.2341 24.724ZM15.6805 34.8841L4.52153 40.7829L5.06504 37.7859L5.07899 37.7087L15.9036 32.0039L15.6805 34.8841ZM16.0645 29.9283L5.47836 35.5074L6.3868 30.4984L16.4543 24.8942L16.2013 28.1615L16.0645 29.9283ZM16.3666 48.8363L17.2003 38.0704L27.603 53.8816L16.3666 48.8363ZM29.1198 45.4421L23.6949 36.8924L29.1198 37.5419V45.4421ZM29.1198 35.7679L22.0617 34.9229C21.7244 34.8832 21.3933 35.0401 21.212 35.3279C21.0307 35.6156 21.0313 35.9819 21.2135 36.2693L29.1198 48.7295V52.9827L17.4223 35.2037L17.7103 31.4856L27.4267 32.8759C28.1594 33.5559 28.7535 34.0609 29.1197 34.3624V35.7679H29.1198ZM30.0569 32.848C27.8331 30.9724 19.4992 23.4151 19.4992 15.5152C19.4991 9.6936 24.2353 4.95737 30.0569 4.95737C35.8786 4.95737 40.6148 9.6936 40.6148 15.5152C40.6148 23.4151 32.2808 30.9725 30.0569 32.848ZM30.8811 54.5626V50.6536L33.5138 53.3805L30.8811 54.5626ZM35.2217 52.6136L30.8811 48.1178V37.3394L38.2372 34.1379L42.7701 37.6773L43.6343 48.8363L35.2217 52.6136ZM43.7419 27.4164L46.7952 26.7024L48.9606 27.9077L50.1587 28.5748L43.939 29.9629L43.7419 27.4164ZM45.3979 48.7966L44.7104 39.9197L56.0236 53.5677L45.3979 48.7966ZM44.4747 36.8755L44.2354 33.7853L44.2253 33.6544L56.8452 48.3133L57.6544 52.775L44.4747 36.8755Z" fill="#FEFEFE"/>
<path d="M30.057 10.0723C29.5707 10.0723 29.1764 10.4665 29.1764 10.9529C29.1764 11.4394 29.5707 11.8336 30.057 11.8336C32.087 11.8336 33.7386 13.4851 33.7386 15.5151C33.7386 17.545 32.087 19.1967 30.057 19.1967C28.027 19.1967 26.3755 17.5452 26.3755 15.5151C26.3755 14.544 26.7502 13.6277 27.4308 12.9349C27.7717 12.588 27.7668 12.0305 27.4198 11.6897C27.0728 11.3488 26.5153 11.3536 26.1745 11.7007C25.1683 12.7248 24.6143 14.0795 24.6143 15.5151C24.6143 18.5163 27.0559 20.958 30.0571 20.958C33.0584 20.958 35.5 18.5163 35.5 15.5151C35.4999 12.5139 33.0583 10.0723 30.057 10.0723Z" fill="#FEFEFE"/>
</svg>
