<svg width="24" height="24" viewBox="0 0 24 24" fill="none" xmlns="http://www.w3.org/2000/svg">
<g clip-path="url(#clip0_31_18199)">
<path d="M18.6998 14.7567C18.2273 14.2647 17.6575 14.0017 17.0535 14.0017C16.4545 14.0017 15.8797 14.2599 15.3878 14.7518L13.8487 16.286C13.7221 16.2178 13.5954 16.1545 13.4737 16.0912C13.2983 16.0035 13.1327 15.9207 12.9915 15.833C11.5498 14.9174 10.2396 13.7241 8.98304 12.1801C8.37422 11.4106 7.9651 10.7628 7.66799 10.1053C8.06738 9.74 8.43754 9.36009 8.79796 8.9948C8.93434 8.85843 9.07071 8.71718 9.20709 8.58081C10.2299 7.55799 10.2299 6.23321 9.20709 5.21039L7.87743 3.88073C7.72644 3.72975 7.57058 3.57389 7.42447 3.41803C7.13224 3.11606 6.82539 2.80434 6.50881 2.51211C6.03636 2.04454 5.47138 1.79614 4.87717 1.79614C4.28297 1.79614 3.70824 2.04454 3.22119 2.51211C3.21632 2.51698 3.21632 2.51698 3.21145 2.52185L1.55546 4.19245C0.932035 4.81588 0.576486 5.57568 0.498557 6.45725C0.381664 7.87945 0.800531 9.20424 1.12199 10.0712C1.91101 12.1996 3.08969 14.1722 4.84795 16.286C6.98125 18.8333 9.54802 20.8448 12.4801 22.2622C13.6003 22.7931 15.0956 23.4214 16.7662 23.5285C16.8684 23.5334 16.9756 23.5382 17.073 23.5382C18.1981 23.5382 19.143 23.134 19.8833 22.3304C19.8882 22.3206 19.8979 22.3157 19.9028 22.306C20.1561 21.9992 20.4483 21.7215 20.7551 21.4244C20.9646 21.2247 21.1789 21.0153 21.3883 20.7961C21.8705 20.2945 22.1238 19.71 22.1238 19.1109C22.1238 18.507 21.8656 17.9274 21.3737 17.4403L18.6998 14.7567ZM20.4434 19.8853C20.4386 19.8853 20.4386 19.8902 20.4434 19.8853C20.2535 20.0899 20.0587 20.275 19.8492 20.4795C19.5326 20.7815 19.2112 21.0981 18.9092 21.4537C18.4173 21.9797 17.8377 22.2281 17.0779 22.2281C17.0048 22.2281 16.9269 22.2281 16.8538 22.2232C15.4073 22.1307 14.063 21.5657 13.0548 21.0835C10.2981 19.749 7.87743 17.8543 5.86589 15.4531C4.20504 13.4514 3.09456 11.6005 2.3591 9.61336C1.90614 8.4006 1.74055 7.45571 1.8136 6.5644C1.86231 5.99455 2.08148 5.52211 2.48574 5.11785L4.14659 3.457C4.38525 3.23295 4.63852 3.11119 4.88692 3.11119C5.19376 3.11119 5.44216 3.29627 5.59801 3.45213C5.60289 3.457 5.60776 3.46187 5.61263 3.46674C5.90973 3.74436 6.19222 4.03172 6.48932 4.33857C6.64031 4.49442 6.79617 4.65028 6.95202 4.81101L8.28168 6.14067C8.79796 6.65694 8.79796 7.13426 8.28168 7.65054C8.14044 7.79178 8.00406 7.93303 7.86282 8.0694C7.45369 8.48827 7.06405 8.87791 6.64031 9.25781C6.63057 9.26755 6.62083 9.27243 6.61596 9.28217C6.19709 9.70103 6.27502 10.1102 6.36269 10.3878C6.36756 10.4024 6.37243 10.417 6.3773 10.4316C6.72311 11.2693 7.21016 12.0584 7.95049 12.9984L7.95536 13.0033C9.29963 14.6592 10.717 15.9499 12.2804 16.9387C12.4801 17.0653 12.6847 17.1676 12.8795 17.265C13.0548 17.3527 13.2204 17.4355 13.3617 17.5231C13.3811 17.5329 13.4006 17.5475 13.4201 17.5572C13.5857 17.64 13.7416 17.679 13.9023 17.679C14.3065 17.679 14.5598 17.4257 14.6426 17.3429L16.3083 15.6772C16.4739 15.5116 16.7369 15.3119 17.0438 15.3119C17.3458 15.3119 17.5942 15.5018 17.7451 15.6674C17.75 15.6723 17.75 15.6723 17.7549 15.6772L20.4386 18.3609C20.9402 18.8577 20.9402 19.3691 20.4434 19.8853Z" fill="#FEFEFE"/>
<path d="M12.9328 5.95085C14.2089 6.16516 15.3681 6.7691 16.2935 7.69451C17.2189 8.61991 17.818 9.7791 18.0372 11.0552C18.0907 11.3766 18.3684 11.6007 18.6849 11.6007C18.7239 11.6007 18.758 11.5958 18.797 11.5909C19.1574 11.5325 19.396 11.1916 19.3376 10.8311C19.0746 9.28717 18.344 7.87959 17.2286 6.76423C16.1133 5.64888 14.7057 4.9183 13.1617 4.65529C12.8013 4.59684 12.4653 4.8355 12.4019 5.19105C12.3386 5.5466 12.5724 5.89241 12.9328 5.95085Z" fill="#FEFEFE"/>
<path d="M23.5116 10.6411C23.0781 8.09872 21.8799 5.78521 20.0389 3.94415C18.1978 2.10308 15.8843 0.904928 13.3419 0.47145C12.9863 0.408133 12.6502 0.65166 12.5869 1.00721C12.5285 1.36763 12.7671 1.7037 13.1276 1.76701C15.3972 2.15179 17.4672 3.22818 19.1135 4.86955C20.7597 6.51579 21.8312 8.58578 22.216 10.8554C22.2696 11.1769 22.5472 11.4009 22.8638 11.4009C22.9027 11.4009 22.9368 11.3961 22.9758 11.3912C23.3313 11.3376 23.5749 10.9967 23.5116 10.6411Z" fill="#FEFEFE"/>
</g>
<defs>
<clipPath id="clip0_31_18199">
<rect width="23.0769" height="23.0769" fill="white" transform="translate(0.461914 0.461426)"/>
</clipPath>
</defs>
</svg>
