<svg width="24" height="24" viewBox="0 0 24 24" fill="none" xmlns="http://www.w3.org/2000/svg">
<g clip-path="url(#clip0_31_18124)">
<path d="M19.1218 7.16603C19.3707 7.16603 19.5725 6.96424 19.5725 6.7153V1.81371C19.5725 1.06813 18.9659 0.461548 18.2203 0.461548H1.81408C1.06849 0.461548 0.461914 1.06813 0.461914 1.81371V22.1863C0.461914 22.9319 1.06849 23.5385 1.81408 23.5385H18.2203C18.9659 23.5385 19.5725 22.9319 19.5725 22.1863V18.8658C19.5725 18.6168 19.3707 18.415 19.1218 18.415C18.8729 18.415 18.6711 18.6168 18.6711 18.8658V22.1863C18.6711 22.4348 18.4689 22.637 18.2203 22.637H1.81408C1.56555 22.637 1.36336 22.4348 1.36336 22.1863V1.81371C1.36336 1.56518 1.56555 1.36299 1.81408 1.36299H18.2203C18.4689 1.36299 18.6711 1.56518 18.6711 1.81371V6.7153C18.6711 6.96424 18.8729 7.16603 19.1218 7.16603Z" fill="#FEFEFE"/>
<path d="M10.0168 2.89539C7.73029 2.89539 5.87012 4.75556 5.87012 7.04202C5.87012 8.22818 6.37087 9.29946 7.17189 10.0559C7.1869 10.072 7.20285 10.0872 7.2203 10.101C7.95817 10.7762 8.94016 11.1886 10.0167 11.1886C11.0933 11.1886 12.0752 10.7761 12.8131 10.101C12.8306 10.0872 12.8465 10.0719 12.8615 10.0559C13.6626 9.29946 14.1634 8.22818 14.1634 7.04202C14.1634 4.75556 12.3032 2.89539 10.0168 2.89539ZM10.0168 10.2872C9.28077 10.2872 8.60153 10.0406 8.05652 9.6261C8.45266 8.92365 9.19189 8.48433 10.0168 8.48433C10.8416 8.48433 11.5808 8.92365 11.977 9.6261C11.4319 10.0406 10.7527 10.2872 10.0168 10.2872ZM9.2956 6.86173V6.56876C9.2956 6.17114 9.61913 5.84761 10.0168 5.84761C10.4144 5.84761 10.7379 6.17114 10.7379 6.56876V6.86173C10.7379 7.25936 10.4144 7.58289 10.0168 7.58289C9.61913 7.58289 9.2956 7.25936 9.2956 6.86173ZM12.6282 8.96583C12.2958 8.47284 11.8351 8.08941 11.3003 7.85269C11.5126 7.57833 11.6393 7.23466 11.6393 6.86173V6.56876C11.6393 5.67404 10.9115 4.94617 10.0168 4.94617C9.12203 4.94617 8.39416 5.67404 8.39416 6.56876V6.86173C8.39416 7.23466 8.52094 7.57833 8.73323 7.85269C8.19836 8.08941 7.73768 8.47284 7.40527 8.96583C7.00733 8.42709 6.77156 7.76169 6.77156 7.04202C6.77156 5.25261 8.22734 3.79683 10.0168 3.79683C11.8062 3.79683 13.2619 5.25261 13.2619 7.04202C13.2619 7.76169 13.0262 8.42709 12.6282 8.96583Z" fill="#FEFEFE"/>
<path d="M12.45 20.2031H10.0162C9.76726 20.2031 9.56543 20.4049 9.56543 20.6538C9.56543 20.9028 9.76726 21.1046 10.0162 21.1046H12.45C12.6989 21.1046 12.9008 20.9028 12.9008 20.6538C12.9008 20.4049 12.6989 20.2031 12.45 20.2031Z" fill="#FEFEFE"/>
<path d="M12.4506 17.6791H6.05033C5.80144 17.6791 5.59961 17.8809 5.59961 18.1298C5.59961 18.3787 5.80144 18.5805 6.05033 18.5805H12.4506C12.6995 18.5805 12.9013 18.3787 12.9013 18.1298C12.9013 17.8809 12.6995 17.6791 12.4506 17.6791Z" fill="#FEFEFE"/>
<path d="M12.4506 15.155H6.05033C5.80144 15.155 5.59961 15.3568 5.59961 15.6058C5.59961 15.8547 5.80144 16.0565 6.05033 16.0565H12.4506C12.6995 16.0565 12.9013 15.8547 12.9013 15.6058C12.9013 15.3568 12.6995 15.155 12.4506 15.155Z" fill="#FEFEFE"/>
<path d="M4.44361 12.763C4.35982 12.6792 4.24354 12.631 4.12455 12.631C4.00596 12.631 3.88968 12.6792 3.80589 12.763C3.72206 12.8469 3.67383 12.9632 3.67383 13.0817C3.67383 13.2002 3.72201 13.3165 3.80589 13.4004C3.89017 13.4842 4.00596 13.5324 4.12455 13.5324C4.24354 13.5324 4.35937 13.4842 4.44361 13.4004C4.52745 13.3165 4.57572 13.2002 4.57572 13.0817C4.57572 12.9632 4.52749 12.8469 4.44361 12.763Z" fill="#FEFEFE"/>
<path d="M4.44361 15.2871C4.35937 15.2033 4.24354 15.155 4.12455 15.155C4.00596 15.155 3.89017 15.2033 3.80589 15.2871C3.72206 15.3709 3.67383 15.4872 3.67383 15.6058C3.67383 15.7243 3.72201 15.8406 3.80589 15.9244C3.89017 16.0082 4.00596 16.0565 4.12455 16.0565C4.24354 16.0565 4.35937 16.0082 4.44361 15.9244C4.52745 15.8406 4.57572 15.7243 4.57572 15.6058C4.57572 15.4872 4.52749 15.3709 4.44361 15.2871Z" fill="#FEFEFE"/>
<path d="M4.44361 17.8111C4.35937 17.7273 4.24354 17.6791 4.12455 17.6791C4.00596 17.6791 3.89017 17.7273 3.80589 17.8111C3.72206 17.895 3.67383 18.0113 3.67383 18.1298C3.67383 18.2483 3.72201 18.3646 3.80589 18.4485C3.88968 18.5323 4.00596 18.5805 4.12455 18.5805C4.24354 18.5805 4.35982 18.5323 4.44361 18.4485C4.52745 18.3646 4.57572 18.2483 4.57572 18.1298C4.57572 18.0113 4.52749 17.895 4.44361 17.8111Z" fill="#FEFEFE"/>
<path d="M12.4506 12.631H6.05033C5.80144 12.631 5.59961 12.8328 5.59961 13.0817C5.59961 13.3306 5.80144 13.5324 6.05033 13.5324H12.4506C12.6995 13.5324 12.9013 13.3306 12.9013 13.0817C12.9013 12.8328 12.6995 12.631 12.4506 12.631Z" fill="#FEFEFE"/>
<path d="M22.5915 6.33523C22.1537 6.08243 21.6435 6.01527 21.1551 6.14611C20.6666 6.277 20.2584 6.59025 20.0056 7.02813L14.3337 16.8522C14.3026 16.906 14.283 16.9658 14.2761 17.0276L13.8768 20.6038C13.857 20.7817 13.9443 20.9546 14.0994 21.0441C14.1694 21.0845 14.2471 21.1045 14.3247 21.1045C14.419 21.1045 14.5129 21.075 14.592 21.0167L17.4894 18.8828C17.5395 18.846 17.5814 18.7991 17.6125 18.7453L23.2844 8.9212C23.8063 8.01724 23.4955 6.85717 22.5915 6.33523ZM14.887 19.6799L15.0955 17.8125L16.3999 18.5656L14.887 19.6799ZM17.0572 17.9042L15.3397 16.9126L19.8913 9.02902L21.6088 10.0206L17.0572 17.9042ZM22.5037 8.47044L22.0595 9.23995L20.342 8.24837L20.7863 7.47885C20.9187 7.24948 21.1325 7.08541 21.3883 7.01686C21.6443 6.94826 21.9115 6.98351 22.1408 7.11593C22.3701 7.24835 22.5342 7.46217 22.6028 7.718C22.6713 7.97383 22.6362 8.24106 22.5037 8.47044Z" fill="#FEFEFE"/>
</g>
<defs>
<clipPath id="clip0_31_18124">
<rect width="23.0769" height="23.0769" fill="white" transform="translate(0.460938 0.461548)"/>
</clipPath>
</defs>
</svg>
