<svg width="60" height="60" viewBox="0 0 60 60" fill="none" xmlns="http://www.w3.org/2000/svg">
<g clip-path="url(#clip0_31_5454)">
<path d="M48.5166 17.4318C49.1637 17.4318 49.6885 16.9071 49.6885 16.2599V3.51575C49.6885 1.57723 48.1114 0.00012207 46.1729 0.00012207H3.5166C1.57809 0.00012207 0.000976562 1.57723 0.000976562 3.51575V56.4845C0.000976562 58.423 1.57809 60.0001 3.5166 60.0001H46.1729C48.1114 60.0001 49.6885 58.423 49.6885 56.4845V47.8511C49.6885 47.2038 49.1637 46.6792 48.5166 46.6792C47.8695 46.6792 47.3447 47.2038 47.3447 47.8511V56.4845C47.3447 57.1307 46.819 57.6564 46.1729 57.6564H3.5166C2.87043 57.6564 2.34473 57.1307 2.34473 56.4845V3.51575C2.34473 2.86958 2.87043 2.34387 3.5166 2.34387H46.1729C46.819 2.34387 47.3447 2.86958 47.3447 3.51575V16.2599C47.3447 16.9071 47.8695 17.4318 48.5166 17.4318Z" fill="#FEFEFE"/>
<path d="M24.8447 6.32825C18.8999 6.32825 14.0635 11.1647 14.0635 17.1095C14.0635 20.1935 15.3654 22.9788 17.4481 24.9457C17.4871 24.9874 17.5286 25.0269 17.5739 25.0629C19.4924 26.8182 22.0456 27.8906 24.8446 27.8906C27.6436 27.8906 30.1968 26.8181 32.1153 25.0629C32.1606 25.0269 32.2021 24.9873 32.2411 24.9457C34.324 22.9788 35.626 20.1935 35.626 17.1095C35.626 11.1647 30.7895 6.32825 24.8447 6.32825ZM24.8447 25.547C22.9312 25.547 21.1652 24.9057 19.7481 23.8281C20.7781 22.0017 22.7001 20.8595 24.8447 20.8595C26.9894 20.8595 28.9114 22.0017 29.9413 23.8281C28.5242 24.9057 26.7583 25.547 24.8447 25.547ZM22.9697 16.6407V15.879C22.9697 14.8452 23.8109 14.004 24.8447 14.004C25.8786 14.004 26.7197 14.8452 26.7197 15.879V16.6407C26.7197 17.6746 25.8786 18.5157 24.8447 18.5157C23.8109 18.5157 22.9697 17.6746 22.9697 16.6407ZM31.6346 22.1114C30.7703 20.8296 29.5725 19.8327 28.1819 19.2172C28.7338 18.5039 29.0635 17.6104 29.0635 16.6407V15.879C29.0635 13.5527 27.171 11.6603 24.8447 11.6603C22.5184 11.6603 20.626 13.5527 20.626 15.879V16.6407C20.626 17.6104 20.9556 18.5039 21.5076 19.2172C20.1169 19.8327 18.9191 20.8296 18.0549 22.1114C17.0202 20.7107 16.4072 18.9806 16.4072 17.1095C16.4072 12.457 20.1923 8.672 24.8447 8.672C29.4972 8.672 33.2822 12.457 33.2822 17.1095C33.2822 18.9806 32.6692 20.7107 31.6346 22.1114Z" fill="#FEFEFE"/>
<path d="M31.1728 51.3282H24.8447C24.1976 51.3282 23.6729 51.8529 23.6729 52.5001C23.6729 53.1473 24.1976 53.672 24.8447 53.672H31.1728C31.82 53.672 32.3447 53.1473 32.3447 52.5001C32.3447 51.8529 31.82 51.3282 31.1728 51.3282Z" fill="#FEFEFE"/>
<path d="M31.1729 44.7657H14.5322C13.8851 44.7657 13.3604 45.2904 13.3604 45.9376C13.3604 46.5848 13.8851 47.1095 14.5322 47.1095H31.1729C31.82 47.1095 32.3447 46.5848 32.3447 45.9376C32.3447 45.2904 31.82 44.7657 31.1729 44.7657Z" fill="#FEFEFE"/>
<path d="M31.1729 38.2032H14.5322C13.8851 38.2032 13.3604 38.7279 13.3604 39.3751C13.3604 40.0223 13.8851 40.547 14.5322 40.547H31.1729C31.82 40.547 32.3447 40.0223 32.3447 39.3751C32.3447 38.7279 31.82 38.2032 31.1729 38.2032Z" fill="#FEFEFE"/>
<path d="M10.3559 31.9841C10.1381 31.7661 9.83574 31.6407 9.52637 31.6407C9.21805 31.6407 8.9157 31.7661 8.69785 31.9841C8.47988 32.2021 8.35449 32.5044 8.35449 32.8126C8.35449 33.1208 8.47977 33.4232 8.69785 33.6411C8.91699 33.8591 9.21805 33.9845 9.52637 33.9845C9.83574 33.9845 10.1369 33.8591 10.3559 33.6411C10.5739 33.4232 10.6994 33.1208 10.6994 32.8126C10.6994 32.5044 10.574 32.2021 10.3559 31.9841Z" fill="#FEFEFE"/>
<path d="M10.3559 38.5466C10.1369 38.3286 9.83574 38.2032 9.52637 38.2032C9.21805 38.2032 8.91699 38.3286 8.69785 38.5466C8.47988 38.7646 8.35449 39.0669 8.35449 39.3751C8.35449 39.6833 8.47977 39.9857 8.69785 40.2036C8.91699 40.4216 9.21805 40.547 9.52637 40.547C9.83574 40.547 10.1369 40.4216 10.3559 40.2036C10.5739 39.9857 10.6994 39.6833 10.6994 39.3751C10.6994 39.0669 10.574 38.7646 10.3559 38.5466Z" fill="#FEFEFE"/>
<path d="M10.3559 45.1091C10.1369 44.8911 9.83574 44.7657 9.52637 44.7657C9.21805 44.7657 8.91699 44.8911 8.69785 45.1091C8.47988 45.3271 8.35449 45.6294 8.35449 45.9376C8.35449 46.2458 8.47977 46.5482 8.69785 46.7661C8.9157 46.9841 9.21805 47.1095 9.52637 47.1095C9.83574 47.1095 10.1381 46.9841 10.3559 46.7661C10.5739 46.5482 10.6994 46.2458 10.6994 45.9376C10.6994 45.6294 10.574 45.3271 10.3559 45.1091Z" fill="#FEFEFE"/>
<path d="M31.1729 31.6407H14.5322C13.8851 31.6407 13.3604 32.1654 13.3604 32.8126C13.3604 33.4598 13.8851 33.9845 14.5322 33.9845H31.1729C31.82 33.9845 32.3447 33.4598 32.3447 32.8126C32.3447 32.1654 31.82 31.6407 31.1729 31.6407Z" fill="#FEFEFE"/>
<path d="M57.5396 15.2719C56.4011 14.6145 55.0748 14.4399 53.8047 14.7801C52.5349 15.1204 51.4734 15.9349 50.8162 17.0734L36.0691 42.6159C35.9883 42.756 35.9372 42.9112 35.9193 43.0719L34.8813 52.37C34.8297 52.8327 35.0568 53.2821 35.4599 53.515C35.6419 53.62 35.8441 53.672 36.0458 53.672C36.2909 53.672 36.5351 53.5952 36.7408 53.4437L44.2741 47.8956C44.4043 47.7997 44.5133 47.678 44.594 47.5379L59.341 21.9954C60.698 19.6451 59.8899 16.6289 57.5396 15.2719ZM37.5077 49.968L38.0498 45.1127L41.4414 47.0709L37.5077 49.968ZM43.1502 45.3511L38.6848 42.773L50.519 22.2757L54.9844 24.8538L43.1502 45.3511ZM57.3113 20.8234L56.1562 22.8241L51.6908 20.246L52.8459 18.2453C53.1902 17.6489 53.7461 17.2223 54.4113 17.0441C55.0766 16.8657 55.7713 16.9574 56.3676 17.3017C56.964 17.646 57.3905 18.2019 57.5688 18.867C57.747 19.5322 57.6556 20.227 57.3113 20.8234Z" fill="#FEFEFE"/>
</g>
<defs>
<clipPath id="clip0_31_5454">
<rect width="60" height="60" fill="white"/>
</clipPath>
</defs>
</svg>
