<svg width="56" height="60" viewBox="0 0 56 60" fill="none" xmlns="http://www.w3.org/2000/svg">
<path d="M55.4618 40.5225C55.4471 40.194 55.3057 39.891 55.0634 39.6693L52.4696 37.2953C52.2424 37.0873 51.9473 36.9727 51.6393 36.9727C51.621 36.9727 51.6035 36.973 51.5848 36.9738C51.2565 36.9884 50.9532 37.1298 50.7315 37.3723L49.2816 38.9564C47.2001 37.2109 44.516 36.1574 41.5888 36.1574C38.1824 36.1574 35.1039 37.5832 32.9229 39.8673H26.5087V37.6801C28.0185 37.3131 29.4471 36.6684 30.7328 35.762C31.1294 35.4823 31.2241 34.9339 30.9445 34.5373C30.665 34.1407 30.1167 34.0457 29.7198 34.3254C27.9057 35.6045 25.7595 36.2805 23.5127 36.2805H20.4844C14.6373 36.2805 9.88055 31.6429 9.88055 25.9424V18.5031C9.88055 15.5375 11.0264 13.2913 13.2864 11.8264C15.3397 10.4954 18.3524 9.79184 21.9986 9.79184C25.6447 9.79184 28.6574 10.4953 30.7107 11.8264C32.9707 13.2913 34.1167 15.5377 34.1167 18.5031V25.9424C34.1167 27.9697 33.5152 29.9321 32.3774 31.6177C32.1057 32.02 32.2117 32.5663 32.6141 32.8379C33.0165 33.1093 33.5628 33.0036 33.8343 32.6012C34.6894 31.3349 35.2844 29.9346 35.6031 28.4666H36.7675C38.5687 28.4666 40.0345 27.0364 40.0345 25.2786V22.4832C40.0345 20.7253 38.5687 19.2953 36.7675 19.2953H35.8746V9.43184C35.8746 5.95922 33.0397 3.13395 29.5554 3.13395C28.652 3.13395 27.7928 3.32461 27.015 3.66668C25.767 1.31836 23.3454 0 20.0321 0H17.1294C12.1631 0 8.12273 4.02609 8.12273 8.9748V19.2953H7.23023C5.42859 19.2953 3.96269 20.7254 3.96269 22.4832V25.2786C3.96269 27.0364 5.42859 28.4666 7.23023 28.4666H8.39437C9.37699 32.9776 12.937 36.5655 17.4886 37.6785V39.8674H7.16836C3.51141 39.8674 0.536133 42.7795 0.536133 46.359V54.6561C0.536133 55.5519 1.26996 56.2806 2.17195 56.2806L12.2964 56.2805C12.7819 56.2805 11.4175 55.887 11.4175 55.4016C11.4175 54.9162 12.7819 54.5227 12.2964 54.5227L2.29406 54.5228V46.359C2.29406 43.7489 4.48066 41.6252 7.16848 41.6252H15.1575C15.8706 44.733 18.6812 46.9901 21.9987 46.9901C25.3162 46.9901 28.127 44.7329 28.84 41.6252H31.5334C30.326 43.4865 29.6243 45.7024 29.6243 48.0786C29.6243 50.4509 30.3236 52.6634 31.5272 54.5227H12.2964C11.811 54.5227 11.4175 54.9162 11.4175 55.4016C11.4175 55.887 11.811 56.2805 12.2964 56.2805H32.9139C35.0957 58.5701 38.1776 60 41.5888 60C48.1861 60 53.5534 54.6521 53.5534 48.0788C53.5534 46.628 53.2914 45.2373 52.8125 43.9504L55.14 41.4077C55.3619 41.1653 55.4762 40.8509 55.4618 40.5225ZM35.8745 25.9425V22.5551V21.0532H36.7673C37.5996 21.0532 38.2766 21.6948 38.2766 22.4834V25.2788C38.2766 26.0673 37.5996 26.7089 36.7673 26.7089H35.8484C35.8646 26.4544 35.8745 26.199 35.8745 25.9425ZM29.5554 4.89176C32.0706 4.89176 34.1168 6.92848 34.1168 9.43184V12.6278C33.4744 11.754 32.6579 10.9937 31.6671 10.3514C30.6083 9.66527 29.373 9.13101 27.9715 8.74863V7.93008C27.9715 6.98016 27.862 6.10418 27.6516 5.30754C28.2313 5.04117 28.8758 4.89176 29.5554 4.89176ZM9.88055 8.9748C9.88055 4.99535 13.1324 1.75781 17.1294 1.75781H20.0321C24.0184 1.75781 26.2136 3.94992 26.2136 7.93019V8.36285C24.9231 8.14418 23.5166 8.03414 21.9986 8.03414C17.9555 8.03414 14.7025 8.81379 12.3302 10.3514C11.3394 10.9936 10.5229 11.7539 9.88055 12.6278V8.9748ZM7.23023 26.7088C6.39773 26.7088 5.72051 26.0672 5.72051 25.2786V22.4832C5.72051 21.6946 6.39773 21.0531 7.23023 21.0531H8.12273V22.555V25.9424C8.12273 26.1998 8.13199 26.4552 8.14828 26.7087L7.23023 26.7088ZM21.9986 45.2323C19.653 45.2323 17.6452 43.7373 16.9761 41.6252H18.3674C18.8529 41.6252 19.2463 41.2317 19.2463 40.7463V37.978C19.6536 38.0179 20.0666 38.0385 20.4844 38.0385H23.5126C23.9289 38.0385 24.3416 38.0163 24.7508 37.9766V40.7464C24.7508 41.2318 25.1443 41.6254 25.6297 41.6254H27.021C26.3521 43.7373 24.3442 45.2323 21.9986 45.2323ZM42.5196 52.5918C42.2873 52.8457 41.9563 52.9914 41.6091 52.9914C41.2642 52.9907 40.9334 52.8437 40.7013 52.5881L35.245 46.5796L37.0669 44.9251L40.795 49.0307C41.0051 49.262 41.3047 49.3949 41.6187 49.3955C41.9311 49.3955 42.2307 49.2633 42.4402 49.0338L47.4995 43.5C47.8273 43.142 46.7439 43.7496 46.3859 43.4218C46.0278 43.0942 46.6587 41.822 46.3309 42.1801L41.6209 47.3255L38.014 43.3534C37.7812 43.0969 37.4491 42.9498 37.1026 42.9498C36.7962 42.9498 36.5023 43.0632 36.2754 43.2694L33.6732 45.6325C33.43 45.8531 33.2871 46.1553 33.2708 46.4836C33.2548 46.8123 33.3678 47.1275 33.589 47.3708L39.3998 53.7697C39.9634 54.3906 40.7674 54.7477 41.612 54.7492C42.4484 54.7492 43.2517 54.3954 43.8162 53.7785L51.4451 45.4441C51.6723 46.2848 51.7955 47.1675 51.7955 48.0788C51.7955 53.6829 47.2167 58.2422 41.5887 58.2422C35.9606 58.2422 31.3819 53.6829 31.3819 48.0788C31.3819 42.4746 35.9606 37.9153 41.5887 37.9153C44.059 37.9153 46.3256 38.7953 48.093 40.255L46.3309 42.1801C46.0031 42.5382 46.0276 43.0942 46.3859 43.4218C46.7436 43.7495 47.2996 43.725 47.6276 43.367L51.6722 38.9482L53.4872 40.6098L42.5196 52.5918Z" fill="url(#paint0_linear_46_143)"/>
<defs>
<linearGradient id="paint0_linear_46_143" x1="27.9868" y1="0.000354122" x2="27.9868" y2="59.9724" gradientUnits="userSpaceOnUse">
<stop stop-color="#FD8D2A"/>
<stop offset="1" stop-color="#FD2549"/>
</linearGradient>
</defs>
</svg>
