<svg width="60" height="60" viewBox="0 0 60 60" fill="none" xmlns="http://www.w3.org/2000/svg">
<path d="M40.5469 37.3828C39.8998 37.3828 39.375 37.9075 39.375 38.5547V46.6406C39.375 49.8715 36.7465 52.5 33.5156 52.5H20.8631C20.2161 52.5 19.6917 53.0242 19.6912 53.6711L19.6896 56.001L16.8926 53.2041C16.7115 52.7884 16.2971 52.5 15.8179 52.5H8.20312C4.97227 52.5 2.34375 49.8715 2.34375 46.6406V28.5938C2.34375 25.3629 4.97227 22.7344 8.20312 22.7344H20.0391C20.6862 22.7344 21.2109 22.2097 21.2109 21.5625C21.2109 20.9153 20.6862 20.3906 20.0391 20.3906H8.20312C3.67992 20.3906 0 24.0705 0 28.5938V46.6406C0 51.1638 3.67992 54.8438 8.20312 54.8438H15.2177L20.0307 59.6568C20.2549 59.8809 20.5546 60 20.8596 60C21.0104 60 21.1627 59.9708 21.3074 59.9109C21.7453 59.7298 22.0309 59.3027 22.0312 58.8289L22.0341 54.8438H33.5156C38.0388 54.8438 41.7188 51.1638 41.7188 46.6406V38.5547C41.7188 37.9075 41.194 37.3828 40.5469 37.3828Z" fill="url(#paint0_linear_46_144)"/>
<path d="M42.9674 0H40.0015C30.6096 0 22.9688 7.64086 22.9688 17.0327C22.9688 26.4246 30.6096 34.0654 40.0014 34.0654H42.9673C44.4332 34.0654 45.8841 33.8791 47.2903 33.5112L51.6716 37.89C51.8958 38.1139 52.1953 38.233 52.5002 38.233C52.6513 38.233 52.8036 38.2038 52.9486 38.1437C53.3864 37.9623 53.6719 37.535 53.6719 37.0611V30.2811C55.5268 28.7789 57.0677 26.8813 58.1491 24.7614C59.3774 22.3536 60 19.7534 60 17.0327C60 7.64086 52.3591 0 42.9674 0ZM51.7949 28.7736C51.5011 28.995 51.3281 29.3416 51.3281 29.7097V34.2332L48.4604 31.367C48.2373 31.1441 47.938 31.024 47.6319 31.024C47.5171 31.024 47.4011 31.041 47.2879 31.0758C45.893 31.5045 44.4394 31.7217 42.9674 31.7217H40.0015C31.9018 31.7217 25.3125 25.1323 25.3125 17.0327C25.3125 8.9332 31.902 2.34375 40.0015 2.34375H42.9674C51.0669 2.34375 57.6562 8.9332 57.6562 17.0327C57.6562 21.6887 55.5199 25.9682 51.7949 28.7736Z" fill="url(#paint1_linear_46_144)"/>
<path d="M46.7612 12.8229C46.5921 10.3696 44.6145 8.3919 42.1611 8.2228C40.7703 8.12729 39.443 8.59639 38.4271 9.54479C37.4252 10.4801 36.8506 11.8022 36.8506 13.1722C36.8506 13.8194 37.3754 14.3441 38.0225 14.3441C38.6696 14.3441 39.1943 13.8194 39.1943 13.1722C39.1943 12.4387 39.4899 11.7589 40.0264 11.2582C40.5624 10.7579 41.2629 10.5103 42 10.5612C43.2924 10.6502 44.3341 11.6919 44.4231 12.9841C44.5131 14.2892 43.6568 15.4426 42.3872 15.7267C41.3586 15.9568 40.6402 16.8507 40.6402 17.9004V20.7158C40.6402 21.363 41.165 21.8877 41.8121 21.8877C42.4593 21.8877 42.9839 21.363 42.9838 20.7158V17.994C45.3452 17.4235 46.9294 15.2628 46.7612 12.8229Z" fill="url(#paint2_linear_46_144)"/>
<path d="M42.641 24.5227C42.4231 24.3048 42.1207 24.1794 41.8125 24.1794C41.5043 24.1794 41.202 24.3048 40.984 24.5227C40.766 24.7407 40.6406 25.0431 40.6406 25.3513C40.6406 25.6606 40.7661 25.963 40.984 26.1809C41.202 26.3989 41.5043 26.5231 41.8125 26.5231C42.1207 26.5231 42.4231 26.3989 42.641 26.1809C42.859 25.9618 42.9844 25.6606 42.9844 25.3513C42.9844 25.0431 42.8589 24.7407 42.641 24.5227Z" fill="url(#paint3_linear_46_144)"/>
<path d="M32.2266 36.3281H7.5C6.85289 36.3281 6.32812 36.8528 6.32812 37.5C6.32812 38.1472 6.85289 38.6719 7.5 38.6719H32.2266C32.8738 38.6719 33.3984 38.1472 33.3984 37.5C33.3984 36.8528 32.8737 36.3281 32.2266 36.3281Z" fill="url(#paint4_linear_46_144)"/>
<path d="M33.055 43.234C32.8371 43.016 32.5348 42.8906 32.2266 42.8906C31.9184 42.8906 31.616 43.016 31.398 43.234C31.18 43.452 31.0547 43.7543 31.0547 44.0625C31.0547 44.3707 31.1801 44.673 31.398 44.891C31.616 45.109 31.9184 45.2344 32.2266 45.2344C32.5348 45.2344 32.8371 45.109 33.055 44.891C33.273 44.673 33.3984 44.3719 33.3984 44.0625C33.3984 43.7543 33.2729 43.452 33.055 43.234Z" fill="url(#paint5_linear_46_144)"/>
<path d="M27.6172 42.8906H7.5C6.85289 42.8906 6.32812 43.4153 6.32812 44.0625C6.32812 44.7097 6.85289 45.2344 7.5 45.2344H27.6172C28.2645 45.2344 28.7891 44.7097 28.7891 44.0625C28.7891 43.4153 28.2643 42.8906 27.6172 42.8906Z" fill="url(#paint6_linear_46_144)"/>
<path d="M24.6094 29.7656H7.5C6.85289 29.7656 6.32812 30.2903 6.32812 30.9375C6.32812 31.5847 6.85289 32.1094 7.5 32.1094H24.6094C25.2566 32.1094 25.7812 31.5847 25.7812 30.9375C25.7812 30.2903 25.2565 29.7656 24.6094 29.7656Z" fill="url(#paint7_linear_46_144)"/>
<defs>
<linearGradient id="paint0_linear_46_144" x1="20.8497" y1="20.3909" x2="20.8497" y2="59.9818" gradientUnits="userSpaceOnUse">
<stop stop-color="#FD8D2A"/>
<stop offset="1" stop-color="#FD2549"/>
</linearGradient>
<linearGradient id="paint1_linear_46_144" x1="41.4758" y1="0.000225653" x2="41.4758" y2="38.2154" gradientUnits="userSpaceOnUse">
<stop stop-color="#FD8D2A"/>
<stop offset="1" stop-color="#FD2549"/>
</linearGradient>
<linearGradient id="paint2_linear_46_144" x1="41.8097" y1="8.21071" x2="41.8097" y2="21.8814" gradientUnits="userSpaceOnUse">
<stop stop-color="#FD8D2A"/>
<stop offset="1" stop-color="#FD2549"/>
</linearGradient>
<linearGradient id="paint3_linear_46_144" x1="41.812" y1="24.1794" x2="41.812" y2="26.5221" gradientUnits="userSpaceOnUse">
<stop stop-color="#FD8D2A"/>
<stop offset="1" stop-color="#FD2549"/>
</linearGradient>
<linearGradient id="paint4_linear_46_144" x1="19.857" y1="36.3281" x2="19.857" y2="38.6708" gradientUnits="userSpaceOnUse">
<stop stop-color="#FD8D2A"/>
<stop offset="1" stop-color="#FD2549"/>
</linearGradient>
<linearGradient id="paint5_linear_46_144" x1="32.226" y1="42.8906" x2="32.226" y2="45.2333" gradientUnits="userSpaceOnUse">
<stop stop-color="#FD8D2A"/>
<stop offset="1" stop-color="#FD2549"/>
</linearGradient>
<linearGradient id="paint6_linear_46_144" x1="17.5534" y1="42.8906" x2="17.5534" y2="45.2333" gradientUnits="userSpaceOnUse">
<stop stop-color="#FD8D2A"/>
<stop offset="1" stop-color="#FD2549"/>
</linearGradient>
<linearGradient id="paint7_linear_46_144" x1="16.0502" y1="29.7656" x2="16.0502" y2="32.1083" gradientUnits="userSpaceOnUse">
<stop stop-color="#FD8D2A"/>
<stop offset="1" stop-color="#FD2549"/>
</linearGradient>
</defs>
</svg>
