<svg width="50" height="60" viewBox="0 0 50 60" fill="none" xmlns="http://www.w3.org/2000/svg">
<path d="M48.4375 7.03125C45.2066 7.03125 42.5781 4.40273 42.5781 1.17188C42.5781 0.524766 42.0534 0 41.4062 0H8.59375C7.94664 0 7.42188 0.524766 7.42188 1.17188C7.42188 4.40273 4.79336 7.03125 1.5625 7.03125C0.915391 7.03125 0.390625 7.55602 0.390625 8.20312V27.327C0.390625 42.2305 10.1049 55.585 24.6634 59.9507C24.7732 59.9835 24.8866 60 25 60C25.1134 60 25.227 59.9835 25.3367 59.9505C39.5799 55.678 49.6094 42.5565 49.6094 27.327V8.20312C49.6094 7.55602 49.0846 7.03125 48.4375 7.03125ZM47.2656 27.327C47.2656 41.3248 38.3335 53.4471 25 57.6027C11.7728 53.4803 2.73438 41.2481 2.73438 27.327V9.29156C6.3216 8.77617 9.1668 5.93098 9.68219 2.34375H40.3178C40.8332 5.93098 43.6784 8.77617 47.2656 9.29156V27.327Z" fill="url(#paint0_linear_46_145)"/>
<path d="M44.2202 10.8387C41.7763 9.7684 39.841 7.83305 38.7707 5.38922C38.5839 4.96289 38.1627 4.6875 37.6973 4.6875H29.6852C29.038 4.6875 28.5133 5.21227 28.5133 5.85937C28.5133 6.50648 29.038 7.03125 29.6852 7.03125H36.9563C38.1944 9.4548 40.1546 11.4149 42.5781 12.6531V27.327C42.5781 38.7953 35.6935 48.6906 25 52.6516C14.3065 48.6905 7.42188 38.7953 7.42188 27.327V12.6531C9.84543 11.4149 11.8055 9.4548 13.0437 7.03125H29.6852C30.3323 7.03125 28.5133 6.50648 28.5133 5.85937C28.5133 5.21227 30.3323 4.6875 29.6852 4.6875H12.3027C11.8373 4.6875 11.4161 4.96301 11.2293 5.38922C10.159 7.83305 8.22367 9.7684 5.77984 10.8387C5.35363 11.0255 5.07812 11.4468 5.07812 11.9121V27.327C5.07812 39.891 12.8489 50.841 24.6091 55.0027C24.7355 55.0474 24.8677 55.0698 25 55.0698C25.1323 55.0698 25.2645 55.0474 25.3909 55.0027C37.1412 50.8445 44.9219 39.9012 44.9219 27.327V11.9121C44.9219 11.4466 44.6464 11.0255 44.2202 10.8387Z" fill="url(#paint1_linear_46_145)"/>
<path d="M25 17.1094C19.1845 17.1094 14.4531 21.8407 14.4531 27.6562C14.4531 33.4718 19.1845 38.2031 25 38.2031C30.8155 38.2031 35.5469 33.4718 35.5469 27.6562C35.5469 21.8407 30.8155 17.1094 25 17.1094ZM25 35.8594C20.4768 35.8594 16.7969 32.1795 16.7969 27.6562C16.7969 23.133 20.4768 19.4531 25 19.4531C29.5232 19.4531 33.2031 23.133 33.2031 27.6562C33.2031 32.1795 29.5232 35.8594 25 35.8594Z" fill="url(#paint2_linear_46_145)"/>
<path d="M30.5162 24.4838C30.0585 24.0262 29.3167 24.0262 28.8588 24.4838L23.8282 29.5145L22.3131 27.9995C21.8554 27.542 21.1136 27.542 20.6557 27.9995C20.1981 28.4571 20.1981 29.1991 20.6557 29.6569L22.9995 32.0006C23.2284 32.2293 23.5282 32.3438 23.8282 32.3438C24.1282 32.3438 24.428 32.2293 24.6568 32.0005L30.5162 26.1411C30.9738 25.6835 30.9738 24.9415 30.5162 24.4838Z" fill="url(#paint3_linear_46_145)"/>
<defs>
<linearGradient id="paint0_linear_46_145" x1="24.9885" y1="0.000354122" x2="24.9885" y2="59.9724" gradientUnits="userSpaceOnUse">
<stop stop-color="#FD8D2A"/>
<stop offset="1" stop-color="#FD2549"/>
</linearGradient>
<linearGradient id="paint1_linear_46_145" x1="24.9907" y1="4.6878" x2="24.9907" y2="55.0467" gradientUnits="userSpaceOnUse">
<stop stop-color="#FD8D2A"/>
<stop offset="1" stop-color="#FD2549"/>
</linearGradient>
<linearGradient id="paint2_linear_46_145" x1="24.9951" y1="17.1095" x2="24.9951" y2="38.1934" gradientUnits="userSpaceOnUse">
<stop stop-color="#FD8D2A"/>
<stop offset="1" stop-color="#FD2549"/>
</linearGradient>
<linearGradient id="paint3_linear_46_145" x1="25.5835" y1="24.1407" x2="25.5835" y2="32.34" gradientUnits="userSpaceOnUse">
<stop stop-color="#FD8D2A"/>
<stop offset="1" stop-color="#FD2549"/>
</linearGradient>
</defs>
</svg>
