<svg width="60" height="60" viewBox="0 0 60 60" fill="none" xmlns="http://www.w3.org/2000/svg">
<g filter="url(#filter0_i_31_11725)">
<path d="M54.9197 19.6145C53.956 19.4336 52.9597 19.6284 52.1351 20.1589C51.3105 20.6894 50.7202 21.5153 50.4853 22.4673L48.2709 30.7173C47.6906 30.3333 47.0146 30.1188 46.319 30.0979C45.6234 30.077 44.9358 30.2506 44.3334 30.5991L37.9228 34.3595C36.6553 35.1056 35.6039 36.169 34.8722 37.445C34.1406 38.721 33.7538 40.1655 33.75 41.6363V48.7501H31.875C31.6264 48.7501 31.3879 48.8489 31.2121 49.0247C31.0363 49.2005 30.9375 49.4389 30.9375 49.6876V57.1876C30.9375 57.4362 31.0363 57.6747 31.2121 57.8505C31.3879 58.0263 31.6264 58.1251 31.875 58.1251H48.75C48.9986 58.1251 49.2371 58.0263 49.4129 57.8505C49.5887 57.6747 49.6875 57.4362 49.6875 57.1876V49.6876C49.6875 49.4389 49.5887 49.2005 49.4129 49.0247C49.2371 48.8489 48.9986 48.7501 48.75 48.7501H46.875V47.6626C46.8749 47.2569 46.9626 46.856 47.132 46.4873C47.3014 46.1187 47.5486 45.7911 47.8566 45.527L52.2281 41.777C52.9462 41.163 53.4614 40.3458 53.7056 39.4332L57.7734 24.2532C57.8589 23.935 57.9014 23.6068 57.9 23.2773C57.8954 22.4184 57.5973 21.5869 57.0552 20.9207C56.5132 20.2545 55.7597 19.7936 54.9197 19.6145ZM47.8125 56.2501H32.8125V50.6251H47.8125V56.2501ZM55.9631 23.7666L51.8944 38.9485C51.7484 39.4962 51.4394 39.9866 51.0084 40.3548L46.6369 44.1048C46.1236 44.5447 45.7116 45.0904 45.4291 45.7045C45.1465 46.3187 45.0002 46.9866 45 47.6626V48.7501H35.625V41.6363C35.6274 40.4925 35.9276 39.3691 36.496 38.3765C37.0644 37.384 37.8815 36.5566 38.8669 35.9757L45.27 32.2191C45.5553 32.0553 45.8785 31.969 46.2075 31.9688C46.5555 31.9657 46.8973 32.0608 47.1936 32.2433C47.49 32.4257 47.7289 32.688 47.8828 33.0001C48.0878 33.4533 48.1137 33.9672 47.9553 34.4387C47.7969 34.9102 47.4658 35.3043 47.0288 35.5416L41.7788 38.567C41.672 38.6285 41.5784 38.7105 41.5034 38.8082C41.4283 38.9059 41.3733 39.0175 41.3413 39.1365C41.3094 39.2555 41.3012 39.3796 41.3172 39.5018C41.3332 39.624 41.3731 39.7418 41.4347 39.8485C41.4962 39.9553 41.5782 40.0488 41.6759 40.1239C41.7737 40.1989 41.8852 40.254 42.0042 40.286C42.1232 40.3179 42.2473 40.3261 42.3695 40.3101C42.4917 40.2941 42.6095 40.2541 42.7163 40.1926L47.9663 37.1673C48.7527 36.729 49.3595 36.0275 49.6799 35.1861C50.0004 34.3448 50.014 33.4174 49.7184 32.567L52.2975 22.9576C52.4144 22.4725 52.7094 22.049 53.1239 21.7711C53.5384 21.4933 54.0422 21.3814 54.5353 21.4576C54.9536 21.5466 55.329 21.7755 55.5998 22.1064C55.8705 22.4373 56.0205 22.8506 56.025 23.2782C56.0262 23.4431 56.0054 23.6073 55.9631 23.7666Z" fill="black"/>
<path d="M54.9197 19.6145C53.956 19.4336 52.9597 19.6284 52.1351 20.1589C51.3105 20.6894 50.7202 21.5153 50.4853 22.4673L48.2709 30.7173C47.6906 30.3333 47.0146 30.1188 46.319 30.0979C45.6234 30.077 44.9358 30.2506 44.3334 30.5991L37.9228 34.3595C36.6553 35.1056 35.6039 36.169 34.8722 37.445C34.1406 38.721 33.7538 40.1655 33.75 41.6363V48.7501H31.875C31.6264 48.7501 31.3879 48.8489 31.2121 49.0247C31.0363 49.2005 30.9375 49.4389 30.9375 49.6876V57.1876C30.9375 57.4362 31.0363 57.6747 31.2121 57.8505C31.3879 58.0263 31.6264 58.1251 31.875 58.1251H48.75C48.9986 58.1251 49.2371 58.0263 49.4129 57.8505C49.5887 57.6747 49.6875 57.4362 49.6875 57.1876V49.6876C49.6875 49.4389 49.5887 49.2005 49.4129 49.0247C49.2371 48.8489 48.9986 48.7501 48.75 48.7501H46.875V47.6626C46.8749 47.2569 46.9626 46.856 47.132 46.4873C47.3014 46.1187 47.5486 45.7911 47.8566 45.527L52.2281 41.777C52.9462 41.163 53.4614 40.3458 53.7056 39.4332L57.7734 24.2532C57.8589 23.935 57.9014 23.6068 57.9 23.2773C57.8954 22.4184 57.5973 21.5869 57.0552 20.9207C56.5132 20.2545 55.7597 19.7936 54.9197 19.6145ZM47.8125 56.2501H32.8125V50.6251H47.8125V56.2501ZM55.9631 23.7666L51.8944 38.9485C51.7484 39.4962 51.4394 39.9866 51.0084 40.3548L46.6369 44.1048C46.1236 44.5447 45.7116 45.0904 45.4291 45.7045C45.1465 46.3187 45.0002 46.9866 45 47.6626V48.7501H35.625V41.6363C35.6274 40.4925 35.9276 39.3691 36.496 38.3765C37.0644 37.384 37.8815 36.5566 38.8669 35.9757L45.27 32.2191C45.5553 32.0553 45.8785 31.969 46.2075 31.9688C46.5555 31.9657 46.8973 32.0608 47.1936 32.2433C47.49 32.4257 47.7289 32.688 47.8828 33.0001C48.0878 33.4533 48.1137 33.9672 47.9553 34.4387C47.7969 34.9102 47.4658 35.3043 47.0288 35.5416L41.7788 38.567C41.672 38.6285 41.5784 38.7105 41.5034 38.8082C41.4283 38.9059 41.3733 39.0175 41.3413 39.1365C41.3094 39.2555 41.3012 39.3796 41.3172 39.5018C41.3332 39.624 41.3731 39.7418 41.4347 39.8485C41.4962 39.9553 41.5782 40.0488 41.6759 40.1239C41.7737 40.1989 41.8852 40.254 42.0042 40.286C42.1232 40.3179 42.2473 40.3261 42.3695 40.3101C42.4917 40.2941 42.6095 40.2541 42.7163 40.1926L47.9663 37.1673C48.7527 36.729 49.3595 36.0275 49.6799 35.1861C50.0004 34.3448 50.014 33.4174 49.7184 32.567L52.2975 22.9576C52.4144 22.4725 52.7094 22.049 53.1239 21.7711C53.5384 21.4933 54.0422 21.3814 54.5353 21.4576C54.9536 21.5466 55.329 21.7755 55.5998 22.1064C55.8705 22.4373 56.0205 22.8506 56.025 23.2782C56.0262 23.4431 56.0054 23.6073 55.9631 23.7666Z" fill="url(#paint0_linear_31_11725)"/>
<path d="M28.1255 48.75H26.2505V41.6362C26.2473 40.1656 25.8614 38.7212 25.1305 37.4451C24.3997 36.169 23.3492 35.1052 22.0824 34.3584L15.6642 30.5934C15.0614 30.2458 14.3737 30.0731 13.6782 30.0947C12.9827 30.1162 12.3069 30.3311 11.7267 30.7153L9.51329 22.4653C9.27719 21.5136 8.68635 20.6882 7.86168 20.1579C7.03701 19.6276 6.04085 19.4325 5.07704 19.6125C4.57866 19.7177 4.10691 19.9233 3.69047 20.2166C3.27404 20.51 2.92163 20.885 2.65468 21.3188C2.38774 21.7526 2.21183 22.2362 2.13767 22.7402C2.06351 23.2442 2.09264 23.7579 2.22329 24.2503L6.29204 39.4321C6.53557 40.3449 7.05047 41.1622 7.76861 41.7759L12.1402 45.5259C12.4489 45.7898 12.6969 46.1174 12.867 46.4862C13.0371 46.855 13.1253 47.2563 13.1255 47.6625V48.75H11.2505C11.0018 48.75 10.7634 48.8487 10.5876 49.0245C10.4118 49.2004 10.313 49.4388 10.313 49.6875V57.1875C10.313 57.4361 10.4118 57.6746 10.5876 57.8504C10.7634 58.0262 11.0018 58.125 11.2505 58.125H28.1255C28.3741 58.125 28.6126 58.0262 28.7884 57.8504C28.9642 57.6746 29.063 57.4361 29.063 57.1875V49.6875C29.063 49.4388 28.9642 49.2004 28.7884 49.0245C28.6126 48.8487 28.3741 48.75 28.1255 48.75ZM13.3636 44.1028L8.99204 40.3528C8.56077 39.9849 8.25175 39.4944 8.10611 38.9465L4.03736 23.7656C3.99511 23.6066 3.9743 23.4426 3.97548 23.2781C3.97814 22.8488 4.12752 22.4333 4.39883 22.1006C4.67014 21.7679 5.04706 21.538 5.46704 21.449C5.96012 21.3735 6.46359 21.4857 6.87794 21.7634C7.29229 22.0411 7.58737 22.4642 7.70486 22.949L10.2839 32.5575C9.98808 33.408 10.0016 34.3356 10.3221 35.1772C10.6425 36.0187 11.2495 36.7204 12.0361 37.1587L17.2861 40.184C17.5017 40.3083 17.7578 40.3419 17.9981 40.2774C18.2385 40.2129 18.4433 40.0555 18.5677 39.84C18.692 39.6244 18.7256 39.3683 18.6611 39.1279C18.5965 38.8876 18.4392 38.6827 18.2236 38.5584L12.9736 35.5331C12.5364 35.2958 12.2051 34.9019 12.0465 34.4304C11.8879 33.9589 11.9137 33.4448 12.1186 32.9915C12.2738 32.6817 12.5128 32.4215 12.8085 32.2407C13.1041 32.0599 13.4446 31.9657 13.7911 31.9687C14.1178 31.968 14.4391 32.0527 14.723 32.2143L21.1336 35.9765C22.119 36.5571 22.9362 37.3843 23.5046 38.3767C24.0731 39.3691 24.3732 40.4925 24.3755 41.6362V48.75H15.0005V47.6625C15.0006 46.9862 14.8543 46.3178 14.5718 45.7034C14.2892 45.0889 13.8771 44.5429 13.3636 44.1028ZM27.188 56.25H12.188V50.625H27.188V56.25Z" fill="black"/>
<path d="M28.1255 48.75H26.2505V41.6362C26.2473 40.1656 25.8614 38.7212 25.1305 37.4451C24.3997 36.169 23.3492 35.1052 22.0824 34.3584L15.6642 30.5934C15.0614 30.2458 14.3737 30.0731 13.6782 30.0947C12.9827 30.1162 12.3069 30.3311 11.7267 30.7153L9.51329 22.4653C9.27719 21.5136 8.68635 20.6882 7.86168 20.1579C7.03701 19.6276 6.04085 19.4325 5.07704 19.6125C4.57866 19.7177 4.10691 19.9233 3.69047 20.2166C3.27404 20.51 2.92163 20.885 2.65468 21.3188C2.38774 21.7526 2.21183 22.2362 2.13767 22.7402C2.06351 23.2442 2.09264 23.7579 2.22329 24.2503L6.29204 39.4321C6.53557 40.3449 7.05047 41.1622 7.76861 41.7759L12.1402 45.5259C12.4489 45.7898 12.6969 46.1174 12.867 46.4862C13.0371 46.855 13.1253 47.2563 13.1255 47.6625V48.75H11.2505C11.0018 48.75 10.7634 48.8487 10.5876 49.0245C10.4118 49.2004 10.313 49.4388 10.313 49.6875V57.1875C10.313 57.4361 10.4118 57.6746 10.5876 57.8504C10.7634 58.0262 11.0018 58.125 11.2505 58.125H28.1255C28.3741 58.125 28.6126 58.0262 28.7884 57.8504C28.9642 57.6746 29.063 57.4361 29.063 57.1875V49.6875C29.063 49.4388 28.9642 49.2004 28.7884 49.0245C28.6126 48.8487 28.3741 48.75 28.1255 48.75ZM13.3636 44.1028L8.99204 40.3528C8.56077 39.9849 8.25175 39.4944 8.10611 38.9465L4.03736 23.7656C3.99511 23.6066 3.9743 23.4426 3.97548 23.2781C3.97814 22.8488 4.12752 22.4333 4.39883 22.1006C4.67014 21.7679 5.04706 21.538 5.46704 21.449C5.96012 21.3735 6.46359 21.4857 6.87794 21.7634C7.29229 22.0411 7.58737 22.4642 7.70486 22.949L10.2839 32.5575C9.98808 33.408 10.0016 34.3356 10.3221 35.1772C10.6425 36.0187 11.2495 36.7204 12.0361 37.1587L17.2861 40.184C17.5017 40.3083 17.7578 40.3419 17.9981 40.2774C18.2385 40.2129 18.4433 40.0555 18.5677 39.84C18.692 39.6244 18.7256 39.3683 18.6611 39.1279C18.5965 38.8876 18.4392 38.6827 18.2236 38.5584L12.9736 35.5331C12.5364 35.2958 12.2051 34.9019 12.0465 34.4304C11.8879 33.9589 11.9137 33.4448 12.1186 32.9915C12.2738 32.6817 12.5128 32.4215 12.8085 32.2407C13.1041 32.0599 13.4446 31.9657 13.7911 31.9687C14.1178 31.968 14.4391 32.0527 14.723 32.2143L21.1336 35.9765C22.119 36.5571 22.9362 37.3843 23.5046 38.3767C24.0731 39.3691 24.3732 40.4925 24.3755 41.6362V48.75H15.0005V47.6625C15.0006 46.9862 14.8543 46.3178 14.5718 45.7034C14.2892 45.0889 13.8771 44.5429 13.3636 44.1028ZM27.188 56.25H12.188V50.625H27.188V56.25Z" fill="url(#paint1_linear_31_11725)"/>
<path d="M45 14.625V2.81252C45.0003 2.6478 44.9573 2.4859 44.8751 2.34312C44.793 2.20035 44.6746 2.08174 44.5321 1.99923C44.3895 1.91673 44.2277 1.87325 44.063 1.87317C43.8983 1.87309 43.7364 1.91641 43.5938 1.99877L42.2578 2.7619C40.7847 3.60579 39.1257 4.07216 37.4286 4.11943C35.7315 4.1667 34.0491 3.79342 32.5313 3.03283L30.4116 1.97346C30.2815 1.90844 30.138 1.87458 29.9925 1.87458C29.8471 1.87458 29.7036 1.90844 29.5735 1.97346L27.4688 3.02908C25.9508 3.79099 24.2677 4.16525 22.5699 4.11846C20.8721 4.07168 19.2122 3.6053 17.7385 2.76096L16.4063 1.99877C16.2636 1.91641 16.1018 1.87309 15.9371 1.87317C15.7723 1.87325 15.6105 1.91673 15.468 1.99923C15.3254 2.08174 15.2071 2.20035 15.1249 2.34312C15.0428 2.4859 14.9997 2.6478 15 2.81252V14.625C14.9955 18.8739 16.148 23.0437 18.334 26.6871C20.5199 30.3305 23.6568 33.3098 27.4078 35.3053L29.5585 36.4519C29.6943 36.5244 29.846 36.5624 30 36.5624C30.154 36.5624 30.3057 36.5244 30.4416 36.4519L32.5922 35.3053C36.3434 33.31 39.4804 30.3307 41.6663 26.6873C43.8523 23.0438 45.0048 18.8739 45 14.625ZM30 34.5628L28.291 33.6506C24.8398 31.8149 21.9538 29.074 19.9426 25.7222C17.9314 22.3703 16.8709 18.534 16.875 14.625V4.42783C18.6112 5.40807 20.5617 5.94641 22.5549 5.99545C24.5481 6.0445 26.5227 5.60274 28.305 4.70908L29.9925 3.86533L31.6931 4.71471C33.4761 5.60792 35.4514 6.04893 37.4449 5.99891C39.4385 5.94888 41.3891 5.40935 43.125 4.42783V14.625C43.1294 18.534 42.069 22.3704 40.0577 25.7223C38.0465 29.0742 35.1603 31.8151 31.7091 33.6506L30 34.5628Z" fill="black"/>
<path d="M45 14.625V2.81252C45.0003 2.6478 44.9573 2.4859 44.8751 2.34312C44.793 2.20035 44.6746 2.08174 44.5321 1.99923C44.3895 1.91673 44.2277 1.87325 44.063 1.87317C43.8983 1.87309 43.7364 1.91641 43.5938 1.99877L42.2578 2.7619C40.7847 3.60579 39.1257 4.07216 37.4286 4.11943C35.7315 4.1667 34.0491 3.79342 32.5313 3.03283L30.4116 1.97346C30.2815 1.90844 30.138 1.87458 29.9925 1.87458C29.8471 1.87458 29.7036 1.90844 29.5735 1.97346L27.4688 3.02908C25.9508 3.79099 24.2677 4.16525 22.5699 4.11846C20.8721 4.07168 19.2122 3.6053 17.7385 2.76096L16.4063 1.99877C16.2636 1.91641 16.1018 1.87309 15.9371 1.87317C15.7723 1.87325 15.6105 1.91673 15.468 1.99923C15.3254 2.08174 15.2071 2.20035 15.1249 2.34312C15.0428 2.4859 14.9997 2.6478 15 2.81252V14.625C14.9955 18.8739 16.148 23.0437 18.334 26.6871C20.5199 30.3305 23.6568 33.3098 27.4078 35.3053L29.5585 36.4519C29.6943 36.5244 29.846 36.5624 30 36.5624C30.154 36.5624 30.3057 36.5244 30.4416 36.4519L32.5922 35.3053C36.3434 33.31 39.4804 30.3307 41.6663 26.6873C43.8523 23.0438 45.0048 18.8739 45 14.625ZM30 34.5628L28.291 33.6506C24.8398 31.8149 21.9538 29.074 19.9426 25.7222C17.9314 22.3703 16.8709 18.534 16.875 14.625V4.42783C18.6112 5.40807 20.5617 5.94641 22.5549 5.99545C24.5481 6.0445 26.5227 5.60274 28.305 4.70908L29.9925 3.86533L31.6931 4.71471C33.4761 5.60792 35.4514 6.04893 37.4449 5.99891C39.4385 5.94888 41.3891 5.40935 43.125 4.42783V14.625C43.1294 18.534 42.069 22.3704 40.0577 25.7223C38.0465 29.0742 35.1603 31.8151 31.7091 33.6506L30 34.5628Z" fill="url(#paint2_linear_31_11725)"/>
<path d="M41.25 8.46944C41.2501 8.32949 41.2188 8.1913 41.1585 8.06501C41.0982 7.93872 41.0104 7.82753 40.9015 7.7396C40.7927 7.65167 40.6655 7.58923 40.5293 7.55687C40.3932 7.5245 40.2515 7.52303 40.1147 7.55256C36.9863 8.21945 33.7243 7.80877 30.8588 6.38725L30.4163 6.16694C30.2854 6.101 30.1409 6.06665 29.9944 6.06665C29.8479 6.06665 29.7034 6.101 29.5725 6.16694L29.1394 6.3835C26.2735 7.80697 23.0103 8.21868 19.8806 7.55162C19.7442 7.5229 19.603 7.52497 19.4674 7.55771C19.3319 7.59045 19.2053 7.65302 19.097 7.74086C18.9887 7.8287 18.9013 7.9396 18.8413 8.06548C18.7813 8.19135 18.7501 8.32904 18.75 8.4685V14.6251C18.746 18.1941 19.7142 21.6969 21.5505 24.7572C23.3868 27.8176 26.022 30.3201 29.1731 31.996L29.5584 32.2022C29.6942 32.2746 29.8457 32.3125 29.9995 32.3125C30.1534 32.3125 30.3049 32.2746 30.4406 32.2022L30.8269 31.996C33.978 30.3201 36.6132 27.8176 38.4495 24.7572C40.2859 21.6969 41.254 18.1941 41.25 14.6251V8.46944ZM39.375 14.6251C39.3785 17.8435 38.5084 21.0026 36.8573 23.7654C35.2062 26.5281 32.8362 28.7908 30 30.3122C27.1638 28.7908 24.7938 26.5281 23.1427 23.7654C21.4917 21.0026 20.6215 17.8435 20.625 14.6251V9.58787C23.8268 10.0322 27.0882 9.50064 29.9831 8.06256L30 8.05319L30.0225 8.06537C32.9156 9.50286 36.1752 10.0338 39.375 9.58881V14.6251Z" fill="black"/>
<path d="M41.25 8.46944C41.2501 8.32949 41.2188 8.1913 41.1585 8.06501C41.0982 7.93872 41.0104 7.82753 40.9015 7.7396C40.7927 7.65167 40.6655 7.58923 40.5293 7.55687C40.3932 7.5245 40.2515 7.52303 40.1147 7.55256C36.9863 8.21945 33.7243 7.80877 30.8588 6.38725L30.4163 6.16694C30.2854 6.101 30.1409 6.06665 29.9944 6.06665C29.8479 6.06665 29.7034 6.101 29.5725 6.16694L29.1394 6.3835C26.2735 7.80697 23.0103 8.21868 19.8806 7.55162C19.7442 7.5229 19.603 7.52497 19.4674 7.55771C19.3319 7.59045 19.2053 7.65302 19.097 7.74086C18.9887 7.8287 18.9013 7.9396 18.8413 8.06548C18.7813 8.19135 18.7501 8.32904 18.75 8.4685V14.6251C18.746 18.1941 19.7142 21.6969 21.5505 24.7572C23.3868 27.8176 26.022 30.3201 29.1731 31.996L29.5584 32.2022C29.6942 32.2746 29.8457 32.3125 29.9995 32.3125C30.1534 32.3125 30.3049 32.2746 30.4406 32.2022L30.8269 31.996C33.978 30.3201 36.6132 27.8176 38.4495 24.7572C40.2859 21.6969 41.254 18.1941 41.25 14.6251V8.46944ZM39.375 14.6251C39.3785 17.8435 38.5084 21.0026 36.8573 23.7654C35.2062 26.5281 32.8362 28.7908 30 30.3122C27.1638 28.7908 24.7938 26.5281 23.1427 23.7654C21.4917 21.0026 20.6215 17.8435 20.625 14.6251V9.58787C23.8268 10.0322 27.0882 9.50064 29.9831 8.06256L30 8.05319L30.0225 8.06537C32.9156 9.50286 36.1752 10.0338 39.375 9.58881V14.6251Z" fill="url(#paint3_linear_31_11725)"/>
<path d="M35.3035 13.0584L28.125 20.2369L25.1982 17.31C25.0214 17.1392 24.7845 17.0447 24.5387 17.0469C24.2929 17.049 24.0578 17.1476 23.884 17.3214C23.7101 17.4952 23.6115 17.7304 23.6094 17.9762C23.6073 18.222 23.7018 18.4588 23.8725 18.6356L27.4622 22.2253C27.638 22.4011 27.8765 22.4998 28.125 22.4998C28.3736 22.4998 28.612 22.4011 28.7879 22.2253L36.6291 14.384C36.7186 14.2976 36.7901 14.1941 36.8392 14.0797C36.8883 13.9654 36.9142 13.8423 36.9153 13.7179C36.9164 13.5934 36.8926 13.4699 36.8455 13.3547C36.7984 13.2395 36.7287 13.1348 36.6407 13.0468C36.5527 12.9588 36.448 12.8892 36.3328 12.842C36.2176 12.7949 36.0941 12.7712 35.9697 12.7723C35.8452 12.7733 35.7222 12.7992 35.6078 12.8483C35.4934 12.8975 35.39 12.9689 35.3035 13.0584Z" fill="black"/>
<path d="M35.3035 13.0584L28.125 20.2369L25.1982 17.31C25.0214 17.1392 24.7845 17.0447 24.5387 17.0469C24.2929 17.049 24.0578 17.1476 23.884 17.3214C23.7101 17.4952 23.6115 17.7304 23.6094 17.9762C23.6073 18.222 23.7018 18.4588 23.8725 18.6356L27.4622 22.2253C27.638 22.4011 27.8765 22.4998 28.125 22.4998C28.3736 22.4998 28.612 22.4011 28.7879 22.2253L36.6291 14.384C36.7186 14.2976 36.7901 14.1941 36.8392 14.0797C36.8883 13.9654 36.9142 13.8423 36.9153 13.7179C36.9164 13.5934 36.8926 13.4699 36.8455 13.3547C36.7984 13.2395 36.7287 13.1348 36.6407 13.0468C36.5527 12.9588 36.448 12.8892 36.3328 12.842C36.2176 12.7949 36.0941 12.7712 35.9697 12.7723C35.8452 12.7733 35.7222 12.7992 35.6078 12.8483C35.4934 12.8975 35.39 12.9689 35.3035 13.0584Z" fill="url(#paint4_linear_31_11725)"/>
</g>
<defs>
<filter id="filter0_i_31_11725" x="0" y="0" width="60" height="64" filterUnits="userSpaceOnUse" color-interpolation-filters="sRGB">
<feFlood flood-opacity="0" result="BackgroundImageFix"/>
<feBlend mode="normal" in="SourceGraphic" in2="BackgroundImageFix" result="shape"/>
<feColorMatrix in="SourceAlpha" type="matrix" values="0 0 0 0 0 0 0 0 0 0 0 0 0 0 0 0 0 0 127 0" result="hardAlpha"/>
<feOffset dy="4"/>
<feGaussianBlur stdDeviation="2"/>
<feComposite in2="hardAlpha" operator="arithmetic" k2="-1" k3="1"/>
<feColorMatrix type="matrix" values="0 0 0 0 0 0 0 0 0 0 0 0 0 0 0 0 0 0 0.25 0"/>
<feBlend mode="normal" in2="shape" result="effect1_innerShadow_31_11725"/>
</filter>
<linearGradient id="paint0_linear_31_11725" x1="44.4125" y1="19.5488" x2="44.4125" y2="58.1074" gradientUnits="userSpaceOnUse">
<stop stop-color="#FD8D2A"/>
<stop offset="1" stop-color="#FD2549"/>
</linearGradient>
<linearGradient id="paint1_linear_31_11725" x1="15.574" y1="19.5473" x2="15.574" y2="58.1072" gradientUnits="userSpaceOnUse">
<stop stop-color="#FD8D2A"/>
<stop offset="1" stop-color="#FD2549"/>
</linearGradient>
<linearGradient id="paint2_linear_31_11725" x1="29.993" y1="1.87337" x2="29.993" y2="36.5465" gradientUnits="userSpaceOnUse">
<stop stop-color="#FD8D2A"/>
<stop offset="1" stop-color="#FD2549"/>
</linearGradient>
<linearGradient id="paint3_linear_31_11725" x1="29.9948" y1="6.06681" x2="29.9948" y2="32.3004" gradientUnits="userSpaceOnUse">
<stop stop-color="#FD8D2A"/>
<stop offset="1" stop-color="#FD2549"/>
</linearGradient>
<linearGradient id="paint4_linear_31_11725" x1="30.2592" y1="12.7723" x2="30.2592" y2="22.4953" gradientUnits="userSpaceOnUse">
<stop stop-color="#FD8D2A"/>
<stop offset="1" stop-color="#FD2549"/>
</linearGradient>
</defs>
</svg>
