<svg width="58" height="58" viewBox="0 0 58 58" fill="none" xmlns="http://www.w3.org/2000/svg">
<path d="M1.8125 57.125H37.4375C38.6803 57.1236 39.8717 56.6293 40.7505 55.7505C41.6293 54.8717 42.1236 53.6803 42.125 52.4375V38.4421L57.0487 12.5938C57.173 12.3784 57.2067 12.1225 57.1424 11.8824C57.078 11.6422 56.9209 11.4374 56.7056 11.3131L38.8438 1.00063C38.6284 0.87631 38.3725 0.842622 38.1324 0.90697C37.8922 0.971318 37.6874 1.12843 37.5631 1.34375L34.625 6.43273V1.8125C34.625 1.56386 34.5262 1.3254 34.3504 1.14959C34.1746 0.973772 33.9361 0.875 33.6875 0.875H13.0625C12.8139 0.875 12.5754 0.973772 12.3996 1.14959C12.2238 1.3254 12.125 1.56386 12.125 1.8125V10.25H1.8125C1.56386 10.25 1.3254 10.3488 1.14959 10.5246C0.973772 10.7004 0.875 10.9389 0.875 11.1875V56.1875C0.875 56.4361 0.973772 56.6746 1.14959 56.8504C1.3254 57.0262 1.56386 57.125 1.8125 57.125ZM38.375 29.9375L41.6472 24.27L43.271 25.2075L38.375 33.6875V29.9375ZM38.375 37.4375L45.3636 25.3331C45.4252 25.2265 45.4651 25.1088 45.4812 24.9867C45.4973 24.8646 45.4892 24.7406 45.4573 24.6216C45.4254 24.5027 45.3705 24.3912 45.2955 24.2935C45.2206 24.1959 45.1271 24.1139 45.0205 24.0523L41.7729 22.1773C41.6662 22.1158 41.5485 22.0758 41.4265 22.0598C41.3044 22.0437 41.1804 22.0519 41.0615 22.0837C40.9425 22.1156 40.8311 22.1706 40.7334 22.2455C40.6357 22.3205 40.5538 22.414 40.4922 22.5206L38.375 26.1875V22.4375L38.8684 21.5831C38.9375 21.4645 38.9797 21.3322 38.9919 21.1955C39.004 21.0588 38.9859 20.9211 38.9388 20.7922C38.8917 20.6633 38.8168 20.5464 38.7193 20.4498C38.6218 20.3532 38.5043 20.2792 38.375 20.2332V18.0505L48.3936 23.8347L38.375 41.1875V37.4375ZM40.25 52.4375C40.2492 53.1832 39.9526 53.898 39.4253 54.4253C38.898 54.9526 38.1832 55.2492 37.4375 55.25H37.4349C38.046 54.4398 38.3761 53.4523 38.375 52.4375V44.9375L40.25 41.6899V52.4375ZM49.3311 22.2109L38.375 15.8854V14.9375L43.5898 5.90563L54.957 12.4681L49.3311 22.2109ZM38.7181 3.09313L41.9657 4.96813L37.6517 12.4405C37.3065 11.8932 36.8519 11.4232 36.3165 11.0599C35.7811 10.6965 35.1765 10.4478 34.5404 10.3291L38.7181 3.09313ZM32.75 9.68035L32.4211 10.25H30.875V9.3125C30.875 9.06386 30.7762 8.8254 30.6004 8.64959C30.4246 8.47377 30.1861 8.375 29.9375 8.375C29.6889 8.375 29.4504 8.47377 29.2746 8.64959C29.0988 8.8254 29 9.06386 29 9.3125V10.25H27.125V7.4375C27.125 7.18886 27.0262 6.9504 26.8504 6.77459C26.6746 6.59877 26.4361 6.5 26.1875 6.5C25.9389 6.5 25.7004 6.59877 25.5246 6.77459C25.3488 6.9504 25.25 7.18886 25.25 7.4375V10.25H19.625V2.75H32.75V9.68035ZM14 2.75H17.75V10.25H14V2.75ZM2.75 12.125H33.6875C34.4332 12.1258 35.148 12.4224 35.6753 12.9497C36.2026 13.477 36.4992 14.1918 36.5 14.9375V52.4375C36.4992 53.1832 36.2026 53.898 35.6753 54.4253C35.148 54.9526 34.4332 55.2492 33.6875 55.25H2.75V12.125Z" fill="black"/>
<path d="M1.8125 57.125H37.4375C38.6803 57.1236 39.8717 56.6293 40.7505 55.7505C41.6293 54.8717 42.1236 53.6803 42.125 52.4375V38.4421L57.0487 12.5938C57.173 12.3784 57.2067 12.1225 57.1424 11.8824C57.078 11.6422 56.9209 11.4374 56.7056 11.3131L38.8438 1.00063C38.6284 0.87631 38.3725 0.842622 38.1324 0.90697C37.8922 0.971318 37.6874 1.12843 37.5631 1.34375L34.625 6.43273V1.8125C34.625 1.56386 34.5262 1.3254 34.3504 1.14959C34.1746 0.973772 33.9361 0.875 33.6875 0.875H13.0625C12.8139 0.875 12.5754 0.973772 12.3996 1.14959C12.2238 1.3254 12.125 1.56386 12.125 1.8125V10.25H1.8125C1.56386 10.25 1.3254 10.3488 1.14959 10.5246C0.973772 10.7004 0.875 10.9389 0.875 11.1875V56.1875C0.875 56.4361 0.973772 56.6746 1.14959 56.8504C1.3254 57.0262 1.56386 57.125 1.8125 57.125ZM38.375 29.9375L41.6472 24.27L43.271 25.2075L38.375 33.6875V29.9375ZM38.375 37.4375L45.3636 25.3331C45.4252 25.2265 45.4651 25.1088 45.4812 24.9867C45.4973 24.8646 45.4892 24.7406 45.4573 24.6216C45.4254 24.5027 45.3705 24.3912 45.2955 24.2935C45.2206 24.1959 45.1271 24.1139 45.0205 24.0523L41.7729 22.1773C41.6662 22.1158 41.5485 22.0758 41.4265 22.0598C41.3044 22.0437 41.1804 22.0519 41.0615 22.0837C40.9425 22.1156 40.8311 22.1706 40.7334 22.2455C40.6357 22.3205 40.5538 22.414 40.4922 22.5206L38.375 26.1875V22.4375L38.8684 21.5831C38.9375 21.4645 38.9797 21.3322 38.9919 21.1955C39.004 21.0588 38.9859 20.9211 38.9388 20.7922C38.8917 20.6633 38.8168 20.5464 38.7193 20.4498C38.6218 20.3532 38.5043 20.2792 38.375 20.2332V18.0505L48.3936 23.8347L38.375 41.1875V37.4375ZM40.25 52.4375C40.2492 53.1832 39.9526 53.898 39.4253 54.4253C38.898 54.9526 38.1832 55.2492 37.4375 55.25H37.4349C38.046 54.4398 38.3761 53.4523 38.375 52.4375V44.9375L40.25 41.6899V52.4375ZM49.3311 22.2109L38.375 15.8854V14.9375L43.5898 5.90563L54.957 12.4681L49.3311 22.2109ZM38.7181 3.09313L41.9657 4.96813L37.6517 12.4405C37.3065 11.8932 36.8519 11.4232 36.3165 11.0599C35.7811 10.6965 35.1765 10.4478 34.5404 10.3291L38.7181 3.09313ZM32.75 9.68035L32.4211 10.25H30.875V9.3125C30.875 9.06386 30.7762 8.8254 30.6004 8.64959C30.4246 8.47377 30.1861 8.375 29.9375 8.375C29.6889 8.375 29.4504 8.47377 29.2746 8.64959C29.0988 8.8254 29 9.06386 29 9.3125V10.25H27.125V7.4375C27.125 7.18886 27.0262 6.9504 26.8504 6.77459C26.6746 6.59877 26.4361 6.5 26.1875 6.5C25.9389 6.5 25.7004 6.59877 25.5246 6.77459C25.3488 6.9504 25.25 7.18886 25.25 7.4375V10.25H19.625V2.75H32.75V9.68035ZM14 2.75H17.75V10.25H14V2.75ZM2.75 12.125H33.6875C34.4332 12.1258 35.148 12.4224 35.6753 12.9497C36.2026 13.477 36.4992 14.1918 36.5 14.9375V52.4375C36.4992 53.1832 36.2026 53.898 35.6753 54.4253C35.148 54.9526 34.4332 55.2492 33.6875 55.25H2.75V12.125Z" fill="url(#paint0_linear_31_11740)"/>
<defs>
<linearGradient id="paint0_linear_31_11740" x1="29.0116" y1="0.875332" x2="29.0116" y2="57.0992" gradientUnits="userSpaceOnUse">
<stop stop-color="#FD8D2A"/>
<stop offset="1" stop-color="#FD2549"/>
</linearGradient>
</defs>
</svg>
