<svg width="60" height="60" viewBox="0 0 60 60" fill="none" xmlns="http://www.w3.org/2000/svg">
<g clip-path="url(#clip0_215_3)" filter="url(#filter0_i_215_3)">
<path d="M28 17C27.9966 16.6587 27.9346 16.3203 27.8159 16H32.1841C32.0654 16.3203 32.0034 16.6587 32 17C32 18.6567 33.3433 20 35 20C36.6567 20 38 18.6567 38 17C37.9966 16.6587 37.9346 16.3203 37.8159 16H39C39.5156 16.0024 39.9482 15.6128 40 15.1001L41 5.1001C41.0283 4.81787 40.9355 4.53711 40.7451 4.32715C40.5542 4.11768 40.2837 3.99854 40 4H20.439L19.9902 0.85791C19.9194 0.365723 19.4976 0 19 0H16V2H18.1328L20.0098 15.1421C20.0806 15.6343 20.5024 16 21 16H22.1841C22.0654 16.3203 22.0034 16.6587 22 17C22 18.6567 23.3433 20 25 20C26.6567 20 28 18.6567 28 17ZM36 17C36 17.5522 35.5522 18 35 18C34.4478 18 34 17.5522 34 17C34 16.4478 34.4478 16 35 16C35.5522 16 36 16.4478 36 17ZM20.7251 6H38.8999L38.1001 14H21.8672L20.7251 6ZM25 18C24.4478 18 24 17.5522 24 17C24 16.4478 24.4478 16 25 16C25.5522 16 26 16.4478 26 17C26 17.5522 25.5522 18 25 18Z" fill="black"/>
<path d="M28 17C27.9966 16.6587 27.9346 16.3203 27.8159 16H32.1841C32.0654 16.3203 32.0034 16.6587 32 17C32 18.6567 33.3433 20 35 20C36.6567 20 38 18.6567 38 17C37.9966 16.6587 37.9346 16.3203 37.8159 16H39C39.5156 16.0024 39.9482 15.6128 40 15.1001L41 5.1001C41.0283 4.81787 40.9355 4.53711 40.7451 4.32715C40.5542 4.11768 40.2837 3.99854 40 4H20.439L19.9902 0.85791C19.9194 0.365723 19.4976 0 19 0H16V2H18.1328L20.0098 15.1421C20.0806 15.6343 20.5024 16 21 16H22.1841C22.0654 16.3203 22.0034 16.6587 22 17C22 18.6567 23.3433 20 25 20C26.6567 20 28 18.6567 28 17ZM36 17C36 17.5522 35.5522 18 35 18C34.4478 18 34 17.5522 34 17C34 16.4478 34.4478 16 35 16C35.5522 16 36 16.4478 36 17ZM20.7251 6H38.8999L38.1001 14H21.8672L20.7251 6ZM25 18C24.4478 18 24 17.5522 24 17C24 16.4478 24.4478 16 25 16C25.5522 16 26 16.4478 26 17C26 17.5522 25.5522 18 25 18Z" fill="url(#paint0_linear_215_3)"/>
<path d="M59.2432 28.0298L44 24.2192V21C44 20.4478 43.5522 20 43 20H17C16.4478 20 16 20.4478 16 21V24.2192L0.756836 28.0298C0.312012 28.1416 0 28.5415 0 29V59C0 59.5522 0.447754 60 1 60H59C59.5522 60 60 59.5522 60 59V29C60 28.5415 59.688 28.1416 59.2432 28.0298ZM2 29.7808L16 26.2808V58H2V29.7808ZM18 22H42V58H37V49C37 48.4478 36.5522 48 36 48H24C23.4478 48 23 48.4478 23 49V58H18V22ZM25 50H29V58H25V50ZM31 58V50H35V58H31ZM58 58H44V26.2808L58 29.7808V58Z" fill="black"/>
<path d="M59.2432 28.0298L44 24.2192V21C44 20.4478 43.5522 20 43 20H17C16.4478 20 16 20.4478 16 21V24.2192L0.756836 28.0298C0.312012 28.1416 0 28.5415 0 29V59C0 59.5522 0.447754 60 1 60H59C59.5522 60 60 59.5522 60 59V29C60 28.5415 59.688 28.1416 59.2432 28.0298ZM2 29.7808L16 26.2808V58H2V29.7808ZM18 22H42V58H37V49C37 48.4478 36.5522 48 36 48H24C23.4478 48 23 48.4478 23 49V58H18V22ZM25 50H29V58H25V50ZM31 58V50H35V58H31ZM58 58H44V26.2808L58 29.7808V58Z" fill="url(#paint1_linear_215_3)"/>
<path d="M28 46C28.5522 46 29 45.5522 29 45V41C29 40.4478 28.5522 40 28 40H21C20.4478 40 20 40.4478 20 41V45C20 45.5522 20.4478 46 21 46H28ZM22 42H27V44H22V42Z" fill="black"/>
<path d="M28 46C28.5522 46 29 45.5522 29 45V41C29 40.4478 28.5522 40 28 40H21C20.4478 40 20 40.4478 20 41V45C20 45.5522 20.4478 46 21 46H28ZM22 42H27V44H22V42Z" fill="url(#paint2_linear_215_3)"/>
<path d="M32 46H39C39.5522 46 40 45.5522 40 45V41C40 40.4478 39.5522 40 39 40H32C31.4478 40 31 40.4478 31 41V45C31 45.5522 31.4478 46 32 46ZM33 42H38V44H33V42Z" fill="black"/>
<path d="M32 46H39C39.5522 46 40 45.5522 40 45V41C40 40.4478 39.5522 40 39 40H32C31.4478 40 31 40.4478 31 41V45C31 45.5522 31.4478 46 32 46ZM33 42H38V44H33V42Z" fill="url(#paint3_linear_215_3)"/>
<path d="M21 38H28C28.5522 38 29 37.5522 29 37V33C29 32.4478 28.5522 32 28 32H21C20.4478 32 20 32.4478 20 33V37C20 37.5522 20.4478 38 21 38ZM22 34H27V36H22V34Z" fill="black"/>
<path d="M21 38H28C28.5522 38 29 37.5522 29 37V33C29 32.4478 28.5522 32 28 32H21C20.4478 32 20 32.4478 20 33V37C20 37.5522 20.4478 38 21 38ZM22 34H27V36H22V34Z" fill="url(#paint4_linear_215_3)"/>
<path d="M32 38H39C39.5522 38 40 37.5522 40 37V33C40 32.4478 39.5522 32 39 32H32C31.4478 32 31 32.4478 31 33V37C31 37.5522 31.4478 38 32 38ZM33 34H38V36H33V34Z" fill="black"/>
<path d="M32 38H39C39.5522 38 40 37.5522 40 37V33C40 32.4478 39.5522 32 39 32H32C31.4478 32 31 32.4478 31 33V37C31 37.5522 31.4478 38 32 38ZM33 34H38V36H33V34Z" fill="url(#paint5_linear_215_3)"/>
<path d="M21 30H28C28.5522 30 29 29.5522 29 29V25C29 24.4478 28.5522 24 28 24H21C20.4478 24 20 24.4478 20 25V29C20 29.5522 20.4478 30 21 30ZM22 26H27V28H22V26Z" fill="black"/>
<path d="M21 30H28C28.5522 30 29 29.5522 29 29V25C29 24.4478 28.5522 24 28 24H21C20.4478 24 20 24.4478 20 25V29C20 29.5522 20.4478 30 21 30ZM22 26H27V28H22V26Z" fill="url(#paint6_linear_215_3)"/>
<path d="M32 30H39C39.5522 30 40 29.5522 40 29V25C40 24.4478 39.5522 24 39 24H32C31.4478 24 31 24.4478 31 25V29C31 29.5522 31.4478 30 32 30ZM33 26H38V28H33V26Z" fill="black"/>
<path d="M32 30H39C39.5522 30 40 29.5522 40 29V25C40 24.4478 39.5522 24 39 24H32C31.4478 24 31 24.4478 31 25V29C31 29.5522 31.4478 30 32 30ZM33 26H38V28H33V26Z" fill="url(#paint7_linear_215_3)"/>
<path d="M47 46H55C55.5522 46 56 45.5522 56 45V41C56 40.4478 55.5522 40 55 40H47C46.4478 40 46 40.4478 46 41V45C46 45.5522 46.4478 46 47 46ZM48 42H54V44H48V42Z" fill="black"/>
<path d="M47 46H55C55.5522 46 56 45.5522 56 45V41C56 40.4478 55.5522 40 55 40H47C46.4478 40 46 40.4478 46 41V45C46 45.5522 46.4478 46 47 46ZM48 42H54V44H48V42Z" fill="url(#paint8_linear_215_3)"/>
<path d="M47 38H55C55.5522 38 56 37.5522 56 37V33C56 32.4478 55.5522 32 55 32H47C46.4478 32 46 32.4478 46 33V37C46 37.5522 46.4478 38 47 38ZM48 34H54V36H48V34Z" fill="black"/>
<path d="M47 38H55C55.5522 38 56 37.5522 56 37V33C56 32.4478 55.5522 32 55 32H47C46.4478 32 46 32.4478 46 33V37C46 37.5522 46.4478 38 47 38ZM48 34H54V36H48V34Z" fill="url(#paint9_linear_215_3)"/>
<path d="M47 56H55C55.5522 56 56 55.5522 56 55V49C56 48.4478 55.5522 48 55 48H47C46.4478 48 46 48.4478 46 49V55C46 55.5522 46.4478 56 47 56ZM48 50H54V54H48V50Z" fill="black"/>
<path d="M47 56H55C55.5522 56 56 55.5522 56 55V49C56 48.4478 55.5522 48 55 48H47C46.4478 48 46 48.4478 46 49V55C46 55.5522 46.4478 56 47 56ZM48 50H54V54H48V50Z" fill="url(#paint10_linear_215_3)"/>
<path d="M13 40H5C4.44775 40 4 40.4478 4 41V45C4 45.5522 4.44775 46 5 46H13C13.5522 46 14 45.5522 14 45V41C14 40.4478 13.5522 40 13 40ZM12 44H6V42H12V44Z" fill="black"/>
<path d="M13 40H5C4.44775 40 4 40.4478 4 41V45C4 45.5522 4.44775 46 5 46H13C13.5522 46 14 45.5522 14 45V41C14 40.4478 13.5522 40 13 40ZM12 44H6V42H12V44Z" fill="url(#paint11_linear_215_3)"/>
<path d="M13 32H5C4.44775 32 4 32.4478 4 33V37C4 37.5522 4.44775 38 5 38H13C13.5522 38 14 37.5522 14 37V33C14 32.4478 13.5522 32 13 32ZM12 36H6V34H12V36Z" fill="black"/>
<path d="M13 32H5C4.44775 32 4 32.4478 4 33V37C4 37.5522 4.44775 38 5 38H13C13.5522 38 14 37.5522 14 37V33C14 32.4478 13.5522 32 13 32ZM12 36H6V34H12V36Z" fill="url(#paint12_linear_215_3)"/>
<path d="M13 48H5C4.44775 48 4 48.4478 4 49V55C4 55.5522 4.44775 56 5 56H13C13.5522 56 14 55.5522 14 55V49C14 48.4478 13.5522 48 13 48ZM12 54H6V50H12V54Z" fill="black"/>
<path d="M13 48H5C4.44775 48 4 48.4478 4 49V55C4 55.5522 4.44775 56 5 56H13C13.5522 56 14 55.5522 14 55V49C14 48.4478 13.5522 48 13 48ZM12 54H6V50H12V54Z" fill="url(#paint13_linear_215_3)"/>
</g>
<defs>
<filter id="filter0_i_215_3" x="0" y="0" width="60" height="64" filterUnits="userSpaceOnUse" color-interpolation-filters="sRGB">
<feFlood flood-opacity="0" result="BackgroundImageFix"/>
<feBlend mode="normal" in="SourceGraphic" in2="BackgroundImageFix" result="shape"/>
<feColorMatrix in="SourceAlpha" type="matrix" values="0 0 0 0 0 0 0 0 0 0 0 0 0 0 0 0 0 0 127 0" result="hardAlpha"/>
<feOffset dy="4"/>
<feGaussianBlur stdDeviation="2"/>
<feComposite in2="hardAlpha" operator="arithmetic" k2="-1" k3="1"/>
<feColorMatrix type="matrix" values="0 0 0 0 0 0 0 0 0 0 0 0 0 0 0 0 0 0 0.25 0"/>
<feBlend mode="normal" in2="shape" result="effect1_innerShadow_215_3"/>
</filter>
<linearGradient id="paint0_linear_215_3" x1="28.4967" y1="0.000118041" x2="28.4967" y2="19.9908" gradientUnits="userSpaceOnUse">
<stop stop-color="#FD8D2A"/>
<stop offset="1" stop-color="#FD2549"/>
</linearGradient>
<linearGradient id="paint1_linear_215_3" x1="29.986" y1="20.0002" x2="29.986" y2="59.9816" gradientUnits="userSpaceOnUse">
<stop stop-color="#FD8D2A"/>
<stop offset="1" stop-color="#FD2549"/>
</linearGradient>
<linearGradient id="paint2_linear_215_3" x1="24.4979" y1="40" x2="24.4979" y2="45.9972" gradientUnits="userSpaceOnUse">
<stop stop-color="#FD8D2A"/>
<stop offset="1" stop-color="#FD2549"/>
</linearGradient>
<linearGradient id="paint3_linear_215_3" x1="35.4979" y1="40" x2="35.4979" y2="45.9972" gradientUnits="userSpaceOnUse">
<stop stop-color="#FD8D2A"/>
<stop offset="1" stop-color="#FD2549"/>
</linearGradient>
<linearGradient id="paint4_linear_215_3" x1="24.4979" y1="32" x2="24.4979" y2="37.9972" gradientUnits="userSpaceOnUse">
<stop stop-color="#FD8D2A"/>
<stop offset="1" stop-color="#FD2549"/>
</linearGradient>
<linearGradient id="paint5_linear_215_3" x1="35.4979" y1="32" x2="35.4979" y2="37.9972" gradientUnits="userSpaceOnUse">
<stop stop-color="#FD8D2A"/>
<stop offset="1" stop-color="#FD2549"/>
</linearGradient>
<linearGradient id="paint6_linear_215_3" x1="24.4979" y1="24" x2="24.4979" y2="29.9972" gradientUnits="userSpaceOnUse">
<stop stop-color="#FD8D2A"/>
<stop offset="1" stop-color="#FD2549"/>
</linearGradient>
<linearGradient id="paint7_linear_215_3" x1="35.4979" y1="24" x2="35.4979" y2="29.9972" gradientUnits="userSpaceOnUse">
<stop stop-color="#FD8D2A"/>
<stop offset="1" stop-color="#FD2549"/>
</linearGradient>
<linearGradient id="paint8_linear_215_3" x1="50.9977" y1="40" x2="50.9977" y2="45.9972" gradientUnits="userSpaceOnUse">
<stop stop-color="#FD8D2A"/>
<stop offset="1" stop-color="#FD2549"/>
</linearGradient>
<linearGradient id="paint9_linear_215_3" x1="50.9977" y1="32" x2="50.9977" y2="37.9972" gradientUnits="userSpaceOnUse">
<stop stop-color="#FD8D2A"/>
<stop offset="1" stop-color="#FD2549"/>
</linearGradient>
<linearGradient id="paint10_linear_215_3" x1="50.9977" y1="48" x2="50.9977" y2="55.9963" gradientUnits="userSpaceOnUse">
<stop stop-color="#FD8D2A"/>
<stop offset="1" stop-color="#FD2549"/>
</linearGradient>
<linearGradient id="paint11_linear_215_3" x1="8.99767" y1="40" x2="8.99767" y2="45.9972" gradientUnits="userSpaceOnUse">
<stop stop-color="#FD8D2A"/>
<stop offset="1" stop-color="#FD2549"/>
</linearGradient>
<linearGradient id="paint12_linear_215_3" x1="8.99767" y1="32" x2="8.99767" y2="37.9972" gradientUnits="userSpaceOnUse">
<stop stop-color="#FD8D2A"/>
<stop offset="1" stop-color="#FD2549"/>
</linearGradient>
<linearGradient id="paint13_linear_215_3" x1="8.99767" y1="48" x2="8.99767" y2="55.9963" gradientUnits="userSpaceOnUse">
<stop stop-color="#FD8D2A"/>
<stop offset="1" stop-color="#FD2549"/>
</linearGradient>
<clipPath id="clip0_215_3">
<rect width="60" height="60" fill="white"/>
</clipPath>
</defs>
</svg>
