<svg width="58" height="58" viewBox="0 0 58 58" fill="none" xmlns="http://www.w3.org/2000/svg">
<path d="M10.25 54.3125V53.375C10.9959 53.375 11.7113 53.0787 12.2387 52.5512C12.7662 52.0238 13.0625 51.3084 13.0625 50.5625C13.0625 49.8166 12.7662 49.1012 12.2387 48.5738C11.7113 48.0463 10.9959 47.75 10.25 47.75H8.375C8.12636 47.75 7.8879 47.6512 7.71209 47.4754C7.53627 47.2996 7.4375 47.0611 7.4375 46.8125C7.4375 46.5639 7.53627 46.3254 7.71209 46.1496C7.8879 45.9738 8.12636 45.875 8.375 45.875H10.25C10.4986 45.875 10.7371 45.9738 10.9129 46.1496C11.0887 46.3254 11.1875 46.5639 11.1875 46.8125C11.1875 47.0611 11.2863 47.2996 11.4621 47.4754C11.6379 47.6512 11.8764 47.75 12.125 47.75C12.3736 47.75 12.6121 47.6512 12.7879 47.4754C12.9637 47.2996 13.0625 47.0611 13.0625 46.8125C13.0625 46.0666 12.7662 45.3512 12.2387 44.8238C11.7113 44.2963 10.9959 44 10.25 44V43.0625C10.25 42.8139 10.1512 42.5754 9.97541 42.3996C9.7996 42.2238 9.56114 42.125 9.3125 42.125C9.06386 42.125 8.8254 42.2238 8.64959 42.3996C8.47377 42.5754 8.375 42.8139 8.375 43.0625V44C7.62908 44 6.91371 44.2963 6.38626 44.8238C5.85882 45.3512 5.5625 46.0666 5.5625 46.8125C5.5625 47.5584 5.85882 48.2738 6.38626 48.8012C6.91371 49.3287 7.62908 49.625 8.375 49.625H10.25C10.4986 49.625 10.7371 49.7238 10.9129 49.8996C11.0887 50.0754 11.1875 50.3139 11.1875 50.5625C11.1875 50.8111 11.0887 51.0496 10.9129 51.2254C10.7371 51.4012 10.4986 51.5 10.25 51.5H8.375C8.12636 51.5 7.8879 51.4012 7.71209 51.2254C7.53627 51.0496 7.4375 50.8111 7.4375 50.5625C7.4375 50.3139 7.33873 50.0754 7.16291 49.8996C6.9871 49.7238 6.74864 49.625 6.5 49.625C6.25136 49.625 6.0129 49.7238 5.83709 49.8996C5.66127 50.0754 5.5625 50.3139 5.5625 50.5625C5.5625 51.3084 5.85882 52.0238 6.38626 52.5512C6.91371 53.0787 7.62908 53.375 8.375 53.375V54.3125C8.375 54.5611 8.47377 54.7996 8.64959 54.9754C8.8254 55.1512 9.06386 55.25 9.3125 55.25C9.56114 55.25 9.7996 55.1512 9.97541 54.9754C10.1512 54.7996 10.25 54.5611 10.25 54.3125Z" fill="black"/>
<path d="M10.25 54.3125V53.375C10.9959 53.375 11.7113 53.0787 12.2387 52.5512C12.7662 52.0238 13.0625 51.3084 13.0625 50.5625C13.0625 49.8166 12.7662 49.1012 12.2387 48.5738C11.7113 48.0463 10.9959 47.75 10.25 47.75H8.375C8.12636 47.75 7.8879 47.6512 7.71209 47.4754C7.53627 47.2996 7.4375 47.0611 7.4375 46.8125C7.4375 46.5639 7.53627 46.3254 7.71209 46.1496C7.8879 45.9738 8.12636 45.875 8.375 45.875H10.25C10.4986 45.875 10.7371 45.9738 10.9129 46.1496C11.0887 46.3254 11.1875 46.5639 11.1875 46.8125C11.1875 47.0611 11.2863 47.2996 11.4621 47.4754C11.6379 47.6512 11.8764 47.75 12.125 47.75C12.3736 47.75 12.6121 47.6512 12.7879 47.4754C12.9637 47.2996 13.0625 47.0611 13.0625 46.8125C13.0625 46.0666 12.7662 45.3512 12.2387 44.8238C11.7113 44.2963 10.9959 44 10.25 44V43.0625C10.25 42.8139 10.1512 42.5754 9.97541 42.3996C9.7996 42.2238 9.56114 42.125 9.3125 42.125C9.06386 42.125 8.8254 42.2238 8.64959 42.3996C8.47377 42.5754 8.375 42.8139 8.375 43.0625V44C7.62908 44 6.91371 44.2963 6.38626 44.8238C5.85882 45.3512 5.5625 46.0666 5.5625 46.8125C5.5625 47.5584 5.85882 48.2738 6.38626 48.8012C6.91371 49.3287 7.62908 49.625 8.375 49.625H10.25C10.4986 49.625 10.7371 49.7238 10.9129 49.8996C11.0887 50.0754 11.1875 50.3139 11.1875 50.5625C11.1875 50.8111 11.0887 51.0496 10.9129 51.2254C10.7371 51.4012 10.4986 51.5 10.25 51.5H8.375C8.12636 51.5 7.8879 51.4012 7.71209 51.2254C7.53627 51.0496 7.4375 50.8111 7.4375 50.5625C7.4375 50.3139 7.33873 50.0754 7.16291 49.8996C6.9871 49.7238 6.74864 49.625 6.5 49.625C6.25136 49.625 6.0129 49.7238 5.83709 49.8996C5.66127 50.0754 5.5625 50.3139 5.5625 50.5625C5.5625 51.3084 5.85882 52.0238 6.38626 52.5512C6.91371 53.0787 7.62908 53.375 8.375 53.375V54.3125C8.375 54.5611 8.47377 54.7996 8.64959 54.9754C8.8254 55.1512 9.06386 55.25 9.3125 55.25C9.56114 55.25 9.7996 55.1512 9.97541 54.9754C10.1512 54.7996 10.25 54.5611 10.25 54.3125Z" fill="url(#paint0_linear_215_4)"/>
<path d="M9.3125 40.25C7.64372 40.25 6.01242 40.7449 4.62488 41.672C3.23734 42.5991 2.15588 43.9169 1.51727 45.4586C0.878656 47.0004 0.711565 48.6969 1.03713 50.3336C1.36269 51.9703 2.16628 53.4737 3.34629 54.6537C4.5263 55.8337 6.02972 56.6373 7.66643 56.9629C9.30314 57.2884 10.9996 57.1213 12.5414 56.4827C14.0831 55.8441 15.4009 54.7627 16.328 53.3751C17.2552 51.9876 17.75 50.3563 17.75 48.6875C17.7473 46.4506 16.8575 44.306 15.2757 42.7243C13.694 41.1426 11.5494 40.2527 9.3125 40.25ZM9.3125 55.25C8.01456 55.25 6.74577 54.8651 5.66657 54.144C4.58738 53.4229 3.74624 52.398 3.24954 51.1989C2.75284 49.9997 2.62288 48.6802 2.8761 47.4072C3.12932 46.1342 3.75433 44.9649 4.67212 44.0471C5.5899 43.1293 6.75922 42.5043 8.03222 42.2511C9.30522 41.9979 10.6247 42.1278 11.8239 42.6245C13.023 43.1212 14.0479 43.9624 14.769 45.0416C15.4901 46.1208 15.875 47.3896 15.875 48.6875C15.873 50.4274 15.181 52.0954 13.9507 53.3257C12.7204 54.556 11.0524 55.248 9.3125 55.25Z" fill="black"/>
<path d="M9.3125 40.25C7.64372 40.25 6.01242 40.7449 4.62488 41.672C3.23734 42.5991 2.15588 43.9169 1.51727 45.4586C0.878656 47.0004 0.711565 48.6969 1.03713 50.3336C1.36269 51.9703 2.16628 53.4737 3.34629 54.6537C4.5263 55.8337 6.02972 56.6373 7.66643 56.9629C9.30314 57.2884 10.9996 57.1213 12.5414 56.4827C14.0831 55.8441 15.4009 54.7627 16.328 53.3751C17.2552 51.9876 17.75 50.3563 17.75 48.6875C17.7473 46.4506 16.8575 44.306 15.2757 42.7243C13.694 41.1426 11.5494 40.2527 9.3125 40.25ZM9.3125 55.25C8.01456 55.25 6.74577 54.8651 5.66657 54.144C4.58738 53.4229 3.74624 52.398 3.24954 51.1989C2.75284 49.9997 2.62288 48.6802 2.8761 47.4072C3.12932 46.1342 3.75433 44.9649 4.67212 44.0471C5.5899 43.1293 6.75922 42.5043 8.03222 42.2511C9.30522 41.9979 10.6247 42.1278 11.8239 42.6245C13.023 43.1212 14.0479 43.9624 14.769 45.0416C15.4901 46.1208 15.875 47.3896 15.875 48.6875C15.873 50.4274 15.181 52.0954 13.9507 53.3257C12.7204 54.556 11.0524 55.248 9.3125 55.25Z" fill="url(#paint1_linear_215_4)"/>
<path d="M29.9375 54.3125V53.375C30.6834 53.375 31.3988 53.0787 31.9262 52.5512C32.4537 52.0238 32.75 51.3084 32.75 50.5625C32.75 49.8166 32.4537 49.1012 31.9262 48.5738C31.3988 48.0463 30.6834 47.75 29.9375 47.75H28.0625C27.8139 47.75 27.5754 47.6512 27.3996 47.4754C27.2238 47.2996 27.125 47.0611 27.125 46.8125C27.125 46.5639 27.2238 46.3254 27.3996 46.1496C27.5754 45.9738 27.8139 45.875 28.0625 45.875H29.9375C30.1861 45.875 30.4246 45.9738 30.6004 46.1496C30.7762 46.3254 30.875 46.5639 30.875 46.8125C30.875 47.0611 30.9738 47.2996 31.1496 47.4754C31.3254 47.6512 31.5639 47.75 31.8125 47.75C32.0611 47.75 32.2996 47.6512 32.4754 47.4754C32.6512 47.2996 32.75 47.0611 32.75 46.8125C32.75 46.0666 32.4537 45.3512 31.9262 44.8238C31.3988 44.2963 30.6834 44 29.9375 44V43.0625C29.9375 42.8139 29.8387 42.5754 29.6629 42.3996C29.4871 42.2238 29.2486 42.125 29 42.125C28.7514 42.125 28.5129 42.2238 28.3371 42.3996C28.1613 42.5754 28.0625 42.8139 28.0625 43.0625V44C27.3166 44 26.6012 44.2963 26.0738 44.8238C25.5463 45.3512 25.25 46.0666 25.25 46.8125C25.25 47.5584 25.5463 48.2738 26.0738 48.8012C26.6012 49.3287 27.3166 49.625 28.0625 49.625H29.9375C30.1861 49.625 30.4246 49.7238 30.6004 49.8996C30.7762 50.0754 30.875 50.3139 30.875 50.5625C30.875 50.8111 30.7762 51.0496 30.6004 51.2254C30.4246 51.4012 30.1861 51.5 29.9375 51.5H28.0625C27.8139 51.5 27.5754 51.4012 27.3996 51.2254C27.2238 51.0496 27.125 50.8111 27.125 50.5625C27.125 50.3139 27.0262 50.0754 26.8504 49.8996C26.6746 49.7238 26.4361 49.625 26.1875 49.625C25.9389 49.625 25.7004 49.7238 25.5246 49.8996C25.3488 50.0754 25.25 50.3139 25.25 50.5625C25.25 51.3084 25.5463 52.0238 26.0738 52.5512C26.6012 53.0787 27.3166 53.375 28.0625 53.375V54.3125C28.0625 54.5611 28.1613 54.7996 28.3371 54.9754C28.5129 55.1512 28.7514 55.25 29 55.25C29.2486 55.25 29.4871 55.1512 29.6629 54.9754C29.8387 54.7996 29.9375 54.5611 29.9375 54.3125Z" fill="black"/>
<path d="M29.9375 54.3125V53.375C30.6834 53.375 31.3988 53.0787 31.9262 52.5512C32.4537 52.0238 32.75 51.3084 32.75 50.5625C32.75 49.8166 32.4537 49.1012 31.9262 48.5738C31.3988 48.0463 30.6834 47.75 29.9375 47.75H28.0625C27.8139 47.75 27.5754 47.6512 27.3996 47.4754C27.2238 47.2996 27.125 47.0611 27.125 46.8125C27.125 46.5639 27.2238 46.3254 27.3996 46.1496C27.5754 45.9738 27.8139 45.875 28.0625 45.875H29.9375C30.1861 45.875 30.4246 45.9738 30.6004 46.1496C30.7762 46.3254 30.875 46.5639 30.875 46.8125C30.875 47.0611 30.9738 47.2996 31.1496 47.4754C31.3254 47.6512 31.5639 47.75 31.8125 47.75C32.0611 47.75 32.2996 47.6512 32.4754 47.4754C32.6512 47.2996 32.75 47.0611 32.75 46.8125C32.75 46.0666 32.4537 45.3512 31.9262 44.8238C31.3988 44.2963 30.6834 44 29.9375 44V43.0625C29.9375 42.8139 29.8387 42.5754 29.6629 42.3996C29.4871 42.2238 29.2486 42.125 29 42.125C28.7514 42.125 28.5129 42.2238 28.3371 42.3996C28.1613 42.5754 28.0625 42.8139 28.0625 43.0625V44C27.3166 44 26.6012 44.2963 26.0738 44.8238C25.5463 45.3512 25.25 46.0666 25.25 46.8125C25.25 47.5584 25.5463 48.2738 26.0738 48.8012C26.6012 49.3287 27.3166 49.625 28.0625 49.625H29.9375C30.1861 49.625 30.4246 49.7238 30.6004 49.8996C30.7762 50.0754 30.875 50.3139 30.875 50.5625C30.875 50.8111 30.7762 51.0496 30.6004 51.2254C30.4246 51.4012 30.1861 51.5 29.9375 51.5H28.0625C27.8139 51.5 27.5754 51.4012 27.3996 51.2254C27.2238 51.0496 27.125 50.8111 27.125 50.5625C27.125 50.3139 27.0262 50.0754 26.8504 49.8996C26.6746 49.7238 26.4361 49.625 26.1875 49.625C25.9389 49.625 25.7004 49.7238 25.5246 49.8996C25.3488 50.0754 25.25 50.3139 25.25 50.5625C25.25 51.3084 25.5463 52.0238 26.0738 52.5512C26.6012 53.0787 27.3166 53.375 28.0625 53.375V54.3125C28.0625 54.5611 28.1613 54.7996 28.3371 54.9754C28.5129 55.1512 28.7514 55.25 29 55.25C29.2486 55.25 29.4871 55.1512 29.6629 54.9754C29.8387 54.7996 29.9375 54.5611 29.9375 54.3125Z" fill="url(#paint2_linear_215_4)"/>
<path d="M29 40.25C27.3312 40.25 25.6999 40.7449 24.3124 41.672C22.9248 42.5991 21.8434 43.9169 21.2048 45.4586C20.5662 47.0004 20.3991 48.6969 20.7246 50.3336C21.0502 51.9703 21.8538 53.4737 23.0338 54.6537C24.2138 55.8337 25.7172 56.6373 27.3539 56.9629C28.9906 57.2884 30.6871 57.1213 32.2289 56.4827C33.7706 55.8441 35.0884 54.7627 36.0155 53.3751C36.9427 51.9876 37.4375 50.3563 37.4375 48.6875C37.4348 46.4506 36.5449 44.306 34.9632 42.7243C33.3815 41.1426 31.2369 40.2527 29 40.25ZM29 55.25C27.7021 55.25 26.4333 54.8651 25.3541 54.144C24.2749 53.4229 23.4337 52.398 22.937 51.1989C22.4403 49.9997 22.3104 48.6802 22.5636 47.4072C22.8168 46.1342 23.4418 44.9649 24.3596 44.0471C25.2774 43.1293 26.4467 42.5043 27.7197 42.2511C28.9927 41.9979 30.3122 42.1278 31.5114 42.6245C32.7105 43.1212 33.7354 43.9624 34.4565 45.0416C35.1776 46.1208 35.5625 47.3896 35.5625 48.6875C35.5605 50.4274 34.8685 52.0954 33.6382 53.3257C32.4079 54.556 30.7399 55.248 29 55.25Z" fill="black"/>
<path d="M29 40.25C27.3312 40.25 25.6999 40.7449 24.3124 41.672C22.9248 42.5991 21.8434 43.9169 21.2048 45.4586C20.5662 47.0004 20.3991 48.6969 20.7246 50.3336C21.0502 51.9703 21.8538 53.4737 23.0338 54.6537C24.2138 55.8337 25.7172 56.6373 27.3539 56.9629C28.9906 57.2884 30.6871 57.1213 32.2289 56.4827C33.7706 55.8441 35.0884 54.7627 36.0155 53.3751C36.9427 51.9876 37.4375 50.3563 37.4375 48.6875C37.4348 46.4506 36.5449 44.306 34.9632 42.7243C33.3815 41.1426 31.2369 40.2527 29 40.25ZM29 55.25C27.7021 55.25 26.4333 54.8651 25.3541 54.144C24.2749 53.4229 23.4337 52.398 22.937 51.1989C22.4403 49.9997 22.3104 48.6802 22.5636 47.4072C22.8168 46.1342 23.4418 44.9649 24.3596 44.0471C25.2774 43.1293 26.4467 42.5043 27.7197 42.2511C28.9927 41.9979 30.3122 42.1278 31.5114 42.6245C32.7105 43.1212 33.7354 43.9624 34.4565 45.0416C35.1776 46.1208 35.5625 47.3896 35.5625 48.6875C35.5605 50.4274 34.8685 52.0954 33.6382 53.3257C32.4079 54.556 30.7399 55.248 29 55.25Z" fill="url(#paint3_linear_215_4)"/>
<path d="M49.625 54.3125V53.375C50.3709 53.375 51.0863 53.0787 51.6137 52.5512C52.1412 52.0238 52.4375 51.3084 52.4375 50.5625C52.4375 49.8166 52.1412 49.1012 51.6137 48.5738C51.0863 48.0463 50.3709 47.75 49.625 47.75H47.75C47.5014 47.75 47.2629 47.6512 47.0871 47.4754C46.9113 47.2996 46.8125 47.0611 46.8125 46.8125C46.8125 46.5639 46.9113 46.3254 47.0871 46.1496C47.2629 45.9738 47.5014 45.875 47.75 45.875H49.625C49.8736 45.875 50.1121 45.9738 50.2879 46.1496C50.4637 46.3254 50.5625 46.5639 50.5625 46.8125C50.5625 47.0611 50.6613 47.2996 50.8371 47.4754C51.0129 47.6512 51.2514 47.75 51.5 47.75C51.7486 47.75 51.9871 47.6512 52.1629 47.4754C52.3387 47.2996 52.4375 47.0611 52.4375 46.8125C52.4375 46.0666 52.1412 45.3512 51.6137 44.8238C51.0863 44.2963 50.3709 44 49.625 44V43.0625C49.625 42.8139 49.5262 42.5754 49.3504 42.3996C49.1746 42.2238 48.9361 42.125 48.6875 42.125C48.4389 42.125 48.2004 42.2238 48.0246 42.3996C47.8488 42.5754 47.75 42.8139 47.75 43.0625V44C47.0041 44 46.2887 44.2963 45.7613 44.8238C45.2338 45.3512 44.9375 46.0666 44.9375 46.8125C44.9375 47.5584 45.2338 48.2738 45.7613 48.8012C46.2887 49.3287 47.0041 49.625 47.75 49.625H49.625C49.8736 49.625 50.1121 49.7238 50.2879 49.8996C50.4637 50.0754 50.5625 50.3139 50.5625 50.5625C50.5625 50.8111 50.4637 51.0496 50.2879 51.2254C50.1121 51.4012 49.8736 51.5 49.625 51.5H47.75C47.5014 51.5 47.2629 51.4012 47.0871 51.2254C46.9113 51.0496 46.8125 50.8111 46.8125 50.5625C46.8125 50.3139 46.7137 50.0754 46.5379 49.8996C46.3621 49.7238 46.1236 49.625 45.875 49.625C45.6264 49.625 45.3879 49.7238 45.2121 49.8996C45.0363 50.0754 44.9375 50.3139 44.9375 50.5625C44.9375 51.3084 45.2338 52.0238 45.7613 52.5512C46.2887 53.0787 47.0041 53.375 47.75 53.375V54.3125C47.75 54.5611 47.8488 54.7996 48.0246 54.9754C48.2004 55.1512 48.4389 55.25 48.6875 55.25C48.9361 55.25 49.1746 55.1512 49.3504 54.9754C49.5262 54.7996 49.625 54.5611 49.625 54.3125Z" fill="black"/>
<path d="M49.625 54.3125V53.375C50.3709 53.375 51.0863 53.0787 51.6137 52.5512C52.1412 52.0238 52.4375 51.3084 52.4375 50.5625C52.4375 49.8166 52.1412 49.1012 51.6137 48.5738C51.0863 48.0463 50.3709 47.75 49.625 47.75H47.75C47.5014 47.75 47.2629 47.6512 47.0871 47.4754C46.9113 47.2996 46.8125 47.0611 46.8125 46.8125C46.8125 46.5639 46.9113 46.3254 47.0871 46.1496C47.2629 45.9738 47.5014 45.875 47.75 45.875H49.625C49.8736 45.875 50.1121 45.9738 50.2879 46.1496C50.4637 46.3254 50.5625 46.5639 50.5625 46.8125C50.5625 47.0611 50.6613 47.2996 50.8371 47.4754C51.0129 47.6512 51.2514 47.75 51.5 47.75C51.7486 47.75 51.9871 47.6512 52.1629 47.4754C52.3387 47.2996 52.4375 47.0611 52.4375 46.8125C52.4375 46.0666 52.1412 45.3512 51.6137 44.8238C51.0863 44.2963 50.3709 44 49.625 44V43.0625C49.625 42.8139 49.5262 42.5754 49.3504 42.3996C49.1746 42.2238 48.9361 42.125 48.6875 42.125C48.4389 42.125 48.2004 42.2238 48.0246 42.3996C47.8488 42.5754 47.75 42.8139 47.75 43.0625V44C47.0041 44 46.2887 44.2963 45.7613 44.8238C45.2338 45.3512 44.9375 46.0666 44.9375 46.8125C44.9375 47.5584 45.2338 48.2738 45.7613 48.8012C46.2887 49.3287 47.0041 49.625 47.75 49.625H49.625C49.8736 49.625 50.1121 49.7238 50.2879 49.8996C50.4637 50.0754 50.5625 50.3139 50.5625 50.5625C50.5625 50.8111 50.4637 51.0496 50.2879 51.2254C50.1121 51.4012 49.8736 51.5 49.625 51.5H47.75C47.5014 51.5 47.2629 51.4012 47.0871 51.2254C46.9113 51.0496 46.8125 50.8111 46.8125 50.5625C46.8125 50.3139 46.7137 50.0754 46.5379 49.8996C46.3621 49.7238 46.1236 49.625 45.875 49.625C45.6264 49.625 45.3879 49.7238 45.2121 49.8996C45.0363 50.0754 44.9375 50.3139 44.9375 50.5625C44.9375 51.3084 45.2338 52.0238 45.7613 52.5512C46.2887 53.0787 47.0041 53.375 47.75 53.375V54.3125C47.75 54.5611 47.8488 54.7996 48.0246 54.9754C48.2004 55.1512 48.4389 55.25 48.6875 55.25C48.9361 55.25 49.1746 55.1512 49.3504 54.9754C49.5262 54.7996 49.625 54.5611 49.625 54.3125Z" fill="url(#paint4_linear_215_4)"/>
<path d="M48.6875 40.25C47.0187 40.25 45.3874 40.7449 43.9999 41.672C42.6123 42.5991 41.5309 43.9169 40.8923 45.4586C40.2537 47.0004 40.0866 48.6969 40.4121 50.3336C40.7377 51.9703 41.5413 53.4737 42.7213 54.6537C43.9013 55.8337 45.4047 56.6373 47.0414 56.9629C48.6781 57.2884 50.3746 57.1213 51.9164 56.4827C53.4581 55.8441 54.7759 54.7627 55.703 53.3751C56.6302 51.9876 57.125 50.3563 57.125 48.6875C57.1225 46.4505 56.2328 44.3058 54.651 42.724C53.0692 41.1422 50.9245 40.2525 48.6875 40.25ZM48.6875 55.25C47.3896 55.25 46.1208 54.8651 45.0416 54.144C43.9624 53.4229 43.1212 52.398 42.6245 51.1989C42.1278 49.9997 41.9979 48.6802 42.2511 47.4072C42.5043 46.1342 43.1293 44.9649 44.0471 44.0471C44.9649 43.1293 46.1342 42.5043 47.4072 42.2511C48.6802 41.9979 49.9997 42.1278 51.1989 42.6245C52.398 43.1212 53.4229 43.9624 54.144 45.0416C54.8651 46.1208 55.25 47.3896 55.25 48.6875C55.248 50.4274 54.556 52.0954 53.3257 53.3257C52.0954 54.556 50.4274 55.248 48.6875 55.25Z" fill="black"/>
<path d="M48.6875 40.25C47.0187 40.25 45.3874 40.7449 43.9999 41.672C42.6123 42.5991 41.5309 43.9169 40.8923 45.4586C40.2537 47.0004 40.0866 48.6969 40.4121 50.3336C40.7377 51.9703 41.5413 53.4737 42.7213 54.6537C43.9013 55.8337 45.4047 56.6373 47.0414 56.9629C48.6781 57.2884 50.3746 57.1213 51.9164 56.4827C53.4581 55.8441 54.7759 54.7627 55.703 53.3751C56.6302 51.9876 57.125 50.3563 57.125 48.6875C57.1225 46.4505 56.2328 44.3058 54.651 42.724C53.0692 41.1422 50.9245 40.2525 48.6875 40.25ZM48.6875 55.25C47.3896 55.25 46.1208 54.8651 45.0416 54.144C43.9624 53.4229 43.1212 52.398 42.6245 51.1989C42.1278 49.9997 41.9979 48.6802 42.2511 47.4072C42.5043 46.1342 43.1293 44.9649 44.0471 44.0471C44.9649 43.1293 46.1342 42.5043 47.4072 42.2511C48.6802 41.9979 49.9997 42.1278 51.1989 42.6245C52.398 43.1212 53.4229 43.9624 54.144 45.0416C54.8651 46.1208 55.25 47.3896 55.25 48.6875C55.248 50.4274 54.556 52.0954 53.3257 53.3257C52.0954 54.556 50.4274 55.248 48.6875 55.25Z" fill="url(#paint5_linear_215_4)"/>
<path d="M33.6875 12.125H24.3125C22.5726 12.127 20.9046 12.819 19.6743 14.0493C18.444 15.2796 17.752 16.9476 17.75 18.6875V28.0625C17.75 28.3111 17.8488 28.5496 18.0246 28.7254C18.2004 28.9012 18.4389 29 18.6875 29H39.3125C39.5611 29 39.7996 28.9012 39.9754 28.7254C40.1512 28.5496 40.25 28.3111 40.25 28.0625V18.6875C40.248 16.9476 39.556 15.2796 38.3257 14.0493C37.0954 12.819 35.4274 12.127 33.6875 12.125ZM19.625 27.125V18.6875C19.6273 17.8619 19.849 17.0518 20.2674 16.3402C20.6858 15.6285 21.286 15.0409 22.0063 14.6375L26.7031 27.125H19.625ZM26.4125 21.0312L23.7875 14.0562C23.9614 14.0282 24.1366 14.0095 24.3125 14H25.6063L27.0875 16.9625L26.4125 21.0312ZM29.2906 27.125H28.7094L27.7344 24.5281L28.8594 17.75H29.1406L30.275 24.5094L29.2906 27.125ZM29.3563 15.875H28.6438L27.7063 14H30.2938L29.3563 15.875ZM32.3938 14H33.6875C33.8634 14.0095 34.0386 14.0282 34.2125 14.0562L31.5875 21.0125L30.9125 16.9625L32.3938 14ZM38.375 27.125H31.2969L35.9938 14.6375C36.714 15.0409 37.3142 15.6285 37.7326 16.3402C38.151 17.0518 38.3727 17.8619 38.375 18.6875V27.125Z" fill="black"/>
<path d="M33.6875 12.125H24.3125C22.5726 12.127 20.9046 12.819 19.6743 14.0493C18.444 15.2796 17.752 16.9476 17.75 18.6875V28.0625C17.75 28.3111 17.8488 28.5496 18.0246 28.7254C18.2004 28.9012 18.4389 29 18.6875 29H39.3125C39.5611 29 39.7996 28.9012 39.9754 28.7254C40.1512 28.5496 40.25 28.3111 40.25 28.0625V18.6875C40.248 16.9476 39.556 15.2796 38.3257 14.0493C37.0954 12.819 35.4274 12.127 33.6875 12.125ZM19.625 27.125V18.6875C19.6273 17.8619 19.849 17.0518 20.2674 16.3402C20.6858 15.6285 21.286 15.0409 22.0063 14.6375L26.7031 27.125H19.625ZM26.4125 21.0312L23.7875 14.0562C23.9614 14.0282 24.1366 14.0095 24.3125 14H25.6063L27.0875 16.9625L26.4125 21.0312ZM29.2906 27.125H28.7094L27.7344 24.5281L28.8594 17.75H29.1406L30.275 24.5094L29.2906 27.125ZM29.3563 15.875H28.6438L27.7063 14H30.2938L29.3563 15.875ZM32.3938 14H33.6875C33.8634 14.0095 34.0386 14.0282 34.2125 14.0562L31.5875 21.0125L30.9125 16.9625L32.3938 14ZM38.375 27.125H31.2969L35.9938 14.6375C36.714 15.0409 37.3142 15.6285 37.7326 16.3402C38.151 17.0518 38.3727 17.8619 38.375 18.6875V27.125Z" fill="url(#paint6_linear_215_4)"/>
<path d="M34.625 6.5C34.625 5.38748 34.2951 4.29995 33.677 3.37492C33.0589 2.44989 32.1804 1.72892 31.1526 1.30318C30.1248 0.877437 28.9938 0.766043 27.9026 0.983085C26.8115 1.20013 25.8092 1.73586 25.0225 2.52253C24.2359 3.3092 23.7001 4.31148 23.4831 5.40262C23.266 6.49376 23.3774 7.62476 23.8032 8.6526C24.2289 9.68043 24.9499 10.5589 25.8749 11.177C26.7999 11.7951 27.8875 12.125 29 12.125C30.4914 12.1235 31.9213 11.5304 32.9758 10.4758C34.0304 9.42127 34.6235 7.99139 34.625 6.5ZM29 10.25C28.2583 10.25 27.5333 10.0301 26.9166 9.61801C26.2999 9.20596 25.8193 8.62029 25.5355 7.93507C25.2516 7.24984 25.1774 6.49584 25.3221 5.76841C25.4668 5.04099 25.8239 4.3728 26.3484 3.84835C26.8728 3.32391 27.541 2.96675 28.2684 2.82206C28.9958 2.67736 29.7498 2.75163 30.4351 3.03545C31.1203 3.31928 31.706 3.79993 32.118 4.41661C32.5301 5.0333 32.75 5.75832 32.75 6.5C32.75 7.49457 32.3549 8.44839 31.6517 9.15165C30.9484 9.85492 29.9946 10.25 29 10.25Z" fill="black"/>
<path d="M34.625 6.5C34.625 5.38748 34.2951 4.29995 33.677 3.37492C33.0589 2.44989 32.1804 1.72892 31.1526 1.30318C30.1248 0.877437 28.9938 0.766043 27.9026 0.983085C26.8115 1.20013 25.8092 1.73586 25.0225 2.52253C24.2359 3.3092 23.7001 4.31148 23.4831 5.40262C23.266 6.49376 23.3774 7.62476 23.8032 8.6526C24.2289 9.68043 24.9499 10.5589 25.8749 11.177C26.7999 11.7951 27.8875 12.125 29 12.125C30.4914 12.1235 31.9213 11.5304 32.9758 10.4758C34.0304 9.42127 34.6235 7.99139 34.625 6.5ZM29 10.25C28.2583 10.25 27.5333 10.0301 26.9166 9.61801C26.2999 9.20596 25.8193 8.62029 25.5355 7.93507C25.2516 7.24984 25.1774 6.49584 25.3221 5.76841C25.4668 5.04099 25.8239 4.3728 26.3484 3.84835C26.8728 3.32391 27.541 2.96675 28.2684 2.82206C28.9958 2.67736 29.7498 2.75163 30.4351 3.03545C31.1203 3.31928 31.706 3.79993 32.118 4.41661C32.5301 5.0333 32.75 5.75832 32.75 6.5C32.75 7.49457 32.3549 8.44839 31.6517 9.15165C30.9484 9.85492 29.9946 10.25 29 10.25Z" fill="url(#paint7_linear_215_4)"/>
<path d="M9.3125 38.375C9.56114 38.375 9.7996 38.2762 9.97541 38.1004C10.1512 37.9246 10.25 37.6861 10.25 37.4375V35.5625H28.0625V37.4375C28.0625 37.6861 28.1613 37.9246 28.3371 38.1004C28.5129 38.2762 28.7514 38.375 29 38.375C29.2486 38.375 29.4871 38.2762 29.6629 38.1004C29.8387 37.9246 29.9375 37.6861 29.9375 37.4375V35.5625H47.75V37.4375C47.75 37.6861 47.8488 37.9246 48.0246 38.1004C48.2004 38.2762 48.4389 38.375 48.6875 38.375C48.9361 38.375 49.1746 38.2762 49.3504 38.1004C49.5262 37.9246 49.625 37.6861 49.625 37.4375V34.625C49.625 34.3764 49.5262 34.1379 49.3504 33.9621C49.1746 33.7863 48.9361 33.6875 48.6875 33.6875H29.9375V31.8125C29.9375 31.5639 29.8387 31.3254 29.6629 31.1496C29.4871 30.9738 29.2486 30.875 29 30.875C28.7514 30.875 28.5129 30.9738 28.3371 31.1496C28.1613 31.3254 28.0625 31.5639 28.0625 31.8125V33.6875H9.3125C9.06386 33.6875 8.8254 33.7863 8.64959 33.9621C8.47377 34.1379 8.375 34.3764 8.375 34.625V37.4375C8.375 37.6861 8.47377 37.9246 8.64959 38.1004C8.8254 38.2762 9.06386 38.375 9.3125 38.375Z" fill="black"/>
<path d="M9.3125 38.375C9.56114 38.375 9.7996 38.2762 9.97541 38.1004C10.1512 37.9246 10.25 37.6861 10.25 37.4375V35.5625H28.0625V37.4375C28.0625 37.6861 28.1613 37.9246 28.3371 38.1004C28.5129 38.2762 28.7514 38.375 29 38.375C29.2486 38.375 29.4871 38.2762 29.6629 38.1004C29.8387 37.9246 29.9375 37.6861 29.9375 37.4375V35.5625H47.75V37.4375C47.75 37.6861 47.8488 37.9246 48.0246 38.1004C48.2004 38.2762 48.4389 38.375 48.6875 38.375C48.9361 38.375 49.1746 38.2762 49.3504 38.1004C49.5262 37.9246 49.625 37.6861 49.625 37.4375V34.625C49.625 34.3764 49.5262 34.1379 49.3504 33.9621C49.1746 33.7863 48.9361 33.6875 48.6875 33.6875H29.9375V31.8125C29.9375 31.5639 29.8387 31.3254 29.6629 31.1496C29.4871 30.9738 29.2486 30.875 29 30.875C28.7514 30.875 28.5129 30.9738 28.3371 31.1496C28.1613 31.3254 28.0625 31.5639 28.0625 31.8125V33.6875H9.3125C9.06386 33.6875 8.8254 33.7863 8.64959 33.9621C8.47377 34.1379 8.375 34.3764 8.375 34.625V37.4375C8.375 37.6861 8.47377 37.9246 8.64959 38.1004C8.8254 38.2762 9.06386 38.375 9.3125 38.375Z" fill="url(#paint8_linear_215_4)"/>
<defs>
<linearGradient id="paint0_linear_215_4" x1="9.31076" y1="42.1251" x2="9.31076" y2="55.244" gradientUnits="userSpaceOnUse">
<stop stop-color="#FD8D2A"/>
<stop offset="1" stop-color="#FD2549"/>
</linearGradient>
<linearGradient id="paint1_linear_215_4" x1="9.30858" y1="40.2501" x2="9.30858" y2="57.1173" gradientUnits="userSpaceOnUse">
<stop stop-color="#FD8D2A"/>
<stop offset="1" stop-color="#FD2549"/>
</linearGradient>
<linearGradient id="paint2_linear_215_4" x1="28.9983" y1="42.1251" x2="28.9983" y2="55.244" gradientUnits="userSpaceOnUse">
<stop stop-color="#FD8D2A"/>
<stop offset="1" stop-color="#FD2549"/>
</linearGradient>
<linearGradient id="paint3_linear_215_4" x1="28.9961" y1="40.2501" x2="28.9961" y2="57.1173" gradientUnits="userSpaceOnUse">
<stop stop-color="#FD8D2A"/>
<stop offset="1" stop-color="#FD2549"/>
</linearGradient>
<linearGradient id="paint4_linear_215_4" x1="48.6858" y1="42.1251" x2="48.6858" y2="55.244" gradientUnits="userSpaceOnUse">
<stop stop-color="#FD8D2A"/>
<stop offset="1" stop-color="#FD2549"/>
</linearGradient>
<linearGradient id="paint5_linear_215_4" x1="48.6836" y1="40.2501" x2="48.6836" y2="57.1173" gradientUnits="userSpaceOnUse">
<stop stop-color="#FD8D2A"/>
<stop offset="1" stop-color="#FD2549"/>
</linearGradient>
<linearGradient id="paint6_linear_215_4" x1="28.9948" y1="12.1251" x2="28.9948" y2="28.9922" gradientUnits="userSpaceOnUse">
<stop stop-color="#FD8D2A"/>
<stop offset="1" stop-color="#FD2549"/>
</linearGradient>
<linearGradient id="paint7_linear_215_4" x1="28.9974" y1="0.875066" x2="28.9974" y2="12.1198" gradientUnits="userSpaceOnUse">
<stop stop-color="#FD8D2A"/>
<stop offset="1" stop-color="#FD2549"/>
</linearGradient>
<linearGradient id="paint8_linear_215_4" x1="28.9904" y1="30.875" x2="28.9904" y2="38.3716" gradientUnits="userSpaceOnUse">
<stop stop-color="#FD8D2A"/>
<stop offset="1" stop-color="#FD2549"/>
</linearGradient>
</defs>
</svg>
