<svg width="26" height="26" viewBox="0 0 26 26" fill="none" xmlns="http://www.w3.org/2000/svg">
<path d="M20.3126 7.71873H13C12.7195 7.71873 12.4922 7.94608 12.4922 8.22655C12.4922 8.50701 12.7195 8.73436 13 8.73436H20.3126C20.593 8.73436 20.8204 8.50701 20.8204 8.22655C20.8204 7.94608 20.593 7.71873 20.3126 7.71873Z" fill="#FEFEFE"/>
<path d="M18.5353 10.3051C18.4408 10.2106 18.3098 10.1563 18.1763 10.1563C18.0427 10.1563 17.9117 10.2106 17.8172 10.3051C17.7228 10.3996 17.6685 10.5306 17.6685 10.6641C17.6685 10.7977 17.7228 10.9287 17.8172 11.0231C17.9117 11.1176 18.0427 11.1719 18.1763 11.1719C18.3098 11.1719 18.4408 11.1176 18.5353 11.0231C18.6297 10.9287 18.6841 10.7977 18.6841 10.6641C18.6841 10.5306 18.6297 10.3996 18.5353 10.3051Z" fill="#FEFEFE"/>
<path d="M13.3585 2.33245C13.2641 2.238 13.1331 2.18366 12.9995 2.18366C12.866 2.18366 12.7349 2.238 12.6405 2.33245C12.546 2.4269 12.4917 2.55792 12.4917 2.69147C12.4917 2.82503 12.546 2.95604 12.6405 3.05049C12.7349 3.14495 12.866 3.19928 12.9995 3.19928C13.1331 3.19928 13.2641 3.14495 13.3585 3.05049C13.453 2.95604 13.5073 2.82503 13.5073 2.69147C13.5073 2.55792 13.453 2.4269 13.3585 2.33245Z" fill="#FEFEFE"/>
<path d="M16.0406 10.1562H13C12.7195 10.1562 12.4922 10.3836 12.4922 10.664C12.4922 10.9445 12.7195 11.1719 13 11.1719H16.0406C16.3211 11.1719 16.5484 10.9445 16.5484 10.664C16.5484 10.3836 16.3211 10.1562 16.0406 10.1562Z" fill="#FEFEFE"/>
<path d="M20.3126 13.2031H13C12.7195 13.2031 12.4922 13.4304 12.4922 13.7109C12.4922 13.9914 12.7195 14.2187 13 14.2187H20.3126C20.593 14.2187 20.8204 13.9914 20.8204 13.7109C20.8204 13.4304 20.593 13.2031 20.3126 13.2031Z" fill="#FEFEFE"/>
<path d="M18.5353 15.7895C18.4408 15.695 18.3098 15.6407 18.1763 15.6407C18.0427 15.6407 17.9117 15.695 17.8172 15.7895C17.7228 15.8839 17.6685 16.0149 17.6685 16.1485C17.6685 16.282 17.7228 16.4131 17.8172 16.5075C17.9117 16.602 18.0427 16.6563 18.1763 16.6563C18.3098 16.6563 18.4408 16.602 18.5353 16.5075C18.6297 16.4131 18.6841 16.282 18.6841 16.1485C18.6841 16.0149 18.6297 15.8839 18.5353 15.7895Z" fill="#FEFEFE"/>
<path d="M16.0406 15.6406H13C12.7195 15.6406 12.4922 15.8679 12.4922 16.1484C12.4922 16.4289 12.7195 16.6562 13 16.6562H16.0406C16.3211 16.6562 16.5484 16.4289 16.5484 16.1484C16.5484 15.8679 16.3211 15.6406 16.0406 15.6406Z" fill="#FEFEFE"/>
<path d="M20.3126 18.6875H13C12.7195 18.6875 12.4922 18.9148 12.4922 19.1953C12.4922 19.4757 12.7195 19.7031 13 19.7031H20.3126C20.593 19.7031 20.8204 19.4757 20.8204 19.1953C20.8204 18.9148 20.593 18.6875 20.3126 18.6875Z" fill="#FEFEFE"/>
<path d="M18.5353 21.2738C18.4408 21.1794 18.3098 21.125 18.1763 21.125C18.0427 21.125 17.9117 21.1794 17.8172 21.2738C17.7228 21.3683 17.6685 21.4993 17.6685 21.6328C17.6685 21.7664 17.7228 21.8974 17.8172 21.9919C17.9117 22.0863 18.0427 22.1407 18.1763 22.1407C18.3098 22.1407 18.4408 22.0863 18.5353 21.9919C18.6297 21.8974 18.6841 21.7664 18.6841 21.6328C18.6841 21.4993 18.6297 21.3683 18.5353 21.2738Z" fill="#FEFEFE"/>
<path d="M16.0406 21.125H13C12.7195 21.125 12.4922 21.3523 12.4922 21.6328C12.4922 21.9132 12.7195 22.1406 13 22.1406H16.0406C16.3211 22.1406 16.5484 21.9132 16.5484 21.6328C16.5484 21.3523 16.3211 21.125 16.0406 21.125Z" fill="#FEFEFE"/>
<path d="M21.2896 1.98052H17.411C16.8503 1.44625 16.0924 1.11719 15.2586 1.11719H14.8138C14.4737 0.443929 13.775 0 12.9999 0C12.2249 0 11.5262 0.443929 11.1861 1.11719H10.7402C9.90639 1.11719 9.14853 1.44625 8.58786 1.98052H4.71036C3.34511 1.98052 2.23438 3.09125 2.23438 4.4565V23.524C2.23438 24.8893 3.34511 26 4.71036 26H21.2895C22.6548 26 23.7655 24.8893 23.7655 23.524V4.4565C23.7656 3.09125 22.6548 1.98052 21.2896 1.98052ZM10.7402 2.13281H11.5317C11.7601 2.13281 11.9604 1.98031 12.0212 1.76018C12.1423 1.32178 12.5448 1.01562 13 1.01562C13.4552 1.01562 13.8577 1.32178 13.9787 1.76018C14.0395 1.98031 14.2399 2.13281 14.4682 2.13281H15.2586C16.3608 2.13281 17.2681 2.98339 17.3586 4.06254H8.64021C8.73076 2.98339 9.63806 2.13281 10.7402 2.13281ZM22.75 23.5241C22.75 24.3293 22.0948 24.9844 21.2896 24.9844H4.71036C3.90513 24.9844 3.25 24.3293 3.25 23.5241V4.4565C3.25 3.65127 3.90513 2.99614 4.71036 2.99614H7.87642C7.71006 3.37761 7.61718 3.79818 7.61718 4.24028V4.57035C7.61718 4.85082 7.84452 5.07817 8.12499 5.07817H17.8739C18.1544 5.07817 18.3817 4.85082 18.3817 4.57035V4.24028C18.3817 3.79823 18.2888 3.37761 18.1225 2.99614H21.2896C22.0948 2.99614 22.75 3.65127 22.75 4.4565V23.5241Z" fill="#FEFEFE"/>
<path d="M9.77024 7.59655C9.57194 7.39825 9.25039 7.39825 9.05209 7.5965L6.88059 9.76806L6.21165 9.09907C6.01335 8.90082 5.6918 8.90082 5.49345 9.09907C5.29515 9.29737 5.29515 9.61892 5.49345 9.81727L6.52152 10.8453C6.62069 10.9445 6.75064 10.9941 6.88059 10.9941C7.01054 10.9941 7.14054 10.9445 7.23966 10.8453L9.77024 8.31475C9.96854 8.11645 9.96854 7.7949 9.77024 7.59655Z" fill="#FEFEFE"/>
<path d="M8.53125 18.6875H6.09375C5.81329 18.6875 5.58594 18.9148 5.58594 19.1953V21.6328C5.58594 21.9132 5.81329 22.1406 6.09375 22.1406H8.53125C8.81172 22.1406 9.03906 21.9132 9.03906 21.6328V19.1953C9.03906 18.9148 8.81172 18.6875 8.53125 18.6875ZM8.02344 21.125H6.60156V19.7031H8.02344V21.125Z" fill="#FEFEFE"/>
<path d="M8.53125 13.2031H6.09375C5.81329 13.2031 5.58594 13.4304 5.58594 13.7109V16.1484C5.58594 16.4289 5.81329 16.6562 6.09375 16.6562H8.53125C8.81172 16.6562 9.03906 16.4289 9.03906 16.1484V13.7109C9.03906 13.4304 8.81172 13.2031 8.53125 13.2031ZM8.02344 15.6406H6.60156V14.2187H8.02344V15.6406Z" fill="#FEFEFE"/>
</svg>
