<svg width="26" height="26" viewBox="0 0 26 26" fill="none" xmlns="http://www.w3.org/2000/svg">
<g clip-path="url(#clip0_31_8995)">
<path d="M24.0913 6.21753L25.3523 4.95673C25.5618 4.74706 25.6308 4.43483 25.5291 4.15652C25.4273 3.87802 25.1732 3.68402 24.8777 3.65903L22.5383 3.46165L22.341 1.12234C22.3162 0.826981 22.122 0.572876 21.8437 0.471115C21.5654 0.369156 21.2531 0.438187 21.0435 0.647858L19.7825 1.90866C17.7433 0.658371 15.4117 0 13 0C9.52763 0 6.26295 1.35225 3.8076 3.8076C1.35225 6.26295 0 9.52763 0 13C0 16.4724 1.35225 19.737 3.8076 22.1924C6.26295 24.6478 9.52763 26 13 26C16.4724 26 19.737 24.6478 22.1924 22.1924C24.6478 19.737 26 16.4724 26 13C26 10.5883 25.3416 8.25691 24.0913 6.21753ZM21.0742 4.23071C21.1056 4.60086 21.3991 4.89444 21.7693 4.92578L23.1152 5.03925L21.2934 6.86102L19.3066 6.69341L19.139 4.70659L20.9608 2.88481L21.0742 4.23071ZM15.5898 13C15.5898 14.428 14.428 15.5898 13 15.5898C11.572 15.5898 10.4102 14.428 10.4102 13C10.4102 11.572 11.572 10.4102 13 10.4102C13.4374 10.4102 13.8494 10.5195 14.211 10.7117L12.4614 12.4614C12.1639 12.7588 12.1639 13.241 12.4614 13.5386C12.61 13.6873 12.805 13.7617 13 13.7617C13.195 13.7617 13.39 13.6873 13.5386 13.5386L15.2883 11.789C15.4805 12.1506 15.5898 12.5626 15.5898 13ZM15.3183 9.6044C14.6577 9.15213 13.8593 8.88672 13 8.88672C10.7319 8.88672 8.88672 10.7319 8.88672 13C8.88672 15.2681 10.7319 17.1133 13 17.1133C15.2681 17.1133 17.1133 15.2681 17.1133 13C17.1133 12.1407 16.8479 11.3423 16.3956 10.6817L18.5705 8.50685C19.5641 9.73631 20.1602 11.2998 20.1602 13C20.1602 16.948 16.948 20.1602 13 20.1602C9.05196 20.1602 5.83984 16.948 5.83984 13C5.83984 9.05196 9.05196 5.83984 13 5.83984C14.7002 5.83984 16.2637 6.43593 17.4931 7.42953L15.3183 9.6044ZM21.1151 21.1151C18.9476 23.2828 16.0655 24.4766 13 24.4766C9.93448 24.4766 7.05244 23.2828 4.88492 21.1151C2.71719 18.9476 1.52344 16.0655 1.52344 13C1.52344 9.93448 2.71719 7.05244 4.88492 4.88492C7.05244 2.71719 9.93448 1.52344 13 1.52344C15.0055 1.52344 16.948 2.03859 18.6708 3.02029L17.8117 3.87941C17.6729 4.01826 17.5937 4.20433 17.5888 4.39853C17.5882 4.4263 17.589 4.45407 17.5911 4.48204L17.6937 5.69742C16.3395 4.82382 14.728 4.31641 13 4.31641C8.21188 4.31641 4.31641 8.21188 4.31641 13C4.31641 17.7881 8.21188 21.6836 13 21.6836C17.7881 21.6836 21.6836 17.7881 21.6836 13C21.6836 11.272 21.1762 9.66054 20.3026 8.3063L21.518 8.40886C21.5394 8.41045 21.5608 8.41144 21.582 8.41144C21.5856 8.41144 21.5894 8.41104 21.5929 8.41084C21.6031 8.41084 21.613 8.41005 21.6231 8.40945C21.6396 8.40846 21.6562 8.40747 21.6725 8.40549C21.6826 8.4041 21.6927 8.40251 21.7028 8.40092C21.7189 8.39835 21.7348 8.39537 21.7506 8.3918C21.7608 8.38942 21.7707 8.38684 21.7806 8.38426C21.7961 8.3801 21.8113 8.37534 21.8266 8.37018C21.8365 8.36681 21.8463 8.36343 21.856 8.35966C21.8708 8.35391 21.8855 8.34756 21.9002 8.34062C21.9095 8.33646 21.9189 8.33229 21.9282 8.32753C21.9429 8.31999 21.9571 8.31166 21.9712 8.30333C21.9798 8.29817 21.9883 8.29341 21.9966 8.28825C22.0117 8.27834 22.0262 8.26762 22.0406 8.25671C22.0474 8.25156 22.0543 8.24699 22.0609 8.24164C22.0815 8.22498 22.1015 8.20732 22.1206 8.18828L22.9797 7.32916C23.9614 9.05196 24.4766 10.9945 24.4766 13C24.4766 16.0655 23.2828 18.9476 21.1151 21.1151Z" fill="#FEFEFE"/>
</g>
<defs>
<clipPath id="clip0_31_8995">
<rect width="26" height="26" fill="white"/>
</clipPath>
</defs>
</svg>
