<svg width="42" height="42" viewBox="0 0 42 42" fill="none" xmlns="http://www.w3.org/2000/svg">
<g clip-path="url(#clip0_31_856)">
<path d="M42 7.00047C42 3.3222 38.6792 0 35 0H7C3.3208 0 0 3.3222 0 7.00047V34.9995C0 38.6778 3.3208 42 7.00047 42H21V26.1333H15.8667V19.1333H21V16.4061C21 11.7026 24.5317 7.46667 28.875 7.46667H34.5333V14.4667H28.875C28.2557 14.4667 27.5333 15.2185 27.5333 16.3445V19.1333H34.5333V26.1333H27.5333V42H35C38.6792 42 42 38.6778 42 34.9995V7.00047Z" fill="#161920"/>
</g>
<defs>
<clipPath id="clip0_31_856">
<rect width="42" height="42" fill="white"/>
</clipPath>
</defs>
</svg>
