<svg width="42" height="42" viewBox="0 0 42 42" fill="none" xmlns="http://www.w3.org/2000/svg">
<g clip-path="url(#clip0_31_859)">
<path d="M30.4091 0H11.5902C5.19935 0 0 5.1996 0 11.5904V30.4093C0 36.8004 5.19935 41.9997 11.5902 41.9997H30.4091C36.8004 41.9997 41.9997 36.8001 41.9997 30.4093V11.5904C42 5.1996 36.8004 0 30.4091 0ZM38.2736 30.4093C38.2736 34.7456 34.7456 38.2733 30.4093 38.2733H11.5902C7.2541 38.2736 3.72642 34.7456 3.72642 30.4093V11.5904C3.72642 7.25435 7.2541 3.72642 11.5902 3.72642H30.4091C34.7454 3.72642 38.2733 7.25435 38.2733 11.5904V30.4093H38.2736Z" fill="#161920"/>
<path d="M20.999 10.1777C15.0315 10.1777 10.1768 15.0325 10.1768 21C10.1768 26.9672 15.0315 31.8218 20.999 31.8218C26.9665 31.8218 31.8213 26.9672 31.8213 21C31.8213 15.0325 26.9665 10.1777 20.999 10.1777ZM20.999 28.0951C17.0865 28.0951 13.9032 24.9123 13.9032 20.9998C13.9032 17.087 17.0863 13.9039 20.999 13.9039C24.9118 13.9039 28.0949 17.087 28.0949 20.9998C28.0949 24.9123 24.9115 28.0951 20.999 28.0951Z" fill="#161920"/>
<path d="M32.2767 7.01855C31.5587 7.01855 30.8534 7.30922 30.3464 7.81849C29.8368 8.32529 29.5439 9.03082 29.5439 9.75126C29.5439 10.4695 29.8371 11.1748 30.3464 11.684C30.8532 12.1908 31.5587 12.484 32.2767 12.484C32.9971 12.484 33.7001 12.1908 34.2094 11.684C34.7187 11.1748 35.0094 10.4692 35.0094 9.75126C35.0094 9.03082 34.7187 8.32529 34.2094 7.81849C33.7026 7.30922 32.9971 7.01855 32.2767 7.01855Z" fill="#161920"/>
</g>
<defs>
<clipPath id="clip0_31_859">
<rect width="42" height="42" fill="white"/>
</clipPath>
</defs>
</svg>
