<svg width="42" height="42" viewBox="0 0 42 42" fill="none" xmlns="http://www.w3.org/2000/svg">
<g clip-path="url(#clip0_31_852)">
<path d="M37.8 0H4.2C1.89 0 0 1.89 0 4.2V37.8C0 40.11 1.89 42 4.2 42H37.8C40.11 42 42 40.11 42 37.8V4.2C42 1.89 40.11 0 37.8 0ZM12.6 35.7H6.3V16.8H12.6V35.7ZM9.45 13.23C7.35 13.23 5.67 11.55 5.67 9.45C5.67 7.35 7.35 5.67 9.45 5.67C11.55 5.67 13.23 7.35 13.23 9.45C13.23 11.55 11.55 13.23 9.45 13.23ZM35.7 35.7H29.4V24.57C29.4 22.8901 27.93 21.42 26.25 21.42C24.57 21.42 23.1 22.8901 23.1 24.57V35.7H16.8V16.8H23.1V19.32C24.15 17.64 26.46 16.38 28.35 16.38C32.34 16.38 35.7 19.74 35.7 23.73V35.7Z" fill="#161920"/>
</g>
<defs>
<clipPath id="clip0_31_852">
<rect width="42" height="42" fill="white"/>
</clipPath>
</defs>
</svg>
