<svg width="42" height="42" viewBox="0 0 42 42" fill="none" xmlns="http://www.w3.org/2000/svg">
<path fill-rule="evenodd" clip-rule="evenodd" d="M5 0C2.23858 0 0 2.23858 0 5V37C0 39.7614 2.23858 42 5 42H37C39.7614 42 42 39.7614 42 37V5C42 2.23858 39.7614 0 37 0H5ZM30.9746 18.4745C31.6355 17.8055 32.5334 17.376 33.5538 17.376C37.319 17.3787 38.5696 22.4955 35.1732 24.2643C35.3227 24.8108 35.3832 25.4193 35.3832 25.9995C35.3832 31.7893 28.9554 36.4807 21.0292 36.4807C13.1367 36.4807 6.70881 31.7893 6.70881 25.9995C6.70881 25.4193 6.764 24.8378 6.8865 24.2926C3.42015 22.5305 4.65996 17.376 8.44535 17.376C9.46573 17.376 10.3986 17.8055 11.0596 18.5028C13.4975 16.7945 16.739 15.6974 20.3413 15.5453L22.4117 6.03873C22.5005 5.6995 22.8277 5.45719 23.1615 5.54738L29.794 7.03892C30.245 6.16123 31.1496 5.51911 32.1982 5.51911C33.7032 5.51911 34.9 6.76969 34.9 8.26257C34.9 9.75546 33.6952 11.006 32.1969 11.006C30.7269 11.006 29.5288 9.78777 29.5288 8.29623L23.5236 6.92853L21.6377 15.552C25.2682 15.6691 28.5448 16.7676 30.9746 18.4745ZM15.09 21.9153C13.585 21.9153 12.3869 23.1389 12.3869 24.6587C12.3869 26.1516 13.5917 27.3753 15.09 27.3685C16.5613 27.3685 17.7594 26.1516 17.7594 24.6587C17.7594 23.1308 16.56 21.9153 15.09 21.9153ZM15.0267 31.1176C17.5063 33.6322 24.4996 33.6322 26.9779 31.1176C27.2498 30.8766 27.2498 30.4485 26.9711 30.1712C26.7328 29.9289 26.3102 29.9289 26.0719 30.1712C24.0971 32.1743 17.8186 32.1407 15.9259 30.1712C15.6877 29.9289 15.265 29.9289 15.0267 30.1712C14.7534 30.4472 14.7534 30.8753 15.0267 31.1176ZM24.2546 24.6668C24.2546 26.1583 25.4527 27.3739 26.9227 27.3739C28.4209 27.3739 29.619 26.1516 29.6257 24.6668C29.6257 23.1389 28.4209 21.9233 26.9227 21.9233C25.4527 21.9233 24.2546 23.147 24.2546 24.6668Z" fill="#161920"/>
</svg>
