<svg width="42" height="42" viewBox="0 0 42 42" fill="none" xmlns="http://www.w3.org/2000/svg">
<path d="M30.4091 0H11.5902C5.19935 0 0 5.1996 0 11.5904V30.4093C0 36.8004 5.19935 41.9997 11.5902 41.9997H30.4091C36.8004 41.9997 41.9997 36.8001 41.9997 30.4093V11.5904C42 5.1996 36.8004 0 30.4091 0ZM38.2736 30.4093C38.2736 34.7456 34.7456 38.2733 30.4093 38.2733H11.5902C7.2541 38.2736 3.72642 34.7456 3.72642 30.4093V11.5904C3.72642 7.25435 7.2541 3.72642 11.5902 3.72642H30.4091C34.7454 3.72642 38.2733 7.25435 38.2733 11.5904V30.4093H38.2736Z" fill="#161920"/>
<g clip-path="url(#clip0_68_320)">
<path d="M17.6686 24.1067L17.2251 30.3442C17.8596 30.3442 18.1344 30.0716 18.4639 29.7443L21.4385 26.9015L27.6023 31.4154C28.7327 32.0454 29.5291 31.7136 29.8341 30.3755L33.8799 11.4174L33.881 11.4162C34.2396 9.74518 33.2767 9.09172 32.1754 9.50167L8.39397 18.6065C6.77094 19.2365 6.79552 20.1413 8.11807 20.5512L14.198 22.4424L28.3205 13.6056C28.9851 13.1655 29.5894 13.409 29.0924 13.8491L17.6686 24.1067Z" fill="#161920"/>
</g>
<defs>
<clipPath id="clip0_68_320">
<rect width="26.8085" height="26.8085" fill="white" transform="translate(7.14941 7.14893)"/>
</clipPath>
</defs>
</svg>
