<svg width="42" height="42" viewBox="0 0 42 42" fill="none" xmlns="http://www.w3.org/2000/svg">
<path d="M30.4091 0H11.5902C5.19935 0 0 5.1996 0 11.5904V30.4093C0 36.8004 5.19935 41.9997 11.5902 41.9997H30.4091C36.8004 41.9997 41.9997 36.8001 41.9997 30.4093V11.5904C42 5.1996 36.8004 0 30.4091 0ZM38.2736 30.4093C38.2736 34.7456 34.7456 38.2733 30.4093 38.2733H11.5902C7.2541 38.2736 3.72642 34.7456 3.72642 30.4093V11.5904C3.72642 7.25435 7.2541 3.72642 11.5902 3.72642H30.4091C34.7454 3.72642 38.2733 7.25435 38.2733 11.5904V30.4093H38.2736Z" fill="#161920"/>
<g clip-path="url(#clip0_68_324)">
<path d="M33.9233 12.9861C32.9621 13.4077 31.938 13.6872 30.8702 13.8228C31.9687 13.167 32.8071 12.1364 33.2012 10.8942C32.1771 11.5048 31.0463 11.9361 29.8412 12.1768C28.8688 11.1413 27.4828 10.5 25.9708 10.5C23.0372 10.5 20.6755 12.8811 20.6755 15.8001C20.6755 16.2201 20.7111 16.6239 20.7983 17.0084C16.3931 16.7935 12.4952 14.6822 9.87669 11.466C9.41953 12.2592 9.15138 13.167 9.15138 14.1443C9.15138 15.9794 10.0964 17.6061 11.505 18.5478C10.6537 18.5317 9.81853 18.2845 9.11099 17.8952C9.11099 17.9114 9.11099 17.9324 9.11099 17.9534C9.11099 20.5283 10.9477 22.6671 13.3562 23.1598C12.9249 23.2777 12.4548 23.3342 11.967 23.3342C11.6278 23.3342 11.2853 23.3148 10.9638 23.2438C11.6504 25.3422 13.5985 26.8848 15.915 26.9349C14.1122 28.3452 11.8232 29.1948 9.34523 29.1948C8.91069 29.1948 8.49392 29.1755 8.07715 29.1222C10.4243 30.6358 13.206 31.5 16.2058 31.5C25.9562 31.5 31.287 23.4231 31.287 16.422C31.287 16.1878 31.2789 15.9616 31.2676 15.7371C32.3192 14.9908 33.2028 14.0587 33.9233 12.9861Z" fill="#161920"/>
</g>
<defs>
<clipPath id="clip0_68_324">
<rect width="25.8462" height="25.8462" fill="white" transform="translate(8.07715 8.07715)"/>
</clipPath>
</defs>
</svg>
