<svg width="42" height="42" viewBox="0 0 42 42" fill="none" xmlns="http://www.w3.org/2000/svg">
<path d="M25.2938 24.8283C24.6376 24.8283 24.0177 25.1927 23.4345 25.9218V21.519H21.6025V34.9998H23.4345V34.015C24.0358 34.7628 24.6553 35.1364 25.2938 35.1364C26.0411 35.1364 26.5239 34.7539 26.7428 33.988C26.8702 33.6046 26.9343 32.94 26.9343 31.9916V27.9992C26.9343 27.0334 26.8701 26.3587 26.7428 25.9762C26.5239 25.2103 26.0411 24.8283 25.2938 24.8283ZM25.1297 32.1286C25.1297 33.0227 24.8653 33.468 24.3365 33.468C24.0265 33.468 23.7258 33.3225 23.4345 33.0312V26.9057C23.7258 26.6151 24.0265 26.4687 24.3365 26.4687C24.8649 26.4687 25.1297 26.9247 25.1297 27.836V32.1286Z" fill="#161920"/>
<path d="M31.0889 24.8281C30.1595 24.8281 29.4298 25.1753 28.9015 25.8674C28.5367 26.3586 28.3545 27.1439 28.3545 28.2184V31.7466C28.3545 32.822 28.5459 33.605 28.9289 34.0976C29.4572 34.791 30.1957 35.1367 31.1438 35.1367C32.11 35.1367 32.839 34.7725 33.3312 34.0428C33.5501 33.7148 33.6868 33.3508 33.7416 32.9489C33.7778 32.6947 33.7959 32.3015 33.7959 31.7726V31.5269H31.9366C31.9366 31.7276 31.9366 31.9232 31.9366 32.1142C31.9366 32.3052 31.9319 32.4558 31.9231 32.5659C31.9138 32.6747 31.9096 32.7388 31.9096 32.757C31.8004 33.2314 31.5267 33.4671 31.0894 33.4671C30.4694 33.4671 30.1599 33.0023 30.1599 32.0734V30.2958H33.7964V28.2181C33.7964 27.1617 33.605 26.3777 33.2224 25.8669C32.7299 25.1753 32.0188 24.8281 31.0889 24.8281ZM31.964 28.7928H30.1594V27.8623C30.1594 26.933 30.4601 26.4686 31.0615 26.4686C31.6633 26.4686 31.964 26.9334 31.964 27.8623V28.7928Z" fill="#161920"/>
<path d="M18.2114 32.6209C17.8104 33.1859 17.4275 33.468 17.0631 33.468C16.8075 33.468 16.6708 33.3314 16.6532 33.0577C16.6346 33.0223 16.6258 32.7844 16.6258 32.3475V24.9648H14.8213V32.8945C14.8213 33.5878 14.8761 34.0791 14.9853 34.3705C15.1494 34.8822 15.5323 35.1364 16.1337 35.1364C16.808 35.1364 17.5009 34.726 18.212 33.9059V34.9998H20.0439V24.9649H18.212V32.6209H18.2114Z" fill="#161920"/>
<path d="M20.5909 14.6566C21.1742 14.6566 21.466 14.191 21.466 13.2615V8.99532C21.466 8.04772 21.1742 7.57373 20.5909 7.57373C20.0072 7.57373 19.7158 8.04772 19.7158 8.99532V13.2615C19.7158 14.1909 20.0072 14.6566 20.5909 14.6566Z" fill="#161920"/>
<path d="M8.20312 23.4333H10.3358V34.9998H12.3592V23.4333H14.5466V21.519H8.20312V23.4333Z" fill="#161920"/>
<path d="M34.1252 0H7.87526C5.70593 0 3.85121 0.770972 2.31064 2.31011C0.77006 3.85167 0 5.70593 0 7.87518V34.1247C0 36.2939 0.77006 38.1492 2.31064 39.6884C3.85076 41.2284 5.70548 41.9999 7.87526 41.9999H34.1252C36.2941 41.9999 38.1487 41.2289 39.6893 39.6884C41.2293 38.1492 41.9999 36.294 41.9999 34.1247V7.87518C41.9999 5.70586 41.2294 3.85159 39.6893 2.31011C38.1488 0.770972 36.2941 0 34.1252 0ZM24.8009 6.0702H26.6329V13.5072C26.6329 13.9449 26.6421 14.1824 26.6603 14.2187C26.6784 14.5114 26.8243 14.6564 27.0976 14.6564C27.4619 14.6564 27.8449 14.3743 28.2459 13.8083V6.0702H30.0778V16.1872H28.2459V15.0933C27.4982 15.9135 26.7964 16.3239 26.1403 16.3239C25.5566 16.3239 25.1648 16.0781 24.9646 15.5859C24.8554 15.2578 24.8006 14.7568 24.8006 14.0821V6.0702H24.8009ZM17.8826 9.35121C17.8826 8.29488 18.0741 7.50112 18.457 6.97276C18.9491 6.28077 19.6602 5.93359 20.5896 5.93359C21.4823 5.93359 22.1934 6.28077 22.7222 6.97276C23.1052 7.50158 23.2962 8.29488 23.2962 9.35121V12.9059C23.2962 13.9994 23.1048 14.7932 22.7222 15.2843C22.1933 15.9777 21.4823 16.3235 20.5896 16.3235C19.6602 16.3235 18.9491 15.9773 18.457 15.2843C18.0741 14.7569 17.8826 13.9641 17.8826 12.9059V9.35121ZM12.9612 2.59782L14.4106 7.92963L15.8048 2.59782H17.8557L15.3949 10.6919V16.1873H13.3715V10.6919C13.1708 9.68905 12.7516 8.24931 12.1136 6.37143C11.9858 5.95272 11.7757 5.32345 11.4843 4.48421C11.1925 3.6468 10.9736 3.01752 10.8281 2.5979H12.9612V2.59782ZM35.4924 35.6011C35.3098 36.3861 34.9221 37.0507 34.3301 37.5976C33.7375 38.1446 33.0493 38.4638 32.2658 38.5544C29.7683 38.8278 26.0129 38.9648 21.0004 38.9648C15.9869 38.9648 12.232 38.8282 9.73499 38.5544C8.95096 38.4638 8.26275 38.1442 7.67069 37.5976C7.07816 37.0507 6.69059 36.3866 6.50888 35.6011C6.14408 34.0704 5.96191 31.7002 5.96191 28.4918C5.96191 25.3387 6.14408 22.9685 6.50888 21.3825C6.69104 20.5813 7.07862 19.9116 7.67069 19.3734C8.26275 18.8352 8.9603 18.5211 9.7624 18.4291C12.2412 18.1558 15.9874 18.0187 21.0008 18.0187C26.0319 18.0187 29.7869 18.1553 32.2662 18.4291C33.0502 18.5211 33.7431 18.8348 34.3444 19.3734C34.9463 19.9115 35.338 20.5812 35.5202 21.3825C35.8664 22.896 36.0398 25.2653 36.0398 28.4918C36.039 31.7002 35.8568 34.0704 35.4924 35.6011Z" fill="#161920"/>
</svg>
