<svg xmlns="http://www.w3.org/2000/svg" display="none">
    <symbol id="instagram">
        <g clip-path="url(#clip0_31_817)">
            <path d="M18.8247 0H7.17486C3.21865 0 0 3.2188 0 7.17502V18.8248C0 22.7812 3.21865 25.9998 7.17486 25.9998H18.8247C22.7812 25.9998 25.9998 22.781 25.9998 18.8248V7.17502C26 3.2188 22.7812 0 18.8247 0ZM23.6932 18.8248C23.6932 21.5092 21.5092 23.693 18.8248 23.693H7.17486C4.49063 23.6932 2.30683 21.5092 2.30683 18.8248V7.17502C2.30683 4.49079 4.49063 2.30683 7.17486 2.30683H18.8247C21.5091 2.30683 23.693 4.49079 23.693 7.17502V18.8248H23.6932Z" fill="#FEFEFE"/>
            <path d="M12.9993 6.30054C9.30515 6.30054 6.2998 9.30588 6.2998 13C6.2998 16.694 9.30515 19.6992 12.9993 19.6992C16.6935 19.6992 19.6988 16.694 19.6988 13C19.6988 9.30588 16.6935 6.30054 12.9993 6.30054ZM12.9993 17.3922C10.5773 17.3922 8.60664 15.4219 8.60664 12.9999C8.60664 10.5777 10.5771 8.60722 12.9993 8.60722C15.4215 8.60722 17.392 10.5777 17.392 12.9999C17.392 15.4219 15.4213 17.3922 12.9993 17.3922Z" fill="#FEFEFE"/>
            <path d="M19.9807 4.34473C19.5363 4.34473 19.0997 4.52466 18.7858 4.83993C18.4704 5.15366 18.2891 5.59042 18.2891 6.0364C18.2891 6.48101 18.4705 6.91761 18.7858 7.23288C19.0995 7.54661 19.5363 7.72808 19.9807 7.72808C20.4267 7.72808 20.8619 7.54661 21.1772 7.23288C21.4925 6.91761 21.6724 6.48085 21.6724 6.0364C21.6724 5.59042 21.4925 5.15366 21.1772 4.83993C20.8635 4.52466 20.4267 4.34473 19.9807 4.34473Z" fill="#FEFEFE"/>
        </g>
    </symbol>
    <symbol id="facebook">
        <g clip-path="url(#clip0_31_814)">
            <path d="M26 4.33362C26 2.0566 23.9443 0 21.6667 0H4.33333C2.05573 0 0 2.0566 0 4.33362V21.6664C0 23.9434 2.05573 26 4.33362 26H13V16.1778H9.82222V11.8444H13V10.1562C13 7.24447 15.1863 4.62222 17.875 4.62222H21.3778V8.95556H17.875C17.4916 8.95556 17.0444 9.42096 17.0444 10.118V11.8444H21.3778V16.1778H17.0444V26H21.6667C23.9443 26 26 23.9434 26 21.6664V4.33362Z" fill="#FEFEFE"/>
        </g>
    </symbol>
    <symbol id="linkedin">
        <g clip-path="url(#clip0_31_810)">
            <path d="M23.4 0H2.6C1.17 0 0 1.17 0 2.6V23.4C0 24.83 1.17 26 2.6 26H23.4C24.83 26 26 24.83 26 23.4V2.6C26 1.17 24.83 0 23.4 0ZM7.8 22.1H3.9V10.4H7.8V22.1ZM5.85 8.19C4.55 8.19 3.51 7.15 3.51 5.85C3.51 4.55 4.55 3.51 5.85 3.51C7.15 3.51 8.19 4.55 8.19 5.85C8.19 7.15 7.15 8.19 5.85 8.19ZM22.1 22.1H18.2V15.21C18.2 14.1701 17.29 13.26 16.25 13.26C15.21 13.26 14.3 14.1701 14.3 15.21V22.1H10.4V10.4H14.3V11.96C14.95 10.92 16.38 10.14 17.55 10.14C20.02 10.14 22.1 12.22 22.1 14.69V22.1Z" fill="#FEFEFE"/>
        </g>
    </symbol>
    <symbol id="telegram">
        <g clip-path="url(#clip0_31_825)">
            <path d="M6.93766 10.923L6.66314 14.7843C7.0559 14.7843 7.22601 14.6156 7.43 14.413L9.27144 12.6531L13.0871 15.4474C13.7869 15.8374 14.2799 15.6321 14.4687 14.8037L16.9732 3.06771L16.9739 3.06702C17.1959 2.03255 16.5998 1.62803 15.918 1.88181L1.19622 7.51814C0.191489 7.90814 0.206702 8.46824 1.02543 8.72202L4.7892 9.89271L13.5317 4.42234C13.9431 4.14989 14.3172 4.30064 14.0095 4.57308L6.93766 10.923Z" fill="#FEFEFE"/>
        </g>
    </symbol>
    <symbol id="">
    
    </symbol>
    <symbol id="">
    
    </symbol>
    <symbol id="">
    
    </symbol>
</svg>